M48
; DRILL file {KiCad (5.1.2-1)-1} date 2019年11月28日 木曜日 20:59:28
; FORMAT={-:-/ absolute / inch / decimal}
; #@! TF.CreationDate,2019-11-28T20:59:28+09:00
; #@! TF.GenerationSoftware,Kicad,Pcbnew,(5.1.2-1)-1
; #@! TF.FileFunction,Plated,1,2,PTH
FMAT,2
INCH
T1C0.0157
T2C0.0315
T3C0.0433
T4C0.0472
%
G90
G05
T1
X3.4398Y-2.9986
X3.4398Y-3.1955
X3.4398Y-4.2191
X3.4398Y-4.4947
X3.4398Y-4.6915
X3.4398Y-5.7152
X3.4594Y-3.412
X3.4594Y-3.4514
X3.4594Y-4.1404
X3.4594Y-4.9081
X3.4594Y-4.9474
X3.4594Y-5.6364
X3.5382Y-3.8451
X3.5382Y-5.3411
X3.5972Y-2.9986
X3.5972Y-3.3923
X3.5972Y-4.4947
X3.5972Y-4.8884
X3.6563Y-3.4711
X3.6563Y-4.9671
X3.676Y-3.2545
X3.676Y-4.7506
X3.735Y-3.7073
X3.735Y-4.0813
X3.735Y-4.2585
X3.735Y-5.2033
X3.735Y-5.5774
X3.735Y-5.7545
X3.9713Y-2.9199
X3.9713Y-4.0813
X3.9713Y-4.2781
X3.9713Y-4.4159
X3.9713Y-5.5774
X3.9713Y-5.7742
X4.0697Y-3.3726
X4.0697Y-4.8687
X4.0894Y-3.1758
X4.0894Y-4.6719
X4.1091Y-4.2781
X4.1091Y-5.7742
X4.1681Y-3.8451
X4.1681Y-5.3411
X4.2862Y-3.7663
X4.2862Y-4.0616
X4.2862Y-5.2624
X4.2862Y-5.5577
X4.3453Y-3.1167
X4.3453Y-4.6128
X4.365Y-4.0813
X4.365Y-5.5774
X4.4043Y-3.2152
X4.4043Y-4.7112
X4.424Y-3.3333
X4.424Y-3.7663
X4.424Y-4.8293
X4.424Y-5.2624
X4.4634Y-4.2585
X4.4634Y-5.7545
X4.4831Y-3.1364
X4.4831Y-4.6325
X4.5028Y-3.3726
X4.5028Y-4.8687
X4.5045Y-3.5355
X4.5045Y-5.0316
X4.5468Y-4.0662
X4.5468Y-5.5623
X4.6012Y-3.8451
X4.6012Y-5.3411
X4.6799Y-3.8451
X4.6799Y-5.3411
X4.6969Y-3.1588
X4.6969Y-3.3951
X4.6969Y-4.6549
X4.6969Y-4.8911
X4.798Y-4.1404
X4.798Y-4.2585
X4.798Y-5.6364
X4.798Y-5.7545
X4.8177Y-3.786
X4.8177Y-5.2821
X4.8374Y-3.1955
X4.8374Y-4.6915
X4.9358Y-2.9986
X4.9358Y-3.1955
X4.9358Y-4.2191
X4.9358Y-4.4947
X4.9358Y-4.6915
X4.9358Y-5.7152
X4.9555Y-3.412
X4.9555Y-3.4514
X4.9555Y-4.1404
X4.9555Y-4.9081
X4.9555Y-4.9474
X4.9555Y-5.6364
X5.0343Y-3.8451
X5.0343Y-5.3411
X5.0933Y-2.9986
X5.0933Y-3.3923
X5.0933Y-4.4947
X5.0933Y-4.8884
X5.1524Y-3.4711
X5.1524Y-4.9671
X5.172Y-3.2545
X5.172Y-4.7506
X5.2311Y-3.7073
X5.2311Y-4.0813
X5.2311Y-4.2585
X5.2311Y-5.2033
X5.2311Y-5.5774
X5.2311Y-5.7545
X5.4673Y-2.9199
X5.4673Y-4.0813
X5.4673Y-4.2781
X5.4673Y-4.4159
X5.4673Y-5.5774
X5.4673Y-5.7742
X5.5657Y-3.3726
X5.5657Y-4.8687
X5.5854Y-3.1758
X5.5854Y-4.6719
X5.6051Y-4.2781
X5.6051Y-5.7742
X5.6642Y-3.8451
X5.6642Y-5.3411
X5.7823Y-3.7663
X5.7823Y-4.0616
X5.7823Y-5.2624
X5.7823Y-5.5577
X5.8413Y-3.1167
X5.8413Y-4.6128
X5.861Y-4.0813
X5.861Y-5.5774
X5.9004Y-3.2152
X5.9004Y-4.7112
X5.9201Y-3.3333
X5.9201Y-3.7663
X5.9201Y-4.8293
X5.9201Y-5.2624
X5.9594Y-4.2585
X5.9594Y-5.7545
X5.9791Y-3.1364
X5.9791Y-4.6325
X5.9988Y-3.3726
X5.9988Y-4.8687
X6.0006Y-3.5355
X6.0006Y-5.0316
X6.0428Y-4.0662
X6.0428Y-5.5623
X6.0972Y-3.8451
X6.0972Y-5.3411
X6.176Y-3.8451
X6.176Y-5.3411
X6.1929Y-3.1588
X6.1929Y-3.3951
X6.1929Y-4.6549
X6.1929Y-4.8911
X6.2941Y-4.1404
X6.2941Y-4.2585
X6.2941Y-5.6364
X6.2941Y-5.7545
X6.3138Y-3.786
X6.3138Y-5.2821
X6.3335Y-3.1955
X6.3335Y-4.6915
T2
X5.5711Y-3.575
X5.5711Y-3.975
X6.0211Y-3.075
X6.0211Y-3.475
X3.825Y-3.0766
X3.825Y-3.175
X6.0711Y-4.175
X6.1695Y-4.175
X6.1461Y-3.575
X6.1461Y-3.975
X5.4211Y-4.8226
X5.4211Y-4.9211
X3.95Y-3.575
X3.95Y-3.975
X6.2711Y-3.075
X6.2711Y-3.475
X5.3211Y-3.0766
X5.3211Y-3.175
X4.65Y-3.575
X4.65Y-3.975
X6.2711Y-5.0711
X6.2711Y-5.4711
X5.1961Y-3.575
X5.1961Y-3.975
X5.0711Y-5.1961
X5.0711Y-5.4961
X4.775Y-3.075
X4.775Y-3.475
X4.4Y-4.5711
X4.4Y-4.9711
X6.1461Y-4.5711
X6.1461Y-4.9711
X4.9711Y-5.1961
X4.9711Y-5.4961
X4.4Y-3.075
X4.4Y-3.475
X3.975Y-3.0766
X3.975Y-3.175
X3.825Y-4.5726
X3.825Y-4.6711
X5.3211Y-4.5726
X5.3211Y-4.6711
X5.0711Y-4.7961
X5.0711Y-5.0961
X5.3211Y-3.575
X5.3211Y-3.975
X3.7Y-3.575
X3.7Y-3.975
X6.2711Y-3.575
X6.2711Y-3.975
X3.475Y-3.3
X3.475Y-3.6
X4.075Y-5.0711
X4.075Y-5.4711
X4.525Y-4.5711
X4.525Y-4.9711
X5.4461Y-5.0711
X5.4461Y-5.4711
X5.6961Y-5.1461
X5.6961Y-5.4461
X5.7961Y-5.1461
X5.7961Y-5.4461
X5.8961Y-5.1461
X5.8961Y-5.4461
X5.9961Y-5.1461
X5.9961Y-5.4461
X5.2461Y-3.3266
X5.2461Y-3.425
X5.0461Y-5.6711
X5.1445Y-5.6711
X4.575Y-4.175
X4.6734Y-4.175
X4.65Y-5.0711
X4.65Y-5.4711
X4.65Y-3.075
X4.65Y-3.475
X4.775Y-4.5711
X4.775Y-4.9711
X5.2961Y-5.6711
X5.3945Y-5.6711
X6.1461Y-3.075
X6.1461Y-3.475
X3.75Y-4.8226
X3.75Y-4.9211
X4.9711Y-3.3
X4.9711Y-3.6
X5.2461Y-4.8226
X5.2461Y-4.9211
X5.4711Y-3.0766
X5.4711Y-3.175
X3.7Y-5.0711
X3.7Y-5.4711
X5.4711Y-4.5726
X5.4711Y-4.6711
X4.275Y-4.5711
X4.275Y-4.9711
X4.075Y-3.575
X4.075Y-3.975
X3.55Y-5.6711
X3.6484Y-5.6711
X5.8961Y-4.5711
X5.8961Y-4.9711
X3.975Y-4.5726
X3.975Y-4.6711
X4.525Y-3.075
X4.525Y-3.475
X5.4461Y-3.575
X5.4461Y-3.975
X5.0711Y-3.7
X5.0711Y-4.0
X3.8Y-5.6711
X3.8984Y-5.6711
X4.2Y-3.65
X4.2Y-3.95
X4.3Y-3.65
X4.3Y-3.95
X4.4Y-3.65
X4.4Y-3.95
X4.5Y-3.65
X4.5Y-3.95
X4.9711Y-4.7961
X4.9711Y-5.0961
X4.9711Y-3.7
X4.9711Y-4.0
X3.575Y-3.7
X3.575Y-4.0
X6.0711Y-5.6711
X6.1695Y-5.6711
X4.2Y-5.1461
X4.2Y-5.4461
X4.3Y-5.1461
X4.3Y-5.4461
X4.4Y-5.1461
X4.4Y-5.4461
X4.5Y-5.1461
X4.5Y-5.4461
X3.825Y-5.0711
X3.825Y-5.4711
X3.825Y-3.575
X3.825Y-3.975
X3.8Y-4.175
X3.8984Y-4.175
X5.5711Y-5.0711
X5.5711Y-5.4711
X5.0711Y-3.3
X5.0711Y-3.6
X4.775Y-5.0711
X4.775Y-5.4711
X6.0211Y-4.5711
X6.0211Y-4.9711
X4.775Y-3.575
X4.775Y-3.975
X5.6961Y-3.65
X5.6961Y-3.95
X5.7961Y-3.65
X5.7961Y-3.95
X5.8961Y-3.65
X5.8961Y-3.95
X5.9961Y-3.65
X5.9961Y-3.95
X5.8961Y-3.075
X5.8961Y-3.475
X5.7711Y-3.075
X5.7711Y-3.475
X5.1961Y-5.0711
X5.1961Y-5.4711
X3.55Y-4.175
X3.6484Y-4.175
X5.0461Y-4.175
X5.1445Y-4.175
X5.4211Y-3.3266
X5.4211Y-3.425
X3.475Y-4.7961
X3.475Y-5.0961
X5.2961Y-4.175
X5.3945Y-4.175
X6.1461Y-5.0711
X6.1461Y-5.4711
X3.575Y-5.1961
X3.575Y-5.4961
X6.2711Y-4.5711
X6.2711Y-4.9711
X4.65Y-4.5711
X4.65Y-4.9711
X3.475Y-5.1961
X3.475Y-5.4961
X3.925Y-3.3266
X3.925Y-3.425
X3.75Y-3.3266
X3.75Y-3.425
X3.925Y-4.8226
X3.925Y-4.9211
X5.3211Y-5.0711
X5.3211Y-5.4711
X3.95Y-5.0711
X3.95Y-5.4711
X3.575Y-4.7961
X3.575Y-5.0961
X4.275Y-3.075
X4.275Y-3.475
X4.575Y-5.6711
X4.6734Y-5.6711
X5.7711Y-4.5711
X5.7711Y-4.9711
X3.475Y-3.7
X3.475Y-4.0
X3.575Y-3.3
X3.575Y-3.6
T3
X5.6461Y-3.075
X5.6461Y-3.475
X4.15Y-4.5711
X4.15Y-4.9711
X4.15Y-3.075
X4.15Y-3.475
X5.6461Y-4.5711
X5.6461Y-4.9711
T4
X5.1461Y-4.4211
X3.5Y-2.925
X5.1711Y-3.1
X4.3Y-4.4211
X5.8461Y-5.6711
X5.5461Y-4.175
X4.6Y-4.4211
X3.675Y-4.5961
X6.0961Y-4.4211
X4.9961Y-4.4211
X4.45Y-2.925
X4.05Y-4.175
X5.6961Y-4.175
X4.45Y-4.4211
X3.675Y-3.1
X5.7961Y-4.4211
X5.0211Y-3.1
X4.05Y-5.6711
X5.6461Y-2.925
X5.1711Y-4.5961
X6.2461Y-2.925
X3.8Y-4.4211
X5.1461Y-2.925
X3.8Y-2.925
X4.2Y-4.175
X5.8461Y-4.175
X4.2Y-5.6711
X5.9461Y-4.4211
X5.2961Y-2.925
X3.525Y-3.1
X3.525Y-4.5961
X5.5461Y-5.6711
X4.15Y-4.4211
X4.9961Y-2.925
X4.75Y-2.925
X4.75Y-4.4211
X5.2961Y-4.4211
X3.65Y-4.4211
X3.65Y-2.925
X4.15Y-2.925
X4.35Y-5.6711
X5.6961Y-5.6711
X6.0961Y-2.925
X4.35Y-4.175
X5.0211Y-4.5961
X5.7961Y-2.925
X5.6461Y-4.4211
X3.5Y-4.4211
X4.6Y-2.925
X4.3Y-2.925
X6.2461Y-4.4211
X5.9461Y-2.925
T0
M30
