M48
; DRILL file {KiCad (5.1.5-0-10_14)} date 2021 May 05, Wednesday 16:14:23
; FORMAT={-:-/ absolute / inch / decimal}
; #@! TF.CreationDate,2021-05-05T16:14:23+09:00
; #@! TF.GenerationSoftware,Kicad,Pcbnew,(5.1.5-0-10_14)
FMAT,2
INCH
T1C0.0157
T2C0.0315
T3C0.0433
T4C0.0472
%
G90
G05
T1
X4.4094Y-4.626
X4.4094Y-4.7835
X4.4094Y-6.122
X4.4094Y-6.2795
X4.685Y-4.6063
X4.685Y-6.1024
X4.7638Y-4.8031
X4.7638Y-6.2992
X4.7835Y-4.4094
X4.7835Y-5.9055
X4.9016Y-3.4449
X4.9016Y-4.6063
X4.9016Y-4.9409
X4.9016Y-6.1024
X4.9213Y-4.3307
X4.9213Y-5.8268
X5.0197Y-4.2323
X5.0197Y-5.7283
X5.0591Y-3.7008
X5.0591Y-5.1969
X5.0787Y-3.8583
X5.0787Y-4.626
X5.0787Y-5.3543
X5.0787Y-6.122
X5.2362Y-4.5866
X5.2362Y-6.0827
X5.2559Y-4.311
X5.2559Y-5.8071
X5.2875Y-3.6416
X5.2875Y-5.1377
X5.315Y-3.8189
X5.315Y-4.063
X5.315Y-4.6063
X5.315Y-5.315
X5.315Y-5.5591
X5.315Y-6.1024
X5.374Y-4.311
X5.374Y-5.8071
X5.4331Y-3.6614
X5.4331Y-3.878
X5.4331Y-5.1575
X5.4331Y-5.374
X5.4488Y-4.063
X5.4488Y-5.5591
X5.4967Y-4.5912
X5.4967Y-6.0873
X5.5709Y-4.3504
X5.5709Y-5.8465
X5.7087Y-4.3307
X5.7087Y-5.8268
X5.7283Y-4.626
X5.7283Y-4.7835
X5.7283Y-6.122
X5.7283Y-6.2795
X5.9055Y-4.626
X5.9055Y-4.7835
X5.9055Y-6.122
X5.9055Y-6.2795
X6.1811Y-4.6063
X6.1811Y-6.1024
X6.2598Y-4.8031
X6.2598Y-6.2992
X6.2795Y-4.4094
X6.2795Y-5.9055
X6.3976Y-3.4449
X6.3976Y-4.6063
X6.3976Y-4.9409
X6.3976Y-6.1024
X6.4173Y-4.3307
X6.4173Y-5.8268
X6.5157Y-4.2323
X6.5157Y-5.7283
X6.5551Y-3.7008
X6.5551Y-5.1969
X6.5748Y-3.8583
X6.5748Y-4.626
X6.5748Y-5.3543
X6.5748Y-6.122
X6.7323Y-4.5866
X6.7323Y-6.0827
X6.752Y-4.311
X6.752Y-5.8071
X6.7836Y-3.6416
X6.7836Y-5.1377
X6.811Y-3.8189
X6.811Y-4.063
X6.811Y-4.6063
X6.811Y-5.315
X6.811Y-5.5591
X6.811Y-6.1024
X6.8701Y-4.311
X6.8701Y-5.8071
X6.9291Y-3.6614
X6.9291Y-3.878
X6.9291Y-5.1575
X6.9291Y-5.374
X6.9449Y-4.063
X6.9449Y-5.5591
X6.9928Y-4.5912
X6.9928Y-6.0873
X7.0669Y-4.3504
X7.0669Y-5.8465
X7.2047Y-4.3307
X7.2047Y-5.8268
X7.2244Y-4.626
X7.2244Y-4.7835
X7.2244Y-6.122
X7.2244Y-6.2795
T2
X6.1961Y-5.3476
X6.1961Y-5.4461
X7.2211Y-3.6
X7.2211Y-4.0
X6.1961Y-3.8516
X6.1961Y-3.95
X5.725Y-4.1
X5.725Y-4.5
X5.9961Y-6.1961
X6.0945Y-6.1961
X6.6461Y-4.175
X6.6461Y-4.475
X6.7461Y-4.175
X6.7461Y-4.475
X6.8461Y-4.175
X6.8461Y-4.475
X6.9461Y-4.175
X6.9461Y-4.475
X5.475Y-5.0961
X5.475Y-5.4961
X4.425Y-5.3211
X4.425Y-5.6211
X5.9211Y-4.225
X5.9211Y-4.525
X6.8461Y-5.0961
X6.8461Y-5.4961
X6.5211Y-5.5961
X6.5211Y-5.9961
X4.425Y-4.225
X4.425Y-4.525
X4.775Y-4.1
X4.775Y-4.5
X6.2711Y-3.6016
X6.2711Y-3.7
X5.6Y-5.0961
X5.6Y-5.4961
X5.9211Y-5.3211
X5.9211Y-5.6211
X5.15Y-5.6711
X5.15Y-5.9711
X5.25Y-5.6711
X5.25Y-5.9711
X5.35Y-5.6711
X5.35Y-5.9711
X5.45Y-5.6711
X5.45Y-5.9711
X6.1461Y-5.5961
X6.1461Y-5.9961
X4.425Y-5.7211
X4.425Y-6.0211
X4.7Y-3.8516
X4.7Y-3.95
X5.725Y-5.0961
X5.725Y-5.4961
X5.725Y-3.6
X5.725Y-4.0
X6.6461Y-5.6711
X6.6461Y-5.9711
X6.7461Y-5.6711
X6.7461Y-5.9711
X6.8461Y-5.6711
X6.8461Y-5.9711
X6.9461Y-5.6711
X6.9461Y-5.9711
X6.9711Y-5.0961
X6.9711Y-5.4961
X6.0211Y-3.825
X6.0211Y-4.125
X5.9211Y-5.7211
X5.9211Y-6.0211
X5.6Y-4.1
X5.6Y-4.5
X4.525Y-3.825
X4.525Y-4.125
X7.0961Y-5.0961
X7.0961Y-5.4961
X6.7211Y-3.6
X6.7211Y-4.0
X4.525Y-5.3211
X4.525Y-5.6211
X4.7Y-5.3476
X4.7Y-5.4461
X4.75Y-6.1961
X4.8484Y-6.1961
X6.0211Y-4.225
X6.0211Y-4.525
X7.2211Y-5.0961
X7.2211Y-5.4961
X5.025Y-4.1
X5.025Y-4.5
X6.8461Y-3.6
X6.8461Y-4.0
X4.525Y-5.7211
X4.525Y-6.0211
X6.2461Y-4.7
X6.3445Y-4.7
X6.2461Y-6.1961
X6.3445Y-6.1961
X5.35Y-3.6
X5.35Y-4.0
X4.775Y-5.5961
X4.775Y-5.9961
X4.65Y-5.5961
X4.65Y-5.9961
X6.3961Y-4.1
X6.3961Y-4.5
X6.3711Y-5.3476
X6.3711Y-5.4461
X6.3711Y-3.8516
X6.3711Y-3.95
X7.0211Y-4.7
X7.1195Y-4.7
X7.0211Y-6.1961
X7.1195Y-6.1961
X5.9211Y-3.825
X5.9211Y-4.125
X7.2211Y-4.1
X7.2211Y-4.5
X5.35Y-5.0961
X5.35Y-5.4961
X4.775Y-5.0976
X4.775Y-5.1961
X5.525Y-6.1961
X5.6234Y-6.1961
X5.475Y-3.6
X5.475Y-4.0
X6.7211Y-5.0961
X6.7211Y-5.4961
X4.9Y-5.5961
X4.9Y-5.9961
X4.5Y-6.1961
X4.5984Y-6.1961
X6.2711Y-4.1
X6.2711Y-4.5
X6.4211Y-5.0976
X6.4211Y-5.1961
X5.15Y-4.175
X5.15Y-4.475
X5.25Y-4.175
X5.25Y-4.475
X5.35Y-4.175
X5.35Y-4.475
X5.45Y-4.175
X5.45Y-4.475
X5.725Y-5.5961
X5.725Y-5.9961
X5.225Y-5.0961
X5.225Y-5.4961
X4.5Y-4.7
X4.5984Y-4.7
X4.875Y-5.3476
X4.875Y-5.4461
X5.9961Y-4.7
X6.0945Y-4.7
X5.025Y-5.5961
X5.025Y-5.9961
X4.9Y-4.1
X4.9Y-4.5
X6.2711Y-5.5961
X6.2711Y-5.9961
X6.3961Y-5.5961
X6.3961Y-5.9961
X5.525Y-4.7
X5.6234Y-4.7
X7.0961Y-5.5961
X7.0961Y-5.9961
X4.925Y-5.0976
X4.925Y-5.1961
X4.925Y-3.6016
X4.925Y-3.7
X5.225Y-3.6
X5.225Y-4.0
X6.2711Y-5.0976
X6.2711Y-5.1961
X7.2211Y-5.5961
X7.2211Y-5.9961
X4.75Y-4.7
X4.8484Y-4.7
X6.0211Y-5.3211
X6.0211Y-5.6211
X4.425Y-3.825
X4.425Y-4.125
X6.5211Y-4.1
X6.5211Y-4.5
X5.6Y-3.6
X5.6Y-4.0
X7.0961Y-4.1
X7.0961Y-4.5
X6.9711Y-3.6
X6.9711Y-4.0
X6.4211Y-3.6016
X6.4211Y-3.7
X4.775Y-3.6016
X4.775Y-3.7
X4.875Y-3.8516
X4.875Y-3.95
X6.0211Y-5.7211
X6.0211Y-6.0211
X4.65Y-4.1
X4.65Y-4.5
X6.1461Y-4.1
X6.1461Y-4.5
X7.0961Y-3.6
X7.0961Y-4.0
X4.525Y-4.225
X4.525Y-4.525
X5.6Y-5.5961
X5.6Y-5.9961
T3
X5.1Y-3.6
X5.1Y-4.0
X6.5961Y-3.6
X6.5961Y-4.0
X5.1Y-5.0961
X5.1Y-5.4961
X6.5961Y-5.0961
X6.5961Y-5.4961
T4
X5.3Y-4.7
X5.25Y-3.45
X5.55Y-4.9461
X6.7461Y-4.9461
X6.5961Y-4.9461
X4.6Y-4.9461
X5.4Y-3.45
X6.6461Y-4.7
X5.3Y-6.1961
X4.475Y-5.1211
X6.4961Y-6.1961
X4.625Y-5.1211
X4.475Y-3.625
X7.0461Y-3.45
X4.45Y-4.9461
X5.15Y-4.7
X7.1961Y-3.45
X6.2461Y-3.45
X4.6Y-3.45
X6.6461Y-6.1961
X6.8961Y-3.45
X5.1Y-3.45
X6.1211Y-3.625
X5.25Y-4.9461
X5.1Y-4.9461
X6.0961Y-3.45
X5.55Y-3.45
X7.1961Y-4.9461
X6.7961Y-4.7
X5.9711Y-3.625
X6.2461Y-4.9461
X5.0Y-6.1961
X4.625Y-3.625
X6.8961Y-4.9461
X5.9461Y-3.45
X5.0Y-4.7
X7.0461Y-4.9461
X6.0961Y-4.9461
X4.75Y-3.45
X5.15Y-6.1961
X6.7961Y-6.1961
X5.9711Y-5.1211
X6.7461Y-3.45
X5.9461Y-4.9461
X6.5961Y-3.45
X5.7Y-3.45
X5.7Y-4.9461
X4.75Y-4.9461
X6.4961Y-4.7
X4.45Y-3.45
X5.4Y-4.9461
X6.1211Y-5.1211
T0
M30
