G04 #@! TF.GenerationSoftware,KiCad,Pcbnew,(5.1.2-1)-1*
G04 #@! TF.CreationDate,2019-11-28T17:53:20+09:00*
G04 #@! TF.ProjectId,FuzzfaceMod_4,46757a7a-6661-4636-954d-6f645f342e6b,rev?*
G04 #@! TF.SameCoordinates,Original*
G04 #@! TF.FileFunction,Legend,Top*
G04 #@! TF.FilePolarity,Positive*
%FSLAX46Y46*%
G04 Gerber Fmt 4.6, Leading zero omitted, Abs format (unit mm)*
G04 Created by KiCad (PCBNEW (5.1.2-1)-1) date 2019-11-28 17:53:20*
%MOMM*%
%LPD*%
G04 APERTURE LIST*
%ADD10C,0.150000*%
%ADD11C,0.120000*%
%ADD12C,0.100000*%
G04 APERTURE END LIST*
D10*
X154957142Y-81664285D02*
X152671428Y-81664285D01*
X153242857Y-82235714D02*
X152671428Y-81664285D01*
X153242857Y-81092857D01*
X158242857Y-79807142D02*
X159242857Y-82807142D01*
X160242857Y-79807142D01*
X161242857Y-81664285D02*
X163528571Y-81664285D01*
X166671428Y-82521428D02*
X166528571Y-82664285D01*
X166100000Y-82807142D01*
X165814285Y-82807142D01*
X165385714Y-82664285D01*
X165100000Y-82378571D01*
X164957142Y-82092857D01*
X164814285Y-81521428D01*
X164814285Y-81092857D01*
X164957142Y-80521428D01*
X165100000Y-80235714D01*
X165385714Y-79950000D01*
X165814285Y-79807142D01*
X166100000Y-79807142D01*
X166528571Y-79950000D01*
X166671428Y-80092857D01*
X169242857Y-80807142D02*
X169242857Y-82807142D01*
X167957142Y-80807142D02*
X167957142Y-82378571D01*
X168100000Y-82664285D01*
X168385714Y-82807142D01*
X168814285Y-82807142D01*
X169100000Y-82664285D01*
X169242857Y-82521428D01*
X170242857Y-80807142D02*
X171385714Y-80807142D01*
X170671428Y-79807142D02*
X170671428Y-82378571D01*
X170814285Y-82664285D01*
X171100000Y-82807142D01*
X171385714Y-82807142D01*
X175100000Y-82807142D02*
X174814285Y-82664285D01*
X174671428Y-82378571D01*
X174671428Y-79807142D01*
X176242857Y-82807142D02*
X176242857Y-80807142D01*
X176242857Y-79807142D02*
X176100000Y-79950000D01*
X176242857Y-80092857D01*
X176385714Y-79950000D01*
X176242857Y-79807142D01*
X176242857Y-80092857D01*
X177671428Y-80807142D02*
X177671428Y-82807142D01*
X177671428Y-81092857D02*
X177814285Y-80950000D01*
X178100000Y-80807142D01*
X178528571Y-80807142D01*
X178814285Y-80950000D01*
X178957142Y-81235714D01*
X178957142Y-82807142D01*
X181528571Y-82664285D02*
X181242857Y-82807142D01*
X180671428Y-82807142D01*
X180385714Y-82664285D01*
X180242857Y-82378571D01*
X180242857Y-81235714D01*
X180385714Y-80950000D01*
X180671428Y-80807142D01*
X181242857Y-80807142D01*
X181528571Y-80950000D01*
X181671428Y-81235714D01*
X181671428Y-81521428D01*
X180242857Y-81807142D01*
X114414285Y-123057142D02*
X114414285Y-120771428D01*
X113842857Y-121342857D02*
X114414285Y-120771428D01*
X114985714Y-121342857D01*
X118842857Y-120057142D02*
X119842857Y-123057142D01*
X120842857Y-120057142D01*
X121842857Y-121914285D02*
X124128571Y-121914285D01*
X127271428Y-122771428D02*
X127128571Y-122914285D01*
X126700000Y-123057142D01*
X126414285Y-123057142D01*
X125985714Y-122914285D01*
X125700000Y-122628571D01*
X125557142Y-122342857D01*
X125414285Y-121771428D01*
X125414285Y-121342857D01*
X125557142Y-120771428D01*
X125700000Y-120485714D01*
X125985714Y-120200000D01*
X126414285Y-120057142D01*
X126700000Y-120057142D01*
X127128571Y-120200000D01*
X127271428Y-120342857D01*
X129842857Y-121057142D02*
X129842857Y-123057142D01*
X128557142Y-121057142D02*
X128557142Y-122628571D01*
X128700000Y-122914285D01*
X128985714Y-123057142D01*
X129414285Y-123057142D01*
X129700000Y-122914285D01*
X129842857Y-122771428D01*
X130842857Y-121057142D02*
X131985714Y-121057142D01*
X131271428Y-120057142D02*
X131271428Y-122628571D01*
X131414285Y-122914285D01*
X131700000Y-123057142D01*
X131985714Y-123057142D01*
X135700000Y-123057142D02*
X135414285Y-122914285D01*
X135271428Y-122628571D01*
X135271428Y-120057142D01*
X136842857Y-123057142D02*
X136842857Y-121057142D01*
X136842857Y-120057142D02*
X136700000Y-120200000D01*
X136842857Y-120342857D01*
X136985714Y-120200000D01*
X136842857Y-120057142D01*
X136842857Y-120342857D01*
X138271428Y-121057142D02*
X138271428Y-123057142D01*
X138271428Y-121342857D02*
X138414285Y-121200000D01*
X138700000Y-121057142D01*
X139128571Y-121057142D01*
X139414285Y-121200000D01*
X139557142Y-121485714D01*
X139557142Y-123057142D01*
X142128571Y-122914285D02*
X141842857Y-123057142D01*
X141271428Y-123057142D01*
X140985714Y-122914285D01*
X140842857Y-122628571D01*
X140842857Y-121485714D01*
X140985714Y-121200000D01*
X141271428Y-121057142D01*
X141842857Y-121057142D01*
X142128571Y-121200000D01*
X142271428Y-121485714D01*
X142271428Y-121771428D01*
X140842857Y-122057142D01*
D11*
X76400000Y-81650000D02*
X152400000Y-81650000D01*
X114400000Y-43650000D02*
X114400000Y-119650000D01*
D10*
X62677619Y-96459523D02*
X62677619Y-97078571D01*
X62296666Y-96745238D01*
X62296666Y-96888095D01*
X62249047Y-96983333D01*
X62201428Y-97030952D01*
X62106190Y-97078571D01*
X61868095Y-97078571D01*
X61772857Y-97030952D01*
X61725238Y-96983333D01*
X61677619Y-96888095D01*
X61677619Y-96602380D01*
X61725238Y-96507142D01*
X61772857Y-96459523D01*
X62249047Y-97650000D02*
X62296666Y-97554761D01*
X62344285Y-97507142D01*
X62439523Y-97459523D01*
X62487142Y-97459523D01*
X62582380Y-97507142D01*
X62630000Y-97554761D01*
X62677619Y-97650000D01*
X62677619Y-97840476D01*
X62630000Y-97935714D01*
X62582380Y-97983333D01*
X62487142Y-98030952D01*
X62439523Y-98030952D01*
X62344285Y-97983333D01*
X62296666Y-97935714D01*
X62249047Y-97840476D01*
X62249047Y-97650000D01*
X62201428Y-97554761D01*
X62153809Y-97507142D01*
X62058571Y-97459523D01*
X61868095Y-97459523D01*
X61772857Y-97507142D01*
X61725238Y-97554761D01*
X61677619Y-97650000D01*
X61677619Y-97840476D01*
X61725238Y-97935714D01*
X61772857Y-97983333D01*
X61868095Y-98030952D01*
X62058571Y-98030952D01*
X62153809Y-97983333D01*
X62201428Y-97935714D01*
X62249047Y-97840476D01*
X61772857Y-98459523D02*
X61725238Y-98507142D01*
X61677619Y-98459523D01*
X61725238Y-98411904D01*
X61772857Y-98459523D01*
X61677619Y-98459523D01*
X62677619Y-99126190D02*
X62677619Y-99221428D01*
X62630000Y-99316666D01*
X62582380Y-99364285D01*
X62487142Y-99411904D01*
X62296666Y-99459523D01*
X62058571Y-99459523D01*
X61868095Y-99411904D01*
X61772857Y-99364285D01*
X61725238Y-99316666D01*
X61677619Y-99221428D01*
X61677619Y-99126190D01*
X61725238Y-99030952D01*
X61772857Y-98983333D01*
X61868095Y-98935714D01*
X62058571Y-98888095D01*
X62296666Y-98888095D01*
X62487142Y-98935714D01*
X62582380Y-98983333D01*
X62630000Y-99030952D01*
X62677619Y-99126190D01*
X62677619Y-100078571D02*
X62677619Y-100173809D01*
X62630000Y-100269047D01*
X62582380Y-100316666D01*
X62487142Y-100364285D01*
X62296666Y-100411904D01*
X62058571Y-100411904D01*
X61868095Y-100364285D01*
X61772857Y-100316666D01*
X61725238Y-100269047D01*
X61677619Y-100173809D01*
X61677619Y-100078571D01*
X61725238Y-99983333D01*
X61772857Y-99935714D01*
X61868095Y-99888095D01*
X62058571Y-99840476D01*
X62296666Y-99840476D01*
X62487142Y-99888095D01*
X62582380Y-99935714D01*
X62630000Y-99983333D01*
X62677619Y-100078571D01*
X62677619Y-101030952D02*
X62677619Y-101126190D01*
X62630000Y-101221428D01*
X62582380Y-101269047D01*
X62487142Y-101316666D01*
X62296666Y-101364285D01*
X62058571Y-101364285D01*
X61868095Y-101316666D01*
X61772857Y-101269047D01*
X61725238Y-101221428D01*
X61677619Y-101126190D01*
X61677619Y-101030952D01*
X61725238Y-100935714D01*
X61772857Y-100888095D01*
X61868095Y-100840476D01*
X62058571Y-100792857D01*
X62296666Y-100792857D01*
X62487142Y-100840476D01*
X62582380Y-100888095D01*
X62630000Y-100935714D01*
X62677619Y-101030952D01*
X61677619Y-102554761D02*
X62344285Y-102554761D01*
X62249047Y-102554761D02*
X62296666Y-102602380D01*
X62344285Y-102697619D01*
X62344285Y-102840476D01*
X62296666Y-102935714D01*
X62201428Y-102983333D01*
X61677619Y-102983333D01*
X62201428Y-102983333D02*
X62296666Y-103030952D01*
X62344285Y-103126190D01*
X62344285Y-103269047D01*
X62296666Y-103364285D01*
X62201428Y-103411904D01*
X61677619Y-103411904D01*
X61677619Y-103888095D02*
X62344285Y-103888095D01*
X62249047Y-103888095D02*
X62296666Y-103935714D01*
X62344285Y-104030952D01*
X62344285Y-104173809D01*
X62296666Y-104269047D01*
X62201428Y-104316666D01*
X61677619Y-104316666D01*
X62201428Y-104316666D02*
X62296666Y-104364285D01*
X62344285Y-104459523D01*
X62344285Y-104602380D01*
X62296666Y-104697619D01*
X62201428Y-104745238D01*
X61677619Y-104745238D01*
D11*
X63400000Y-81650000D02*
X63400000Y-119650000D01*
X76400000Y-81650000D02*
X62813579Y-81650000D01*
X76400000Y-119650000D02*
X62813579Y-119650000D01*
X63400000Y-119650000D02*
X62813579Y-118523496D01*
X63400000Y-119650000D02*
X63986421Y-118523496D01*
X63400000Y-81650000D02*
X62813579Y-82776504D01*
X63400000Y-81650000D02*
X63986421Y-82776504D01*
D10*
X129209523Y-29332380D02*
X129828571Y-29332380D01*
X129495238Y-29713333D01*
X129638095Y-29713333D01*
X129733333Y-29760952D01*
X129780952Y-29808571D01*
X129828571Y-29903809D01*
X129828571Y-30141904D01*
X129780952Y-30237142D01*
X129733333Y-30284761D01*
X129638095Y-30332380D01*
X129352380Y-30332380D01*
X129257142Y-30284761D01*
X129209523Y-30237142D01*
X130400000Y-29760952D02*
X130304761Y-29713333D01*
X130257142Y-29665714D01*
X130209523Y-29570476D01*
X130209523Y-29522857D01*
X130257142Y-29427619D01*
X130304761Y-29380000D01*
X130400000Y-29332380D01*
X130590476Y-29332380D01*
X130685714Y-29380000D01*
X130733333Y-29427619D01*
X130780952Y-29522857D01*
X130780952Y-29570476D01*
X130733333Y-29665714D01*
X130685714Y-29713333D01*
X130590476Y-29760952D01*
X130400000Y-29760952D01*
X130304761Y-29808571D01*
X130257142Y-29856190D01*
X130209523Y-29951428D01*
X130209523Y-30141904D01*
X130257142Y-30237142D01*
X130304761Y-30284761D01*
X130400000Y-30332380D01*
X130590476Y-30332380D01*
X130685714Y-30284761D01*
X130733333Y-30237142D01*
X130780952Y-30141904D01*
X130780952Y-29951428D01*
X130733333Y-29856190D01*
X130685714Y-29808571D01*
X130590476Y-29760952D01*
X131209523Y-30237142D02*
X131257142Y-30284761D01*
X131209523Y-30332380D01*
X131161904Y-30284761D01*
X131209523Y-30237142D01*
X131209523Y-30332380D01*
X131876190Y-29332380D02*
X131971428Y-29332380D01*
X132066666Y-29380000D01*
X132114285Y-29427619D01*
X132161904Y-29522857D01*
X132209523Y-29713333D01*
X132209523Y-29951428D01*
X132161904Y-30141904D01*
X132114285Y-30237142D01*
X132066666Y-30284761D01*
X131971428Y-30332380D01*
X131876190Y-30332380D01*
X131780952Y-30284761D01*
X131733333Y-30237142D01*
X131685714Y-30141904D01*
X131638095Y-29951428D01*
X131638095Y-29713333D01*
X131685714Y-29522857D01*
X131733333Y-29427619D01*
X131780952Y-29380000D01*
X131876190Y-29332380D01*
X132828571Y-29332380D02*
X132923809Y-29332380D01*
X133019047Y-29380000D01*
X133066666Y-29427619D01*
X133114285Y-29522857D01*
X133161904Y-29713333D01*
X133161904Y-29951428D01*
X133114285Y-30141904D01*
X133066666Y-30237142D01*
X133019047Y-30284761D01*
X132923809Y-30332380D01*
X132828571Y-30332380D01*
X132733333Y-30284761D01*
X132685714Y-30237142D01*
X132638095Y-30141904D01*
X132590476Y-29951428D01*
X132590476Y-29713333D01*
X132638095Y-29522857D01*
X132685714Y-29427619D01*
X132733333Y-29380000D01*
X132828571Y-29332380D01*
X133780952Y-29332380D02*
X133876190Y-29332380D01*
X133971428Y-29380000D01*
X134019047Y-29427619D01*
X134066666Y-29522857D01*
X134114285Y-29713333D01*
X134114285Y-29951428D01*
X134066666Y-30141904D01*
X134019047Y-30237142D01*
X133971428Y-30284761D01*
X133876190Y-30332380D01*
X133780952Y-30332380D01*
X133685714Y-30284761D01*
X133638095Y-30237142D01*
X133590476Y-30141904D01*
X133542857Y-29951428D01*
X133542857Y-29713333D01*
X133590476Y-29522857D01*
X133638095Y-29427619D01*
X133685714Y-29380000D01*
X133780952Y-29332380D01*
X135304761Y-30332380D02*
X135304761Y-29665714D01*
X135304761Y-29760952D02*
X135352380Y-29713333D01*
X135447619Y-29665714D01*
X135590476Y-29665714D01*
X135685714Y-29713333D01*
X135733333Y-29808571D01*
X135733333Y-30332380D01*
X135733333Y-29808571D02*
X135780952Y-29713333D01*
X135876190Y-29665714D01*
X136019047Y-29665714D01*
X136114285Y-29713333D01*
X136161904Y-29808571D01*
X136161904Y-30332380D01*
X136638095Y-30332380D02*
X136638095Y-29665714D01*
X136638095Y-29760952D02*
X136685714Y-29713333D01*
X136780952Y-29665714D01*
X136923809Y-29665714D01*
X137019047Y-29713333D01*
X137066666Y-29808571D01*
X137066666Y-30332380D01*
X137066666Y-29808571D02*
X137114285Y-29713333D01*
X137209523Y-29665714D01*
X137352380Y-29665714D01*
X137447619Y-29713333D01*
X137495238Y-29808571D01*
X137495238Y-30332380D01*
D11*
X114400000Y-31150000D02*
X152400000Y-31150000D01*
X114400000Y-43650000D02*
X114400000Y-30563579D01*
X152400000Y-43650000D02*
X152400000Y-30563579D01*
X152400000Y-31150000D02*
X151273496Y-31736421D01*
X152400000Y-31150000D02*
X151273496Y-30563579D01*
X114400000Y-31150000D02*
X115526504Y-31736421D01*
X114400000Y-31150000D02*
X115526504Y-30563579D01*
D10*
X91209523Y-29332380D02*
X91828571Y-29332380D01*
X91495238Y-29713333D01*
X91638095Y-29713333D01*
X91733333Y-29760952D01*
X91780952Y-29808571D01*
X91828571Y-29903809D01*
X91828571Y-30141904D01*
X91780952Y-30237142D01*
X91733333Y-30284761D01*
X91638095Y-30332380D01*
X91352380Y-30332380D01*
X91257142Y-30284761D01*
X91209523Y-30237142D01*
X92400000Y-29760952D02*
X92304761Y-29713333D01*
X92257142Y-29665714D01*
X92209523Y-29570476D01*
X92209523Y-29522857D01*
X92257142Y-29427619D01*
X92304761Y-29380000D01*
X92400000Y-29332380D01*
X92590476Y-29332380D01*
X92685714Y-29380000D01*
X92733333Y-29427619D01*
X92780952Y-29522857D01*
X92780952Y-29570476D01*
X92733333Y-29665714D01*
X92685714Y-29713333D01*
X92590476Y-29760952D01*
X92400000Y-29760952D01*
X92304761Y-29808571D01*
X92257142Y-29856190D01*
X92209523Y-29951428D01*
X92209523Y-30141904D01*
X92257142Y-30237142D01*
X92304761Y-30284761D01*
X92400000Y-30332380D01*
X92590476Y-30332380D01*
X92685714Y-30284761D01*
X92733333Y-30237142D01*
X92780952Y-30141904D01*
X92780952Y-29951428D01*
X92733333Y-29856190D01*
X92685714Y-29808571D01*
X92590476Y-29760952D01*
X93209523Y-30237142D02*
X93257142Y-30284761D01*
X93209523Y-30332380D01*
X93161904Y-30284761D01*
X93209523Y-30237142D01*
X93209523Y-30332380D01*
X93876190Y-29332380D02*
X93971428Y-29332380D01*
X94066666Y-29380000D01*
X94114285Y-29427619D01*
X94161904Y-29522857D01*
X94209523Y-29713333D01*
X94209523Y-29951428D01*
X94161904Y-30141904D01*
X94114285Y-30237142D01*
X94066666Y-30284761D01*
X93971428Y-30332380D01*
X93876190Y-30332380D01*
X93780952Y-30284761D01*
X93733333Y-30237142D01*
X93685714Y-30141904D01*
X93638095Y-29951428D01*
X93638095Y-29713333D01*
X93685714Y-29522857D01*
X93733333Y-29427619D01*
X93780952Y-29380000D01*
X93876190Y-29332380D01*
X94828571Y-29332380D02*
X94923809Y-29332380D01*
X95019047Y-29380000D01*
X95066666Y-29427619D01*
X95114285Y-29522857D01*
X95161904Y-29713333D01*
X95161904Y-29951428D01*
X95114285Y-30141904D01*
X95066666Y-30237142D01*
X95019047Y-30284761D01*
X94923809Y-30332380D01*
X94828571Y-30332380D01*
X94733333Y-30284761D01*
X94685714Y-30237142D01*
X94638095Y-30141904D01*
X94590476Y-29951428D01*
X94590476Y-29713333D01*
X94638095Y-29522857D01*
X94685714Y-29427619D01*
X94733333Y-29380000D01*
X94828571Y-29332380D01*
X95780952Y-29332380D02*
X95876190Y-29332380D01*
X95971428Y-29380000D01*
X96019047Y-29427619D01*
X96066666Y-29522857D01*
X96114285Y-29713333D01*
X96114285Y-29951428D01*
X96066666Y-30141904D01*
X96019047Y-30237142D01*
X95971428Y-30284761D01*
X95876190Y-30332380D01*
X95780952Y-30332380D01*
X95685714Y-30284761D01*
X95638095Y-30237142D01*
X95590476Y-30141904D01*
X95542857Y-29951428D01*
X95542857Y-29713333D01*
X95590476Y-29522857D01*
X95638095Y-29427619D01*
X95685714Y-29380000D01*
X95780952Y-29332380D01*
X97304761Y-30332380D02*
X97304761Y-29665714D01*
X97304761Y-29760952D02*
X97352380Y-29713333D01*
X97447619Y-29665714D01*
X97590476Y-29665714D01*
X97685714Y-29713333D01*
X97733333Y-29808571D01*
X97733333Y-30332380D01*
X97733333Y-29808571D02*
X97780952Y-29713333D01*
X97876190Y-29665714D01*
X98019047Y-29665714D01*
X98114285Y-29713333D01*
X98161904Y-29808571D01*
X98161904Y-30332380D01*
X98638095Y-30332380D02*
X98638095Y-29665714D01*
X98638095Y-29760952D02*
X98685714Y-29713333D01*
X98780952Y-29665714D01*
X98923809Y-29665714D01*
X99019047Y-29713333D01*
X99066666Y-29808571D01*
X99066666Y-30332380D01*
X99066666Y-29808571D02*
X99114285Y-29713333D01*
X99209523Y-29665714D01*
X99352380Y-29665714D01*
X99447619Y-29713333D01*
X99495238Y-29808571D01*
X99495238Y-30332380D01*
D11*
X76400000Y-31150000D02*
X114400000Y-31150000D01*
X76400000Y-43650000D02*
X76400000Y-30563579D01*
X114400000Y-43650000D02*
X114400000Y-30563579D01*
X114400000Y-31150000D02*
X113273496Y-31736421D01*
X114400000Y-31150000D02*
X113273496Y-30563579D01*
X76400000Y-31150000D02*
X77526504Y-31736421D01*
X76400000Y-31150000D02*
X77526504Y-30563579D01*
D10*
X62677619Y-58459523D02*
X62677619Y-59078571D01*
X62296666Y-58745238D01*
X62296666Y-58888095D01*
X62249047Y-58983333D01*
X62201428Y-59030952D01*
X62106190Y-59078571D01*
X61868095Y-59078571D01*
X61772857Y-59030952D01*
X61725238Y-58983333D01*
X61677619Y-58888095D01*
X61677619Y-58602380D01*
X61725238Y-58507142D01*
X61772857Y-58459523D01*
X62249047Y-59650000D02*
X62296666Y-59554761D01*
X62344285Y-59507142D01*
X62439523Y-59459523D01*
X62487142Y-59459523D01*
X62582380Y-59507142D01*
X62630000Y-59554761D01*
X62677619Y-59650000D01*
X62677619Y-59840476D01*
X62630000Y-59935714D01*
X62582380Y-59983333D01*
X62487142Y-60030952D01*
X62439523Y-60030952D01*
X62344285Y-59983333D01*
X62296666Y-59935714D01*
X62249047Y-59840476D01*
X62249047Y-59650000D01*
X62201428Y-59554761D01*
X62153809Y-59507142D01*
X62058571Y-59459523D01*
X61868095Y-59459523D01*
X61772857Y-59507142D01*
X61725238Y-59554761D01*
X61677619Y-59650000D01*
X61677619Y-59840476D01*
X61725238Y-59935714D01*
X61772857Y-59983333D01*
X61868095Y-60030952D01*
X62058571Y-60030952D01*
X62153809Y-59983333D01*
X62201428Y-59935714D01*
X62249047Y-59840476D01*
X61772857Y-60459523D02*
X61725238Y-60507142D01*
X61677619Y-60459523D01*
X61725238Y-60411904D01*
X61772857Y-60459523D01*
X61677619Y-60459523D01*
X62677619Y-61126190D02*
X62677619Y-61221428D01*
X62630000Y-61316666D01*
X62582380Y-61364285D01*
X62487142Y-61411904D01*
X62296666Y-61459523D01*
X62058571Y-61459523D01*
X61868095Y-61411904D01*
X61772857Y-61364285D01*
X61725238Y-61316666D01*
X61677619Y-61221428D01*
X61677619Y-61126190D01*
X61725238Y-61030952D01*
X61772857Y-60983333D01*
X61868095Y-60935714D01*
X62058571Y-60888095D01*
X62296666Y-60888095D01*
X62487142Y-60935714D01*
X62582380Y-60983333D01*
X62630000Y-61030952D01*
X62677619Y-61126190D01*
X62677619Y-62078571D02*
X62677619Y-62173809D01*
X62630000Y-62269047D01*
X62582380Y-62316666D01*
X62487142Y-62364285D01*
X62296666Y-62411904D01*
X62058571Y-62411904D01*
X61868095Y-62364285D01*
X61772857Y-62316666D01*
X61725238Y-62269047D01*
X61677619Y-62173809D01*
X61677619Y-62078571D01*
X61725238Y-61983333D01*
X61772857Y-61935714D01*
X61868095Y-61888095D01*
X62058571Y-61840476D01*
X62296666Y-61840476D01*
X62487142Y-61888095D01*
X62582380Y-61935714D01*
X62630000Y-61983333D01*
X62677619Y-62078571D01*
X62677619Y-63030952D02*
X62677619Y-63126190D01*
X62630000Y-63221428D01*
X62582380Y-63269047D01*
X62487142Y-63316666D01*
X62296666Y-63364285D01*
X62058571Y-63364285D01*
X61868095Y-63316666D01*
X61772857Y-63269047D01*
X61725238Y-63221428D01*
X61677619Y-63126190D01*
X61677619Y-63030952D01*
X61725238Y-62935714D01*
X61772857Y-62888095D01*
X61868095Y-62840476D01*
X62058571Y-62792857D01*
X62296666Y-62792857D01*
X62487142Y-62840476D01*
X62582380Y-62888095D01*
X62630000Y-62935714D01*
X62677619Y-63030952D01*
X61677619Y-64554761D02*
X62344285Y-64554761D01*
X62249047Y-64554761D02*
X62296666Y-64602380D01*
X62344285Y-64697619D01*
X62344285Y-64840476D01*
X62296666Y-64935714D01*
X62201428Y-64983333D01*
X61677619Y-64983333D01*
X62201428Y-64983333D02*
X62296666Y-65030952D01*
X62344285Y-65126190D01*
X62344285Y-65269047D01*
X62296666Y-65364285D01*
X62201428Y-65411904D01*
X61677619Y-65411904D01*
X61677619Y-65888095D02*
X62344285Y-65888095D01*
X62249047Y-65888095D02*
X62296666Y-65935714D01*
X62344285Y-66030952D01*
X62344285Y-66173809D01*
X62296666Y-66269047D01*
X62201428Y-66316666D01*
X61677619Y-66316666D01*
X62201428Y-66316666D02*
X62296666Y-66364285D01*
X62344285Y-66459523D01*
X62344285Y-66602380D01*
X62296666Y-66697619D01*
X62201428Y-66745238D01*
X61677619Y-66745238D01*
D11*
X63400000Y-43650000D02*
X63400000Y-81650000D01*
X76400000Y-43650000D02*
X62813579Y-43650000D01*
X76400000Y-81650000D02*
X62813579Y-81650000D01*
X63400000Y-81650000D02*
X62813579Y-80523496D01*
X63400000Y-81650000D02*
X63986421Y-80523496D01*
X63400000Y-43650000D02*
X62813579Y-44776504D01*
X63400000Y-43650000D02*
X63986421Y-44776504D01*
X128091000Y-106097000D02*
X131031000Y-106097000D01*
X128091000Y-105857000D02*
X131031000Y-105857000D01*
X128091000Y-105977000D02*
X131031000Y-105977000D01*
X129561000Y-100417000D02*
X129561000Y-101437000D01*
X129561000Y-107897000D02*
X129561000Y-106877000D01*
X128091000Y-101437000D02*
X128091000Y-106877000D01*
X131031000Y-101437000D02*
X128091000Y-101437000D01*
X131031000Y-106877000D02*
X131031000Y-101437000D01*
X128091000Y-106877000D02*
X131031000Y-106877000D01*
X90091000Y-106097000D02*
X93031000Y-106097000D01*
X90091000Y-105857000D02*
X93031000Y-105857000D01*
X90091000Y-105977000D02*
X93031000Y-105977000D01*
X91561000Y-100417000D02*
X91561000Y-101437000D01*
X91561000Y-107897000D02*
X91561000Y-106877000D01*
X90091000Y-101437000D02*
X90091000Y-106877000D01*
X93031000Y-101437000D02*
X90091000Y-101437000D01*
X93031000Y-106877000D02*
X93031000Y-101437000D01*
X90091000Y-106877000D02*
X93031000Y-106877000D01*
X128091000Y-68097000D02*
X131031000Y-68097000D01*
X128091000Y-67857000D02*
X131031000Y-67857000D01*
X128091000Y-67977000D02*
X131031000Y-67977000D01*
X129561000Y-62417000D02*
X129561000Y-63437000D01*
X129561000Y-69897000D02*
X129561000Y-68877000D01*
X128091000Y-63437000D02*
X128091000Y-68877000D01*
X131031000Y-63437000D02*
X128091000Y-63437000D01*
X131031000Y-68877000D02*
X131031000Y-63437000D01*
X128091000Y-68877000D02*
X131031000Y-68877000D01*
X117496000Y-100117000D02*
X117496000Y-100887000D01*
X117496000Y-108197000D02*
X117496000Y-107427000D01*
X116126000Y-100887000D02*
X116126000Y-107427000D01*
X118866000Y-100887000D02*
X116126000Y-100887000D01*
X118866000Y-107427000D02*
X118866000Y-100887000D01*
X116126000Y-107427000D02*
X118866000Y-107427000D01*
X79496000Y-100117000D02*
X79496000Y-100887000D01*
X79496000Y-108197000D02*
X79496000Y-107427000D01*
X78126000Y-100887000D02*
X78126000Y-107427000D01*
X80866000Y-100887000D02*
X78126000Y-100887000D01*
X80866000Y-107427000D02*
X80866000Y-100887000D01*
X78126000Y-107427000D02*
X80866000Y-107427000D01*
X117496000Y-62117000D02*
X117496000Y-62887000D01*
X117496000Y-70197000D02*
X117496000Y-69427000D01*
X116126000Y-62887000D02*
X116126000Y-69427000D01*
X118866000Y-62887000D02*
X116126000Y-62887000D01*
X118866000Y-69427000D02*
X118866000Y-62887000D01*
X116126000Y-69427000D02*
X118866000Y-69427000D01*
X125116000Y-100117000D02*
X125116000Y-100887000D01*
X125116000Y-108197000D02*
X125116000Y-107427000D01*
X123746000Y-100887000D02*
X123746000Y-107427000D01*
X126486000Y-100887000D02*
X123746000Y-100887000D01*
X126486000Y-107427000D02*
X126486000Y-100887000D01*
X123746000Y-107427000D02*
X126486000Y-107427000D01*
X87116000Y-100117000D02*
X87116000Y-100887000D01*
X87116000Y-108197000D02*
X87116000Y-107427000D01*
X85746000Y-100887000D02*
X85746000Y-107427000D01*
X88486000Y-100887000D02*
X85746000Y-100887000D01*
X88486000Y-107427000D02*
X88486000Y-100887000D01*
X85746000Y-107427000D02*
X88486000Y-107427000D01*
X125116000Y-62117000D02*
X125116000Y-62887000D01*
X125116000Y-70197000D02*
X125116000Y-69427000D01*
X123746000Y-62887000D02*
X123746000Y-69427000D01*
X126486000Y-62887000D02*
X123746000Y-62887000D01*
X126486000Y-69427000D02*
X126486000Y-62887000D01*
X123746000Y-69427000D02*
X126486000Y-69427000D01*
X118866000Y-96942000D02*
X116126000Y-96942000D01*
X118866000Y-89702000D02*
X116126000Y-89702000D01*
X116126000Y-89702000D02*
X116126000Y-96942000D01*
X118866000Y-89702000D02*
X118866000Y-96942000D01*
X80866000Y-96942000D02*
X78126000Y-96942000D01*
X80866000Y-89702000D02*
X78126000Y-89702000D01*
X78126000Y-89702000D02*
X78126000Y-96942000D01*
X80866000Y-89702000D02*
X80866000Y-96942000D01*
X118866000Y-58942000D02*
X116126000Y-58942000D01*
X118866000Y-51702000D02*
X116126000Y-51702000D01*
X116126000Y-51702000D02*
X116126000Y-58942000D01*
X118866000Y-51702000D02*
X118866000Y-58942000D01*
X126689000Y-114698000D02*
G75*
G03X126689000Y-114698000I-1700000J0D01*
G01*
X88689000Y-114698000D02*
G75*
G03X88689000Y-114698000I-1700000J0D01*
G01*
X126689000Y-76698000D02*
G75*
G03X126689000Y-76698000I-1700000J0D01*
G01*
X120974000Y-114698000D02*
G75*
G03X120974000Y-114698000I-1700000J0D01*
G01*
X82974000Y-114698000D02*
G75*
G03X82974000Y-114698000I-1700000J0D01*
G01*
X120974000Y-76698000D02*
G75*
G03X120974000Y-76698000I-1700000J0D01*
G01*
X142691000Y-99331000D02*
G75*
G03X142691000Y-99331000I-1700000J0D01*
G01*
X104691000Y-99331000D02*
G75*
G03X104691000Y-99331000I-1700000J0D01*
G01*
X142691000Y-61331000D02*
G75*
G03X142691000Y-61331000I-1700000J0D01*
G01*
X122676000Y-100887000D02*
X119936000Y-100887000D01*
X119936000Y-100887000D02*
X119936000Y-107427000D01*
X119936000Y-107427000D02*
X122676000Y-107427000D01*
X122676000Y-107427000D02*
X122676000Y-100887000D01*
X121306000Y-100117000D02*
X121306000Y-100887000D01*
X121306000Y-108197000D02*
X121306000Y-107427000D01*
X84676000Y-100887000D02*
X81936000Y-100887000D01*
X81936000Y-100887000D02*
X81936000Y-107427000D01*
X81936000Y-107427000D02*
X84676000Y-107427000D01*
X84676000Y-107427000D02*
X84676000Y-100887000D01*
X83306000Y-100117000D02*
X83306000Y-100887000D01*
X83306000Y-108197000D02*
X83306000Y-107427000D01*
X122676000Y-62887000D02*
X119936000Y-62887000D01*
X119936000Y-62887000D02*
X119936000Y-69427000D01*
X119936000Y-69427000D02*
X122676000Y-69427000D01*
X122676000Y-69427000D02*
X122676000Y-62887000D01*
X121306000Y-62117000D02*
X121306000Y-62887000D01*
X121306000Y-70197000D02*
X121306000Y-69427000D01*
X132912000Y-84218000D02*
G75*
G03X132912000Y-84218000I-1700000J0D01*
G01*
X94912000Y-84218000D02*
G75*
G03X94912000Y-84218000I-1700000J0D01*
G01*
X132912000Y-46218000D02*
G75*
G03X132912000Y-46218000I-1700000J0D01*
G01*
X147136000Y-99331000D02*
G75*
G03X147136000Y-99331000I-1700000J0D01*
G01*
X109136000Y-99331000D02*
G75*
G03X109136000Y-99331000I-1700000J0D01*
G01*
X147136000Y-61331000D02*
G75*
G03X147136000Y-61331000I-1700000J0D01*
G01*
X142437000Y-84218000D02*
G75*
G03X142437000Y-84218000I-1700000J0D01*
G01*
X104437000Y-84218000D02*
G75*
G03X104437000Y-84218000I-1700000J0D01*
G01*
X142437000Y-46218000D02*
G75*
G03X142437000Y-46218000I-1700000J0D01*
G01*
X123051850Y-91779456D02*
G75*
G03X124041669Y-90789719I2572150J-1582544D01*
G01*
X122139552Y-90867501D02*
X123051719Y-91779669D01*
X123129501Y-89877552D02*
X122139552Y-90867501D01*
X124041669Y-90789719D02*
X123129501Y-89877552D01*
X85051850Y-91779456D02*
G75*
G03X86041669Y-90789719I2572150J-1582544D01*
G01*
X84139552Y-90867501D02*
X85051719Y-91779669D01*
X85129501Y-89877552D02*
X84139552Y-90867501D01*
X86041669Y-90789719D02*
X85129501Y-89877552D01*
X123051850Y-53779456D02*
G75*
G03X124041669Y-52789719I2572150J-1582544D01*
G01*
X122139552Y-52867501D02*
X123051719Y-53779669D01*
X123129501Y-51877552D02*
X122139552Y-52867501D01*
X124041669Y-52789719D02*
X123129501Y-51877552D01*
X131153669Y-90789719D02*
X130241501Y-89877552D01*
X130241501Y-89877552D02*
X129251552Y-90867501D01*
X129251552Y-90867501D02*
X130163719Y-91779669D01*
X130163850Y-91779456D02*
G75*
G03X131153669Y-90789719I2572150J-1582544D01*
G01*
X93153669Y-90789719D02*
X92241501Y-89877552D01*
X92241501Y-89877552D02*
X91251552Y-90867501D01*
X91251552Y-90867501D02*
X92163719Y-91779669D01*
X92163850Y-91779456D02*
G75*
G03X93153669Y-90789719I2572150J-1582544D01*
G01*
X131153669Y-52789719D02*
X130241501Y-51877552D01*
X130241501Y-51877552D02*
X129251552Y-52867501D01*
X129251552Y-52867501D02*
X130163719Y-53779669D01*
X130163850Y-53779456D02*
G75*
G03X131153669Y-52789719I2572150J-1582544D01*
G01*
X151581000Y-99331000D02*
G75*
G03X151581000Y-99331000I-1700000J0D01*
G01*
X113581000Y-99331000D02*
G75*
G03X113581000Y-99331000I-1700000J0D01*
G01*
X151581000Y-61331000D02*
G75*
G03X151581000Y-61331000I-1700000J0D01*
G01*
X123387000Y-84218000D02*
G75*
G03X123387000Y-84218000I-1700000J0D01*
G01*
X85387000Y-84218000D02*
G75*
G03X85387000Y-84218000I-1700000J0D01*
G01*
X123387000Y-46218000D02*
G75*
G03X123387000Y-46218000I-1700000J0D01*
G01*
X118942000Y-84218000D02*
G75*
G03X118942000Y-84218000I-1700000J0D01*
G01*
X80942000Y-84218000D02*
G75*
G03X80942000Y-84218000I-1700000J0D01*
G01*
X118942000Y-46218000D02*
G75*
G03X118942000Y-46218000I-1700000J0D01*
G01*
X141386000Y-105412000D02*
X141386000Y-109252000D01*
X141626000Y-105412000D02*
X141626000Y-109252000D01*
X141506000Y-105412000D02*
X141506000Y-109252000D01*
X148086000Y-109252000D02*
X148086000Y-108772000D01*
X140246000Y-109252000D02*
X148086000Y-109252000D01*
X140246000Y-108772000D02*
X140246000Y-109252000D01*
X148086000Y-105412000D02*
X148086000Y-105892000D01*
X140246000Y-105412000D02*
X148086000Y-105412000D01*
X140246000Y-105892000D02*
X140246000Y-105412000D01*
X103386000Y-105412000D02*
X103386000Y-109252000D01*
X103626000Y-105412000D02*
X103626000Y-109252000D01*
X103506000Y-105412000D02*
X103506000Y-109252000D01*
X110086000Y-109252000D02*
X110086000Y-108772000D01*
X102246000Y-109252000D02*
X110086000Y-109252000D01*
X102246000Y-108772000D02*
X102246000Y-109252000D01*
X110086000Y-105412000D02*
X110086000Y-105892000D01*
X102246000Y-105412000D02*
X110086000Y-105412000D01*
X102246000Y-105892000D02*
X102246000Y-105412000D01*
X141386000Y-67412000D02*
X141386000Y-71252000D01*
X141626000Y-67412000D02*
X141626000Y-71252000D01*
X141506000Y-67412000D02*
X141506000Y-71252000D01*
X148086000Y-71252000D02*
X148086000Y-70772000D01*
X140246000Y-71252000D02*
X148086000Y-71252000D01*
X140246000Y-70772000D02*
X140246000Y-71252000D01*
X148086000Y-67412000D02*
X148086000Y-67892000D01*
X140246000Y-67412000D02*
X148086000Y-67412000D01*
X140246000Y-67892000D02*
X140246000Y-67412000D01*
X127832000Y-84218000D02*
G75*
G03X127832000Y-84218000I-1700000J0D01*
G01*
X89832000Y-84218000D02*
G75*
G03X89832000Y-84218000I-1700000J0D01*
G01*
X127832000Y-46218000D02*
G75*
G03X127832000Y-46218000I-1700000J0D01*
G01*
X151327000Y-84218000D02*
G75*
G03X151327000Y-84218000I-1700000J0D01*
G01*
X113327000Y-84218000D02*
G75*
G03X113327000Y-84218000I-1700000J0D01*
G01*
X151327000Y-46218000D02*
G75*
G03X151327000Y-46218000I-1700000J0D01*
G01*
X146882000Y-84218000D02*
G75*
G03X146882000Y-84218000I-1700000J0D01*
G01*
X108882000Y-84218000D02*
G75*
G03X108882000Y-84218000I-1700000J0D01*
G01*
X146882000Y-46218000D02*
G75*
G03X146882000Y-46218000I-1700000J0D01*
G01*
X137357000Y-84218000D02*
G75*
G03X137357000Y-84218000I-1700000J0D01*
G01*
X99357000Y-84218000D02*
G75*
G03X99357000Y-84218000I-1700000J0D01*
G01*
X137357000Y-46218000D02*
G75*
G03X137357000Y-46218000I-1700000J0D01*
G01*
X148086000Y-113852000D02*
X148086000Y-114332000D01*
X148086000Y-114332000D02*
X140246000Y-114332000D01*
X140246000Y-114332000D02*
X140246000Y-113852000D01*
X148086000Y-110972000D02*
X148086000Y-110492000D01*
X148086000Y-110492000D02*
X140246000Y-110492000D01*
X140246000Y-110492000D02*
X140246000Y-110972000D01*
X146826000Y-114332000D02*
X146826000Y-110492000D01*
X146706000Y-114332000D02*
X146706000Y-110492000D01*
X146946000Y-114332000D02*
X146946000Y-110492000D01*
X110086000Y-113852000D02*
X110086000Y-114332000D01*
X110086000Y-114332000D02*
X102246000Y-114332000D01*
X102246000Y-114332000D02*
X102246000Y-113852000D01*
X110086000Y-110972000D02*
X110086000Y-110492000D01*
X110086000Y-110492000D02*
X102246000Y-110492000D01*
X102246000Y-110492000D02*
X102246000Y-110972000D01*
X108826000Y-114332000D02*
X108826000Y-110492000D01*
X108706000Y-114332000D02*
X108706000Y-110492000D01*
X108946000Y-114332000D02*
X108946000Y-110492000D01*
X148086000Y-75852000D02*
X148086000Y-76332000D01*
X148086000Y-76332000D02*
X140246000Y-76332000D01*
X140246000Y-76332000D02*
X140246000Y-75852000D01*
X148086000Y-72972000D02*
X148086000Y-72492000D01*
X148086000Y-72492000D02*
X140246000Y-72492000D01*
X140246000Y-72492000D02*
X140246000Y-72972000D01*
X146826000Y-76332000D02*
X146826000Y-72492000D01*
X146706000Y-76332000D02*
X146706000Y-72492000D01*
X146946000Y-76332000D02*
X146946000Y-72492000D01*
X135010000Y-114698000D02*
G75*
G03X135010000Y-114698000I-3270000J0D01*
G01*
X97010000Y-114698000D02*
G75*
G03X97010000Y-114698000I-3270000J0D01*
G01*
X135010000Y-76698000D02*
G75*
G03X135010000Y-76698000I-3270000J0D01*
G01*
X141531000Y-91992000D02*
X141531000Y-94732000D01*
X141531000Y-94732000D02*
X148071000Y-94732000D01*
X148071000Y-94732000D02*
X148071000Y-91992000D01*
X148071000Y-91992000D02*
X141531000Y-91992000D01*
X140761000Y-93362000D02*
X141531000Y-93362000D01*
X148841000Y-93362000D02*
X148071000Y-93362000D01*
X103531000Y-91992000D02*
X103531000Y-94732000D01*
X103531000Y-94732000D02*
X110071000Y-94732000D01*
X110071000Y-94732000D02*
X110071000Y-91992000D01*
X110071000Y-91992000D02*
X103531000Y-91992000D01*
X102761000Y-93362000D02*
X103531000Y-93362000D01*
X110841000Y-93362000D02*
X110071000Y-93362000D01*
X141531000Y-53992000D02*
X141531000Y-56732000D01*
X141531000Y-56732000D02*
X148071000Y-56732000D01*
X148071000Y-56732000D02*
X148071000Y-53992000D01*
X148071000Y-53992000D02*
X141531000Y-53992000D01*
X140761000Y-55362000D02*
X141531000Y-55362000D01*
X148841000Y-55362000D02*
X148071000Y-55362000D01*
X143681000Y-88182000D02*
X150921000Y-88182000D01*
X143681000Y-90922000D02*
X150921000Y-90922000D01*
X143681000Y-88182000D02*
X143681000Y-90922000D01*
X150921000Y-88182000D02*
X150921000Y-90922000D01*
X105681000Y-88182000D02*
X112921000Y-88182000D01*
X105681000Y-90922000D02*
X112921000Y-90922000D01*
X105681000Y-88182000D02*
X105681000Y-90922000D01*
X112921000Y-88182000D02*
X112921000Y-90922000D01*
X143681000Y-50182000D02*
X150921000Y-50182000D01*
X143681000Y-52922000D02*
X150921000Y-52922000D01*
X143681000Y-50182000D02*
X143681000Y-52922000D01*
X150921000Y-50182000D02*
X150921000Y-52922000D01*
X134006000Y-100117000D02*
X134006000Y-100887000D01*
X134006000Y-108197000D02*
X134006000Y-107427000D01*
X132636000Y-100887000D02*
X132636000Y-107427000D01*
X135376000Y-100887000D02*
X132636000Y-100887000D01*
X135376000Y-107427000D02*
X135376000Y-100887000D01*
X132636000Y-107427000D02*
X135376000Y-107427000D01*
X96006000Y-100117000D02*
X96006000Y-100887000D01*
X96006000Y-108197000D02*
X96006000Y-107427000D01*
X94636000Y-100887000D02*
X94636000Y-107427000D01*
X97376000Y-100887000D02*
X94636000Y-100887000D01*
X97376000Y-107427000D02*
X97376000Y-100887000D01*
X94636000Y-107427000D02*
X97376000Y-107427000D01*
X134006000Y-62117000D02*
X134006000Y-62887000D01*
X134006000Y-70197000D02*
X134006000Y-69427000D01*
X132636000Y-62887000D02*
X132636000Y-69427000D01*
X135376000Y-62887000D02*
X132636000Y-62887000D01*
X135376000Y-69427000D02*
X135376000Y-62887000D01*
X132636000Y-69427000D02*
X135376000Y-69427000D01*
X86041669Y-52789719D02*
X85129501Y-51877552D01*
X85129501Y-51877552D02*
X84139552Y-52867501D01*
X84139552Y-52867501D02*
X85051719Y-53779669D01*
X85051850Y-53779456D02*
G75*
G03X86041669Y-52789719I2572150J-1582544D01*
G01*
X80866000Y-51702000D02*
X80866000Y-58942000D01*
X78126000Y-51702000D02*
X78126000Y-58942000D01*
X80866000Y-51702000D02*
X78126000Y-51702000D01*
X80866000Y-58942000D02*
X78126000Y-58942000D01*
X110841000Y-55362000D02*
X110071000Y-55362000D01*
X102761000Y-55362000D02*
X103531000Y-55362000D01*
X110071000Y-53992000D02*
X103531000Y-53992000D01*
X110071000Y-56732000D02*
X110071000Y-53992000D01*
X103531000Y-56732000D02*
X110071000Y-56732000D01*
X103531000Y-53992000D02*
X103531000Y-56732000D01*
X94636000Y-69427000D02*
X97376000Y-69427000D01*
X97376000Y-69427000D02*
X97376000Y-62887000D01*
X97376000Y-62887000D02*
X94636000Y-62887000D01*
X94636000Y-62887000D02*
X94636000Y-69427000D01*
X96006000Y-70197000D02*
X96006000Y-69427000D01*
X96006000Y-62117000D02*
X96006000Y-62887000D01*
X90091000Y-68877000D02*
X93031000Y-68877000D01*
X93031000Y-68877000D02*
X93031000Y-63437000D01*
X93031000Y-63437000D02*
X90091000Y-63437000D01*
X90091000Y-63437000D02*
X90091000Y-68877000D01*
X91561000Y-69897000D02*
X91561000Y-68877000D01*
X91561000Y-62417000D02*
X91561000Y-63437000D01*
X90091000Y-67977000D02*
X93031000Y-67977000D01*
X90091000Y-67857000D02*
X93031000Y-67857000D01*
X90091000Y-68097000D02*
X93031000Y-68097000D01*
X97010000Y-76698000D02*
G75*
G03X97010000Y-76698000I-3270000J0D01*
G01*
X112921000Y-50182000D02*
X112921000Y-52922000D01*
X105681000Y-50182000D02*
X105681000Y-52922000D01*
X105681000Y-52922000D02*
X112921000Y-52922000D01*
X105681000Y-50182000D02*
X112921000Y-50182000D01*
X94912000Y-46218000D02*
G75*
G03X94912000Y-46218000I-1700000J0D01*
G01*
X104437000Y-46218000D02*
G75*
G03X104437000Y-46218000I-1700000J0D01*
G01*
X108882000Y-46218000D02*
G75*
G03X108882000Y-46218000I-1700000J0D01*
G01*
X113327000Y-46218000D02*
G75*
G03X113327000Y-46218000I-1700000J0D01*
G01*
X80942000Y-46218000D02*
G75*
G03X80942000Y-46218000I-1700000J0D01*
G01*
X85387000Y-46218000D02*
G75*
G03X85387000Y-46218000I-1700000J0D01*
G01*
X89832000Y-46218000D02*
G75*
G03X89832000Y-46218000I-1700000J0D01*
G01*
X92163850Y-53779456D02*
G75*
G03X93153669Y-52789719I2572150J-1582544D01*
G01*
X91251552Y-52867501D02*
X92163719Y-53779669D01*
X92241501Y-51877552D02*
X91251552Y-52867501D01*
X93153669Y-52789719D02*
X92241501Y-51877552D01*
X102246000Y-67892000D02*
X102246000Y-67412000D01*
X102246000Y-67412000D02*
X110086000Y-67412000D01*
X110086000Y-67412000D02*
X110086000Y-67892000D01*
X102246000Y-70772000D02*
X102246000Y-71252000D01*
X102246000Y-71252000D02*
X110086000Y-71252000D01*
X110086000Y-71252000D02*
X110086000Y-70772000D01*
X103506000Y-67412000D02*
X103506000Y-71252000D01*
X103626000Y-67412000D02*
X103626000Y-71252000D01*
X103386000Y-67412000D02*
X103386000Y-71252000D01*
X108946000Y-76332000D02*
X108946000Y-72492000D01*
X108706000Y-76332000D02*
X108706000Y-72492000D01*
X108826000Y-76332000D02*
X108826000Y-72492000D01*
X102246000Y-72492000D02*
X102246000Y-72972000D01*
X110086000Y-72492000D02*
X102246000Y-72492000D01*
X110086000Y-72972000D02*
X110086000Y-72492000D01*
X102246000Y-76332000D02*
X102246000Y-75852000D01*
X110086000Y-76332000D02*
X102246000Y-76332000D01*
X110086000Y-75852000D02*
X110086000Y-76332000D01*
X99357000Y-46218000D02*
G75*
G03X99357000Y-46218000I-1700000J0D01*
G01*
X88689000Y-76698000D02*
G75*
G03X88689000Y-76698000I-1700000J0D01*
G01*
X82974000Y-76698000D02*
G75*
G03X82974000Y-76698000I-1700000J0D01*
G01*
X78126000Y-69427000D02*
X80866000Y-69427000D01*
X80866000Y-69427000D02*
X80866000Y-62887000D01*
X80866000Y-62887000D02*
X78126000Y-62887000D01*
X78126000Y-62887000D02*
X78126000Y-69427000D01*
X79496000Y-70197000D02*
X79496000Y-69427000D01*
X79496000Y-62117000D02*
X79496000Y-62887000D01*
X83306000Y-70197000D02*
X83306000Y-69427000D01*
X83306000Y-62117000D02*
X83306000Y-62887000D01*
X84676000Y-69427000D02*
X84676000Y-62887000D01*
X81936000Y-69427000D02*
X84676000Y-69427000D01*
X81936000Y-62887000D02*
X81936000Y-69427000D01*
X84676000Y-62887000D02*
X81936000Y-62887000D01*
X85746000Y-69427000D02*
X88486000Y-69427000D01*
X88486000Y-69427000D02*
X88486000Y-62887000D01*
X88486000Y-62887000D02*
X85746000Y-62887000D01*
X85746000Y-62887000D02*
X85746000Y-69427000D01*
X87116000Y-70197000D02*
X87116000Y-69427000D01*
X87116000Y-62117000D02*
X87116000Y-62887000D01*
X104691000Y-61331000D02*
G75*
G03X104691000Y-61331000I-1700000J0D01*
G01*
X109136000Y-61331000D02*
G75*
G03X109136000Y-61331000I-1700000J0D01*
G01*
X113581000Y-61331000D02*
G75*
G03X113581000Y-61331000I-1700000J0D01*
G01*
D12*
X129966666Y-105150000D02*
X129966666Y-105550000D01*
X129966666Y-105350000D02*
X129266666Y-105350000D01*
X129366666Y-105416666D01*
X129433333Y-105483333D01*
X129466666Y-105550000D01*
X129966666Y-104850000D02*
X129266666Y-104850000D01*
X129966666Y-104450000D01*
X129266666Y-104450000D01*
X129500000Y-103816666D02*
X129966666Y-103816666D01*
X129233333Y-103983333D02*
X129733333Y-104150000D01*
X129733333Y-103716666D01*
X129266666Y-103316666D02*
X129266666Y-103250000D01*
X129300000Y-103183333D01*
X129333333Y-103150000D01*
X129400000Y-103116666D01*
X129533333Y-103083333D01*
X129700000Y-103083333D01*
X129833333Y-103116666D01*
X129900000Y-103150000D01*
X129933333Y-103183333D01*
X129966666Y-103250000D01*
X129966666Y-103316666D01*
X129933333Y-103383333D01*
X129900000Y-103416666D01*
X129833333Y-103450000D01*
X129700000Y-103483333D01*
X129533333Y-103483333D01*
X129400000Y-103450000D01*
X129333333Y-103416666D01*
X129300000Y-103383333D01*
X129266666Y-103316666D01*
X129266666Y-102650000D02*
X129266666Y-102583333D01*
X129300000Y-102516666D01*
X129333333Y-102483333D01*
X129400000Y-102450000D01*
X129533333Y-102416666D01*
X129700000Y-102416666D01*
X129833333Y-102450000D01*
X129900000Y-102483333D01*
X129933333Y-102516666D01*
X129966666Y-102583333D01*
X129966666Y-102650000D01*
X129933333Y-102716666D01*
X129900000Y-102750000D01*
X129833333Y-102783333D01*
X129700000Y-102816666D01*
X129533333Y-102816666D01*
X129400000Y-102783333D01*
X129333333Y-102750000D01*
X129300000Y-102716666D01*
X129266666Y-102650000D01*
X129266666Y-102183333D02*
X129266666Y-101716666D01*
X129966666Y-102016666D01*
D10*
X127913380Y-109498904D02*
X126913380Y-109498904D01*
X127913380Y-108927476D02*
X127341952Y-109356047D01*
X126913380Y-108927476D02*
X127484809Y-109498904D01*
D12*
X91966666Y-105150000D02*
X91966666Y-105550000D01*
X91966666Y-105350000D02*
X91266666Y-105350000D01*
X91366666Y-105416666D01*
X91433333Y-105483333D01*
X91466666Y-105550000D01*
X91966666Y-104850000D02*
X91266666Y-104850000D01*
X91966666Y-104450000D01*
X91266666Y-104450000D01*
X91500000Y-103816666D02*
X91966666Y-103816666D01*
X91233333Y-103983333D02*
X91733333Y-104150000D01*
X91733333Y-103716666D01*
X91266666Y-103316666D02*
X91266666Y-103250000D01*
X91300000Y-103183333D01*
X91333333Y-103150000D01*
X91400000Y-103116666D01*
X91533333Y-103083333D01*
X91700000Y-103083333D01*
X91833333Y-103116666D01*
X91900000Y-103150000D01*
X91933333Y-103183333D01*
X91966666Y-103250000D01*
X91966666Y-103316666D01*
X91933333Y-103383333D01*
X91900000Y-103416666D01*
X91833333Y-103450000D01*
X91700000Y-103483333D01*
X91533333Y-103483333D01*
X91400000Y-103450000D01*
X91333333Y-103416666D01*
X91300000Y-103383333D01*
X91266666Y-103316666D01*
X91266666Y-102650000D02*
X91266666Y-102583333D01*
X91300000Y-102516666D01*
X91333333Y-102483333D01*
X91400000Y-102450000D01*
X91533333Y-102416666D01*
X91700000Y-102416666D01*
X91833333Y-102450000D01*
X91900000Y-102483333D01*
X91933333Y-102516666D01*
X91966666Y-102583333D01*
X91966666Y-102650000D01*
X91933333Y-102716666D01*
X91900000Y-102750000D01*
X91833333Y-102783333D01*
X91700000Y-102816666D01*
X91533333Y-102816666D01*
X91400000Y-102783333D01*
X91333333Y-102750000D01*
X91300000Y-102716666D01*
X91266666Y-102650000D01*
X91266666Y-102183333D02*
X91266666Y-101716666D01*
X91966666Y-102016666D01*
D10*
X89913380Y-109498904D02*
X88913380Y-109498904D01*
X89913380Y-108927476D02*
X89341952Y-109356047D01*
X88913380Y-108927476D02*
X89484809Y-109498904D01*
D12*
X129966666Y-67150000D02*
X129966666Y-67550000D01*
X129966666Y-67350000D02*
X129266666Y-67350000D01*
X129366666Y-67416666D01*
X129433333Y-67483333D01*
X129466666Y-67550000D01*
X129966666Y-66850000D02*
X129266666Y-66850000D01*
X129966666Y-66450000D01*
X129266666Y-66450000D01*
X129500000Y-65816666D02*
X129966666Y-65816666D01*
X129233333Y-65983333D02*
X129733333Y-66150000D01*
X129733333Y-65716666D01*
X129266666Y-65316666D02*
X129266666Y-65250000D01*
X129300000Y-65183333D01*
X129333333Y-65150000D01*
X129400000Y-65116666D01*
X129533333Y-65083333D01*
X129700000Y-65083333D01*
X129833333Y-65116666D01*
X129900000Y-65150000D01*
X129933333Y-65183333D01*
X129966666Y-65250000D01*
X129966666Y-65316666D01*
X129933333Y-65383333D01*
X129900000Y-65416666D01*
X129833333Y-65450000D01*
X129700000Y-65483333D01*
X129533333Y-65483333D01*
X129400000Y-65450000D01*
X129333333Y-65416666D01*
X129300000Y-65383333D01*
X129266666Y-65316666D01*
X129266666Y-64650000D02*
X129266666Y-64583333D01*
X129300000Y-64516666D01*
X129333333Y-64483333D01*
X129400000Y-64450000D01*
X129533333Y-64416666D01*
X129700000Y-64416666D01*
X129833333Y-64450000D01*
X129900000Y-64483333D01*
X129933333Y-64516666D01*
X129966666Y-64583333D01*
X129966666Y-64650000D01*
X129933333Y-64716666D01*
X129900000Y-64750000D01*
X129833333Y-64783333D01*
X129700000Y-64816666D01*
X129533333Y-64816666D01*
X129400000Y-64783333D01*
X129333333Y-64750000D01*
X129300000Y-64716666D01*
X129266666Y-64650000D01*
X129266666Y-64183333D02*
X129266666Y-63716666D01*
X129966666Y-64016666D01*
D10*
X127913380Y-71498904D02*
X126913380Y-71498904D01*
X127913380Y-70927476D02*
X127341952Y-71356047D01*
X126913380Y-70927476D02*
X127484809Y-71498904D01*
X117948380Y-104196666D02*
X117472190Y-104530000D01*
X117948380Y-104768095D02*
X116948380Y-104768095D01*
X116948380Y-104387142D01*
X116996000Y-104291904D01*
X117043619Y-104244285D01*
X117138857Y-104196666D01*
X117281714Y-104196666D01*
X117376952Y-104244285D01*
X117424571Y-104291904D01*
X117472190Y-104387142D01*
X117472190Y-104768095D01*
X117948380Y-103244285D02*
X117948380Y-103815714D01*
X117948380Y-103530000D02*
X116948380Y-103530000D01*
X117091238Y-103625238D01*
X117186476Y-103720476D01*
X117234095Y-103815714D01*
X79948380Y-104196666D02*
X79472190Y-104530000D01*
X79948380Y-104768095D02*
X78948380Y-104768095D01*
X78948380Y-104387142D01*
X78996000Y-104291904D01*
X79043619Y-104244285D01*
X79138857Y-104196666D01*
X79281714Y-104196666D01*
X79376952Y-104244285D01*
X79424571Y-104291904D01*
X79472190Y-104387142D01*
X79472190Y-104768095D01*
X79948380Y-103244285D02*
X79948380Y-103815714D01*
X79948380Y-103530000D02*
X78948380Y-103530000D01*
X79091238Y-103625238D01*
X79186476Y-103720476D01*
X79234095Y-103815714D01*
X117948380Y-66196666D02*
X117472190Y-66530000D01*
X117948380Y-66768095D02*
X116948380Y-66768095D01*
X116948380Y-66387142D01*
X116996000Y-66291904D01*
X117043619Y-66244285D01*
X117138857Y-66196666D01*
X117281714Y-66196666D01*
X117376952Y-66244285D01*
X117424571Y-66291904D01*
X117472190Y-66387142D01*
X117472190Y-66768095D01*
X117948380Y-65244285D02*
X117948380Y-65815714D01*
X117948380Y-65530000D02*
X116948380Y-65530000D01*
X117091238Y-65625238D01*
X117186476Y-65720476D01*
X117234095Y-65815714D01*
X125568380Y-104196666D02*
X125092190Y-104530000D01*
X125568380Y-104768095D02*
X124568380Y-104768095D01*
X124568380Y-104387142D01*
X124616000Y-104291904D01*
X124663619Y-104244285D01*
X124758857Y-104196666D01*
X124901714Y-104196666D01*
X124996952Y-104244285D01*
X125044571Y-104291904D01*
X125092190Y-104387142D01*
X125092190Y-104768095D01*
X124568380Y-103863333D02*
X124568380Y-103244285D01*
X124949333Y-103577619D01*
X124949333Y-103434761D01*
X124996952Y-103339523D01*
X125044571Y-103291904D01*
X125139809Y-103244285D01*
X125377904Y-103244285D01*
X125473142Y-103291904D01*
X125520761Y-103339523D01*
X125568380Y-103434761D01*
X125568380Y-103720476D01*
X125520761Y-103815714D01*
X125473142Y-103863333D01*
X87568380Y-104196666D02*
X87092190Y-104530000D01*
X87568380Y-104768095D02*
X86568380Y-104768095D01*
X86568380Y-104387142D01*
X86616000Y-104291904D01*
X86663619Y-104244285D01*
X86758857Y-104196666D01*
X86901714Y-104196666D01*
X86996952Y-104244285D01*
X87044571Y-104291904D01*
X87092190Y-104387142D01*
X87092190Y-104768095D01*
X86568380Y-103863333D02*
X86568380Y-103244285D01*
X86949333Y-103577619D01*
X86949333Y-103434761D01*
X86996952Y-103339523D01*
X87044571Y-103291904D01*
X87139809Y-103244285D01*
X87377904Y-103244285D01*
X87473142Y-103291904D01*
X87520761Y-103339523D01*
X87568380Y-103434761D01*
X87568380Y-103720476D01*
X87520761Y-103815714D01*
X87473142Y-103863333D01*
X125568380Y-66196666D02*
X125092190Y-66530000D01*
X125568380Y-66768095D02*
X124568380Y-66768095D01*
X124568380Y-66387142D01*
X124616000Y-66291904D01*
X124663619Y-66244285D01*
X124758857Y-66196666D01*
X124901714Y-66196666D01*
X124996952Y-66244285D01*
X125044571Y-66291904D01*
X125092190Y-66387142D01*
X125092190Y-66768095D01*
X124568380Y-65863333D02*
X124568380Y-65244285D01*
X124949333Y-65577619D01*
X124949333Y-65434761D01*
X124996952Y-65339523D01*
X125044571Y-65291904D01*
X125139809Y-65244285D01*
X125377904Y-65244285D01*
X125473142Y-65291904D01*
X125520761Y-65339523D01*
X125568380Y-65434761D01*
X125568380Y-65720476D01*
X125520761Y-65815714D01*
X125473142Y-65863333D01*
X119448380Y-95441047D02*
X119448380Y-95345809D01*
X119496000Y-95250571D01*
X119543619Y-95202952D01*
X119638857Y-95155333D01*
X119829333Y-95107714D01*
X120067428Y-95107714D01*
X120257904Y-95155333D01*
X120353142Y-95202952D01*
X120400761Y-95250571D01*
X120448380Y-95345809D01*
X120448380Y-95441047D01*
X120400761Y-95536285D01*
X120353142Y-95583904D01*
X120257904Y-95631523D01*
X120067428Y-95679142D01*
X119829333Y-95679142D01*
X119638857Y-95631523D01*
X119543619Y-95583904D01*
X119496000Y-95536285D01*
X119448380Y-95441047D01*
X120353142Y-94679142D02*
X120400761Y-94631523D01*
X120448380Y-94679142D01*
X120400761Y-94726761D01*
X120353142Y-94679142D01*
X120448380Y-94679142D01*
X119448380Y-94012476D02*
X119448380Y-93917238D01*
X119496000Y-93822000D01*
X119543619Y-93774380D01*
X119638857Y-93726761D01*
X119829333Y-93679142D01*
X120067428Y-93679142D01*
X120257904Y-93726761D01*
X120353142Y-93774380D01*
X120400761Y-93822000D01*
X120448380Y-93917238D01*
X120448380Y-94012476D01*
X120400761Y-94107714D01*
X120353142Y-94155333D01*
X120257904Y-94202952D01*
X120067428Y-94250571D01*
X119829333Y-94250571D01*
X119638857Y-94202952D01*
X119543619Y-94155333D01*
X119496000Y-94107714D01*
X119448380Y-94012476D01*
X120448380Y-92726761D02*
X120448380Y-93298190D01*
X120448380Y-93012476D02*
X119448380Y-93012476D01*
X119591238Y-93107714D01*
X119686476Y-93202952D01*
X119734095Y-93298190D01*
X119781714Y-91869619D02*
X120448380Y-91869619D01*
X119781714Y-92298190D02*
X120305523Y-92298190D01*
X120400761Y-92250571D01*
X120448380Y-92155333D01*
X120448380Y-92012476D01*
X120400761Y-91917238D01*
X120353142Y-91869619D01*
X119924571Y-91060095D02*
X119924571Y-91393428D01*
X120448380Y-91393428D02*
X119448380Y-91393428D01*
X119448380Y-90917238D01*
X81448380Y-95441047D02*
X81448380Y-95345809D01*
X81496000Y-95250571D01*
X81543619Y-95202952D01*
X81638857Y-95155333D01*
X81829333Y-95107714D01*
X82067428Y-95107714D01*
X82257904Y-95155333D01*
X82353142Y-95202952D01*
X82400761Y-95250571D01*
X82448380Y-95345809D01*
X82448380Y-95441047D01*
X82400761Y-95536285D01*
X82353142Y-95583904D01*
X82257904Y-95631523D01*
X82067428Y-95679142D01*
X81829333Y-95679142D01*
X81638857Y-95631523D01*
X81543619Y-95583904D01*
X81496000Y-95536285D01*
X81448380Y-95441047D01*
X82353142Y-94679142D02*
X82400761Y-94631523D01*
X82448380Y-94679142D01*
X82400761Y-94726761D01*
X82353142Y-94679142D01*
X82448380Y-94679142D01*
X81448380Y-94012476D02*
X81448380Y-93917238D01*
X81496000Y-93822000D01*
X81543619Y-93774380D01*
X81638857Y-93726761D01*
X81829333Y-93679142D01*
X82067428Y-93679142D01*
X82257904Y-93726761D01*
X82353142Y-93774380D01*
X82400761Y-93822000D01*
X82448380Y-93917238D01*
X82448380Y-94012476D01*
X82400761Y-94107714D01*
X82353142Y-94155333D01*
X82257904Y-94202952D01*
X82067428Y-94250571D01*
X81829333Y-94250571D01*
X81638857Y-94202952D01*
X81543619Y-94155333D01*
X81496000Y-94107714D01*
X81448380Y-94012476D01*
X82448380Y-92726761D02*
X82448380Y-93298190D01*
X82448380Y-93012476D02*
X81448380Y-93012476D01*
X81591238Y-93107714D01*
X81686476Y-93202952D01*
X81734095Y-93298190D01*
X81781714Y-91869619D02*
X82448380Y-91869619D01*
X81781714Y-92298190D02*
X82305523Y-92298190D01*
X82400761Y-92250571D01*
X82448380Y-92155333D01*
X82448380Y-92012476D01*
X82400761Y-91917238D01*
X82353142Y-91869619D01*
X81924571Y-91060095D02*
X81924571Y-91393428D01*
X82448380Y-91393428D02*
X81448380Y-91393428D01*
X81448380Y-90917238D01*
X119448380Y-57441047D02*
X119448380Y-57345809D01*
X119496000Y-57250571D01*
X119543619Y-57202952D01*
X119638857Y-57155333D01*
X119829333Y-57107714D01*
X120067428Y-57107714D01*
X120257904Y-57155333D01*
X120353142Y-57202952D01*
X120400761Y-57250571D01*
X120448380Y-57345809D01*
X120448380Y-57441047D01*
X120400761Y-57536285D01*
X120353142Y-57583904D01*
X120257904Y-57631523D01*
X120067428Y-57679142D01*
X119829333Y-57679142D01*
X119638857Y-57631523D01*
X119543619Y-57583904D01*
X119496000Y-57536285D01*
X119448380Y-57441047D01*
X120353142Y-56679142D02*
X120400761Y-56631523D01*
X120448380Y-56679142D01*
X120400761Y-56726761D01*
X120353142Y-56679142D01*
X120448380Y-56679142D01*
X119448380Y-56012476D02*
X119448380Y-55917238D01*
X119496000Y-55822000D01*
X119543619Y-55774380D01*
X119638857Y-55726761D01*
X119829333Y-55679142D01*
X120067428Y-55679142D01*
X120257904Y-55726761D01*
X120353142Y-55774380D01*
X120400761Y-55822000D01*
X120448380Y-55917238D01*
X120448380Y-56012476D01*
X120400761Y-56107714D01*
X120353142Y-56155333D01*
X120257904Y-56202952D01*
X120067428Y-56250571D01*
X119829333Y-56250571D01*
X119638857Y-56202952D01*
X119543619Y-56155333D01*
X119496000Y-56107714D01*
X119448380Y-56012476D01*
X120448380Y-54726761D02*
X120448380Y-55298190D01*
X120448380Y-55012476D02*
X119448380Y-55012476D01*
X119591238Y-55107714D01*
X119686476Y-55202952D01*
X119734095Y-55298190D01*
X119781714Y-53869619D02*
X120448380Y-53869619D01*
X119781714Y-54298190D02*
X120305523Y-54298190D01*
X120400761Y-54250571D01*
X120448380Y-54155333D01*
X120448380Y-54012476D01*
X120400761Y-53917238D01*
X120353142Y-53869619D01*
X119924571Y-53060095D02*
X119924571Y-53393428D01*
X120448380Y-53393428D02*
X119448380Y-53393428D01*
X119448380Y-52917238D01*
X124597619Y-117852380D02*
X124597619Y-117185714D01*
X124597619Y-116852380D02*
X124550000Y-116900000D01*
X124597619Y-116947619D01*
X124645238Y-116900000D01*
X124597619Y-116852380D01*
X124597619Y-116947619D01*
X125073809Y-117185714D02*
X125073809Y-117852380D01*
X125073809Y-117280952D02*
X125121428Y-117233333D01*
X125216666Y-117185714D01*
X125359523Y-117185714D01*
X125454761Y-117233333D01*
X125502380Y-117328571D01*
X125502380Y-117852380D01*
X86597619Y-117852380D02*
X86597619Y-117185714D01*
X86597619Y-116852380D02*
X86550000Y-116900000D01*
X86597619Y-116947619D01*
X86645238Y-116900000D01*
X86597619Y-116852380D01*
X86597619Y-116947619D01*
X87073809Y-117185714D02*
X87073809Y-117852380D01*
X87073809Y-117280952D02*
X87121428Y-117233333D01*
X87216666Y-117185714D01*
X87359523Y-117185714D01*
X87454761Y-117233333D01*
X87502380Y-117328571D01*
X87502380Y-117852380D01*
X124597619Y-79852380D02*
X124597619Y-79185714D01*
X124597619Y-78852380D02*
X124550000Y-78900000D01*
X124597619Y-78947619D01*
X124645238Y-78900000D01*
X124597619Y-78852380D01*
X124597619Y-78947619D01*
X125073809Y-79185714D02*
X125073809Y-79852380D01*
X125073809Y-79280952D02*
X125121428Y-79233333D01*
X125216666Y-79185714D01*
X125359523Y-79185714D01*
X125454761Y-79233333D01*
X125502380Y-79328571D01*
X125502380Y-79852380D01*
X118440476Y-117752380D02*
X118345238Y-117704761D01*
X118297619Y-117657142D01*
X118250000Y-117561904D01*
X118250000Y-117276190D01*
X118297619Y-117180952D01*
X118345238Y-117133333D01*
X118440476Y-117085714D01*
X118583333Y-117085714D01*
X118678571Y-117133333D01*
X118726190Y-117180952D01*
X118773809Y-117276190D01*
X118773809Y-117561904D01*
X118726190Y-117657142D01*
X118678571Y-117704761D01*
X118583333Y-117752380D01*
X118440476Y-117752380D01*
X119630952Y-117085714D02*
X119630952Y-117752380D01*
X119202380Y-117085714D02*
X119202380Y-117609523D01*
X119250000Y-117704761D01*
X119345238Y-117752380D01*
X119488095Y-117752380D01*
X119583333Y-117704761D01*
X119630952Y-117657142D01*
X119964285Y-117085714D02*
X120345238Y-117085714D01*
X120107142Y-116752380D02*
X120107142Y-117609523D01*
X120154761Y-117704761D01*
X120250000Y-117752380D01*
X120345238Y-117752380D01*
X80440476Y-117752380D02*
X80345238Y-117704761D01*
X80297619Y-117657142D01*
X80250000Y-117561904D01*
X80250000Y-117276190D01*
X80297619Y-117180952D01*
X80345238Y-117133333D01*
X80440476Y-117085714D01*
X80583333Y-117085714D01*
X80678571Y-117133333D01*
X80726190Y-117180952D01*
X80773809Y-117276190D01*
X80773809Y-117561904D01*
X80726190Y-117657142D01*
X80678571Y-117704761D01*
X80583333Y-117752380D01*
X80440476Y-117752380D01*
X81630952Y-117085714D02*
X81630952Y-117752380D01*
X81202380Y-117085714D02*
X81202380Y-117609523D01*
X81250000Y-117704761D01*
X81345238Y-117752380D01*
X81488095Y-117752380D01*
X81583333Y-117704761D01*
X81630952Y-117657142D01*
X81964285Y-117085714D02*
X82345238Y-117085714D01*
X82107142Y-116752380D02*
X82107142Y-117609523D01*
X82154761Y-117704761D01*
X82250000Y-117752380D01*
X82345238Y-117752380D01*
X118440476Y-79752380D02*
X118345238Y-79704761D01*
X118297619Y-79657142D01*
X118250000Y-79561904D01*
X118250000Y-79276190D01*
X118297619Y-79180952D01*
X118345238Y-79133333D01*
X118440476Y-79085714D01*
X118583333Y-79085714D01*
X118678571Y-79133333D01*
X118726190Y-79180952D01*
X118773809Y-79276190D01*
X118773809Y-79561904D01*
X118726190Y-79657142D01*
X118678571Y-79704761D01*
X118583333Y-79752380D01*
X118440476Y-79752380D01*
X119630952Y-79085714D02*
X119630952Y-79752380D01*
X119202380Y-79085714D02*
X119202380Y-79609523D01*
X119250000Y-79704761D01*
X119345238Y-79752380D01*
X119488095Y-79752380D01*
X119583333Y-79704761D01*
X119630952Y-79657142D01*
X119964285Y-79085714D02*
X120345238Y-79085714D01*
X120107142Y-78752380D02*
X120107142Y-79609523D01*
X120154761Y-79704761D01*
X120250000Y-79752380D01*
X120345238Y-79752380D01*
X139735714Y-102235761D02*
X139830952Y-102283380D01*
X140021428Y-102283380D01*
X140116666Y-102235761D01*
X140164285Y-102140523D01*
X140164285Y-102092904D01*
X140116666Y-101997666D01*
X140021428Y-101950047D01*
X139878571Y-101950047D01*
X139783333Y-101902428D01*
X139735714Y-101807190D01*
X139735714Y-101759571D01*
X139783333Y-101664333D01*
X139878571Y-101616714D01*
X140021428Y-101616714D01*
X140116666Y-101664333D01*
X140497619Y-101616714D02*
X140688095Y-102283380D01*
X140878571Y-101807190D01*
X141069047Y-102283380D01*
X141259523Y-101616714D01*
X142164285Y-102283380D02*
X141592857Y-102283380D01*
X141878571Y-102283380D02*
X141878571Y-101283380D01*
X141783333Y-101426238D01*
X141688095Y-101521476D01*
X141592857Y-101569095D01*
X101735714Y-102235761D02*
X101830952Y-102283380D01*
X102021428Y-102283380D01*
X102116666Y-102235761D01*
X102164285Y-102140523D01*
X102164285Y-102092904D01*
X102116666Y-101997666D01*
X102021428Y-101950047D01*
X101878571Y-101950047D01*
X101783333Y-101902428D01*
X101735714Y-101807190D01*
X101735714Y-101759571D01*
X101783333Y-101664333D01*
X101878571Y-101616714D01*
X102021428Y-101616714D01*
X102116666Y-101664333D01*
X102497619Y-101616714D02*
X102688095Y-102283380D01*
X102878571Y-101807190D01*
X103069047Y-102283380D01*
X103259523Y-101616714D01*
X104164285Y-102283380D02*
X103592857Y-102283380D01*
X103878571Y-102283380D02*
X103878571Y-101283380D01*
X103783333Y-101426238D01*
X103688095Y-101521476D01*
X103592857Y-101569095D01*
X139735714Y-64235761D02*
X139830952Y-64283380D01*
X140021428Y-64283380D01*
X140116666Y-64235761D01*
X140164285Y-64140523D01*
X140164285Y-64092904D01*
X140116666Y-63997666D01*
X140021428Y-63950047D01*
X139878571Y-63950047D01*
X139783333Y-63902428D01*
X139735714Y-63807190D01*
X139735714Y-63759571D01*
X139783333Y-63664333D01*
X139878571Y-63616714D01*
X140021428Y-63616714D01*
X140116666Y-63664333D01*
X140497619Y-63616714D02*
X140688095Y-64283380D01*
X140878571Y-63807190D01*
X141069047Y-64283380D01*
X141259523Y-63616714D01*
X142164285Y-64283380D02*
X141592857Y-64283380D01*
X141878571Y-64283380D02*
X141878571Y-63283380D01*
X141783333Y-63426238D01*
X141688095Y-63521476D01*
X141592857Y-63569095D01*
X121758380Y-104323666D02*
X121282190Y-104657000D01*
X121758380Y-104895095D02*
X120758380Y-104895095D01*
X120758380Y-104514142D01*
X120806000Y-104418904D01*
X120853619Y-104371285D01*
X120948857Y-104323666D01*
X121091714Y-104323666D01*
X121186952Y-104371285D01*
X121234571Y-104418904D01*
X121282190Y-104514142D01*
X121282190Y-104895095D01*
X120853619Y-103942714D02*
X120806000Y-103895095D01*
X120758380Y-103799857D01*
X120758380Y-103561761D01*
X120806000Y-103466523D01*
X120853619Y-103418904D01*
X120948857Y-103371285D01*
X121044095Y-103371285D01*
X121186952Y-103418904D01*
X121758380Y-103990333D01*
X121758380Y-103371285D01*
X83758380Y-104323666D02*
X83282190Y-104657000D01*
X83758380Y-104895095D02*
X82758380Y-104895095D01*
X82758380Y-104514142D01*
X82806000Y-104418904D01*
X82853619Y-104371285D01*
X82948857Y-104323666D01*
X83091714Y-104323666D01*
X83186952Y-104371285D01*
X83234571Y-104418904D01*
X83282190Y-104514142D01*
X83282190Y-104895095D01*
X82853619Y-103942714D02*
X82806000Y-103895095D01*
X82758380Y-103799857D01*
X82758380Y-103561761D01*
X82806000Y-103466523D01*
X82853619Y-103418904D01*
X82948857Y-103371285D01*
X83044095Y-103371285D01*
X83186952Y-103418904D01*
X83758380Y-103990333D01*
X83758380Y-103371285D01*
X121758380Y-66323666D02*
X121282190Y-66657000D01*
X121758380Y-66895095D02*
X120758380Y-66895095D01*
X120758380Y-66514142D01*
X120806000Y-66418904D01*
X120853619Y-66371285D01*
X120948857Y-66323666D01*
X121091714Y-66323666D01*
X121186952Y-66371285D01*
X121234571Y-66418904D01*
X121282190Y-66514142D01*
X121282190Y-66895095D01*
X120853619Y-65942714D02*
X120806000Y-65895095D01*
X120758380Y-65799857D01*
X120758380Y-65561761D01*
X120806000Y-65466523D01*
X120853619Y-65418904D01*
X120948857Y-65371285D01*
X121044095Y-65371285D01*
X121186952Y-65418904D01*
X121758380Y-65990333D01*
X121758380Y-65371285D01*
X130580952Y-87170380D02*
X130771428Y-87170380D01*
X130866666Y-87122761D01*
X130914285Y-87075142D01*
X131009523Y-86932285D01*
X131057142Y-86741809D01*
X131057142Y-86360857D01*
X131009523Y-86265619D01*
X130961904Y-86218000D01*
X130866666Y-86170380D01*
X130676190Y-86170380D01*
X130580952Y-86218000D01*
X130533333Y-86265619D01*
X130485714Y-86360857D01*
X130485714Y-86598952D01*
X130533333Y-86694190D01*
X130580952Y-86741809D01*
X130676190Y-86789428D01*
X130866666Y-86789428D01*
X130961904Y-86741809D01*
X131009523Y-86694190D01*
X131057142Y-86598952D01*
X131342857Y-86170380D02*
X131676190Y-87170380D01*
X132009523Y-86170380D01*
X92580952Y-87170380D02*
X92771428Y-87170380D01*
X92866666Y-87122761D01*
X92914285Y-87075142D01*
X93009523Y-86932285D01*
X93057142Y-86741809D01*
X93057142Y-86360857D01*
X93009523Y-86265619D01*
X92961904Y-86218000D01*
X92866666Y-86170380D01*
X92676190Y-86170380D01*
X92580952Y-86218000D01*
X92533333Y-86265619D01*
X92485714Y-86360857D01*
X92485714Y-86598952D01*
X92533333Y-86694190D01*
X92580952Y-86741809D01*
X92676190Y-86789428D01*
X92866666Y-86789428D01*
X92961904Y-86741809D01*
X93009523Y-86694190D01*
X93057142Y-86598952D01*
X93342857Y-86170380D02*
X93676190Y-87170380D01*
X94009523Y-86170380D01*
X130580952Y-49170380D02*
X130771428Y-49170380D01*
X130866666Y-49122761D01*
X130914285Y-49075142D01*
X131009523Y-48932285D01*
X131057142Y-48741809D01*
X131057142Y-48360857D01*
X131009523Y-48265619D01*
X130961904Y-48218000D01*
X130866666Y-48170380D01*
X130676190Y-48170380D01*
X130580952Y-48218000D01*
X130533333Y-48265619D01*
X130485714Y-48360857D01*
X130485714Y-48598952D01*
X130533333Y-48694190D01*
X130580952Y-48741809D01*
X130676190Y-48789428D01*
X130866666Y-48789428D01*
X130961904Y-48741809D01*
X131009523Y-48694190D01*
X131057142Y-48598952D01*
X131342857Y-48170380D02*
X131676190Y-49170380D01*
X132009523Y-48170380D01*
X144235714Y-102254761D02*
X144330952Y-102302380D01*
X144521428Y-102302380D01*
X144616666Y-102254761D01*
X144664285Y-102159523D01*
X144664285Y-102111904D01*
X144616666Y-102016666D01*
X144521428Y-101969047D01*
X144378571Y-101969047D01*
X144283333Y-101921428D01*
X144235714Y-101826190D01*
X144235714Y-101778571D01*
X144283333Y-101683333D01*
X144378571Y-101635714D01*
X144521428Y-101635714D01*
X144616666Y-101683333D01*
X144997619Y-101635714D02*
X145188095Y-102302380D01*
X145378571Y-101826190D01*
X145569047Y-102302380D01*
X145759523Y-101635714D01*
X146092857Y-101397619D02*
X146140476Y-101350000D01*
X146235714Y-101302380D01*
X146473809Y-101302380D01*
X146569047Y-101350000D01*
X146616666Y-101397619D01*
X146664285Y-101492857D01*
X146664285Y-101588095D01*
X146616666Y-101730952D01*
X146045238Y-102302380D01*
X146664285Y-102302380D01*
X106235714Y-102254761D02*
X106330952Y-102302380D01*
X106521428Y-102302380D01*
X106616666Y-102254761D01*
X106664285Y-102159523D01*
X106664285Y-102111904D01*
X106616666Y-102016666D01*
X106521428Y-101969047D01*
X106378571Y-101969047D01*
X106283333Y-101921428D01*
X106235714Y-101826190D01*
X106235714Y-101778571D01*
X106283333Y-101683333D01*
X106378571Y-101635714D01*
X106521428Y-101635714D01*
X106616666Y-101683333D01*
X106997619Y-101635714D02*
X107188095Y-102302380D01*
X107378571Y-101826190D01*
X107569047Y-102302380D01*
X107759523Y-101635714D01*
X108092857Y-101397619D02*
X108140476Y-101350000D01*
X108235714Y-101302380D01*
X108473809Y-101302380D01*
X108569047Y-101350000D01*
X108616666Y-101397619D01*
X108664285Y-101492857D01*
X108664285Y-101588095D01*
X108616666Y-101730952D01*
X108045238Y-102302380D01*
X108664285Y-102302380D01*
X144235714Y-64254761D02*
X144330952Y-64302380D01*
X144521428Y-64302380D01*
X144616666Y-64254761D01*
X144664285Y-64159523D01*
X144664285Y-64111904D01*
X144616666Y-64016666D01*
X144521428Y-63969047D01*
X144378571Y-63969047D01*
X144283333Y-63921428D01*
X144235714Y-63826190D01*
X144235714Y-63778571D01*
X144283333Y-63683333D01*
X144378571Y-63635714D01*
X144521428Y-63635714D01*
X144616666Y-63683333D01*
X144997619Y-63635714D02*
X145188095Y-64302380D01*
X145378571Y-63826190D01*
X145569047Y-64302380D01*
X145759523Y-63635714D01*
X146092857Y-63397619D02*
X146140476Y-63350000D01*
X146235714Y-63302380D01*
X146473809Y-63302380D01*
X146569047Y-63350000D01*
X146616666Y-63397619D01*
X146664285Y-63492857D01*
X146664285Y-63588095D01*
X146616666Y-63730952D01*
X146045238Y-64302380D01*
X146664285Y-64302380D01*
D11*
X139460809Y-86764333D02*
X139841761Y-86764333D01*
X139384619Y-86992904D02*
X139651285Y-86192904D01*
X139917952Y-86992904D01*
X140603666Y-86992904D02*
X140146523Y-86992904D01*
X140375095Y-86992904D02*
X140375095Y-86192904D01*
X140298904Y-86307190D01*
X140222714Y-86383380D01*
X140146523Y-86421476D01*
X140946523Y-86992904D02*
X140946523Y-86192904D01*
X141022714Y-86688142D02*
X141251285Y-86992904D01*
X141251285Y-86459571D02*
X140946523Y-86764333D01*
X142013190Y-86992904D02*
X141556047Y-86992904D01*
X141784619Y-86992904D02*
X141784619Y-86192904D01*
X141708428Y-86307190D01*
X141632238Y-86383380D01*
X141556047Y-86421476D01*
X101460809Y-86764333D02*
X101841761Y-86764333D01*
X101384619Y-86992904D02*
X101651285Y-86192904D01*
X101917952Y-86992904D01*
X102603666Y-86992904D02*
X102146523Y-86992904D01*
X102375095Y-86992904D02*
X102375095Y-86192904D01*
X102298904Y-86307190D01*
X102222714Y-86383380D01*
X102146523Y-86421476D01*
X102946523Y-86992904D02*
X102946523Y-86192904D01*
X103022714Y-86688142D02*
X103251285Y-86992904D01*
X103251285Y-86459571D02*
X102946523Y-86764333D01*
X104013190Y-86992904D02*
X103556047Y-86992904D01*
X103784619Y-86992904D02*
X103784619Y-86192904D01*
X103708428Y-86307190D01*
X103632238Y-86383380D01*
X103556047Y-86421476D01*
X139460809Y-48764333D02*
X139841761Y-48764333D01*
X139384619Y-48992904D02*
X139651285Y-48192904D01*
X139917952Y-48992904D01*
X140603666Y-48992904D02*
X140146523Y-48992904D01*
X140375095Y-48992904D02*
X140375095Y-48192904D01*
X140298904Y-48307190D01*
X140222714Y-48383380D01*
X140146523Y-48421476D01*
X140946523Y-48992904D02*
X140946523Y-48192904D01*
X141022714Y-48688142D02*
X141251285Y-48992904D01*
X141251285Y-48459571D02*
X140946523Y-48764333D01*
X142013190Y-48992904D02*
X141556047Y-48992904D01*
X141784619Y-48992904D02*
X141784619Y-48192904D01*
X141708428Y-48307190D01*
X141632238Y-48383380D01*
X141556047Y-48421476D01*
D10*
X122909714Y-89270571D02*
X123052571Y-89318190D01*
X123100190Y-89365809D01*
X123147809Y-89461047D01*
X123147809Y-89603904D01*
X123100190Y-89699142D01*
X123052571Y-89746761D01*
X122957333Y-89794380D01*
X122576380Y-89794380D01*
X122576380Y-88794380D01*
X122909714Y-88794380D01*
X123004952Y-88842000D01*
X123052571Y-88889619D01*
X123100190Y-88984857D01*
X123100190Y-89080095D01*
X123052571Y-89175333D01*
X123004952Y-89222952D01*
X122909714Y-89270571D01*
X122576380Y-89270571D01*
X124147809Y-89699142D02*
X124100190Y-89746761D01*
X123957333Y-89794380D01*
X123862095Y-89794380D01*
X123719238Y-89746761D01*
X123624000Y-89651523D01*
X123576380Y-89556285D01*
X123528761Y-89365809D01*
X123528761Y-89222952D01*
X123576380Y-89032476D01*
X123624000Y-88937238D01*
X123719238Y-88842000D01*
X123862095Y-88794380D01*
X123957333Y-88794380D01*
X124100190Y-88842000D01*
X124147809Y-88889619D01*
X125100190Y-89794380D02*
X124528761Y-89794380D01*
X124814476Y-89794380D02*
X124814476Y-88794380D01*
X124719238Y-88937238D01*
X124624000Y-89032476D01*
X124528761Y-89080095D01*
X125719238Y-88794380D02*
X125814476Y-88794380D01*
X125909714Y-88842000D01*
X125957333Y-88889619D01*
X126004952Y-88984857D01*
X126052571Y-89175333D01*
X126052571Y-89413428D01*
X126004952Y-89603904D01*
X125957333Y-89699142D01*
X125909714Y-89746761D01*
X125814476Y-89794380D01*
X125719238Y-89794380D01*
X125624000Y-89746761D01*
X125576380Y-89699142D01*
X125528761Y-89603904D01*
X125481142Y-89413428D01*
X125481142Y-89175333D01*
X125528761Y-88984857D01*
X125576380Y-88889619D01*
X125624000Y-88842000D01*
X125719238Y-88794380D01*
X126624000Y-89222952D02*
X126528761Y-89175333D01*
X126481142Y-89127714D01*
X126433523Y-89032476D01*
X126433523Y-88984857D01*
X126481142Y-88889619D01*
X126528761Y-88842000D01*
X126624000Y-88794380D01*
X126814476Y-88794380D01*
X126909714Y-88842000D01*
X126957333Y-88889619D01*
X127004952Y-88984857D01*
X127004952Y-89032476D01*
X126957333Y-89127714D01*
X126909714Y-89175333D01*
X126814476Y-89222952D01*
X126624000Y-89222952D01*
X126528761Y-89270571D01*
X126481142Y-89318190D01*
X126433523Y-89413428D01*
X126433523Y-89603904D01*
X126481142Y-89699142D01*
X126528761Y-89746761D01*
X126624000Y-89794380D01*
X126814476Y-89794380D01*
X126909714Y-89746761D01*
X126957333Y-89699142D01*
X127004952Y-89603904D01*
X127004952Y-89413428D01*
X126957333Y-89318190D01*
X126909714Y-89270571D01*
X126814476Y-89222952D01*
X127290666Y-88794380D02*
X127862095Y-88794380D01*
X127576380Y-89794380D02*
X127576380Y-88794380D01*
X128719238Y-89794380D02*
X128147809Y-89794380D01*
X128433523Y-89794380D02*
X128433523Y-88794380D01*
X128338285Y-88937238D01*
X128243047Y-89032476D01*
X128147809Y-89080095D01*
X84909714Y-89270571D02*
X85052571Y-89318190D01*
X85100190Y-89365809D01*
X85147809Y-89461047D01*
X85147809Y-89603904D01*
X85100190Y-89699142D01*
X85052571Y-89746761D01*
X84957333Y-89794380D01*
X84576380Y-89794380D01*
X84576380Y-88794380D01*
X84909714Y-88794380D01*
X85004952Y-88842000D01*
X85052571Y-88889619D01*
X85100190Y-88984857D01*
X85100190Y-89080095D01*
X85052571Y-89175333D01*
X85004952Y-89222952D01*
X84909714Y-89270571D01*
X84576380Y-89270571D01*
X86147809Y-89699142D02*
X86100190Y-89746761D01*
X85957333Y-89794380D01*
X85862095Y-89794380D01*
X85719238Y-89746761D01*
X85624000Y-89651523D01*
X85576380Y-89556285D01*
X85528761Y-89365809D01*
X85528761Y-89222952D01*
X85576380Y-89032476D01*
X85624000Y-88937238D01*
X85719238Y-88842000D01*
X85862095Y-88794380D01*
X85957333Y-88794380D01*
X86100190Y-88842000D01*
X86147809Y-88889619D01*
X87100190Y-89794380D02*
X86528761Y-89794380D01*
X86814476Y-89794380D02*
X86814476Y-88794380D01*
X86719238Y-88937238D01*
X86624000Y-89032476D01*
X86528761Y-89080095D01*
X87719238Y-88794380D02*
X87814476Y-88794380D01*
X87909714Y-88842000D01*
X87957333Y-88889619D01*
X88004952Y-88984857D01*
X88052571Y-89175333D01*
X88052571Y-89413428D01*
X88004952Y-89603904D01*
X87957333Y-89699142D01*
X87909714Y-89746761D01*
X87814476Y-89794380D01*
X87719238Y-89794380D01*
X87624000Y-89746761D01*
X87576380Y-89699142D01*
X87528761Y-89603904D01*
X87481142Y-89413428D01*
X87481142Y-89175333D01*
X87528761Y-88984857D01*
X87576380Y-88889619D01*
X87624000Y-88842000D01*
X87719238Y-88794380D01*
X88624000Y-89222952D02*
X88528761Y-89175333D01*
X88481142Y-89127714D01*
X88433523Y-89032476D01*
X88433523Y-88984857D01*
X88481142Y-88889619D01*
X88528761Y-88842000D01*
X88624000Y-88794380D01*
X88814476Y-88794380D01*
X88909714Y-88842000D01*
X88957333Y-88889619D01*
X89004952Y-88984857D01*
X89004952Y-89032476D01*
X88957333Y-89127714D01*
X88909714Y-89175333D01*
X88814476Y-89222952D01*
X88624000Y-89222952D01*
X88528761Y-89270571D01*
X88481142Y-89318190D01*
X88433523Y-89413428D01*
X88433523Y-89603904D01*
X88481142Y-89699142D01*
X88528761Y-89746761D01*
X88624000Y-89794380D01*
X88814476Y-89794380D01*
X88909714Y-89746761D01*
X88957333Y-89699142D01*
X89004952Y-89603904D01*
X89004952Y-89413428D01*
X88957333Y-89318190D01*
X88909714Y-89270571D01*
X88814476Y-89222952D01*
X89290666Y-88794380D02*
X89862095Y-88794380D01*
X89576380Y-89794380D02*
X89576380Y-88794380D01*
X90719238Y-89794380D02*
X90147809Y-89794380D01*
X90433523Y-89794380D02*
X90433523Y-88794380D01*
X90338285Y-88937238D01*
X90243047Y-89032476D01*
X90147809Y-89080095D01*
X122909714Y-51270571D02*
X123052571Y-51318190D01*
X123100190Y-51365809D01*
X123147809Y-51461047D01*
X123147809Y-51603904D01*
X123100190Y-51699142D01*
X123052571Y-51746761D01*
X122957333Y-51794380D01*
X122576380Y-51794380D01*
X122576380Y-50794380D01*
X122909714Y-50794380D01*
X123004952Y-50842000D01*
X123052571Y-50889619D01*
X123100190Y-50984857D01*
X123100190Y-51080095D01*
X123052571Y-51175333D01*
X123004952Y-51222952D01*
X122909714Y-51270571D01*
X122576380Y-51270571D01*
X124147809Y-51699142D02*
X124100190Y-51746761D01*
X123957333Y-51794380D01*
X123862095Y-51794380D01*
X123719238Y-51746761D01*
X123624000Y-51651523D01*
X123576380Y-51556285D01*
X123528761Y-51365809D01*
X123528761Y-51222952D01*
X123576380Y-51032476D01*
X123624000Y-50937238D01*
X123719238Y-50842000D01*
X123862095Y-50794380D01*
X123957333Y-50794380D01*
X124100190Y-50842000D01*
X124147809Y-50889619D01*
X125100190Y-51794380D02*
X124528761Y-51794380D01*
X124814476Y-51794380D02*
X124814476Y-50794380D01*
X124719238Y-50937238D01*
X124624000Y-51032476D01*
X124528761Y-51080095D01*
X125719238Y-50794380D02*
X125814476Y-50794380D01*
X125909714Y-50842000D01*
X125957333Y-50889619D01*
X126004952Y-50984857D01*
X126052571Y-51175333D01*
X126052571Y-51413428D01*
X126004952Y-51603904D01*
X125957333Y-51699142D01*
X125909714Y-51746761D01*
X125814476Y-51794380D01*
X125719238Y-51794380D01*
X125624000Y-51746761D01*
X125576380Y-51699142D01*
X125528761Y-51603904D01*
X125481142Y-51413428D01*
X125481142Y-51175333D01*
X125528761Y-50984857D01*
X125576380Y-50889619D01*
X125624000Y-50842000D01*
X125719238Y-50794380D01*
X126624000Y-51222952D02*
X126528761Y-51175333D01*
X126481142Y-51127714D01*
X126433523Y-51032476D01*
X126433523Y-50984857D01*
X126481142Y-50889619D01*
X126528761Y-50842000D01*
X126624000Y-50794380D01*
X126814476Y-50794380D01*
X126909714Y-50842000D01*
X126957333Y-50889619D01*
X127004952Y-50984857D01*
X127004952Y-51032476D01*
X126957333Y-51127714D01*
X126909714Y-51175333D01*
X126814476Y-51222952D01*
X126624000Y-51222952D01*
X126528761Y-51270571D01*
X126481142Y-51318190D01*
X126433523Y-51413428D01*
X126433523Y-51603904D01*
X126481142Y-51699142D01*
X126528761Y-51746761D01*
X126624000Y-51794380D01*
X126814476Y-51794380D01*
X126909714Y-51746761D01*
X126957333Y-51699142D01*
X127004952Y-51603904D01*
X127004952Y-51413428D01*
X126957333Y-51318190D01*
X126909714Y-51270571D01*
X126814476Y-51222952D01*
X127290666Y-50794380D02*
X127862095Y-50794380D01*
X127576380Y-51794380D02*
X127576380Y-50794380D01*
X128719238Y-51794380D02*
X128147809Y-51794380D01*
X128433523Y-51794380D02*
X128433523Y-50794380D01*
X128338285Y-50937238D01*
X128243047Y-51032476D01*
X128147809Y-51080095D01*
X130021714Y-89270571D02*
X130164571Y-89318190D01*
X130212190Y-89365809D01*
X130259809Y-89461047D01*
X130259809Y-89603904D01*
X130212190Y-89699142D01*
X130164571Y-89746761D01*
X130069333Y-89794380D01*
X129688380Y-89794380D01*
X129688380Y-88794380D01*
X130021714Y-88794380D01*
X130116952Y-88842000D01*
X130164571Y-88889619D01*
X130212190Y-88984857D01*
X130212190Y-89080095D01*
X130164571Y-89175333D01*
X130116952Y-89222952D01*
X130021714Y-89270571D01*
X129688380Y-89270571D01*
X131259809Y-89699142D02*
X131212190Y-89746761D01*
X131069333Y-89794380D01*
X130974095Y-89794380D01*
X130831238Y-89746761D01*
X130736000Y-89651523D01*
X130688380Y-89556285D01*
X130640761Y-89365809D01*
X130640761Y-89222952D01*
X130688380Y-89032476D01*
X130736000Y-88937238D01*
X130831238Y-88842000D01*
X130974095Y-88794380D01*
X131069333Y-88794380D01*
X131212190Y-88842000D01*
X131259809Y-88889619D01*
X132212190Y-89794380D02*
X131640761Y-89794380D01*
X131926476Y-89794380D02*
X131926476Y-88794380D01*
X131831238Y-88937238D01*
X131736000Y-89032476D01*
X131640761Y-89080095D01*
X132831238Y-88794380D02*
X132926476Y-88794380D01*
X133021714Y-88842000D01*
X133069333Y-88889619D01*
X133116952Y-88984857D01*
X133164571Y-89175333D01*
X133164571Y-89413428D01*
X133116952Y-89603904D01*
X133069333Y-89699142D01*
X133021714Y-89746761D01*
X132926476Y-89794380D01*
X132831238Y-89794380D01*
X132736000Y-89746761D01*
X132688380Y-89699142D01*
X132640761Y-89603904D01*
X132593142Y-89413428D01*
X132593142Y-89175333D01*
X132640761Y-88984857D01*
X132688380Y-88889619D01*
X132736000Y-88842000D01*
X132831238Y-88794380D01*
X133736000Y-89222952D02*
X133640761Y-89175333D01*
X133593142Y-89127714D01*
X133545523Y-89032476D01*
X133545523Y-88984857D01*
X133593142Y-88889619D01*
X133640761Y-88842000D01*
X133736000Y-88794380D01*
X133926476Y-88794380D01*
X134021714Y-88842000D01*
X134069333Y-88889619D01*
X134116952Y-88984857D01*
X134116952Y-89032476D01*
X134069333Y-89127714D01*
X134021714Y-89175333D01*
X133926476Y-89222952D01*
X133736000Y-89222952D01*
X133640761Y-89270571D01*
X133593142Y-89318190D01*
X133545523Y-89413428D01*
X133545523Y-89603904D01*
X133593142Y-89699142D01*
X133640761Y-89746761D01*
X133736000Y-89794380D01*
X133926476Y-89794380D01*
X134021714Y-89746761D01*
X134069333Y-89699142D01*
X134116952Y-89603904D01*
X134116952Y-89413428D01*
X134069333Y-89318190D01*
X134021714Y-89270571D01*
X133926476Y-89222952D01*
X134402666Y-88794380D02*
X134974095Y-88794380D01*
X134688380Y-89794380D02*
X134688380Y-88794380D01*
X135259809Y-88889619D02*
X135307428Y-88842000D01*
X135402666Y-88794380D01*
X135640761Y-88794380D01*
X135736000Y-88842000D01*
X135783619Y-88889619D01*
X135831238Y-88984857D01*
X135831238Y-89080095D01*
X135783619Y-89222952D01*
X135212190Y-89794380D01*
X135831238Y-89794380D01*
X92021714Y-89270571D02*
X92164571Y-89318190D01*
X92212190Y-89365809D01*
X92259809Y-89461047D01*
X92259809Y-89603904D01*
X92212190Y-89699142D01*
X92164571Y-89746761D01*
X92069333Y-89794380D01*
X91688380Y-89794380D01*
X91688380Y-88794380D01*
X92021714Y-88794380D01*
X92116952Y-88842000D01*
X92164571Y-88889619D01*
X92212190Y-88984857D01*
X92212190Y-89080095D01*
X92164571Y-89175333D01*
X92116952Y-89222952D01*
X92021714Y-89270571D01*
X91688380Y-89270571D01*
X93259809Y-89699142D02*
X93212190Y-89746761D01*
X93069333Y-89794380D01*
X92974095Y-89794380D01*
X92831238Y-89746761D01*
X92736000Y-89651523D01*
X92688380Y-89556285D01*
X92640761Y-89365809D01*
X92640761Y-89222952D01*
X92688380Y-89032476D01*
X92736000Y-88937238D01*
X92831238Y-88842000D01*
X92974095Y-88794380D01*
X93069333Y-88794380D01*
X93212190Y-88842000D01*
X93259809Y-88889619D01*
X94212190Y-89794380D02*
X93640761Y-89794380D01*
X93926476Y-89794380D02*
X93926476Y-88794380D01*
X93831238Y-88937238D01*
X93736000Y-89032476D01*
X93640761Y-89080095D01*
X94831238Y-88794380D02*
X94926476Y-88794380D01*
X95021714Y-88842000D01*
X95069333Y-88889619D01*
X95116952Y-88984857D01*
X95164571Y-89175333D01*
X95164571Y-89413428D01*
X95116952Y-89603904D01*
X95069333Y-89699142D01*
X95021714Y-89746761D01*
X94926476Y-89794380D01*
X94831238Y-89794380D01*
X94736000Y-89746761D01*
X94688380Y-89699142D01*
X94640761Y-89603904D01*
X94593142Y-89413428D01*
X94593142Y-89175333D01*
X94640761Y-88984857D01*
X94688380Y-88889619D01*
X94736000Y-88842000D01*
X94831238Y-88794380D01*
X95736000Y-89222952D02*
X95640761Y-89175333D01*
X95593142Y-89127714D01*
X95545523Y-89032476D01*
X95545523Y-88984857D01*
X95593142Y-88889619D01*
X95640761Y-88842000D01*
X95736000Y-88794380D01*
X95926476Y-88794380D01*
X96021714Y-88842000D01*
X96069333Y-88889619D01*
X96116952Y-88984857D01*
X96116952Y-89032476D01*
X96069333Y-89127714D01*
X96021714Y-89175333D01*
X95926476Y-89222952D01*
X95736000Y-89222952D01*
X95640761Y-89270571D01*
X95593142Y-89318190D01*
X95545523Y-89413428D01*
X95545523Y-89603904D01*
X95593142Y-89699142D01*
X95640761Y-89746761D01*
X95736000Y-89794380D01*
X95926476Y-89794380D01*
X96021714Y-89746761D01*
X96069333Y-89699142D01*
X96116952Y-89603904D01*
X96116952Y-89413428D01*
X96069333Y-89318190D01*
X96021714Y-89270571D01*
X95926476Y-89222952D01*
X96402666Y-88794380D02*
X96974095Y-88794380D01*
X96688380Y-89794380D02*
X96688380Y-88794380D01*
X97259809Y-88889619D02*
X97307428Y-88842000D01*
X97402666Y-88794380D01*
X97640761Y-88794380D01*
X97736000Y-88842000D01*
X97783619Y-88889619D01*
X97831238Y-88984857D01*
X97831238Y-89080095D01*
X97783619Y-89222952D01*
X97212190Y-89794380D01*
X97831238Y-89794380D01*
X130021714Y-51270571D02*
X130164571Y-51318190D01*
X130212190Y-51365809D01*
X130259809Y-51461047D01*
X130259809Y-51603904D01*
X130212190Y-51699142D01*
X130164571Y-51746761D01*
X130069333Y-51794380D01*
X129688380Y-51794380D01*
X129688380Y-50794380D01*
X130021714Y-50794380D01*
X130116952Y-50842000D01*
X130164571Y-50889619D01*
X130212190Y-50984857D01*
X130212190Y-51080095D01*
X130164571Y-51175333D01*
X130116952Y-51222952D01*
X130021714Y-51270571D01*
X129688380Y-51270571D01*
X131259809Y-51699142D02*
X131212190Y-51746761D01*
X131069333Y-51794380D01*
X130974095Y-51794380D01*
X130831238Y-51746761D01*
X130736000Y-51651523D01*
X130688380Y-51556285D01*
X130640761Y-51365809D01*
X130640761Y-51222952D01*
X130688380Y-51032476D01*
X130736000Y-50937238D01*
X130831238Y-50842000D01*
X130974095Y-50794380D01*
X131069333Y-50794380D01*
X131212190Y-50842000D01*
X131259809Y-50889619D01*
X132212190Y-51794380D02*
X131640761Y-51794380D01*
X131926476Y-51794380D02*
X131926476Y-50794380D01*
X131831238Y-50937238D01*
X131736000Y-51032476D01*
X131640761Y-51080095D01*
X132831238Y-50794380D02*
X132926476Y-50794380D01*
X133021714Y-50842000D01*
X133069333Y-50889619D01*
X133116952Y-50984857D01*
X133164571Y-51175333D01*
X133164571Y-51413428D01*
X133116952Y-51603904D01*
X133069333Y-51699142D01*
X133021714Y-51746761D01*
X132926476Y-51794380D01*
X132831238Y-51794380D01*
X132736000Y-51746761D01*
X132688380Y-51699142D01*
X132640761Y-51603904D01*
X132593142Y-51413428D01*
X132593142Y-51175333D01*
X132640761Y-50984857D01*
X132688380Y-50889619D01*
X132736000Y-50842000D01*
X132831238Y-50794380D01*
X133736000Y-51222952D02*
X133640761Y-51175333D01*
X133593142Y-51127714D01*
X133545523Y-51032476D01*
X133545523Y-50984857D01*
X133593142Y-50889619D01*
X133640761Y-50842000D01*
X133736000Y-50794380D01*
X133926476Y-50794380D01*
X134021714Y-50842000D01*
X134069333Y-50889619D01*
X134116952Y-50984857D01*
X134116952Y-51032476D01*
X134069333Y-51127714D01*
X134021714Y-51175333D01*
X133926476Y-51222952D01*
X133736000Y-51222952D01*
X133640761Y-51270571D01*
X133593142Y-51318190D01*
X133545523Y-51413428D01*
X133545523Y-51603904D01*
X133593142Y-51699142D01*
X133640761Y-51746761D01*
X133736000Y-51794380D01*
X133926476Y-51794380D01*
X134021714Y-51746761D01*
X134069333Y-51699142D01*
X134116952Y-51603904D01*
X134116952Y-51413428D01*
X134069333Y-51318190D01*
X134021714Y-51270571D01*
X133926476Y-51222952D01*
X134402666Y-50794380D02*
X134974095Y-50794380D01*
X134688380Y-51794380D02*
X134688380Y-50794380D01*
X135259809Y-50889619D02*
X135307428Y-50842000D01*
X135402666Y-50794380D01*
X135640761Y-50794380D01*
X135736000Y-50842000D01*
X135783619Y-50889619D01*
X135831238Y-50984857D01*
X135831238Y-51080095D01*
X135783619Y-51222952D01*
X135212190Y-51794380D01*
X135831238Y-51794380D01*
X148685714Y-102235761D02*
X148780952Y-102283380D01*
X148971428Y-102283380D01*
X149066666Y-102235761D01*
X149114285Y-102140523D01*
X149114285Y-102092904D01*
X149066666Y-101997666D01*
X148971428Y-101950047D01*
X148828571Y-101950047D01*
X148733333Y-101902428D01*
X148685714Y-101807190D01*
X148685714Y-101759571D01*
X148733333Y-101664333D01*
X148828571Y-101616714D01*
X148971428Y-101616714D01*
X149066666Y-101664333D01*
X149447619Y-101616714D02*
X149638095Y-102283380D01*
X149828571Y-101807190D01*
X150019047Y-102283380D01*
X150209523Y-101616714D01*
X150495238Y-101283380D02*
X151114285Y-101283380D01*
X150780952Y-101664333D01*
X150923809Y-101664333D01*
X151019047Y-101711952D01*
X151066666Y-101759571D01*
X151114285Y-101854809D01*
X151114285Y-102092904D01*
X151066666Y-102188142D01*
X151019047Y-102235761D01*
X150923809Y-102283380D01*
X150638095Y-102283380D01*
X150542857Y-102235761D01*
X150495238Y-102188142D01*
X110685714Y-102235761D02*
X110780952Y-102283380D01*
X110971428Y-102283380D01*
X111066666Y-102235761D01*
X111114285Y-102140523D01*
X111114285Y-102092904D01*
X111066666Y-101997666D01*
X110971428Y-101950047D01*
X110828571Y-101950047D01*
X110733333Y-101902428D01*
X110685714Y-101807190D01*
X110685714Y-101759571D01*
X110733333Y-101664333D01*
X110828571Y-101616714D01*
X110971428Y-101616714D01*
X111066666Y-101664333D01*
X111447619Y-101616714D02*
X111638095Y-102283380D01*
X111828571Y-101807190D01*
X112019047Y-102283380D01*
X112209523Y-101616714D01*
X112495238Y-101283380D02*
X113114285Y-101283380D01*
X112780952Y-101664333D01*
X112923809Y-101664333D01*
X113019047Y-101711952D01*
X113066666Y-101759571D01*
X113114285Y-101854809D01*
X113114285Y-102092904D01*
X113066666Y-102188142D01*
X113019047Y-102235761D01*
X112923809Y-102283380D01*
X112638095Y-102283380D01*
X112542857Y-102235761D01*
X112495238Y-102188142D01*
X148685714Y-64235761D02*
X148780952Y-64283380D01*
X148971428Y-64283380D01*
X149066666Y-64235761D01*
X149114285Y-64140523D01*
X149114285Y-64092904D01*
X149066666Y-63997666D01*
X148971428Y-63950047D01*
X148828571Y-63950047D01*
X148733333Y-63902428D01*
X148685714Y-63807190D01*
X148685714Y-63759571D01*
X148733333Y-63664333D01*
X148828571Y-63616714D01*
X148971428Y-63616714D01*
X149066666Y-63664333D01*
X149447619Y-63616714D02*
X149638095Y-64283380D01*
X149828571Y-63807190D01*
X150019047Y-64283380D01*
X150209523Y-63616714D01*
X150495238Y-63283380D02*
X151114285Y-63283380D01*
X150780952Y-63664333D01*
X150923809Y-63664333D01*
X151019047Y-63711952D01*
X151066666Y-63759571D01*
X151114285Y-63854809D01*
X151114285Y-64092904D01*
X151066666Y-64188142D01*
X151019047Y-64235761D01*
X150923809Y-64283380D01*
X150638095Y-64283380D01*
X150542857Y-64235761D01*
X150495238Y-64188142D01*
D12*
X119903666Y-86851333D02*
X120237000Y-86851333D01*
X119837000Y-87079904D02*
X120070333Y-86279904D01*
X120303666Y-87079904D01*
X120870333Y-86279904D02*
X120537000Y-86279904D01*
X120503666Y-86660857D01*
X120537000Y-86622761D01*
X120603666Y-86584666D01*
X120770333Y-86584666D01*
X120837000Y-86622761D01*
X120870333Y-86660857D01*
X120903666Y-86737047D01*
X120903666Y-86927523D01*
X120870333Y-87003714D01*
X120837000Y-87041809D01*
X120770333Y-87079904D01*
X120603666Y-87079904D01*
X120537000Y-87041809D01*
X120503666Y-87003714D01*
X121337000Y-86279904D02*
X121403666Y-86279904D01*
X121470333Y-86318000D01*
X121503666Y-86356095D01*
X121537000Y-86432285D01*
X121570333Y-86584666D01*
X121570333Y-86775142D01*
X121537000Y-86927523D01*
X121503666Y-87003714D01*
X121470333Y-87041809D01*
X121403666Y-87079904D01*
X121337000Y-87079904D01*
X121270333Y-87041809D01*
X121237000Y-87003714D01*
X121203666Y-86927523D01*
X121170333Y-86775142D01*
X121170333Y-86584666D01*
X121203666Y-86432285D01*
X121237000Y-86356095D01*
X121270333Y-86318000D01*
X121337000Y-86279904D01*
X122003666Y-86279904D02*
X122070333Y-86279904D01*
X122137000Y-86318000D01*
X122170333Y-86356095D01*
X122203666Y-86432285D01*
X122237000Y-86584666D01*
X122237000Y-86775142D01*
X122203666Y-86927523D01*
X122170333Y-87003714D01*
X122137000Y-87041809D01*
X122070333Y-87079904D01*
X122003666Y-87079904D01*
X121937000Y-87041809D01*
X121903666Y-87003714D01*
X121870333Y-86927523D01*
X121837000Y-86775142D01*
X121837000Y-86584666D01*
X121870333Y-86432285D01*
X121903666Y-86356095D01*
X121937000Y-86318000D01*
X122003666Y-86279904D01*
X122537000Y-87079904D02*
X122537000Y-86279904D01*
X122603666Y-86775142D02*
X122803666Y-87079904D01*
X122803666Y-86546571D02*
X122537000Y-86851333D01*
X123070333Y-86356095D02*
X123103666Y-86318000D01*
X123170333Y-86279904D01*
X123337000Y-86279904D01*
X123403666Y-86318000D01*
X123437000Y-86356095D01*
X123470333Y-86432285D01*
X123470333Y-86508476D01*
X123437000Y-86622761D01*
X123037000Y-87079904D01*
X123470333Y-87079904D01*
X81903666Y-86851333D02*
X82237000Y-86851333D01*
X81837000Y-87079904D02*
X82070333Y-86279904D01*
X82303666Y-87079904D01*
X82870333Y-86279904D02*
X82537000Y-86279904D01*
X82503666Y-86660857D01*
X82537000Y-86622761D01*
X82603666Y-86584666D01*
X82770333Y-86584666D01*
X82837000Y-86622761D01*
X82870333Y-86660857D01*
X82903666Y-86737047D01*
X82903666Y-86927523D01*
X82870333Y-87003714D01*
X82837000Y-87041809D01*
X82770333Y-87079904D01*
X82603666Y-87079904D01*
X82537000Y-87041809D01*
X82503666Y-87003714D01*
X83337000Y-86279904D02*
X83403666Y-86279904D01*
X83470333Y-86318000D01*
X83503666Y-86356095D01*
X83537000Y-86432285D01*
X83570333Y-86584666D01*
X83570333Y-86775142D01*
X83537000Y-86927523D01*
X83503666Y-87003714D01*
X83470333Y-87041809D01*
X83403666Y-87079904D01*
X83337000Y-87079904D01*
X83270333Y-87041809D01*
X83237000Y-87003714D01*
X83203666Y-86927523D01*
X83170333Y-86775142D01*
X83170333Y-86584666D01*
X83203666Y-86432285D01*
X83237000Y-86356095D01*
X83270333Y-86318000D01*
X83337000Y-86279904D01*
X84003666Y-86279904D02*
X84070333Y-86279904D01*
X84137000Y-86318000D01*
X84170333Y-86356095D01*
X84203666Y-86432285D01*
X84237000Y-86584666D01*
X84237000Y-86775142D01*
X84203666Y-86927523D01*
X84170333Y-87003714D01*
X84137000Y-87041809D01*
X84070333Y-87079904D01*
X84003666Y-87079904D01*
X83937000Y-87041809D01*
X83903666Y-87003714D01*
X83870333Y-86927523D01*
X83837000Y-86775142D01*
X83837000Y-86584666D01*
X83870333Y-86432285D01*
X83903666Y-86356095D01*
X83937000Y-86318000D01*
X84003666Y-86279904D01*
X84537000Y-87079904D02*
X84537000Y-86279904D01*
X84603666Y-86775142D02*
X84803666Y-87079904D01*
X84803666Y-86546571D02*
X84537000Y-86851333D01*
X85070333Y-86356095D02*
X85103666Y-86318000D01*
X85170333Y-86279904D01*
X85337000Y-86279904D01*
X85403666Y-86318000D01*
X85437000Y-86356095D01*
X85470333Y-86432285D01*
X85470333Y-86508476D01*
X85437000Y-86622761D01*
X85037000Y-87079904D01*
X85470333Y-87079904D01*
X119903666Y-48851333D02*
X120237000Y-48851333D01*
X119837000Y-49079904D02*
X120070333Y-48279904D01*
X120303666Y-49079904D01*
X120870333Y-48279904D02*
X120537000Y-48279904D01*
X120503666Y-48660857D01*
X120537000Y-48622761D01*
X120603666Y-48584666D01*
X120770333Y-48584666D01*
X120837000Y-48622761D01*
X120870333Y-48660857D01*
X120903666Y-48737047D01*
X120903666Y-48927523D01*
X120870333Y-49003714D01*
X120837000Y-49041809D01*
X120770333Y-49079904D01*
X120603666Y-49079904D01*
X120537000Y-49041809D01*
X120503666Y-49003714D01*
X121337000Y-48279904D02*
X121403666Y-48279904D01*
X121470333Y-48318000D01*
X121503666Y-48356095D01*
X121537000Y-48432285D01*
X121570333Y-48584666D01*
X121570333Y-48775142D01*
X121537000Y-48927523D01*
X121503666Y-49003714D01*
X121470333Y-49041809D01*
X121403666Y-49079904D01*
X121337000Y-49079904D01*
X121270333Y-49041809D01*
X121237000Y-49003714D01*
X121203666Y-48927523D01*
X121170333Y-48775142D01*
X121170333Y-48584666D01*
X121203666Y-48432285D01*
X121237000Y-48356095D01*
X121270333Y-48318000D01*
X121337000Y-48279904D01*
X122003666Y-48279904D02*
X122070333Y-48279904D01*
X122137000Y-48318000D01*
X122170333Y-48356095D01*
X122203666Y-48432285D01*
X122237000Y-48584666D01*
X122237000Y-48775142D01*
X122203666Y-48927523D01*
X122170333Y-49003714D01*
X122137000Y-49041809D01*
X122070333Y-49079904D01*
X122003666Y-49079904D01*
X121937000Y-49041809D01*
X121903666Y-49003714D01*
X121870333Y-48927523D01*
X121837000Y-48775142D01*
X121837000Y-48584666D01*
X121870333Y-48432285D01*
X121903666Y-48356095D01*
X121937000Y-48318000D01*
X122003666Y-48279904D01*
X122537000Y-49079904D02*
X122537000Y-48279904D01*
X122603666Y-48775142D02*
X122803666Y-49079904D01*
X122803666Y-48546571D02*
X122537000Y-48851333D01*
X123070333Y-48356095D02*
X123103666Y-48318000D01*
X123170333Y-48279904D01*
X123337000Y-48279904D01*
X123403666Y-48318000D01*
X123437000Y-48356095D01*
X123470333Y-48432285D01*
X123470333Y-48508476D01*
X123437000Y-48622761D01*
X123037000Y-49079904D01*
X123470333Y-49079904D01*
X115458666Y-86851333D02*
X115792000Y-86851333D01*
X115392000Y-87079904D02*
X115625333Y-86279904D01*
X115858666Y-87079904D01*
X116425333Y-86279904D02*
X116092000Y-86279904D01*
X116058666Y-86660857D01*
X116092000Y-86622761D01*
X116158666Y-86584666D01*
X116325333Y-86584666D01*
X116392000Y-86622761D01*
X116425333Y-86660857D01*
X116458666Y-86737047D01*
X116458666Y-86927523D01*
X116425333Y-87003714D01*
X116392000Y-87041809D01*
X116325333Y-87079904D01*
X116158666Y-87079904D01*
X116092000Y-87041809D01*
X116058666Y-87003714D01*
X116892000Y-86279904D02*
X116958666Y-86279904D01*
X117025333Y-86318000D01*
X117058666Y-86356095D01*
X117092000Y-86432285D01*
X117125333Y-86584666D01*
X117125333Y-86775142D01*
X117092000Y-86927523D01*
X117058666Y-87003714D01*
X117025333Y-87041809D01*
X116958666Y-87079904D01*
X116892000Y-87079904D01*
X116825333Y-87041809D01*
X116792000Y-87003714D01*
X116758666Y-86927523D01*
X116725333Y-86775142D01*
X116725333Y-86584666D01*
X116758666Y-86432285D01*
X116792000Y-86356095D01*
X116825333Y-86318000D01*
X116892000Y-86279904D01*
X117558666Y-86279904D02*
X117625333Y-86279904D01*
X117692000Y-86318000D01*
X117725333Y-86356095D01*
X117758666Y-86432285D01*
X117792000Y-86584666D01*
X117792000Y-86775142D01*
X117758666Y-86927523D01*
X117725333Y-87003714D01*
X117692000Y-87041809D01*
X117625333Y-87079904D01*
X117558666Y-87079904D01*
X117492000Y-87041809D01*
X117458666Y-87003714D01*
X117425333Y-86927523D01*
X117392000Y-86775142D01*
X117392000Y-86584666D01*
X117425333Y-86432285D01*
X117458666Y-86356095D01*
X117492000Y-86318000D01*
X117558666Y-86279904D01*
X118092000Y-87079904D02*
X118092000Y-86279904D01*
X118158666Y-86775142D02*
X118358666Y-87079904D01*
X118358666Y-86546571D02*
X118092000Y-86851333D01*
X119025333Y-87079904D02*
X118625333Y-87079904D01*
X118825333Y-87079904D02*
X118825333Y-86279904D01*
X118758666Y-86394190D01*
X118692000Y-86470380D01*
X118625333Y-86508476D01*
X77458666Y-86851333D02*
X77792000Y-86851333D01*
X77392000Y-87079904D02*
X77625333Y-86279904D01*
X77858666Y-87079904D01*
X78425333Y-86279904D02*
X78092000Y-86279904D01*
X78058666Y-86660857D01*
X78092000Y-86622761D01*
X78158666Y-86584666D01*
X78325333Y-86584666D01*
X78392000Y-86622761D01*
X78425333Y-86660857D01*
X78458666Y-86737047D01*
X78458666Y-86927523D01*
X78425333Y-87003714D01*
X78392000Y-87041809D01*
X78325333Y-87079904D01*
X78158666Y-87079904D01*
X78092000Y-87041809D01*
X78058666Y-87003714D01*
X78892000Y-86279904D02*
X78958666Y-86279904D01*
X79025333Y-86318000D01*
X79058666Y-86356095D01*
X79092000Y-86432285D01*
X79125333Y-86584666D01*
X79125333Y-86775142D01*
X79092000Y-86927523D01*
X79058666Y-87003714D01*
X79025333Y-87041809D01*
X78958666Y-87079904D01*
X78892000Y-87079904D01*
X78825333Y-87041809D01*
X78792000Y-87003714D01*
X78758666Y-86927523D01*
X78725333Y-86775142D01*
X78725333Y-86584666D01*
X78758666Y-86432285D01*
X78792000Y-86356095D01*
X78825333Y-86318000D01*
X78892000Y-86279904D01*
X79558666Y-86279904D02*
X79625333Y-86279904D01*
X79692000Y-86318000D01*
X79725333Y-86356095D01*
X79758666Y-86432285D01*
X79792000Y-86584666D01*
X79792000Y-86775142D01*
X79758666Y-86927523D01*
X79725333Y-87003714D01*
X79692000Y-87041809D01*
X79625333Y-87079904D01*
X79558666Y-87079904D01*
X79492000Y-87041809D01*
X79458666Y-87003714D01*
X79425333Y-86927523D01*
X79392000Y-86775142D01*
X79392000Y-86584666D01*
X79425333Y-86432285D01*
X79458666Y-86356095D01*
X79492000Y-86318000D01*
X79558666Y-86279904D01*
X80092000Y-87079904D02*
X80092000Y-86279904D01*
X80158666Y-86775142D02*
X80358666Y-87079904D01*
X80358666Y-86546571D02*
X80092000Y-86851333D01*
X81025333Y-87079904D02*
X80625333Y-87079904D01*
X80825333Y-87079904D02*
X80825333Y-86279904D01*
X80758666Y-86394190D01*
X80692000Y-86470380D01*
X80625333Y-86508476D01*
X115458666Y-48851333D02*
X115792000Y-48851333D01*
X115392000Y-49079904D02*
X115625333Y-48279904D01*
X115858666Y-49079904D01*
X116425333Y-48279904D02*
X116092000Y-48279904D01*
X116058666Y-48660857D01*
X116092000Y-48622761D01*
X116158666Y-48584666D01*
X116325333Y-48584666D01*
X116392000Y-48622761D01*
X116425333Y-48660857D01*
X116458666Y-48737047D01*
X116458666Y-48927523D01*
X116425333Y-49003714D01*
X116392000Y-49041809D01*
X116325333Y-49079904D01*
X116158666Y-49079904D01*
X116092000Y-49041809D01*
X116058666Y-49003714D01*
X116892000Y-48279904D02*
X116958666Y-48279904D01*
X117025333Y-48318000D01*
X117058666Y-48356095D01*
X117092000Y-48432285D01*
X117125333Y-48584666D01*
X117125333Y-48775142D01*
X117092000Y-48927523D01*
X117058666Y-49003714D01*
X117025333Y-49041809D01*
X116958666Y-49079904D01*
X116892000Y-49079904D01*
X116825333Y-49041809D01*
X116792000Y-49003714D01*
X116758666Y-48927523D01*
X116725333Y-48775142D01*
X116725333Y-48584666D01*
X116758666Y-48432285D01*
X116792000Y-48356095D01*
X116825333Y-48318000D01*
X116892000Y-48279904D01*
X117558666Y-48279904D02*
X117625333Y-48279904D01*
X117692000Y-48318000D01*
X117725333Y-48356095D01*
X117758666Y-48432285D01*
X117792000Y-48584666D01*
X117792000Y-48775142D01*
X117758666Y-48927523D01*
X117725333Y-49003714D01*
X117692000Y-49041809D01*
X117625333Y-49079904D01*
X117558666Y-49079904D01*
X117492000Y-49041809D01*
X117458666Y-49003714D01*
X117425333Y-48927523D01*
X117392000Y-48775142D01*
X117392000Y-48584666D01*
X117425333Y-48432285D01*
X117458666Y-48356095D01*
X117492000Y-48318000D01*
X117558666Y-48279904D01*
X118092000Y-49079904D02*
X118092000Y-48279904D01*
X118158666Y-48775142D02*
X118358666Y-49079904D01*
X118358666Y-48546571D02*
X118092000Y-48851333D01*
X119025333Y-49079904D02*
X118625333Y-49079904D01*
X118825333Y-49079904D02*
X118825333Y-48279904D01*
X118758666Y-48394190D01*
X118692000Y-48470380D01*
X118625333Y-48508476D01*
D10*
X142247619Y-107802380D02*
X142247619Y-106802380D01*
X142485714Y-106802380D01*
X142628571Y-106850000D01*
X142723809Y-106945238D01*
X142771428Y-107040476D01*
X142819047Y-107230952D01*
X142819047Y-107373809D01*
X142771428Y-107564285D01*
X142723809Y-107659523D01*
X142628571Y-107754761D01*
X142485714Y-107802380D01*
X142247619Y-107802380D01*
X143247619Y-107802380D02*
X143247619Y-106802380D01*
X143914285Y-106802380D02*
X144104761Y-106802380D01*
X144200000Y-106850000D01*
X144295238Y-106945238D01*
X144342857Y-107135714D01*
X144342857Y-107469047D01*
X144295238Y-107659523D01*
X144200000Y-107754761D01*
X144104761Y-107802380D01*
X143914285Y-107802380D01*
X143819047Y-107754761D01*
X143723809Y-107659523D01*
X143676190Y-107469047D01*
X143676190Y-107135714D01*
X143723809Y-106945238D01*
X143819047Y-106850000D01*
X143914285Y-106802380D01*
X144771428Y-107802380D02*
X144771428Y-106802380D01*
X145009523Y-106802380D01*
X145152380Y-106850000D01*
X145247619Y-106945238D01*
X145295238Y-107040476D01*
X145342857Y-107230952D01*
X145342857Y-107373809D01*
X145295238Y-107564285D01*
X145247619Y-107659523D01*
X145152380Y-107754761D01*
X145009523Y-107802380D01*
X144771428Y-107802380D01*
X145771428Y-107278571D02*
X146104761Y-107278571D01*
X146247619Y-107802380D02*
X145771428Y-107802380D01*
X145771428Y-106802380D01*
X146247619Y-106802380D01*
X147200000Y-107802380D02*
X146628571Y-107802380D01*
X146914285Y-107802380D02*
X146914285Y-106802380D01*
X146819047Y-106945238D01*
X146723809Y-107040476D01*
X146628571Y-107088095D01*
X138824095Y-105584380D02*
X138824095Y-104584380D01*
X139395523Y-105584380D02*
X138966952Y-105012952D01*
X139395523Y-104584380D02*
X138824095Y-105155809D01*
X104247619Y-107802380D02*
X104247619Y-106802380D01*
X104485714Y-106802380D01*
X104628571Y-106850000D01*
X104723809Y-106945238D01*
X104771428Y-107040476D01*
X104819047Y-107230952D01*
X104819047Y-107373809D01*
X104771428Y-107564285D01*
X104723809Y-107659523D01*
X104628571Y-107754761D01*
X104485714Y-107802380D01*
X104247619Y-107802380D01*
X105247619Y-107802380D02*
X105247619Y-106802380D01*
X105914285Y-106802380D02*
X106104761Y-106802380D01*
X106200000Y-106850000D01*
X106295238Y-106945238D01*
X106342857Y-107135714D01*
X106342857Y-107469047D01*
X106295238Y-107659523D01*
X106200000Y-107754761D01*
X106104761Y-107802380D01*
X105914285Y-107802380D01*
X105819047Y-107754761D01*
X105723809Y-107659523D01*
X105676190Y-107469047D01*
X105676190Y-107135714D01*
X105723809Y-106945238D01*
X105819047Y-106850000D01*
X105914285Y-106802380D01*
X106771428Y-107802380D02*
X106771428Y-106802380D01*
X107009523Y-106802380D01*
X107152380Y-106850000D01*
X107247619Y-106945238D01*
X107295238Y-107040476D01*
X107342857Y-107230952D01*
X107342857Y-107373809D01*
X107295238Y-107564285D01*
X107247619Y-107659523D01*
X107152380Y-107754761D01*
X107009523Y-107802380D01*
X106771428Y-107802380D01*
X107771428Y-107278571D02*
X108104761Y-107278571D01*
X108247619Y-107802380D02*
X107771428Y-107802380D01*
X107771428Y-106802380D01*
X108247619Y-106802380D01*
X109200000Y-107802380D02*
X108628571Y-107802380D01*
X108914285Y-107802380D02*
X108914285Y-106802380D01*
X108819047Y-106945238D01*
X108723809Y-107040476D01*
X108628571Y-107088095D01*
X100824095Y-105584380D02*
X100824095Y-104584380D01*
X101395523Y-105584380D02*
X100966952Y-105012952D01*
X101395523Y-104584380D02*
X100824095Y-105155809D01*
X142247619Y-69802380D02*
X142247619Y-68802380D01*
X142485714Y-68802380D01*
X142628571Y-68850000D01*
X142723809Y-68945238D01*
X142771428Y-69040476D01*
X142819047Y-69230952D01*
X142819047Y-69373809D01*
X142771428Y-69564285D01*
X142723809Y-69659523D01*
X142628571Y-69754761D01*
X142485714Y-69802380D01*
X142247619Y-69802380D01*
X143247619Y-69802380D02*
X143247619Y-68802380D01*
X143914285Y-68802380D02*
X144104761Y-68802380D01*
X144200000Y-68850000D01*
X144295238Y-68945238D01*
X144342857Y-69135714D01*
X144342857Y-69469047D01*
X144295238Y-69659523D01*
X144200000Y-69754761D01*
X144104761Y-69802380D01*
X143914285Y-69802380D01*
X143819047Y-69754761D01*
X143723809Y-69659523D01*
X143676190Y-69469047D01*
X143676190Y-69135714D01*
X143723809Y-68945238D01*
X143819047Y-68850000D01*
X143914285Y-68802380D01*
X144771428Y-69802380D02*
X144771428Y-68802380D01*
X145009523Y-68802380D01*
X145152380Y-68850000D01*
X145247619Y-68945238D01*
X145295238Y-69040476D01*
X145342857Y-69230952D01*
X145342857Y-69373809D01*
X145295238Y-69564285D01*
X145247619Y-69659523D01*
X145152380Y-69754761D01*
X145009523Y-69802380D01*
X144771428Y-69802380D01*
X145771428Y-69278571D02*
X146104761Y-69278571D01*
X146247619Y-69802380D02*
X145771428Y-69802380D01*
X145771428Y-68802380D01*
X146247619Y-68802380D01*
X147200000Y-69802380D02*
X146628571Y-69802380D01*
X146914285Y-69802380D02*
X146914285Y-68802380D01*
X146819047Y-68945238D01*
X146723809Y-69040476D01*
X146628571Y-69088095D01*
X138824095Y-67584380D02*
X138824095Y-66584380D01*
X139395523Y-67584380D02*
X138966952Y-67012952D01*
X139395523Y-66584380D02*
X138824095Y-67155809D01*
D12*
X124366666Y-86883333D02*
X124700000Y-86883333D01*
X124300000Y-87111904D02*
X124533333Y-86311904D01*
X124766666Y-87111904D01*
X125333333Y-86311904D02*
X125000000Y-86311904D01*
X124966666Y-86692857D01*
X125000000Y-86654761D01*
X125066666Y-86616666D01*
X125233333Y-86616666D01*
X125300000Y-86654761D01*
X125333333Y-86692857D01*
X125366666Y-86769047D01*
X125366666Y-86959523D01*
X125333333Y-87035714D01*
X125300000Y-87073809D01*
X125233333Y-87111904D01*
X125066666Y-87111904D01*
X125000000Y-87073809D01*
X124966666Y-87035714D01*
X125800000Y-86311904D02*
X125866666Y-86311904D01*
X125933333Y-86350000D01*
X125966666Y-86388095D01*
X126000000Y-86464285D01*
X126033333Y-86616666D01*
X126033333Y-86807142D01*
X126000000Y-86959523D01*
X125966666Y-87035714D01*
X125933333Y-87073809D01*
X125866666Y-87111904D01*
X125800000Y-87111904D01*
X125733333Y-87073809D01*
X125700000Y-87035714D01*
X125666666Y-86959523D01*
X125633333Y-86807142D01*
X125633333Y-86616666D01*
X125666666Y-86464285D01*
X125700000Y-86388095D01*
X125733333Y-86350000D01*
X125800000Y-86311904D01*
X126466666Y-86311904D02*
X126533333Y-86311904D01*
X126600000Y-86350000D01*
X126633333Y-86388095D01*
X126666666Y-86464285D01*
X126700000Y-86616666D01*
X126700000Y-86807142D01*
X126666666Y-86959523D01*
X126633333Y-87035714D01*
X126600000Y-87073809D01*
X126533333Y-87111904D01*
X126466666Y-87111904D01*
X126400000Y-87073809D01*
X126366666Y-87035714D01*
X126333333Y-86959523D01*
X126300000Y-86807142D01*
X126300000Y-86616666D01*
X126333333Y-86464285D01*
X126366666Y-86388095D01*
X126400000Y-86350000D01*
X126466666Y-86311904D01*
X127000000Y-87111904D02*
X127000000Y-86311904D01*
X127066666Y-86807142D02*
X127266666Y-87111904D01*
X127266666Y-86578571D02*
X127000000Y-86883333D01*
X127500000Y-86311904D02*
X127933333Y-86311904D01*
X127700000Y-86616666D01*
X127800000Y-86616666D01*
X127866666Y-86654761D01*
X127900000Y-86692857D01*
X127933333Y-86769047D01*
X127933333Y-86959523D01*
X127900000Y-87035714D01*
X127866666Y-87073809D01*
X127800000Y-87111904D01*
X127600000Y-87111904D01*
X127533333Y-87073809D01*
X127500000Y-87035714D01*
X86366666Y-86883333D02*
X86700000Y-86883333D01*
X86300000Y-87111904D02*
X86533333Y-86311904D01*
X86766666Y-87111904D01*
X87333333Y-86311904D02*
X87000000Y-86311904D01*
X86966666Y-86692857D01*
X87000000Y-86654761D01*
X87066666Y-86616666D01*
X87233333Y-86616666D01*
X87300000Y-86654761D01*
X87333333Y-86692857D01*
X87366666Y-86769047D01*
X87366666Y-86959523D01*
X87333333Y-87035714D01*
X87300000Y-87073809D01*
X87233333Y-87111904D01*
X87066666Y-87111904D01*
X87000000Y-87073809D01*
X86966666Y-87035714D01*
X87800000Y-86311904D02*
X87866666Y-86311904D01*
X87933333Y-86350000D01*
X87966666Y-86388095D01*
X88000000Y-86464285D01*
X88033333Y-86616666D01*
X88033333Y-86807142D01*
X88000000Y-86959523D01*
X87966666Y-87035714D01*
X87933333Y-87073809D01*
X87866666Y-87111904D01*
X87800000Y-87111904D01*
X87733333Y-87073809D01*
X87700000Y-87035714D01*
X87666666Y-86959523D01*
X87633333Y-86807142D01*
X87633333Y-86616666D01*
X87666666Y-86464285D01*
X87700000Y-86388095D01*
X87733333Y-86350000D01*
X87800000Y-86311904D01*
X88466666Y-86311904D02*
X88533333Y-86311904D01*
X88600000Y-86350000D01*
X88633333Y-86388095D01*
X88666666Y-86464285D01*
X88700000Y-86616666D01*
X88700000Y-86807142D01*
X88666666Y-86959523D01*
X88633333Y-87035714D01*
X88600000Y-87073809D01*
X88533333Y-87111904D01*
X88466666Y-87111904D01*
X88400000Y-87073809D01*
X88366666Y-87035714D01*
X88333333Y-86959523D01*
X88300000Y-86807142D01*
X88300000Y-86616666D01*
X88333333Y-86464285D01*
X88366666Y-86388095D01*
X88400000Y-86350000D01*
X88466666Y-86311904D01*
X89000000Y-87111904D02*
X89000000Y-86311904D01*
X89066666Y-86807142D02*
X89266666Y-87111904D01*
X89266666Y-86578571D02*
X89000000Y-86883333D01*
X89500000Y-86311904D02*
X89933333Y-86311904D01*
X89700000Y-86616666D01*
X89800000Y-86616666D01*
X89866666Y-86654761D01*
X89900000Y-86692857D01*
X89933333Y-86769047D01*
X89933333Y-86959523D01*
X89900000Y-87035714D01*
X89866666Y-87073809D01*
X89800000Y-87111904D01*
X89600000Y-87111904D01*
X89533333Y-87073809D01*
X89500000Y-87035714D01*
X124366666Y-48883333D02*
X124700000Y-48883333D01*
X124300000Y-49111904D02*
X124533333Y-48311904D01*
X124766666Y-49111904D01*
X125333333Y-48311904D02*
X125000000Y-48311904D01*
X124966666Y-48692857D01*
X125000000Y-48654761D01*
X125066666Y-48616666D01*
X125233333Y-48616666D01*
X125300000Y-48654761D01*
X125333333Y-48692857D01*
X125366666Y-48769047D01*
X125366666Y-48959523D01*
X125333333Y-49035714D01*
X125300000Y-49073809D01*
X125233333Y-49111904D01*
X125066666Y-49111904D01*
X125000000Y-49073809D01*
X124966666Y-49035714D01*
X125800000Y-48311904D02*
X125866666Y-48311904D01*
X125933333Y-48350000D01*
X125966666Y-48388095D01*
X126000000Y-48464285D01*
X126033333Y-48616666D01*
X126033333Y-48807142D01*
X126000000Y-48959523D01*
X125966666Y-49035714D01*
X125933333Y-49073809D01*
X125866666Y-49111904D01*
X125800000Y-49111904D01*
X125733333Y-49073809D01*
X125700000Y-49035714D01*
X125666666Y-48959523D01*
X125633333Y-48807142D01*
X125633333Y-48616666D01*
X125666666Y-48464285D01*
X125700000Y-48388095D01*
X125733333Y-48350000D01*
X125800000Y-48311904D01*
X126466666Y-48311904D02*
X126533333Y-48311904D01*
X126600000Y-48350000D01*
X126633333Y-48388095D01*
X126666666Y-48464285D01*
X126700000Y-48616666D01*
X126700000Y-48807142D01*
X126666666Y-48959523D01*
X126633333Y-49035714D01*
X126600000Y-49073809D01*
X126533333Y-49111904D01*
X126466666Y-49111904D01*
X126400000Y-49073809D01*
X126366666Y-49035714D01*
X126333333Y-48959523D01*
X126300000Y-48807142D01*
X126300000Y-48616666D01*
X126333333Y-48464285D01*
X126366666Y-48388095D01*
X126400000Y-48350000D01*
X126466666Y-48311904D01*
X127000000Y-49111904D02*
X127000000Y-48311904D01*
X127066666Y-48807142D02*
X127266666Y-49111904D01*
X127266666Y-48578571D02*
X127000000Y-48883333D01*
X127500000Y-48311904D02*
X127933333Y-48311904D01*
X127700000Y-48616666D01*
X127800000Y-48616666D01*
X127866666Y-48654761D01*
X127900000Y-48692857D01*
X127933333Y-48769047D01*
X127933333Y-48959523D01*
X127900000Y-49035714D01*
X127866666Y-49073809D01*
X127800000Y-49111904D01*
X127600000Y-49111904D01*
X127533333Y-49073809D01*
X127500000Y-49035714D01*
D11*
X148350809Y-86764333D02*
X148731761Y-86764333D01*
X148274619Y-86992904D02*
X148541285Y-86192904D01*
X148807952Y-86992904D01*
X149493666Y-86992904D02*
X149036523Y-86992904D01*
X149265095Y-86992904D02*
X149265095Y-86192904D01*
X149188904Y-86307190D01*
X149112714Y-86383380D01*
X149036523Y-86421476D01*
X149836523Y-86992904D02*
X149836523Y-86192904D01*
X149912714Y-86688142D02*
X150141285Y-86992904D01*
X150141285Y-86459571D02*
X149836523Y-86764333D01*
X150407952Y-86192904D02*
X150903190Y-86192904D01*
X150636523Y-86497666D01*
X150750809Y-86497666D01*
X150827000Y-86535761D01*
X150865095Y-86573857D01*
X150903190Y-86650047D01*
X150903190Y-86840523D01*
X150865095Y-86916714D01*
X150827000Y-86954809D01*
X150750809Y-86992904D01*
X150522238Y-86992904D01*
X150446047Y-86954809D01*
X150407952Y-86916714D01*
X110350809Y-86764333D02*
X110731761Y-86764333D01*
X110274619Y-86992904D02*
X110541285Y-86192904D01*
X110807952Y-86992904D01*
X111493666Y-86992904D02*
X111036523Y-86992904D01*
X111265095Y-86992904D02*
X111265095Y-86192904D01*
X111188904Y-86307190D01*
X111112714Y-86383380D01*
X111036523Y-86421476D01*
X111836523Y-86992904D02*
X111836523Y-86192904D01*
X111912714Y-86688142D02*
X112141285Y-86992904D01*
X112141285Y-86459571D02*
X111836523Y-86764333D01*
X112407952Y-86192904D02*
X112903190Y-86192904D01*
X112636523Y-86497666D01*
X112750809Y-86497666D01*
X112827000Y-86535761D01*
X112865095Y-86573857D01*
X112903190Y-86650047D01*
X112903190Y-86840523D01*
X112865095Y-86916714D01*
X112827000Y-86954809D01*
X112750809Y-86992904D01*
X112522238Y-86992904D01*
X112446047Y-86954809D01*
X112407952Y-86916714D01*
X148350809Y-48764333D02*
X148731761Y-48764333D01*
X148274619Y-48992904D02*
X148541285Y-48192904D01*
X148807952Y-48992904D01*
X149493666Y-48992904D02*
X149036523Y-48992904D01*
X149265095Y-48992904D02*
X149265095Y-48192904D01*
X149188904Y-48307190D01*
X149112714Y-48383380D01*
X149036523Y-48421476D01*
X149836523Y-48992904D02*
X149836523Y-48192904D01*
X149912714Y-48688142D02*
X150141285Y-48992904D01*
X150141285Y-48459571D02*
X149836523Y-48764333D01*
X150407952Y-48192904D02*
X150903190Y-48192904D01*
X150636523Y-48497666D01*
X150750809Y-48497666D01*
X150827000Y-48535761D01*
X150865095Y-48573857D01*
X150903190Y-48650047D01*
X150903190Y-48840523D01*
X150865095Y-48916714D01*
X150827000Y-48954809D01*
X150750809Y-48992904D01*
X150522238Y-48992904D01*
X150446047Y-48954809D01*
X150407952Y-48916714D01*
X143905809Y-86783333D02*
X144286761Y-86783333D01*
X143829619Y-87011904D02*
X144096285Y-86211904D01*
X144362952Y-87011904D01*
X145048666Y-87011904D02*
X144591523Y-87011904D01*
X144820095Y-87011904D02*
X144820095Y-86211904D01*
X144743904Y-86326190D01*
X144667714Y-86402380D01*
X144591523Y-86440476D01*
X145391523Y-87011904D02*
X145391523Y-86211904D01*
X145467714Y-86707142D02*
X145696285Y-87011904D01*
X145696285Y-86478571D02*
X145391523Y-86783333D01*
X146001047Y-86288095D02*
X146039142Y-86250000D01*
X146115333Y-86211904D01*
X146305809Y-86211904D01*
X146382000Y-86250000D01*
X146420095Y-86288095D01*
X146458190Y-86364285D01*
X146458190Y-86440476D01*
X146420095Y-86554761D01*
X145962952Y-87011904D01*
X146458190Y-87011904D01*
X105905809Y-86783333D02*
X106286761Y-86783333D01*
X105829619Y-87011904D02*
X106096285Y-86211904D01*
X106362952Y-87011904D01*
X107048666Y-87011904D02*
X106591523Y-87011904D01*
X106820095Y-87011904D02*
X106820095Y-86211904D01*
X106743904Y-86326190D01*
X106667714Y-86402380D01*
X106591523Y-86440476D01*
X107391523Y-87011904D02*
X107391523Y-86211904D01*
X107467714Y-86707142D02*
X107696285Y-87011904D01*
X107696285Y-86478571D02*
X107391523Y-86783333D01*
X108001047Y-86288095D02*
X108039142Y-86250000D01*
X108115333Y-86211904D01*
X108305809Y-86211904D01*
X108382000Y-86250000D01*
X108420095Y-86288095D01*
X108458190Y-86364285D01*
X108458190Y-86440476D01*
X108420095Y-86554761D01*
X107962952Y-87011904D01*
X108458190Y-87011904D01*
X143905809Y-48783333D02*
X144286761Y-48783333D01*
X143829619Y-49011904D02*
X144096285Y-48211904D01*
X144362952Y-49011904D01*
X145048666Y-49011904D02*
X144591523Y-49011904D01*
X144820095Y-49011904D02*
X144820095Y-48211904D01*
X144743904Y-48326190D01*
X144667714Y-48402380D01*
X144591523Y-48440476D01*
X145391523Y-49011904D02*
X145391523Y-48211904D01*
X145467714Y-48707142D02*
X145696285Y-49011904D01*
X145696285Y-48478571D02*
X145391523Y-48783333D01*
X146001047Y-48288095D02*
X146039142Y-48250000D01*
X146115333Y-48211904D01*
X146305809Y-48211904D01*
X146382000Y-48250000D01*
X146420095Y-48288095D01*
X146458190Y-48364285D01*
X146458190Y-48440476D01*
X146420095Y-48554761D01*
X145962952Y-49011904D01*
X146458190Y-49011904D01*
D10*
X134888095Y-86218000D02*
X134792857Y-86170380D01*
X134650000Y-86170380D01*
X134507142Y-86218000D01*
X134411904Y-86313238D01*
X134364285Y-86408476D01*
X134316666Y-86598952D01*
X134316666Y-86741809D01*
X134364285Y-86932285D01*
X134411904Y-87027523D01*
X134507142Y-87122761D01*
X134650000Y-87170380D01*
X134745238Y-87170380D01*
X134888095Y-87122761D01*
X134935714Y-87075142D01*
X134935714Y-86741809D01*
X134745238Y-86741809D01*
X135364285Y-87170380D02*
X135364285Y-86170380D01*
X135935714Y-87170380D01*
X135935714Y-86170380D01*
X136411904Y-87170380D02*
X136411904Y-86170380D01*
X136650000Y-86170380D01*
X136792857Y-86218000D01*
X136888095Y-86313238D01*
X136935714Y-86408476D01*
X136983333Y-86598952D01*
X136983333Y-86741809D01*
X136935714Y-86932285D01*
X136888095Y-87027523D01*
X136792857Y-87122761D01*
X136650000Y-87170380D01*
X136411904Y-87170380D01*
X96888095Y-86218000D02*
X96792857Y-86170380D01*
X96650000Y-86170380D01*
X96507142Y-86218000D01*
X96411904Y-86313238D01*
X96364285Y-86408476D01*
X96316666Y-86598952D01*
X96316666Y-86741809D01*
X96364285Y-86932285D01*
X96411904Y-87027523D01*
X96507142Y-87122761D01*
X96650000Y-87170380D01*
X96745238Y-87170380D01*
X96888095Y-87122761D01*
X96935714Y-87075142D01*
X96935714Y-86741809D01*
X96745238Y-86741809D01*
X97364285Y-87170380D02*
X97364285Y-86170380D01*
X97935714Y-87170380D01*
X97935714Y-86170380D01*
X98411904Y-87170380D02*
X98411904Y-86170380D01*
X98650000Y-86170380D01*
X98792857Y-86218000D01*
X98888095Y-86313238D01*
X98935714Y-86408476D01*
X98983333Y-86598952D01*
X98983333Y-86741809D01*
X98935714Y-86932285D01*
X98888095Y-87027523D01*
X98792857Y-87122761D01*
X98650000Y-87170380D01*
X98411904Y-87170380D01*
X134888095Y-48218000D02*
X134792857Y-48170380D01*
X134650000Y-48170380D01*
X134507142Y-48218000D01*
X134411904Y-48313238D01*
X134364285Y-48408476D01*
X134316666Y-48598952D01*
X134316666Y-48741809D01*
X134364285Y-48932285D01*
X134411904Y-49027523D01*
X134507142Y-49122761D01*
X134650000Y-49170380D01*
X134745238Y-49170380D01*
X134888095Y-49122761D01*
X134935714Y-49075142D01*
X134935714Y-48741809D01*
X134745238Y-48741809D01*
X135364285Y-49170380D02*
X135364285Y-48170380D01*
X135935714Y-49170380D01*
X135935714Y-48170380D01*
X136411904Y-49170380D02*
X136411904Y-48170380D01*
X136650000Y-48170380D01*
X136792857Y-48218000D01*
X136888095Y-48313238D01*
X136935714Y-48408476D01*
X136983333Y-48598952D01*
X136983333Y-48741809D01*
X136935714Y-48932285D01*
X136888095Y-49027523D01*
X136792857Y-49122761D01*
X136650000Y-49170380D01*
X136411904Y-49170380D01*
X141247619Y-112802380D02*
X141247619Y-111802380D01*
X141485714Y-111802380D01*
X141628571Y-111850000D01*
X141723809Y-111945238D01*
X141771428Y-112040476D01*
X141819047Y-112230952D01*
X141819047Y-112373809D01*
X141771428Y-112564285D01*
X141723809Y-112659523D01*
X141628571Y-112754761D01*
X141485714Y-112802380D01*
X141247619Y-112802380D01*
X142247619Y-112802380D02*
X142247619Y-111802380D01*
X142914285Y-111802380D02*
X143104761Y-111802380D01*
X143200000Y-111850000D01*
X143295238Y-111945238D01*
X143342857Y-112135714D01*
X143342857Y-112469047D01*
X143295238Y-112659523D01*
X143200000Y-112754761D01*
X143104761Y-112802380D01*
X142914285Y-112802380D01*
X142819047Y-112754761D01*
X142723809Y-112659523D01*
X142676190Y-112469047D01*
X142676190Y-112135714D01*
X142723809Y-111945238D01*
X142819047Y-111850000D01*
X142914285Y-111802380D01*
X143771428Y-112802380D02*
X143771428Y-111802380D01*
X144009523Y-111802380D01*
X144152380Y-111850000D01*
X144247619Y-111945238D01*
X144295238Y-112040476D01*
X144342857Y-112230952D01*
X144342857Y-112373809D01*
X144295238Y-112564285D01*
X144247619Y-112659523D01*
X144152380Y-112754761D01*
X144009523Y-112802380D01*
X143771428Y-112802380D01*
X144771428Y-112278571D02*
X145104761Y-112278571D01*
X145247619Y-112802380D02*
X144771428Y-112802380D01*
X144771428Y-111802380D01*
X145247619Y-111802380D01*
X145628571Y-111897619D02*
X145676190Y-111850000D01*
X145771428Y-111802380D01*
X146009523Y-111802380D01*
X146104761Y-111850000D01*
X146152380Y-111897619D01*
X146200000Y-111992857D01*
X146200000Y-112088095D01*
X146152380Y-112230952D01*
X145580952Y-112802380D01*
X146200000Y-112802380D01*
X148984095Y-115064380D02*
X148984095Y-114064380D01*
X149555523Y-115064380D02*
X149126952Y-114492952D01*
X149555523Y-114064380D02*
X148984095Y-114635809D01*
X103247619Y-112802380D02*
X103247619Y-111802380D01*
X103485714Y-111802380D01*
X103628571Y-111850000D01*
X103723809Y-111945238D01*
X103771428Y-112040476D01*
X103819047Y-112230952D01*
X103819047Y-112373809D01*
X103771428Y-112564285D01*
X103723809Y-112659523D01*
X103628571Y-112754761D01*
X103485714Y-112802380D01*
X103247619Y-112802380D01*
X104247619Y-112802380D02*
X104247619Y-111802380D01*
X104914285Y-111802380D02*
X105104761Y-111802380D01*
X105200000Y-111850000D01*
X105295238Y-111945238D01*
X105342857Y-112135714D01*
X105342857Y-112469047D01*
X105295238Y-112659523D01*
X105200000Y-112754761D01*
X105104761Y-112802380D01*
X104914285Y-112802380D01*
X104819047Y-112754761D01*
X104723809Y-112659523D01*
X104676190Y-112469047D01*
X104676190Y-112135714D01*
X104723809Y-111945238D01*
X104819047Y-111850000D01*
X104914285Y-111802380D01*
X105771428Y-112802380D02*
X105771428Y-111802380D01*
X106009523Y-111802380D01*
X106152380Y-111850000D01*
X106247619Y-111945238D01*
X106295238Y-112040476D01*
X106342857Y-112230952D01*
X106342857Y-112373809D01*
X106295238Y-112564285D01*
X106247619Y-112659523D01*
X106152380Y-112754761D01*
X106009523Y-112802380D01*
X105771428Y-112802380D01*
X106771428Y-112278571D02*
X107104761Y-112278571D01*
X107247619Y-112802380D02*
X106771428Y-112802380D01*
X106771428Y-111802380D01*
X107247619Y-111802380D01*
X107628571Y-111897619D02*
X107676190Y-111850000D01*
X107771428Y-111802380D01*
X108009523Y-111802380D01*
X108104761Y-111850000D01*
X108152380Y-111897619D01*
X108200000Y-111992857D01*
X108200000Y-112088095D01*
X108152380Y-112230952D01*
X107580952Y-112802380D01*
X108200000Y-112802380D01*
X110984095Y-115064380D02*
X110984095Y-114064380D01*
X111555523Y-115064380D02*
X111126952Y-114492952D01*
X111555523Y-114064380D02*
X110984095Y-114635809D01*
X141247619Y-74802380D02*
X141247619Y-73802380D01*
X141485714Y-73802380D01*
X141628571Y-73850000D01*
X141723809Y-73945238D01*
X141771428Y-74040476D01*
X141819047Y-74230952D01*
X141819047Y-74373809D01*
X141771428Y-74564285D01*
X141723809Y-74659523D01*
X141628571Y-74754761D01*
X141485714Y-74802380D01*
X141247619Y-74802380D01*
X142247619Y-74802380D02*
X142247619Y-73802380D01*
X142914285Y-73802380D02*
X143104761Y-73802380D01*
X143200000Y-73850000D01*
X143295238Y-73945238D01*
X143342857Y-74135714D01*
X143342857Y-74469047D01*
X143295238Y-74659523D01*
X143200000Y-74754761D01*
X143104761Y-74802380D01*
X142914285Y-74802380D01*
X142819047Y-74754761D01*
X142723809Y-74659523D01*
X142676190Y-74469047D01*
X142676190Y-74135714D01*
X142723809Y-73945238D01*
X142819047Y-73850000D01*
X142914285Y-73802380D01*
X143771428Y-74802380D02*
X143771428Y-73802380D01*
X144009523Y-73802380D01*
X144152380Y-73850000D01*
X144247619Y-73945238D01*
X144295238Y-74040476D01*
X144342857Y-74230952D01*
X144342857Y-74373809D01*
X144295238Y-74564285D01*
X144247619Y-74659523D01*
X144152380Y-74754761D01*
X144009523Y-74802380D01*
X143771428Y-74802380D01*
X144771428Y-74278571D02*
X145104761Y-74278571D01*
X145247619Y-74802380D02*
X144771428Y-74802380D01*
X144771428Y-73802380D01*
X145247619Y-73802380D01*
X145628571Y-73897619D02*
X145676190Y-73850000D01*
X145771428Y-73802380D01*
X146009523Y-73802380D01*
X146104761Y-73850000D01*
X146152380Y-73897619D01*
X146200000Y-73992857D01*
X146200000Y-74088095D01*
X146152380Y-74230952D01*
X145580952Y-74802380D01*
X146200000Y-74802380D01*
X148984095Y-77064380D02*
X148984095Y-76064380D01*
X149555523Y-77064380D02*
X149126952Y-76492952D01*
X149555523Y-76064380D02*
X148984095Y-76635809D01*
X135219047Y-116897619D02*
X135266666Y-116850000D01*
X135361904Y-116802380D01*
X135600000Y-116802380D01*
X135695238Y-116850000D01*
X135742857Y-116897619D01*
X135790476Y-116992857D01*
X135790476Y-117088095D01*
X135742857Y-117230952D01*
X135171428Y-117802380D01*
X135790476Y-117802380D01*
X136219047Y-117707142D02*
X136266666Y-117754761D01*
X136219047Y-117802380D01*
X136171428Y-117754761D01*
X136219047Y-117707142D01*
X136219047Y-117802380D01*
X136647619Y-116897619D02*
X136695238Y-116850000D01*
X136790476Y-116802380D01*
X137028571Y-116802380D01*
X137123809Y-116850000D01*
X137171428Y-116897619D01*
X137219047Y-116992857D01*
X137219047Y-117088095D01*
X137171428Y-117230952D01*
X136600000Y-117802380D01*
X137219047Y-117802380D01*
X138076190Y-117135714D02*
X138076190Y-117802380D01*
X137647619Y-117135714D02*
X137647619Y-117659523D01*
X137695238Y-117754761D01*
X137790476Y-117802380D01*
X137933333Y-117802380D01*
X138028571Y-117754761D01*
X138076190Y-117707142D01*
X138885714Y-117278571D02*
X138552380Y-117278571D01*
X138552380Y-117802380D02*
X138552380Y-116802380D01*
X139028571Y-116802380D01*
X97219047Y-116897619D02*
X97266666Y-116850000D01*
X97361904Y-116802380D01*
X97600000Y-116802380D01*
X97695238Y-116850000D01*
X97742857Y-116897619D01*
X97790476Y-116992857D01*
X97790476Y-117088095D01*
X97742857Y-117230952D01*
X97171428Y-117802380D01*
X97790476Y-117802380D01*
X98219047Y-117707142D02*
X98266666Y-117754761D01*
X98219047Y-117802380D01*
X98171428Y-117754761D01*
X98219047Y-117707142D01*
X98219047Y-117802380D01*
X98647619Y-116897619D02*
X98695238Y-116850000D01*
X98790476Y-116802380D01*
X99028571Y-116802380D01*
X99123809Y-116850000D01*
X99171428Y-116897619D01*
X99219047Y-116992857D01*
X99219047Y-117088095D01*
X99171428Y-117230952D01*
X98600000Y-117802380D01*
X99219047Y-117802380D01*
X100076190Y-117135714D02*
X100076190Y-117802380D01*
X99647619Y-117135714D02*
X99647619Y-117659523D01*
X99695238Y-117754761D01*
X99790476Y-117802380D01*
X99933333Y-117802380D01*
X100028571Y-117754761D01*
X100076190Y-117707142D01*
X100885714Y-117278571D02*
X100552380Y-117278571D01*
X100552380Y-117802380D02*
X100552380Y-116802380D01*
X101028571Y-116802380D01*
X135219047Y-78897619D02*
X135266666Y-78850000D01*
X135361904Y-78802380D01*
X135600000Y-78802380D01*
X135695238Y-78850000D01*
X135742857Y-78897619D01*
X135790476Y-78992857D01*
X135790476Y-79088095D01*
X135742857Y-79230952D01*
X135171428Y-79802380D01*
X135790476Y-79802380D01*
X136219047Y-79707142D02*
X136266666Y-79754761D01*
X136219047Y-79802380D01*
X136171428Y-79754761D01*
X136219047Y-79707142D01*
X136219047Y-79802380D01*
X136647619Y-78897619D02*
X136695238Y-78850000D01*
X136790476Y-78802380D01*
X137028571Y-78802380D01*
X137123809Y-78850000D01*
X137171428Y-78897619D01*
X137219047Y-78992857D01*
X137219047Y-79088095D01*
X137171428Y-79230952D01*
X136600000Y-79802380D01*
X137219047Y-79802380D01*
X138076190Y-79135714D02*
X138076190Y-79802380D01*
X137647619Y-79135714D02*
X137647619Y-79659523D01*
X137695238Y-79754761D01*
X137790476Y-79802380D01*
X137933333Y-79802380D01*
X138028571Y-79754761D01*
X138076190Y-79707142D01*
X138885714Y-79278571D02*
X138552380Y-79278571D01*
X138552380Y-79802380D02*
X138552380Y-78802380D01*
X139028571Y-78802380D01*
X143828571Y-93802380D02*
X143257142Y-93802380D01*
X143542857Y-93802380D02*
X143542857Y-92802380D01*
X143447619Y-92945238D01*
X143352380Y-93040476D01*
X143257142Y-93088095D01*
X144447619Y-92802380D02*
X144542857Y-92802380D01*
X144638095Y-92850000D01*
X144685714Y-92897619D01*
X144733333Y-92992857D01*
X144780952Y-93183333D01*
X144780952Y-93421428D01*
X144733333Y-93611904D01*
X144685714Y-93707142D01*
X144638095Y-93754761D01*
X144542857Y-93802380D01*
X144447619Y-93802380D01*
X144352380Y-93754761D01*
X144304761Y-93707142D01*
X144257142Y-93611904D01*
X144209523Y-93421428D01*
X144209523Y-93183333D01*
X144257142Y-92992857D01*
X144304761Y-92897619D01*
X144352380Y-92850000D01*
X144447619Y-92802380D01*
X145400000Y-92802380D02*
X145495238Y-92802380D01*
X145590476Y-92850000D01*
X145638095Y-92897619D01*
X145685714Y-92992857D01*
X145733333Y-93183333D01*
X145733333Y-93421428D01*
X145685714Y-93611904D01*
X145638095Y-93707142D01*
X145590476Y-93754761D01*
X145495238Y-93802380D01*
X145400000Y-93802380D01*
X145304761Y-93754761D01*
X145257142Y-93707142D01*
X145209523Y-93611904D01*
X145161904Y-93421428D01*
X145161904Y-93183333D01*
X145209523Y-92992857D01*
X145257142Y-92897619D01*
X145304761Y-92850000D01*
X145400000Y-92802380D01*
X146161904Y-93802380D02*
X146161904Y-92802380D01*
X146257142Y-93421428D02*
X146542857Y-93802380D01*
X146542857Y-93135714D02*
X146161904Y-93516666D01*
X105828571Y-93802380D02*
X105257142Y-93802380D01*
X105542857Y-93802380D02*
X105542857Y-92802380D01*
X105447619Y-92945238D01*
X105352380Y-93040476D01*
X105257142Y-93088095D01*
X106447619Y-92802380D02*
X106542857Y-92802380D01*
X106638095Y-92850000D01*
X106685714Y-92897619D01*
X106733333Y-92992857D01*
X106780952Y-93183333D01*
X106780952Y-93421428D01*
X106733333Y-93611904D01*
X106685714Y-93707142D01*
X106638095Y-93754761D01*
X106542857Y-93802380D01*
X106447619Y-93802380D01*
X106352380Y-93754761D01*
X106304761Y-93707142D01*
X106257142Y-93611904D01*
X106209523Y-93421428D01*
X106209523Y-93183333D01*
X106257142Y-92992857D01*
X106304761Y-92897619D01*
X106352380Y-92850000D01*
X106447619Y-92802380D01*
X107400000Y-92802380D02*
X107495238Y-92802380D01*
X107590476Y-92850000D01*
X107638095Y-92897619D01*
X107685714Y-92992857D01*
X107733333Y-93183333D01*
X107733333Y-93421428D01*
X107685714Y-93611904D01*
X107638095Y-93707142D01*
X107590476Y-93754761D01*
X107495238Y-93802380D01*
X107400000Y-93802380D01*
X107304761Y-93754761D01*
X107257142Y-93707142D01*
X107209523Y-93611904D01*
X107161904Y-93421428D01*
X107161904Y-93183333D01*
X107209523Y-92992857D01*
X107257142Y-92897619D01*
X107304761Y-92850000D01*
X107400000Y-92802380D01*
X108161904Y-93802380D02*
X108161904Y-92802380D01*
X108257142Y-93421428D02*
X108542857Y-93802380D01*
X108542857Y-93135714D02*
X108161904Y-93516666D01*
X143828571Y-55802380D02*
X143257142Y-55802380D01*
X143542857Y-55802380D02*
X143542857Y-54802380D01*
X143447619Y-54945238D01*
X143352380Y-55040476D01*
X143257142Y-55088095D01*
X144447619Y-54802380D02*
X144542857Y-54802380D01*
X144638095Y-54850000D01*
X144685714Y-54897619D01*
X144733333Y-54992857D01*
X144780952Y-55183333D01*
X144780952Y-55421428D01*
X144733333Y-55611904D01*
X144685714Y-55707142D01*
X144638095Y-55754761D01*
X144542857Y-55802380D01*
X144447619Y-55802380D01*
X144352380Y-55754761D01*
X144304761Y-55707142D01*
X144257142Y-55611904D01*
X144209523Y-55421428D01*
X144209523Y-55183333D01*
X144257142Y-54992857D01*
X144304761Y-54897619D01*
X144352380Y-54850000D01*
X144447619Y-54802380D01*
X145400000Y-54802380D02*
X145495238Y-54802380D01*
X145590476Y-54850000D01*
X145638095Y-54897619D01*
X145685714Y-54992857D01*
X145733333Y-55183333D01*
X145733333Y-55421428D01*
X145685714Y-55611904D01*
X145638095Y-55707142D01*
X145590476Y-55754761D01*
X145495238Y-55802380D01*
X145400000Y-55802380D01*
X145304761Y-55754761D01*
X145257142Y-55707142D01*
X145209523Y-55611904D01*
X145161904Y-55421428D01*
X145161904Y-55183333D01*
X145209523Y-54992857D01*
X145257142Y-54897619D01*
X145304761Y-54850000D01*
X145400000Y-54802380D01*
X146161904Y-55802380D02*
X146161904Y-54802380D01*
X146257142Y-55421428D02*
X146542857Y-55802380D01*
X146542857Y-55135714D02*
X146161904Y-55516666D01*
D12*
X146150000Y-89233333D02*
X146183333Y-89200000D01*
X146250000Y-89166666D01*
X146416666Y-89166666D01*
X146483333Y-89200000D01*
X146516666Y-89233333D01*
X146550000Y-89300000D01*
X146550000Y-89366666D01*
X146516666Y-89466666D01*
X146116666Y-89866666D01*
X146550000Y-89866666D01*
X146816666Y-89233333D02*
X146850000Y-89200000D01*
X146916666Y-89166666D01*
X147083333Y-89166666D01*
X147150000Y-89200000D01*
X147183333Y-89233333D01*
X147216666Y-89300000D01*
X147216666Y-89366666D01*
X147183333Y-89466666D01*
X146783333Y-89866666D01*
X147216666Y-89866666D01*
X147816666Y-89400000D02*
X147816666Y-89866666D01*
X147516666Y-89400000D02*
X147516666Y-89766666D01*
X147550000Y-89833333D01*
X147616666Y-89866666D01*
X147716666Y-89866666D01*
X147783333Y-89833333D01*
X147816666Y-89800000D01*
X148383333Y-89500000D02*
X148150000Y-89500000D01*
X148150000Y-89866666D02*
X148150000Y-89166666D01*
X148483333Y-89166666D01*
X108150000Y-89233333D02*
X108183333Y-89200000D01*
X108250000Y-89166666D01*
X108416666Y-89166666D01*
X108483333Y-89200000D01*
X108516666Y-89233333D01*
X108550000Y-89300000D01*
X108550000Y-89366666D01*
X108516666Y-89466666D01*
X108116666Y-89866666D01*
X108550000Y-89866666D01*
X108816666Y-89233333D02*
X108850000Y-89200000D01*
X108916666Y-89166666D01*
X109083333Y-89166666D01*
X109150000Y-89200000D01*
X109183333Y-89233333D01*
X109216666Y-89300000D01*
X109216666Y-89366666D01*
X109183333Y-89466666D01*
X108783333Y-89866666D01*
X109216666Y-89866666D01*
X109816666Y-89400000D02*
X109816666Y-89866666D01*
X109516666Y-89400000D02*
X109516666Y-89766666D01*
X109550000Y-89833333D01*
X109616666Y-89866666D01*
X109716666Y-89866666D01*
X109783333Y-89833333D01*
X109816666Y-89800000D01*
X110383333Y-89500000D02*
X110150000Y-89500000D01*
X110150000Y-89866666D02*
X110150000Y-89166666D01*
X110483333Y-89166666D01*
X146150000Y-51233333D02*
X146183333Y-51200000D01*
X146250000Y-51166666D01*
X146416666Y-51166666D01*
X146483333Y-51200000D01*
X146516666Y-51233333D01*
X146550000Y-51300000D01*
X146550000Y-51366666D01*
X146516666Y-51466666D01*
X146116666Y-51866666D01*
X146550000Y-51866666D01*
X146816666Y-51233333D02*
X146850000Y-51200000D01*
X146916666Y-51166666D01*
X147083333Y-51166666D01*
X147150000Y-51200000D01*
X147183333Y-51233333D01*
X147216666Y-51300000D01*
X147216666Y-51366666D01*
X147183333Y-51466666D01*
X146783333Y-51866666D01*
X147216666Y-51866666D01*
X147816666Y-51400000D02*
X147816666Y-51866666D01*
X147516666Y-51400000D02*
X147516666Y-51766666D01*
X147550000Y-51833333D01*
X147616666Y-51866666D01*
X147716666Y-51866666D01*
X147783333Y-51833333D01*
X147816666Y-51800000D01*
X148383333Y-51500000D02*
X148150000Y-51500000D01*
X148150000Y-51866666D02*
X148150000Y-51166666D01*
X148483333Y-51166666D01*
D10*
X134458380Y-104442714D02*
X134458380Y-105014142D01*
X134458380Y-104728428D02*
X133458380Y-104728428D01*
X133601238Y-104823666D01*
X133696476Y-104918904D01*
X133744095Y-105014142D01*
X134458380Y-104014142D02*
X133458380Y-104014142D01*
X134172666Y-103680809D01*
X133458380Y-103347476D01*
X134458380Y-103347476D01*
X96458380Y-104442714D02*
X96458380Y-105014142D01*
X96458380Y-104728428D02*
X95458380Y-104728428D01*
X95601238Y-104823666D01*
X95696476Y-104918904D01*
X95744095Y-105014142D01*
X96458380Y-104014142D02*
X95458380Y-104014142D01*
X96172666Y-103680809D01*
X95458380Y-103347476D01*
X96458380Y-103347476D01*
X134458380Y-66442714D02*
X134458380Y-67014142D01*
X134458380Y-66728428D02*
X133458380Y-66728428D01*
X133601238Y-66823666D01*
X133696476Y-66918904D01*
X133744095Y-67014142D01*
X134458380Y-66014142D02*
X133458380Y-66014142D01*
X134172666Y-65680809D01*
X133458380Y-65347476D01*
X134458380Y-65347476D01*
X84909714Y-51270571D02*
X85052571Y-51318190D01*
X85100190Y-51365809D01*
X85147809Y-51461047D01*
X85147809Y-51603904D01*
X85100190Y-51699142D01*
X85052571Y-51746761D01*
X84957333Y-51794380D01*
X84576380Y-51794380D01*
X84576380Y-50794380D01*
X84909714Y-50794380D01*
X85004952Y-50842000D01*
X85052571Y-50889619D01*
X85100190Y-50984857D01*
X85100190Y-51080095D01*
X85052571Y-51175333D01*
X85004952Y-51222952D01*
X84909714Y-51270571D01*
X84576380Y-51270571D01*
X86147809Y-51699142D02*
X86100190Y-51746761D01*
X85957333Y-51794380D01*
X85862095Y-51794380D01*
X85719238Y-51746761D01*
X85624000Y-51651523D01*
X85576380Y-51556285D01*
X85528761Y-51365809D01*
X85528761Y-51222952D01*
X85576380Y-51032476D01*
X85624000Y-50937238D01*
X85719238Y-50842000D01*
X85862095Y-50794380D01*
X85957333Y-50794380D01*
X86100190Y-50842000D01*
X86147809Y-50889619D01*
X87100190Y-51794380D02*
X86528761Y-51794380D01*
X86814476Y-51794380D02*
X86814476Y-50794380D01*
X86719238Y-50937238D01*
X86624000Y-51032476D01*
X86528761Y-51080095D01*
X87719238Y-50794380D02*
X87814476Y-50794380D01*
X87909714Y-50842000D01*
X87957333Y-50889619D01*
X88004952Y-50984857D01*
X88052571Y-51175333D01*
X88052571Y-51413428D01*
X88004952Y-51603904D01*
X87957333Y-51699142D01*
X87909714Y-51746761D01*
X87814476Y-51794380D01*
X87719238Y-51794380D01*
X87624000Y-51746761D01*
X87576380Y-51699142D01*
X87528761Y-51603904D01*
X87481142Y-51413428D01*
X87481142Y-51175333D01*
X87528761Y-50984857D01*
X87576380Y-50889619D01*
X87624000Y-50842000D01*
X87719238Y-50794380D01*
X88624000Y-51222952D02*
X88528761Y-51175333D01*
X88481142Y-51127714D01*
X88433523Y-51032476D01*
X88433523Y-50984857D01*
X88481142Y-50889619D01*
X88528761Y-50842000D01*
X88624000Y-50794380D01*
X88814476Y-50794380D01*
X88909714Y-50842000D01*
X88957333Y-50889619D01*
X89004952Y-50984857D01*
X89004952Y-51032476D01*
X88957333Y-51127714D01*
X88909714Y-51175333D01*
X88814476Y-51222952D01*
X88624000Y-51222952D01*
X88528761Y-51270571D01*
X88481142Y-51318190D01*
X88433523Y-51413428D01*
X88433523Y-51603904D01*
X88481142Y-51699142D01*
X88528761Y-51746761D01*
X88624000Y-51794380D01*
X88814476Y-51794380D01*
X88909714Y-51746761D01*
X88957333Y-51699142D01*
X89004952Y-51603904D01*
X89004952Y-51413428D01*
X88957333Y-51318190D01*
X88909714Y-51270571D01*
X88814476Y-51222952D01*
X89290666Y-50794380D02*
X89862095Y-50794380D01*
X89576380Y-51794380D02*
X89576380Y-50794380D01*
X90719238Y-51794380D02*
X90147809Y-51794380D01*
X90433523Y-51794380D02*
X90433523Y-50794380D01*
X90338285Y-50937238D01*
X90243047Y-51032476D01*
X90147809Y-51080095D01*
X81448380Y-57441047D02*
X81448380Y-57345809D01*
X81496000Y-57250571D01*
X81543619Y-57202952D01*
X81638857Y-57155333D01*
X81829333Y-57107714D01*
X82067428Y-57107714D01*
X82257904Y-57155333D01*
X82353142Y-57202952D01*
X82400761Y-57250571D01*
X82448380Y-57345809D01*
X82448380Y-57441047D01*
X82400761Y-57536285D01*
X82353142Y-57583904D01*
X82257904Y-57631523D01*
X82067428Y-57679142D01*
X81829333Y-57679142D01*
X81638857Y-57631523D01*
X81543619Y-57583904D01*
X81496000Y-57536285D01*
X81448380Y-57441047D01*
X82353142Y-56679142D02*
X82400761Y-56631523D01*
X82448380Y-56679142D01*
X82400761Y-56726761D01*
X82353142Y-56679142D01*
X82448380Y-56679142D01*
X81448380Y-56012476D02*
X81448380Y-55917238D01*
X81496000Y-55822000D01*
X81543619Y-55774380D01*
X81638857Y-55726761D01*
X81829333Y-55679142D01*
X82067428Y-55679142D01*
X82257904Y-55726761D01*
X82353142Y-55774380D01*
X82400761Y-55822000D01*
X82448380Y-55917238D01*
X82448380Y-56012476D01*
X82400761Y-56107714D01*
X82353142Y-56155333D01*
X82257904Y-56202952D01*
X82067428Y-56250571D01*
X81829333Y-56250571D01*
X81638857Y-56202952D01*
X81543619Y-56155333D01*
X81496000Y-56107714D01*
X81448380Y-56012476D01*
X82448380Y-54726761D02*
X82448380Y-55298190D01*
X82448380Y-55012476D02*
X81448380Y-55012476D01*
X81591238Y-55107714D01*
X81686476Y-55202952D01*
X81734095Y-55298190D01*
X81781714Y-53869619D02*
X82448380Y-53869619D01*
X81781714Y-54298190D02*
X82305523Y-54298190D01*
X82400761Y-54250571D01*
X82448380Y-54155333D01*
X82448380Y-54012476D01*
X82400761Y-53917238D01*
X82353142Y-53869619D01*
X81924571Y-53060095D02*
X81924571Y-53393428D01*
X82448380Y-53393428D02*
X81448380Y-53393428D01*
X81448380Y-52917238D01*
X105828571Y-55802380D02*
X105257142Y-55802380D01*
X105542857Y-55802380D02*
X105542857Y-54802380D01*
X105447619Y-54945238D01*
X105352380Y-55040476D01*
X105257142Y-55088095D01*
X106447619Y-54802380D02*
X106542857Y-54802380D01*
X106638095Y-54850000D01*
X106685714Y-54897619D01*
X106733333Y-54992857D01*
X106780952Y-55183333D01*
X106780952Y-55421428D01*
X106733333Y-55611904D01*
X106685714Y-55707142D01*
X106638095Y-55754761D01*
X106542857Y-55802380D01*
X106447619Y-55802380D01*
X106352380Y-55754761D01*
X106304761Y-55707142D01*
X106257142Y-55611904D01*
X106209523Y-55421428D01*
X106209523Y-55183333D01*
X106257142Y-54992857D01*
X106304761Y-54897619D01*
X106352380Y-54850000D01*
X106447619Y-54802380D01*
X107400000Y-54802380D02*
X107495238Y-54802380D01*
X107590476Y-54850000D01*
X107638095Y-54897619D01*
X107685714Y-54992857D01*
X107733333Y-55183333D01*
X107733333Y-55421428D01*
X107685714Y-55611904D01*
X107638095Y-55707142D01*
X107590476Y-55754761D01*
X107495238Y-55802380D01*
X107400000Y-55802380D01*
X107304761Y-55754761D01*
X107257142Y-55707142D01*
X107209523Y-55611904D01*
X107161904Y-55421428D01*
X107161904Y-55183333D01*
X107209523Y-54992857D01*
X107257142Y-54897619D01*
X107304761Y-54850000D01*
X107400000Y-54802380D01*
X108161904Y-55802380D02*
X108161904Y-54802380D01*
X108257142Y-55421428D02*
X108542857Y-55802380D01*
X108542857Y-55135714D02*
X108161904Y-55516666D01*
X96458380Y-66442714D02*
X96458380Y-67014142D01*
X96458380Y-66728428D02*
X95458380Y-66728428D01*
X95601238Y-66823666D01*
X95696476Y-66918904D01*
X95744095Y-67014142D01*
X96458380Y-66014142D02*
X95458380Y-66014142D01*
X96172666Y-65680809D01*
X95458380Y-65347476D01*
X96458380Y-65347476D01*
D12*
X91966666Y-67150000D02*
X91966666Y-67550000D01*
X91966666Y-67350000D02*
X91266666Y-67350000D01*
X91366666Y-67416666D01*
X91433333Y-67483333D01*
X91466666Y-67550000D01*
X91966666Y-66850000D02*
X91266666Y-66850000D01*
X91966666Y-66450000D01*
X91266666Y-66450000D01*
X91500000Y-65816666D02*
X91966666Y-65816666D01*
X91233333Y-65983333D02*
X91733333Y-66150000D01*
X91733333Y-65716666D01*
X91266666Y-65316666D02*
X91266666Y-65250000D01*
X91300000Y-65183333D01*
X91333333Y-65150000D01*
X91400000Y-65116666D01*
X91533333Y-65083333D01*
X91700000Y-65083333D01*
X91833333Y-65116666D01*
X91900000Y-65150000D01*
X91933333Y-65183333D01*
X91966666Y-65250000D01*
X91966666Y-65316666D01*
X91933333Y-65383333D01*
X91900000Y-65416666D01*
X91833333Y-65450000D01*
X91700000Y-65483333D01*
X91533333Y-65483333D01*
X91400000Y-65450000D01*
X91333333Y-65416666D01*
X91300000Y-65383333D01*
X91266666Y-65316666D01*
X91266666Y-64650000D02*
X91266666Y-64583333D01*
X91300000Y-64516666D01*
X91333333Y-64483333D01*
X91400000Y-64450000D01*
X91533333Y-64416666D01*
X91700000Y-64416666D01*
X91833333Y-64450000D01*
X91900000Y-64483333D01*
X91933333Y-64516666D01*
X91966666Y-64583333D01*
X91966666Y-64650000D01*
X91933333Y-64716666D01*
X91900000Y-64750000D01*
X91833333Y-64783333D01*
X91700000Y-64816666D01*
X91533333Y-64816666D01*
X91400000Y-64783333D01*
X91333333Y-64750000D01*
X91300000Y-64716666D01*
X91266666Y-64650000D01*
X91266666Y-64183333D02*
X91266666Y-63716666D01*
X91966666Y-64016666D01*
D10*
X89913380Y-71498904D02*
X88913380Y-71498904D01*
X89913380Y-70927476D02*
X89341952Y-71356047D01*
X88913380Y-70927476D02*
X89484809Y-71498904D01*
X97219047Y-78897619D02*
X97266666Y-78850000D01*
X97361904Y-78802380D01*
X97600000Y-78802380D01*
X97695238Y-78850000D01*
X97742857Y-78897619D01*
X97790476Y-78992857D01*
X97790476Y-79088095D01*
X97742857Y-79230952D01*
X97171428Y-79802380D01*
X97790476Y-79802380D01*
X98219047Y-79707142D02*
X98266666Y-79754761D01*
X98219047Y-79802380D01*
X98171428Y-79754761D01*
X98219047Y-79707142D01*
X98219047Y-79802380D01*
X98647619Y-78897619D02*
X98695238Y-78850000D01*
X98790476Y-78802380D01*
X99028571Y-78802380D01*
X99123809Y-78850000D01*
X99171428Y-78897619D01*
X99219047Y-78992857D01*
X99219047Y-79088095D01*
X99171428Y-79230952D01*
X98600000Y-79802380D01*
X99219047Y-79802380D01*
X100076190Y-79135714D02*
X100076190Y-79802380D01*
X99647619Y-79135714D02*
X99647619Y-79659523D01*
X99695238Y-79754761D01*
X99790476Y-79802380D01*
X99933333Y-79802380D01*
X100028571Y-79754761D01*
X100076190Y-79707142D01*
X100885714Y-79278571D02*
X100552380Y-79278571D01*
X100552380Y-79802380D02*
X100552380Y-78802380D01*
X101028571Y-78802380D01*
D12*
X108150000Y-51233333D02*
X108183333Y-51200000D01*
X108250000Y-51166666D01*
X108416666Y-51166666D01*
X108483333Y-51200000D01*
X108516666Y-51233333D01*
X108550000Y-51300000D01*
X108550000Y-51366666D01*
X108516666Y-51466666D01*
X108116666Y-51866666D01*
X108550000Y-51866666D01*
X108816666Y-51233333D02*
X108850000Y-51200000D01*
X108916666Y-51166666D01*
X109083333Y-51166666D01*
X109150000Y-51200000D01*
X109183333Y-51233333D01*
X109216666Y-51300000D01*
X109216666Y-51366666D01*
X109183333Y-51466666D01*
X108783333Y-51866666D01*
X109216666Y-51866666D01*
X109816666Y-51400000D02*
X109816666Y-51866666D01*
X109516666Y-51400000D02*
X109516666Y-51766666D01*
X109550000Y-51833333D01*
X109616666Y-51866666D01*
X109716666Y-51866666D01*
X109783333Y-51833333D01*
X109816666Y-51800000D01*
X110383333Y-51500000D02*
X110150000Y-51500000D01*
X110150000Y-51866666D02*
X110150000Y-51166666D01*
X110483333Y-51166666D01*
D10*
X92580952Y-49170380D02*
X92771428Y-49170380D01*
X92866666Y-49122761D01*
X92914285Y-49075142D01*
X93009523Y-48932285D01*
X93057142Y-48741809D01*
X93057142Y-48360857D01*
X93009523Y-48265619D01*
X92961904Y-48218000D01*
X92866666Y-48170380D01*
X92676190Y-48170380D01*
X92580952Y-48218000D01*
X92533333Y-48265619D01*
X92485714Y-48360857D01*
X92485714Y-48598952D01*
X92533333Y-48694190D01*
X92580952Y-48741809D01*
X92676190Y-48789428D01*
X92866666Y-48789428D01*
X92961904Y-48741809D01*
X93009523Y-48694190D01*
X93057142Y-48598952D01*
X93342857Y-48170380D02*
X93676190Y-49170380D01*
X94009523Y-48170380D01*
D11*
X101460809Y-48764333D02*
X101841761Y-48764333D01*
X101384619Y-48992904D02*
X101651285Y-48192904D01*
X101917952Y-48992904D01*
X102603666Y-48992904D02*
X102146523Y-48992904D01*
X102375095Y-48992904D02*
X102375095Y-48192904D01*
X102298904Y-48307190D01*
X102222714Y-48383380D01*
X102146523Y-48421476D01*
X102946523Y-48992904D02*
X102946523Y-48192904D01*
X103022714Y-48688142D02*
X103251285Y-48992904D01*
X103251285Y-48459571D02*
X102946523Y-48764333D01*
X104013190Y-48992904D02*
X103556047Y-48992904D01*
X103784619Y-48992904D02*
X103784619Y-48192904D01*
X103708428Y-48307190D01*
X103632238Y-48383380D01*
X103556047Y-48421476D01*
X105905809Y-48783333D02*
X106286761Y-48783333D01*
X105829619Y-49011904D02*
X106096285Y-48211904D01*
X106362952Y-49011904D01*
X107048666Y-49011904D02*
X106591523Y-49011904D01*
X106820095Y-49011904D02*
X106820095Y-48211904D01*
X106743904Y-48326190D01*
X106667714Y-48402380D01*
X106591523Y-48440476D01*
X107391523Y-49011904D02*
X107391523Y-48211904D01*
X107467714Y-48707142D02*
X107696285Y-49011904D01*
X107696285Y-48478571D02*
X107391523Y-48783333D01*
X108001047Y-48288095D02*
X108039142Y-48250000D01*
X108115333Y-48211904D01*
X108305809Y-48211904D01*
X108382000Y-48250000D01*
X108420095Y-48288095D01*
X108458190Y-48364285D01*
X108458190Y-48440476D01*
X108420095Y-48554761D01*
X107962952Y-49011904D01*
X108458190Y-49011904D01*
X110350809Y-48764333D02*
X110731761Y-48764333D01*
X110274619Y-48992904D02*
X110541285Y-48192904D01*
X110807952Y-48992904D01*
X111493666Y-48992904D02*
X111036523Y-48992904D01*
X111265095Y-48992904D02*
X111265095Y-48192904D01*
X111188904Y-48307190D01*
X111112714Y-48383380D01*
X111036523Y-48421476D01*
X111836523Y-48992904D02*
X111836523Y-48192904D01*
X111912714Y-48688142D02*
X112141285Y-48992904D01*
X112141285Y-48459571D02*
X111836523Y-48764333D01*
X112407952Y-48192904D02*
X112903190Y-48192904D01*
X112636523Y-48497666D01*
X112750809Y-48497666D01*
X112827000Y-48535761D01*
X112865095Y-48573857D01*
X112903190Y-48650047D01*
X112903190Y-48840523D01*
X112865095Y-48916714D01*
X112827000Y-48954809D01*
X112750809Y-48992904D01*
X112522238Y-48992904D01*
X112446047Y-48954809D01*
X112407952Y-48916714D01*
D12*
X77458666Y-48851333D02*
X77792000Y-48851333D01*
X77392000Y-49079904D02*
X77625333Y-48279904D01*
X77858666Y-49079904D01*
X78425333Y-48279904D02*
X78092000Y-48279904D01*
X78058666Y-48660857D01*
X78092000Y-48622761D01*
X78158666Y-48584666D01*
X78325333Y-48584666D01*
X78392000Y-48622761D01*
X78425333Y-48660857D01*
X78458666Y-48737047D01*
X78458666Y-48927523D01*
X78425333Y-49003714D01*
X78392000Y-49041809D01*
X78325333Y-49079904D01*
X78158666Y-49079904D01*
X78092000Y-49041809D01*
X78058666Y-49003714D01*
X78892000Y-48279904D02*
X78958666Y-48279904D01*
X79025333Y-48318000D01*
X79058666Y-48356095D01*
X79092000Y-48432285D01*
X79125333Y-48584666D01*
X79125333Y-48775142D01*
X79092000Y-48927523D01*
X79058666Y-49003714D01*
X79025333Y-49041809D01*
X78958666Y-49079904D01*
X78892000Y-49079904D01*
X78825333Y-49041809D01*
X78792000Y-49003714D01*
X78758666Y-48927523D01*
X78725333Y-48775142D01*
X78725333Y-48584666D01*
X78758666Y-48432285D01*
X78792000Y-48356095D01*
X78825333Y-48318000D01*
X78892000Y-48279904D01*
X79558666Y-48279904D02*
X79625333Y-48279904D01*
X79692000Y-48318000D01*
X79725333Y-48356095D01*
X79758666Y-48432285D01*
X79792000Y-48584666D01*
X79792000Y-48775142D01*
X79758666Y-48927523D01*
X79725333Y-49003714D01*
X79692000Y-49041809D01*
X79625333Y-49079904D01*
X79558666Y-49079904D01*
X79492000Y-49041809D01*
X79458666Y-49003714D01*
X79425333Y-48927523D01*
X79392000Y-48775142D01*
X79392000Y-48584666D01*
X79425333Y-48432285D01*
X79458666Y-48356095D01*
X79492000Y-48318000D01*
X79558666Y-48279904D01*
X80092000Y-49079904D02*
X80092000Y-48279904D01*
X80158666Y-48775142D02*
X80358666Y-49079904D01*
X80358666Y-48546571D02*
X80092000Y-48851333D01*
X81025333Y-49079904D02*
X80625333Y-49079904D01*
X80825333Y-49079904D02*
X80825333Y-48279904D01*
X80758666Y-48394190D01*
X80692000Y-48470380D01*
X80625333Y-48508476D01*
X81903666Y-48851333D02*
X82237000Y-48851333D01*
X81837000Y-49079904D02*
X82070333Y-48279904D01*
X82303666Y-49079904D01*
X82870333Y-48279904D02*
X82537000Y-48279904D01*
X82503666Y-48660857D01*
X82537000Y-48622761D01*
X82603666Y-48584666D01*
X82770333Y-48584666D01*
X82837000Y-48622761D01*
X82870333Y-48660857D01*
X82903666Y-48737047D01*
X82903666Y-48927523D01*
X82870333Y-49003714D01*
X82837000Y-49041809D01*
X82770333Y-49079904D01*
X82603666Y-49079904D01*
X82537000Y-49041809D01*
X82503666Y-49003714D01*
X83337000Y-48279904D02*
X83403666Y-48279904D01*
X83470333Y-48318000D01*
X83503666Y-48356095D01*
X83537000Y-48432285D01*
X83570333Y-48584666D01*
X83570333Y-48775142D01*
X83537000Y-48927523D01*
X83503666Y-49003714D01*
X83470333Y-49041809D01*
X83403666Y-49079904D01*
X83337000Y-49079904D01*
X83270333Y-49041809D01*
X83237000Y-49003714D01*
X83203666Y-48927523D01*
X83170333Y-48775142D01*
X83170333Y-48584666D01*
X83203666Y-48432285D01*
X83237000Y-48356095D01*
X83270333Y-48318000D01*
X83337000Y-48279904D01*
X84003666Y-48279904D02*
X84070333Y-48279904D01*
X84137000Y-48318000D01*
X84170333Y-48356095D01*
X84203666Y-48432285D01*
X84237000Y-48584666D01*
X84237000Y-48775142D01*
X84203666Y-48927523D01*
X84170333Y-49003714D01*
X84137000Y-49041809D01*
X84070333Y-49079904D01*
X84003666Y-49079904D01*
X83937000Y-49041809D01*
X83903666Y-49003714D01*
X83870333Y-48927523D01*
X83837000Y-48775142D01*
X83837000Y-48584666D01*
X83870333Y-48432285D01*
X83903666Y-48356095D01*
X83937000Y-48318000D01*
X84003666Y-48279904D01*
X84537000Y-49079904D02*
X84537000Y-48279904D01*
X84603666Y-48775142D02*
X84803666Y-49079904D01*
X84803666Y-48546571D02*
X84537000Y-48851333D01*
X85070333Y-48356095D02*
X85103666Y-48318000D01*
X85170333Y-48279904D01*
X85337000Y-48279904D01*
X85403666Y-48318000D01*
X85437000Y-48356095D01*
X85470333Y-48432285D01*
X85470333Y-48508476D01*
X85437000Y-48622761D01*
X85037000Y-49079904D01*
X85470333Y-49079904D01*
X86366666Y-48883333D02*
X86700000Y-48883333D01*
X86300000Y-49111904D02*
X86533333Y-48311904D01*
X86766666Y-49111904D01*
X87333333Y-48311904D02*
X87000000Y-48311904D01*
X86966666Y-48692857D01*
X87000000Y-48654761D01*
X87066666Y-48616666D01*
X87233333Y-48616666D01*
X87300000Y-48654761D01*
X87333333Y-48692857D01*
X87366666Y-48769047D01*
X87366666Y-48959523D01*
X87333333Y-49035714D01*
X87300000Y-49073809D01*
X87233333Y-49111904D01*
X87066666Y-49111904D01*
X87000000Y-49073809D01*
X86966666Y-49035714D01*
X87800000Y-48311904D02*
X87866666Y-48311904D01*
X87933333Y-48350000D01*
X87966666Y-48388095D01*
X88000000Y-48464285D01*
X88033333Y-48616666D01*
X88033333Y-48807142D01*
X88000000Y-48959523D01*
X87966666Y-49035714D01*
X87933333Y-49073809D01*
X87866666Y-49111904D01*
X87800000Y-49111904D01*
X87733333Y-49073809D01*
X87700000Y-49035714D01*
X87666666Y-48959523D01*
X87633333Y-48807142D01*
X87633333Y-48616666D01*
X87666666Y-48464285D01*
X87700000Y-48388095D01*
X87733333Y-48350000D01*
X87800000Y-48311904D01*
X88466666Y-48311904D02*
X88533333Y-48311904D01*
X88600000Y-48350000D01*
X88633333Y-48388095D01*
X88666666Y-48464285D01*
X88700000Y-48616666D01*
X88700000Y-48807142D01*
X88666666Y-48959523D01*
X88633333Y-49035714D01*
X88600000Y-49073809D01*
X88533333Y-49111904D01*
X88466666Y-49111904D01*
X88400000Y-49073809D01*
X88366666Y-49035714D01*
X88333333Y-48959523D01*
X88300000Y-48807142D01*
X88300000Y-48616666D01*
X88333333Y-48464285D01*
X88366666Y-48388095D01*
X88400000Y-48350000D01*
X88466666Y-48311904D01*
X89000000Y-49111904D02*
X89000000Y-48311904D01*
X89066666Y-48807142D02*
X89266666Y-49111904D01*
X89266666Y-48578571D02*
X89000000Y-48883333D01*
X89500000Y-48311904D02*
X89933333Y-48311904D01*
X89700000Y-48616666D01*
X89800000Y-48616666D01*
X89866666Y-48654761D01*
X89900000Y-48692857D01*
X89933333Y-48769047D01*
X89933333Y-48959523D01*
X89900000Y-49035714D01*
X89866666Y-49073809D01*
X89800000Y-49111904D01*
X89600000Y-49111904D01*
X89533333Y-49073809D01*
X89500000Y-49035714D01*
D10*
X92021714Y-51270571D02*
X92164571Y-51318190D01*
X92212190Y-51365809D01*
X92259809Y-51461047D01*
X92259809Y-51603904D01*
X92212190Y-51699142D01*
X92164571Y-51746761D01*
X92069333Y-51794380D01*
X91688380Y-51794380D01*
X91688380Y-50794380D01*
X92021714Y-50794380D01*
X92116952Y-50842000D01*
X92164571Y-50889619D01*
X92212190Y-50984857D01*
X92212190Y-51080095D01*
X92164571Y-51175333D01*
X92116952Y-51222952D01*
X92021714Y-51270571D01*
X91688380Y-51270571D01*
X93259809Y-51699142D02*
X93212190Y-51746761D01*
X93069333Y-51794380D01*
X92974095Y-51794380D01*
X92831238Y-51746761D01*
X92736000Y-51651523D01*
X92688380Y-51556285D01*
X92640761Y-51365809D01*
X92640761Y-51222952D01*
X92688380Y-51032476D01*
X92736000Y-50937238D01*
X92831238Y-50842000D01*
X92974095Y-50794380D01*
X93069333Y-50794380D01*
X93212190Y-50842000D01*
X93259809Y-50889619D01*
X94212190Y-51794380D02*
X93640761Y-51794380D01*
X93926476Y-51794380D02*
X93926476Y-50794380D01*
X93831238Y-50937238D01*
X93736000Y-51032476D01*
X93640761Y-51080095D01*
X94831238Y-50794380D02*
X94926476Y-50794380D01*
X95021714Y-50842000D01*
X95069333Y-50889619D01*
X95116952Y-50984857D01*
X95164571Y-51175333D01*
X95164571Y-51413428D01*
X95116952Y-51603904D01*
X95069333Y-51699142D01*
X95021714Y-51746761D01*
X94926476Y-51794380D01*
X94831238Y-51794380D01*
X94736000Y-51746761D01*
X94688380Y-51699142D01*
X94640761Y-51603904D01*
X94593142Y-51413428D01*
X94593142Y-51175333D01*
X94640761Y-50984857D01*
X94688380Y-50889619D01*
X94736000Y-50842000D01*
X94831238Y-50794380D01*
X95736000Y-51222952D02*
X95640761Y-51175333D01*
X95593142Y-51127714D01*
X95545523Y-51032476D01*
X95545523Y-50984857D01*
X95593142Y-50889619D01*
X95640761Y-50842000D01*
X95736000Y-50794380D01*
X95926476Y-50794380D01*
X96021714Y-50842000D01*
X96069333Y-50889619D01*
X96116952Y-50984857D01*
X96116952Y-51032476D01*
X96069333Y-51127714D01*
X96021714Y-51175333D01*
X95926476Y-51222952D01*
X95736000Y-51222952D01*
X95640761Y-51270571D01*
X95593142Y-51318190D01*
X95545523Y-51413428D01*
X95545523Y-51603904D01*
X95593142Y-51699142D01*
X95640761Y-51746761D01*
X95736000Y-51794380D01*
X95926476Y-51794380D01*
X96021714Y-51746761D01*
X96069333Y-51699142D01*
X96116952Y-51603904D01*
X96116952Y-51413428D01*
X96069333Y-51318190D01*
X96021714Y-51270571D01*
X95926476Y-51222952D01*
X96402666Y-50794380D02*
X96974095Y-50794380D01*
X96688380Y-51794380D02*
X96688380Y-50794380D01*
X97259809Y-50889619D02*
X97307428Y-50842000D01*
X97402666Y-50794380D01*
X97640761Y-50794380D01*
X97736000Y-50842000D01*
X97783619Y-50889619D01*
X97831238Y-50984857D01*
X97831238Y-51080095D01*
X97783619Y-51222952D01*
X97212190Y-51794380D01*
X97831238Y-51794380D01*
X104247619Y-69802380D02*
X104247619Y-68802380D01*
X104485714Y-68802380D01*
X104628571Y-68850000D01*
X104723809Y-68945238D01*
X104771428Y-69040476D01*
X104819047Y-69230952D01*
X104819047Y-69373809D01*
X104771428Y-69564285D01*
X104723809Y-69659523D01*
X104628571Y-69754761D01*
X104485714Y-69802380D01*
X104247619Y-69802380D01*
X105247619Y-69802380D02*
X105247619Y-68802380D01*
X105914285Y-68802380D02*
X106104761Y-68802380D01*
X106200000Y-68850000D01*
X106295238Y-68945238D01*
X106342857Y-69135714D01*
X106342857Y-69469047D01*
X106295238Y-69659523D01*
X106200000Y-69754761D01*
X106104761Y-69802380D01*
X105914285Y-69802380D01*
X105819047Y-69754761D01*
X105723809Y-69659523D01*
X105676190Y-69469047D01*
X105676190Y-69135714D01*
X105723809Y-68945238D01*
X105819047Y-68850000D01*
X105914285Y-68802380D01*
X106771428Y-69802380D02*
X106771428Y-68802380D01*
X107009523Y-68802380D01*
X107152380Y-68850000D01*
X107247619Y-68945238D01*
X107295238Y-69040476D01*
X107342857Y-69230952D01*
X107342857Y-69373809D01*
X107295238Y-69564285D01*
X107247619Y-69659523D01*
X107152380Y-69754761D01*
X107009523Y-69802380D01*
X106771428Y-69802380D01*
X107771428Y-69278571D02*
X108104761Y-69278571D01*
X108247619Y-69802380D02*
X107771428Y-69802380D01*
X107771428Y-68802380D01*
X108247619Y-68802380D01*
X109200000Y-69802380D02*
X108628571Y-69802380D01*
X108914285Y-69802380D02*
X108914285Y-68802380D01*
X108819047Y-68945238D01*
X108723809Y-69040476D01*
X108628571Y-69088095D01*
X100824095Y-67584380D02*
X100824095Y-66584380D01*
X101395523Y-67584380D02*
X100966952Y-67012952D01*
X101395523Y-66584380D02*
X100824095Y-67155809D01*
X103247619Y-74802380D02*
X103247619Y-73802380D01*
X103485714Y-73802380D01*
X103628571Y-73850000D01*
X103723809Y-73945238D01*
X103771428Y-74040476D01*
X103819047Y-74230952D01*
X103819047Y-74373809D01*
X103771428Y-74564285D01*
X103723809Y-74659523D01*
X103628571Y-74754761D01*
X103485714Y-74802380D01*
X103247619Y-74802380D01*
X104247619Y-74802380D02*
X104247619Y-73802380D01*
X104914285Y-73802380D02*
X105104761Y-73802380D01*
X105200000Y-73850000D01*
X105295238Y-73945238D01*
X105342857Y-74135714D01*
X105342857Y-74469047D01*
X105295238Y-74659523D01*
X105200000Y-74754761D01*
X105104761Y-74802380D01*
X104914285Y-74802380D01*
X104819047Y-74754761D01*
X104723809Y-74659523D01*
X104676190Y-74469047D01*
X104676190Y-74135714D01*
X104723809Y-73945238D01*
X104819047Y-73850000D01*
X104914285Y-73802380D01*
X105771428Y-74802380D02*
X105771428Y-73802380D01*
X106009523Y-73802380D01*
X106152380Y-73850000D01*
X106247619Y-73945238D01*
X106295238Y-74040476D01*
X106342857Y-74230952D01*
X106342857Y-74373809D01*
X106295238Y-74564285D01*
X106247619Y-74659523D01*
X106152380Y-74754761D01*
X106009523Y-74802380D01*
X105771428Y-74802380D01*
X106771428Y-74278571D02*
X107104761Y-74278571D01*
X107247619Y-74802380D02*
X106771428Y-74802380D01*
X106771428Y-73802380D01*
X107247619Y-73802380D01*
X107628571Y-73897619D02*
X107676190Y-73850000D01*
X107771428Y-73802380D01*
X108009523Y-73802380D01*
X108104761Y-73850000D01*
X108152380Y-73897619D01*
X108200000Y-73992857D01*
X108200000Y-74088095D01*
X108152380Y-74230952D01*
X107580952Y-74802380D01*
X108200000Y-74802380D01*
X110984095Y-77064380D02*
X110984095Y-76064380D01*
X111555523Y-77064380D02*
X111126952Y-76492952D01*
X111555523Y-76064380D02*
X110984095Y-76635809D01*
X96888095Y-48218000D02*
X96792857Y-48170380D01*
X96650000Y-48170380D01*
X96507142Y-48218000D01*
X96411904Y-48313238D01*
X96364285Y-48408476D01*
X96316666Y-48598952D01*
X96316666Y-48741809D01*
X96364285Y-48932285D01*
X96411904Y-49027523D01*
X96507142Y-49122761D01*
X96650000Y-49170380D01*
X96745238Y-49170380D01*
X96888095Y-49122761D01*
X96935714Y-49075142D01*
X96935714Y-48741809D01*
X96745238Y-48741809D01*
X97364285Y-49170380D02*
X97364285Y-48170380D01*
X97935714Y-49170380D01*
X97935714Y-48170380D01*
X98411904Y-49170380D02*
X98411904Y-48170380D01*
X98650000Y-48170380D01*
X98792857Y-48218000D01*
X98888095Y-48313238D01*
X98935714Y-48408476D01*
X98983333Y-48598952D01*
X98983333Y-48741809D01*
X98935714Y-48932285D01*
X98888095Y-49027523D01*
X98792857Y-49122761D01*
X98650000Y-49170380D01*
X98411904Y-49170380D01*
X86597619Y-79852380D02*
X86597619Y-79185714D01*
X86597619Y-78852380D02*
X86550000Y-78900000D01*
X86597619Y-78947619D01*
X86645238Y-78900000D01*
X86597619Y-78852380D01*
X86597619Y-78947619D01*
X87073809Y-79185714D02*
X87073809Y-79852380D01*
X87073809Y-79280952D02*
X87121428Y-79233333D01*
X87216666Y-79185714D01*
X87359523Y-79185714D01*
X87454761Y-79233333D01*
X87502380Y-79328571D01*
X87502380Y-79852380D01*
X80440476Y-79752380D02*
X80345238Y-79704761D01*
X80297619Y-79657142D01*
X80250000Y-79561904D01*
X80250000Y-79276190D01*
X80297619Y-79180952D01*
X80345238Y-79133333D01*
X80440476Y-79085714D01*
X80583333Y-79085714D01*
X80678571Y-79133333D01*
X80726190Y-79180952D01*
X80773809Y-79276190D01*
X80773809Y-79561904D01*
X80726190Y-79657142D01*
X80678571Y-79704761D01*
X80583333Y-79752380D01*
X80440476Y-79752380D01*
X81630952Y-79085714D02*
X81630952Y-79752380D01*
X81202380Y-79085714D02*
X81202380Y-79609523D01*
X81250000Y-79704761D01*
X81345238Y-79752380D01*
X81488095Y-79752380D01*
X81583333Y-79704761D01*
X81630952Y-79657142D01*
X81964285Y-79085714D02*
X82345238Y-79085714D01*
X82107142Y-78752380D02*
X82107142Y-79609523D01*
X82154761Y-79704761D01*
X82250000Y-79752380D01*
X82345238Y-79752380D01*
X79948380Y-66196666D02*
X79472190Y-66530000D01*
X79948380Y-66768095D02*
X78948380Y-66768095D01*
X78948380Y-66387142D01*
X78996000Y-66291904D01*
X79043619Y-66244285D01*
X79138857Y-66196666D01*
X79281714Y-66196666D01*
X79376952Y-66244285D01*
X79424571Y-66291904D01*
X79472190Y-66387142D01*
X79472190Y-66768095D01*
X79948380Y-65244285D02*
X79948380Y-65815714D01*
X79948380Y-65530000D02*
X78948380Y-65530000D01*
X79091238Y-65625238D01*
X79186476Y-65720476D01*
X79234095Y-65815714D01*
X83758380Y-66323666D02*
X83282190Y-66657000D01*
X83758380Y-66895095D02*
X82758380Y-66895095D01*
X82758380Y-66514142D01*
X82806000Y-66418904D01*
X82853619Y-66371285D01*
X82948857Y-66323666D01*
X83091714Y-66323666D01*
X83186952Y-66371285D01*
X83234571Y-66418904D01*
X83282190Y-66514142D01*
X83282190Y-66895095D01*
X82853619Y-65942714D02*
X82806000Y-65895095D01*
X82758380Y-65799857D01*
X82758380Y-65561761D01*
X82806000Y-65466523D01*
X82853619Y-65418904D01*
X82948857Y-65371285D01*
X83044095Y-65371285D01*
X83186952Y-65418904D01*
X83758380Y-65990333D01*
X83758380Y-65371285D01*
X87568380Y-66196666D02*
X87092190Y-66530000D01*
X87568380Y-66768095D02*
X86568380Y-66768095D01*
X86568380Y-66387142D01*
X86616000Y-66291904D01*
X86663619Y-66244285D01*
X86758857Y-66196666D01*
X86901714Y-66196666D01*
X86996952Y-66244285D01*
X87044571Y-66291904D01*
X87092190Y-66387142D01*
X87092190Y-66768095D01*
X86568380Y-65863333D02*
X86568380Y-65244285D01*
X86949333Y-65577619D01*
X86949333Y-65434761D01*
X86996952Y-65339523D01*
X87044571Y-65291904D01*
X87139809Y-65244285D01*
X87377904Y-65244285D01*
X87473142Y-65291904D01*
X87520761Y-65339523D01*
X87568380Y-65434761D01*
X87568380Y-65720476D01*
X87520761Y-65815714D01*
X87473142Y-65863333D01*
X101735714Y-64235761D02*
X101830952Y-64283380D01*
X102021428Y-64283380D01*
X102116666Y-64235761D01*
X102164285Y-64140523D01*
X102164285Y-64092904D01*
X102116666Y-63997666D01*
X102021428Y-63950047D01*
X101878571Y-63950047D01*
X101783333Y-63902428D01*
X101735714Y-63807190D01*
X101735714Y-63759571D01*
X101783333Y-63664333D01*
X101878571Y-63616714D01*
X102021428Y-63616714D01*
X102116666Y-63664333D01*
X102497619Y-63616714D02*
X102688095Y-64283380D01*
X102878571Y-63807190D01*
X103069047Y-64283380D01*
X103259523Y-63616714D01*
X104164285Y-64283380D02*
X103592857Y-64283380D01*
X103878571Y-64283380D02*
X103878571Y-63283380D01*
X103783333Y-63426238D01*
X103688095Y-63521476D01*
X103592857Y-63569095D01*
X106235714Y-64254761D02*
X106330952Y-64302380D01*
X106521428Y-64302380D01*
X106616666Y-64254761D01*
X106664285Y-64159523D01*
X106664285Y-64111904D01*
X106616666Y-64016666D01*
X106521428Y-63969047D01*
X106378571Y-63969047D01*
X106283333Y-63921428D01*
X106235714Y-63826190D01*
X106235714Y-63778571D01*
X106283333Y-63683333D01*
X106378571Y-63635714D01*
X106521428Y-63635714D01*
X106616666Y-63683333D01*
X106997619Y-63635714D02*
X107188095Y-64302380D01*
X107378571Y-63826190D01*
X107569047Y-64302380D01*
X107759523Y-63635714D01*
X108092857Y-63397619D02*
X108140476Y-63350000D01*
X108235714Y-63302380D01*
X108473809Y-63302380D01*
X108569047Y-63350000D01*
X108616666Y-63397619D01*
X108664285Y-63492857D01*
X108664285Y-63588095D01*
X108616666Y-63730952D01*
X108045238Y-64302380D01*
X108664285Y-64302380D01*
X110685714Y-64235761D02*
X110780952Y-64283380D01*
X110971428Y-64283380D01*
X111066666Y-64235761D01*
X111114285Y-64140523D01*
X111114285Y-64092904D01*
X111066666Y-63997666D01*
X110971428Y-63950047D01*
X110828571Y-63950047D01*
X110733333Y-63902428D01*
X110685714Y-63807190D01*
X110685714Y-63759571D01*
X110733333Y-63664333D01*
X110828571Y-63616714D01*
X110971428Y-63616714D01*
X111066666Y-63664333D01*
X111447619Y-63616714D02*
X111638095Y-64283380D01*
X111828571Y-63807190D01*
X112019047Y-64283380D01*
X112209523Y-63616714D01*
X112495238Y-63283380D02*
X113114285Y-63283380D01*
X112780952Y-63664333D01*
X112923809Y-63664333D01*
X113019047Y-63711952D01*
X113066666Y-63759571D01*
X113114285Y-63854809D01*
X113114285Y-64092904D01*
X113066666Y-64188142D01*
X113019047Y-64235761D01*
X112923809Y-64283380D01*
X112638095Y-64283380D01*
X112542857Y-64235761D01*
X112495238Y-64188142D01*
M02*
