G04 #@! TF.GenerationSoftware,KiCad,Pcbnew,(5.1.2-1)-1*
G04 #@! TF.CreationDate,2019-11-28T17:53:20+09:00*
G04 #@! TF.ProjectId,FuzzfaceMod_4,46757a7a-6661-4636-954d-6f645f342e6b,rev?*
G04 #@! TF.SameCoordinates,Original*
G04 #@! TF.FileFunction,Soldermask,Top*
G04 #@! TF.FilePolarity,Negative*
%FSLAX46Y46*%
G04 Gerber Fmt 4.6, Leading zero omitted, Abs format (unit mm)*
G04 Created by KiCad (PCBNEW (5.1.2-1)-1) date 2019-11-28 17:53:20*
%MOMM*%
%LPD*%
G04 APERTURE LIST*
%ADD10C,0.100000*%
G04 APERTURE END LIST*
D10*
G36*
X125291585Y-113176802D02*
G01*
X125441410Y-113206604D01*
X125723674Y-113323521D01*
X125977705Y-113493259D01*
X126193741Y-113709295D01*
X126363479Y-113963326D01*
X126480396Y-114245590D01*
X126540000Y-114545240D01*
X126540000Y-114850760D01*
X126480396Y-115150410D01*
X126363479Y-115432674D01*
X126193741Y-115686705D01*
X125977705Y-115902741D01*
X125723674Y-116072479D01*
X125441410Y-116189396D01*
X125291585Y-116219198D01*
X125141761Y-116249000D01*
X124836239Y-116249000D01*
X124686415Y-116219198D01*
X124536590Y-116189396D01*
X124254326Y-116072479D01*
X124000295Y-115902741D01*
X123784259Y-115686705D01*
X123614521Y-115432674D01*
X123497604Y-115150410D01*
X123438000Y-114850760D01*
X123438000Y-114545240D01*
X123497604Y-114245590D01*
X123614521Y-113963326D01*
X123784259Y-113709295D01*
X124000295Y-113493259D01*
X124254326Y-113323521D01*
X124536590Y-113206604D01*
X124686415Y-113176802D01*
X124836239Y-113147000D01*
X125141761Y-113147000D01*
X125291585Y-113176802D01*
X125291585Y-113176802D01*
G37*
G36*
X119576585Y-113176802D02*
G01*
X119726410Y-113206604D01*
X120008674Y-113323521D01*
X120262705Y-113493259D01*
X120478741Y-113709295D01*
X120648479Y-113963326D01*
X120765396Y-114245590D01*
X120825000Y-114545240D01*
X120825000Y-114850760D01*
X120765396Y-115150410D01*
X120648479Y-115432674D01*
X120478741Y-115686705D01*
X120262705Y-115902741D01*
X120008674Y-116072479D01*
X119726410Y-116189396D01*
X119576585Y-116219198D01*
X119426761Y-116249000D01*
X119121239Y-116249000D01*
X118971415Y-116219198D01*
X118821590Y-116189396D01*
X118539326Y-116072479D01*
X118285295Y-115902741D01*
X118069259Y-115686705D01*
X117899521Y-115432674D01*
X117782604Y-115150410D01*
X117723000Y-114850760D01*
X117723000Y-114545240D01*
X117782604Y-114245590D01*
X117899521Y-113963326D01*
X118069259Y-113709295D01*
X118285295Y-113493259D01*
X118539326Y-113323521D01*
X118821590Y-113206604D01*
X118971415Y-113176802D01*
X119121239Y-113147000D01*
X119426761Y-113147000D01*
X119576585Y-113176802D01*
X119576585Y-113176802D01*
G37*
G36*
X87291585Y-113176802D02*
G01*
X87441410Y-113206604D01*
X87723674Y-113323521D01*
X87977705Y-113493259D01*
X88193741Y-113709295D01*
X88363479Y-113963326D01*
X88480396Y-114245590D01*
X88540000Y-114545240D01*
X88540000Y-114850760D01*
X88480396Y-115150410D01*
X88363479Y-115432674D01*
X88193741Y-115686705D01*
X87977705Y-115902741D01*
X87723674Y-116072479D01*
X87441410Y-116189396D01*
X87291585Y-116219198D01*
X87141761Y-116249000D01*
X86836239Y-116249000D01*
X86686415Y-116219198D01*
X86536590Y-116189396D01*
X86254326Y-116072479D01*
X86000295Y-115902741D01*
X85784259Y-115686705D01*
X85614521Y-115432674D01*
X85497604Y-115150410D01*
X85438000Y-114850760D01*
X85438000Y-114545240D01*
X85497604Y-114245590D01*
X85614521Y-113963326D01*
X85784259Y-113709295D01*
X86000295Y-113493259D01*
X86254326Y-113323521D01*
X86536590Y-113206604D01*
X86686415Y-113176802D01*
X86836239Y-113147000D01*
X87141761Y-113147000D01*
X87291585Y-113176802D01*
X87291585Y-113176802D01*
G37*
G36*
X81576585Y-113176802D02*
G01*
X81726410Y-113206604D01*
X82008674Y-113323521D01*
X82262705Y-113493259D01*
X82478741Y-113709295D01*
X82648479Y-113963326D01*
X82765396Y-114245590D01*
X82825000Y-114545240D01*
X82825000Y-114850760D01*
X82765396Y-115150410D01*
X82648479Y-115432674D01*
X82478741Y-115686705D01*
X82262705Y-115902741D01*
X82008674Y-116072479D01*
X81726410Y-116189396D01*
X81576585Y-116219198D01*
X81426761Y-116249000D01*
X81121239Y-116249000D01*
X80971415Y-116219198D01*
X80821590Y-116189396D01*
X80539326Y-116072479D01*
X80285295Y-115902741D01*
X80069259Y-115686705D01*
X79899521Y-115432674D01*
X79782604Y-115150410D01*
X79723000Y-114850760D01*
X79723000Y-114545240D01*
X79782604Y-114245590D01*
X79899521Y-113963326D01*
X80069259Y-113709295D01*
X80285295Y-113493259D01*
X80539326Y-113323521D01*
X80821590Y-113206604D01*
X80971415Y-113176802D01*
X81121239Y-113147000D01*
X81426761Y-113147000D01*
X81576585Y-113176802D01*
X81576585Y-113176802D01*
G37*
G36*
X133238228Y-113879703D02*
G01*
X133393100Y-113943853D01*
X133532481Y-114036985D01*
X133651015Y-114155519D01*
X133744147Y-114294900D01*
X133808297Y-114449772D01*
X133841000Y-114614184D01*
X133841000Y-114781816D01*
X133808297Y-114946228D01*
X133744147Y-115101100D01*
X133651015Y-115240481D01*
X133532481Y-115359015D01*
X133393100Y-115452147D01*
X133238228Y-115516297D01*
X133073816Y-115549000D01*
X132906184Y-115549000D01*
X132741772Y-115516297D01*
X132586900Y-115452147D01*
X132447519Y-115359015D01*
X132328985Y-115240481D01*
X132235853Y-115101100D01*
X132171703Y-114946228D01*
X132139000Y-114781816D01*
X132139000Y-114614184D01*
X132171703Y-114449772D01*
X132235853Y-114294900D01*
X132328985Y-114155519D01*
X132447519Y-114036985D01*
X132586900Y-113943853D01*
X132741772Y-113879703D01*
X132906184Y-113847000D01*
X133073816Y-113847000D01*
X133238228Y-113879703D01*
X133238228Y-113879703D01*
G37*
G36*
X130738228Y-113879703D02*
G01*
X130893100Y-113943853D01*
X131032481Y-114036985D01*
X131151015Y-114155519D01*
X131244147Y-114294900D01*
X131308297Y-114449772D01*
X131341000Y-114614184D01*
X131341000Y-114781816D01*
X131308297Y-114946228D01*
X131244147Y-115101100D01*
X131151015Y-115240481D01*
X131032481Y-115359015D01*
X130893100Y-115452147D01*
X130738228Y-115516297D01*
X130573816Y-115549000D01*
X130406184Y-115549000D01*
X130241772Y-115516297D01*
X130086900Y-115452147D01*
X129947519Y-115359015D01*
X129828985Y-115240481D01*
X129735853Y-115101100D01*
X129671703Y-114946228D01*
X129639000Y-114781816D01*
X129639000Y-114614184D01*
X129671703Y-114449772D01*
X129735853Y-114294900D01*
X129828985Y-114155519D01*
X129947519Y-114036985D01*
X130086900Y-113943853D01*
X130241772Y-113879703D01*
X130406184Y-113847000D01*
X130573816Y-113847000D01*
X130738228Y-113879703D01*
X130738228Y-113879703D01*
G37*
G36*
X95238228Y-113879703D02*
G01*
X95393100Y-113943853D01*
X95532481Y-114036985D01*
X95651015Y-114155519D01*
X95744147Y-114294900D01*
X95808297Y-114449772D01*
X95841000Y-114614184D01*
X95841000Y-114781816D01*
X95808297Y-114946228D01*
X95744147Y-115101100D01*
X95651015Y-115240481D01*
X95532481Y-115359015D01*
X95393100Y-115452147D01*
X95238228Y-115516297D01*
X95073816Y-115549000D01*
X94906184Y-115549000D01*
X94741772Y-115516297D01*
X94586900Y-115452147D01*
X94447519Y-115359015D01*
X94328985Y-115240481D01*
X94235853Y-115101100D01*
X94171703Y-114946228D01*
X94139000Y-114781816D01*
X94139000Y-114614184D01*
X94171703Y-114449772D01*
X94235853Y-114294900D01*
X94328985Y-114155519D01*
X94447519Y-114036985D01*
X94586900Y-113943853D01*
X94741772Y-113879703D01*
X94906184Y-113847000D01*
X95073816Y-113847000D01*
X95238228Y-113879703D01*
X95238228Y-113879703D01*
G37*
G36*
X92738228Y-113879703D02*
G01*
X92893100Y-113943853D01*
X93032481Y-114036985D01*
X93151015Y-114155519D01*
X93244147Y-114294900D01*
X93308297Y-114449772D01*
X93341000Y-114614184D01*
X93341000Y-114781816D01*
X93308297Y-114946228D01*
X93244147Y-115101100D01*
X93151015Y-115240481D01*
X93032481Y-115359015D01*
X92893100Y-115452147D01*
X92738228Y-115516297D01*
X92573816Y-115549000D01*
X92406184Y-115549000D01*
X92241772Y-115516297D01*
X92086900Y-115452147D01*
X91947519Y-115359015D01*
X91828985Y-115240481D01*
X91735853Y-115101100D01*
X91671703Y-114946228D01*
X91639000Y-114781816D01*
X91639000Y-114614184D01*
X91671703Y-114449772D01*
X91735853Y-114294900D01*
X91828985Y-114155519D01*
X91947519Y-114036985D01*
X92086900Y-113943853D01*
X92241772Y-113879703D01*
X92406184Y-113847000D01*
X92573816Y-113847000D01*
X92738228Y-113879703D01*
X92738228Y-113879703D01*
G37*
G36*
X150497000Y-113663000D02*
G01*
X147995000Y-113663000D01*
X147995000Y-111161000D01*
X150497000Y-111161000D01*
X150497000Y-113663000D01*
X150497000Y-113663000D01*
G37*
G36*
X139331239Y-111179101D02*
G01*
X139567053Y-111250634D01*
X139784381Y-111366799D01*
X139974871Y-111523129D01*
X140131201Y-111713619D01*
X140247366Y-111930947D01*
X140318899Y-112166761D01*
X140343053Y-112412000D01*
X140318899Y-112657239D01*
X140247366Y-112893053D01*
X140131201Y-113110381D01*
X139974871Y-113300871D01*
X139784381Y-113457201D01*
X139567053Y-113573366D01*
X139331239Y-113644899D01*
X139147457Y-113663000D01*
X139024543Y-113663000D01*
X138840761Y-113644899D01*
X138604947Y-113573366D01*
X138387619Y-113457201D01*
X138197129Y-113300871D01*
X138040799Y-113110381D01*
X137924634Y-112893053D01*
X137853101Y-112657239D01*
X137828947Y-112412000D01*
X137853101Y-112166761D01*
X137924634Y-111930947D01*
X138040799Y-111713619D01*
X138197129Y-111523129D01*
X138387619Y-111366799D01*
X138604947Y-111250634D01*
X138840761Y-111179101D01*
X139024543Y-111161000D01*
X139147457Y-111161000D01*
X139331239Y-111179101D01*
X139331239Y-111179101D01*
G37*
G36*
X112497000Y-113663000D02*
G01*
X109995000Y-113663000D01*
X109995000Y-111161000D01*
X112497000Y-111161000D01*
X112497000Y-113663000D01*
X112497000Y-113663000D01*
G37*
G36*
X101331239Y-111179101D02*
G01*
X101567053Y-111250634D01*
X101784381Y-111366799D01*
X101974871Y-111523129D01*
X102131201Y-111713619D01*
X102247366Y-111930947D01*
X102318899Y-112166761D01*
X102343053Y-112412000D01*
X102318899Y-112657239D01*
X102247366Y-112893053D01*
X102131201Y-113110381D01*
X101974871Y-113300871D01*
X101784381Y-113457201D01*
X101567053Y-113573366D01*
X101331239Y-113644899D01*
X101147457Y-113663000D01*
X101024543Y-113663000D01*
X100840761Y-113644899D01*
X100604947Y-113573366D01*
X100387619Y-113457201D01*
X100197129Y-113300871D01*
X100040799Y-113110381D01*
X99924634Y-112893053D01*
X99853101Y-112657239D01*
X99828947Y-112412000D01*
X99853101Y-112166761D01*
X99924634Y-111930947D01*
X100040799Y-111713619D01*
X100197129Y-111523129D01*
X100387619Y-111366799D01*
X100604947Y-111250634D01*
X100840761Y-111179101D01*
X101024543Y-111161000D01*
X101147457Y-111161000D01*
X101331239Y-111179101D01*
X101331239Y-111179101D01*
G37*
G36*
X130712000Y-110388000D02*
G01*
X128410000Y-110388000D01*
X128410000Y-108086000D01*
X130712000Y-108086000D01*
X130712000Y-110388000D01*
X130712000Y-110388000D01*
G37*
G36*
X92712000Y-110388000D02*
G01*
X90410000Y-110388000D01*
X90410000Y-108086000D01*
X92712000Y-108086000D01*
X92712000Y-110388000D01*
X92712000Y-110388000D01*
G37*
G36*
X96254228Y-108418703D02*
G01*
X96409100Y-108482853D01*
X96548481Y-108575985D01*
X96667015Y-108694519D01*
X96760147Y-108833900D01*
X96824297Y-108988772D01*
X96857000Y-109153184D01*
X96857000Y-109320816D01*
X96824297Y-109485228D01*
X96760147Y-109640100D01*
X96667015Y-109779481D01*
X96548481Y-109898015D01*
X96409100Y-109991147D01*
X96254228Y-110055297D01*
X96089816Y-110088000D01*
X95922184Y-110088000D01*
X95757772Y-110055297D01*
X95602900Y-109991147D01*
X95463519Y-109898015D01*
X95344985Y-109779481D01*
X95251853Y-109640100D01*
X95187703Y-109485228D01*
X95155000Y-109320816D01*
X95155000Y-109153184D01*
X95187703Y-108988772D01*
X95251853Y-108833900D01*
X95344985Y-108694519D01*
X95463519Y-108575985D01*
X95602900Y-108482853D01*
X95757772Y-108418703D01*
X95922184Y-108386000D01*
X96089816Y-108386000D01*
X96254228Y-108418703D01*
X96254228Y-108418703D01*
G37*
G36*
X117744228Y-108418703D02*
G01*
X117899100Y-108482853D01*
X118038481Y-108575985D01*
X118157015Y-108694519D01*
X118250147Y-108833900D01*
X118314297Y-108988772D01*
X118347000Y-109153184D01*
X118347000Y-109320816D01*
X118314297Y-109485228D01*
X118250147Y-109640100D01*
X118157015Y-109779481D01*
X118038481Y-109898015D01*
X117899100Y-109991147D01*
X117744228Y-110055297D01*
X117579816Y-110088000D01*
X117412184Y-110088000D01*
X117247772Y-110055297D01*
X117092900Y-109991147D01*
X116953519Y-109898015D01*
X116834985Y-109779481D01*
X116741853Y-109640100D01*
X116677703Y-109485228D01*
X116645000Y-109320816D01*
X116645000Y-109153184D01*
X116677703Y-108988772D01*
X116741853Y-108833900D01*
X116834985Y-108694519D01*
X116953519Y-108575985D01*
X117092900Y-108482853D01*
X117247772Y-108418703D01*
X117412184Y-108386000D01*
X117579816Y-108386000D01*
X117744228Y-108418703D01*
X117744228Y-108418703D01*
G37*
G36*
X79744228Y-108418703D02*
G01*
X79899100Y-108482853D01*
X80038481Y-108575985D01*
X80157015Y-108694519D01*
X80250147Y-108833900D01*
X80314297Y-108988772D01*
X80347000Y-109153184D01*
X80347000Y-109320816D01*
X80314297Y-109485228D01*
X80250147Y-109640100D01*
X80157015Y-109779481D01*
X80038481Y-109898015D01*
X79899100Y-109991147D01*
X79744228Y-110055297D01*
X79579816Y-110088000D01*
X79412184Y-110088000D01*
X79247772Y-110055297D01*
X79092900Y-109991147D01*
X78953519Y-109898015D01*
X78834985Y-109779481D01*
X78741853Y-109640100D01*
X78677703Y-109485228D01*
X78645000Y-109320816D01*
X78645000Y-109153184D01*
X78677703Y-108988772D01*
X78741853Y-108833900D01*
X78834985Y-108694519D01*
X78953519Y-108575985D01*
X79092900Y-108482853D01*
X79247772Y-108418703D01*
X79412184Y-108386000D01*
X79579816Y-108386000D01*
X79744228Y-108418703D01*
X79744228Y-108418703D01*
G37*
G36*
X125364228Y-108418703D02*
G01*
X125519100Y-108482853D01*
X125658481Y-108575985D01*
X125777015Y-108694519D01*
X125870147Y-108833900D01*
X125934297Y-108988772D01*
X125967000Y-109153184D01*
X125967000Y-109320816D01*
X125934297Y-109485228D01*
X125870147Y-109640100D01*
X125777015Y-109779481D01*
X125658481Y-109898015D01*
X125519100Y-109991147D01*
X125364228Y-110055297D01*
X125199816Y-110088000D01*
X125032184Y-110088000D01*
X124867772Y-110055297D01*
X124712900Y-109991147D01*
X124573519Y-109898015D01*
X124454985Y-109779481D01*
X124361853Y-109640100D01*
X124297703Y-109485228D01*
X124265000Y-109320816D01*
X124265000Y-109153184D01*
X124297703Y-108988772D01*
X124361853Y-108833900D01*
X124454985Y-108694519D01*
X124573519Y-108575985D01*
X124712900Y-108482853D01*
X124867772Y-108418703D01*
X125032184Y-108386000D01*
X125199816Y-108386000D01*
X125364228Y-108418703D01*
X125364228Y-108418703D01*
G37*
G36*
X87364228Y-108418703D02*
G01*
X87519100Y-108482853D01*
X87658481Y-108575985D01*
X87777015Y-108694519D01*
X87870147Y-108833900D01*
X87934297Y-108988772D01*
X87967000Y-109153184D01*
X87967000Y-109320816D01*
X87934297Y-109485228D01*
X87870147Y-109640100D01*
X87777015Y-109779481D01*
X87658481Y-109898015D01*
X87519100Y-109991147D01*
X87364228Y-110055297D01*
X87199816Y-110088000D01*
X87032184Y-110088000D01*
X86867772Y-110055297D01*
X86712900Y-109991147D01*
X86573519Y-109898015D01*
X86454985Y-109779481D01*
X86361853Y-109640100D01*
X86297703Y-109485228D01*
X86265000Y-109320816D01*
X86265000Y-109153184D01*
X86297703Y-108988772D01*
X86361853Y-108833900D01*
X86454985Y-108694519D01*
X86573519Y-108575985D01*
X86712900Y-108482853D01*
X86867772Y-108418703D01*
X87032184Y-108386000D01*
X87199816Y-108386000D01*
X87364228Y-108418703D01*
X87364228Y-108418703D01*
G37*
G36*
X134254228Y-108418703D02*
G01*
X134409100Y-108482853D01*
X134548481Y-108575985D01*
X134667015Y-108694519D01*
X134760147Y-108833900D01*
X134824297Y-108988772D01*
X134857000Y-109153184D01*
X134857000Y-109320816D01*
X134824297Y-109485228D01*
X134760147Y-109640100D01*
X134667015Y-109779481D01*
X134548481Y-109898015D01*
X134409100Y-109991147D01*
X134254228Y-110055297D01*
X134089816Y-110088000D01*
X133922184Y-110088000D01*
X133757772Y-110055297D01*
X133602900Y-109991147D01*
X133463519Y-109898015D01*
X133344985Y-109779481D01*
X133251853Y-109640100D01*
X133187703Y-109485228D01*
X133155000Y-109320816D01*
X133155000Y-109153184D01*
X133187703Y-108988772D01*
X133251853Y-108833900D01*
X133344985Y-108694519D01*
X133463519Y-108575985D01*
X133602900Y-108482853D01*
X133757772Y-108418703D01*
X133922184Y-108386000D01*
X134089816Y-108386000D01*
X134254228Y-108418703D01*
X134254228Y-108418703D01*
G37*
G36*
X83472823Y-108398313D02*
G01*
X83633242Y-108446976D01*
X83720031Y-108493366D01*
X83781078Y-108525996D01*
X83910659Y-108632341D01*
X84017004Y-108761922D01*
X84017005Y-108761924D01*
X84096024Y-108909758D01*
X84144687Y-109070177D01*
X84161117Y-109237000D01*
X84144687Y-109403823D01*
X84096024Y-109564242D01*
X84055477Y-109640100D01*
X84017004Y-109712078D01*
X83910659Y-109841659D01*
X83781078Y-109948004D01*
X83781076Y-109948005D01*
X83633242Y-110027024D01*
X83472823Y-110075687D01*
X83347804Y-110088000D01*
X83264196Y-110088000D01*
X83139177Y-110075687D01*
X82978758Y-110027024D01*
X82830924Y-109948005D01*
X82830922Y-109948004D01*
X82701341Y-109841659D01*
X82594996Y-109712078D01*
X82556523Y-109640100D01*
X82515976Y-109564242D01*
X82467313Y-109403823D01*
X82450883Y-109237000D01*
X82467313Y-109070177D01*
X82515976Y-108909758D01*
X82594995Y-108761924D01*
X82594996Y-108761922D01*
X82701341Y-108632341D01*
X82830922Y-108525996D01*
X82891969Y-108493366D01*
X82978758Y-108446976D01*
X83139177Y-108398313D01*
X83264196Y-108386000D01*
X83347804Y-108386000D01*
X83472823Y-108398313D01*
X83472823Y-108398313D01*
G37*
G36*
X121472823Y-108398313D02*
G01*
X121633242Y-108446976D01*
X121720031Y-108493366D01*
X121781078Y-108525996D01*
X121910659Y-108632341D01*
X122017004Y-108761922D01*
X122017005Y-108761924D01*
X122096024Y-108909758D01*
X122144687Y-109070177D01*
X122161117Y-109237000D01*
X122144687Y-109403823D01*
X122096024Y-109564242D01*
X122055477Y-109640100D01*
X122017004Y-109712078D01*
X121910659Y-109841659D01*
X121781078Y-109948004D01*
X121781076Y-109948005D01*
X121633242Y-110027024D01*
X121472823Y-110075687D01*
X121347804Y-110088000D01*
X121264196Y-110088000D01*
X121139177Y-110075687D01*
X120978758Y-110027024D01*
X120830924Y-109948005D01*
X120830922Y-109948004D01*
X120701341Y-109841659D01*
X120594996Y-109712078D01*
X120556523Y-109640100D01*
X120515976Y-109564242D01*
X120467313Y-109403823D01*
X120450883Y-109237000D01*
X120467313Y-109070177D01*
X120515976Y-108909758D01*
X120594995Y-108761924D01*
X120594996Y-108761922D01*
X120701341Y-108632341D01*
X120830922Y-108525996D01*
X120891969Y-108493366D01*
X120978758Y-108446976D01*
X121139177Y-108398313D01*
X121264196Y-108386000D01*
X121347804Y-108386000D01*
X121472823Y-108398313D01*
X121472823Y-108398313D01*
G37*
G36*
X102337000Y-108583000D02*
G01*
X99835000Y-108583000D01*
X99835000Y-106081000D01*
X102337000Y-106081000D01*
X102337000Y-108583000D01*
X102337000Y-108583000D01*
G37*
G36*
X149491239Y-106099101D02*
G01*
X149727053Y-106170634D01*
X149944381Y-106286799D01*
X150134871Y-106443129D01*
X150291201Y-106633619D01*
X150407366Y-106850947D01*
X150478899Y-107086761D01*
X150503053Y-107332000D01*
X150478899Y-107577239D01*
X150407366Y-107813053D01*
X150291201Y-108030381D01*
X150134871Y-108220871D01*
X149944381Y-108377201D01*
X149727053Y-108493366D01*
X149491239Y-108564899D01*
X149307457Y-108583000D01*
X149184543Y-108583000D01*
X149000761Y-108564899D01*
X148764947Y-108493366D01*
X148547619Y-108377201D01*
X148357129Y-108220871D01*
X148200799Y-108030381D01*
X148084634Y-107813053D01*
X148013101Y-107577239D01*
X147988947Y-107332000D01*
X148013101Y-107086761D01*
X148084634Y-106850947D01*
X148200799Y-106633619D01*
X148357129Y-106443129D01*
X148547619Y-106286799D01*
X148764947Y-106170634D01*
X149000761Y-106099101D01*
X149184543Y-106081000D01*
X149307457Y-106081000D01*
X149491239Y-106099101D01*
X149491239Y-106099101D01*
G37*
G36*
X111491239Y-106099101D02*
G01*
X111727053Y-106170634D01*
X111944381Y-106286799D01*
X112134871Y-106443129D01*
X112291201Y-106633619D01*
X112407366Y-106850947D01*
X112478899Y-107086761D01*
X112503053Y-107332000D01*
X112478899Y-107577239D01*
X112407366Y-107813053D01*
X112291201Y-108030381D01*
X112134871Y-108220871D01*
X111944381Y-108377201D01*
X111727053Y-108493366D01*
X111491239Y-108564899D01*
X111307457Y-108583000D01*
X111184543Y-108583000D01*
X111000761Y-108564899D01*
X110764947Y-108493366D01*
X110547619Y-108377201D01*
X110357129Y-108220871D01*
X110200799Y-108030381D01*
X110084634Y-107813053D01*
X110013101Y-107577239D01*
X109988947Y-107332000D01*
X110013101Y-107086761D01*
X110084634Y-106850947D01*
X110200799Y-106633619D01*
X110357129Y-106443129D01*
X110547619Y-106286799D01*
X110764947Y-106170634D01*
X111000761Y-106099101D01*
X111184543Y-106081000D01*
X111307457Y-106081000D01*
X111491239Y-106099101D01*
X111491239Y-106099101D01*
G37*
G36*
X140337000Y-108583000D02*
G01*
X137835000Y-108583000D01*
X137835000Y-106081000D01*
X140337000Y-106081000D01*
X140337000Y-108583000D01*
X140337000Y-108583000D01*
G37*
G36*
X112183585Y-97809802D02*
G01*
X112333410Y-97839604D01*
X112615674Y-97956521D01*
X112869705Y-98126259D01*
X113085741Y-98342295D01*
X113255479Y-98596326D01*
X113372396Y-98878590D01*
X113432000Y-99178240D01*
X113432000Y-99483760D01*
X113372396Y-99783410D01*
X113255479Y-100065674D01*
X113085741Y-100319705D01*
X112869705Y-100535741D01*
X112615674Y-100705479D01*
X112333410Y-100822396D01*
X112183585Y-100852198D01*
X112033761Y-100882000D01*
X111728239Y-100882000D01*
X111578415Y-100852198D01*
X111428590Y-100822396D01*
X111146326Y-100705479D01*
X110892295Y-100535741D01*
X110676259Y-100319705D01*
X110506521Y-100065674D01*
X110389604Y-99783410D01*
X110330000Y-99483760D01*
X110330000Y-99178240D01*
X110389604Y-98878590D01*
X110506521Y-98596326D01*
X110676259Y-98342295D01*
X110892295Y-98126259D01*
X111146326Y-97956521D01*
X111428590Y-97839604D01*
X111578415Y-97809802D01*
X111728239Y-97780000D01*
X112033761Y-97780000D01*
X112183585Y-97809802D01*
X112183585Y-97809802D01*
G37*
G36*
X150183585Y-97809802D02*
G01*
X150333410Y-97839604D01*
X150615674Y-97956521D01*
X150869705Y-98126259D01*
X151085741Y-98342295D01*
X151255479Y-98596326D01*
X151372396Y-98878590D01*
X151432000Y-99178240D01*
X151432000Y-99483760D01*
X151372396Y-99783410D01*
X151255479Y-100065674D01*
X151085741Y-100319705D01*
X150869705Y-100535741D01*
X150615674Y-100705479D01*
X150333410Y-100822396D01*
X150183585Y-100852198D01*
X150033761Y-100882000D01*
X149728239Y-100882000D01*
X149578415Y-100852198D01*
X149428590Y-100822396D01*
X149146326Y-100705479D01*
X148892295Y-100535741D01*
X148676259Y-100319705D01*
X148506521Y-100065674D01*
X148389604Y-99783410D01*
X148330000Y-99483760D01*
X148330000Y-99178240D01*
X148389604Y-98878590D01*
X148506521Y-98596326D01*
X148676259Y-98342295D01*
X148892295Y-98126259D01*
X149146326Y-97956521D01*
X149428590Y-97839604D01*
X149578415Y-97809802D01*
X149728239Y-97780000D01*
X150033761Y-97780000D01*
X150183585Y-97809802D01*
X150183585Y-97809802D01*
G37*
G36*
X107738585Y-97809802D02*
G01*
X107888410Y-97839604D01*
X108170674Y-97956521D01*
X108424705Y-98126259D01*
X108640741Y-98342295D01*
X108810479Y-98596326D01*
X108927396Y-98878590D01*
X108987000Y-99178240D01*
X108987000Y-99483760D01*
X108927396Y-99783410D01*
X108810479Y-100065674D01*
X108640741Y-100319705D01*
X108424705Y-100535741D01*
X108170674Y-100705479D01*
X107888410Y-100822396D01*
X107738585Y-100852198D01*
X107588761Y-100882000D01*
X107283239Y-100882000D01*
X107133415Y-100852198D01*
X106983590Y-100822396D01*
X106701326Y-100705479D01*
X106447295Y-100535741D01*
X106231259Y-100319705D01*
X106061521Y-100065674D01*
X105944604Y-99783410D01*
X105885000Y-99483760D01*
X105885000Y-99178240D01*
X105944604Y-98878590D01*
X106061521Y-98596326D01*
X106231259Y-98342295D01*
X106447295Y-98126259D01*
X106701326Y-97956521D01*
X106983590Y-97839604D01*
X107133415Y-97809802D01*
X107283239Y-97780000D01*
X107588761Y-97780000D01*
X107738585Y-97809802D01*
X107738585Y-97809802D01*
G37*
G36*
X145738585Y-97809802D02*
G01*
X145888410Y-97839604D01*
X146170674Y-97956521D01*
X146424705Y-98126259D01*
X146640741Y-98342295D01*
X146810479Y-98596326D01*
X146927396Y-98878590D01*
X146987000Y-99178240D01*
X146987000Y-99483760D01*
X146927396Y-99783410D01*
X146810479Y-100065674D01*
X146640741Y-100319705D01*
X146424705Y-100535741D01*
X146170674Y-100705479D01*
X145888410Y-100822396D01*
X145738585Y-100852198D01*
X145588761Y-100882000D01*
X145283239Y-100882000D01*
X145133415Y-100852198D01*
X144983590Y-100822396D01*
X144701326Y-100705479D01*
X144447295Y-100535741D01*
X144231259Y-100319705D01*
X144061521Y-100065674D01*
X143944604Y-99783410D01*
X143885000Y-99483760D01*
X143885000Y-99178240D01*
X143944604Y-98878590D01*
X144061521Y-98596326D01*
X144231259Y-98342295D01*
X144447295Y-98126259D01*
X144701326Y-97956521D01*
X144983590Y-97839604D01*
X145133415Y-97809802D01*
X145283239Y-97780000D01*
X145588761Y-97780000D01*
X145738585Y-97809802D01*
X145738585Y-97809802D01*
G37*
G36*
X103293585Y-97809802D02*
G01*
X103443410Y-97839604D01*
X103725674Y-97956521D01*
X103979705Y-98126259D01*
X104195741Y-98342295D01*
X104365479Y-98596326D01*
X104482396Y-98878590D01*
X104542000Y-99178240D01*
X104542000Y-99483760D01*
X104482396Y-99783410D01*
X104365479Y-100065674D01*
X104195741Y-100319705D01*
X103979705Y-100535741D01*
X103725674Y-100705479D01*
X103443410Y-100822396D01*
X103293585Y-100852198D01*
X103143761Y-100882000D01*
X102838239Y-100882000D01*
X102688415Y-100852198D01*
X102538590Y-100822396D01*
X102256326Y-100705479D01*
X102002295Y-100535741D01*
X101786259Y-100319705D01*
X101616521Y-100065674D01*
X101499604Y-99783410D01*
X101440000Y-99483760D01*
X101440000Y-99178240D01*
X101499604Y-98878590D01*
X101616521Y-98596326D01*
X101786259Y-98342295D01*
X102002295Y-98126259D01*
X102256326Y-97956521D01*
X102538590Y-97839604D01*
X102688415Y-97809802D01*
X102838239Y-97780000D01*
X103143761Y-97780000D01*
X103293585Y-97809802D01*
X103293585Y-97809802D01*
G37*
G36*
X141293585Y-97809802D02*
G01*
X141443410Y-97839604D01*
X141725674Y-97956521D01*
X141979705Y-98126259D01*
X142195741Y-98342295D01*
X142365479Y-98596326D01*
X142482396Y-98878590D01*
X142542000Y-99178240D01*
X142542000Y-99483760D01*
X142482396Y-99783410D01*
X142365479Y-100065674D01*
X142195741Y-100319705D01*
X141979705Y-100535741D01*
X141725674Y-100705479D01*
X141443410Y-100822396D01*
X141293585Y-100852198D01*
X141143761Y-100882000D01*
X140838239Y-100882000D01*
X140688415Y-100852198D01*
X140538590Y-100822396D01*
X140256326Y-100705479D01*
X140002295Y-100535741D01*
X139786259Y-100319705D01*
X139616521Y-100065674D01*
X139499604Y-99783410D01*
X139440000Y-99483760D01*
X139440000Y-99178240D01*
X139499604Y-98878590D01*
X139616521Y-98596326D01*
X139786259Y-98342295D01*
X140002295Y-98126259D01*
X140256326Y-97956521D01*
X140538590Y-97839604D01*
X140688415Y-97809802D01*
X140838239Y-97780000D01*
X141143761Y-97780000D01*
X141293585Y-97809802D01*
X141293585Y-97809802D01*
G37*
G36*
X129730271Y-97937103D02*
G01*
X129786635Y-97942654D01*
X130003600Y-98008470D01*
X130003602Y-98008471D01*
X130203555Y-98115347D01*
X130378818Y-98259182D01*
X130522653Y-98434445D01*
X130609179Y-98596326D01*
X130629530Y-98634400D01*
X130695346Y-98851365D01*
X130717569Y-99077000D01*
X130695346Y-99302635D01*
X130640402Y-99483761D01*
X130629529Y-99519602D01*
X130522653Y-99719555D01*
X130378818Y-99894818D01*
X130203555Y-100038653D01*
X130003602Y-100145529D01*
X130003600Y-100145530D01*
X129786635Y-100211346D01*
X129730271Y-100216897D01*
X129617545Y-100228000D01*
X129504455Y-100228000D01*
X129391729Y-100216897D01*
X129335365Y-100211346D01*
X129118400Y-100145530D01*
X129118398Y-100145529D01*
X128918445Y-100038653D01*
X128743182Y-99894818D01*
X128599347Y-99719555D01*
X128492471Y-99519602D01*
X128481599Y-99483761D01*
X128426654Y-99302635D01*
X128404431Y-99077000D01*
X128426654Y-98851365D01*
X128492470Y-98634400D01*
X128512821Y-98596326D01*
X128599347Y-98434445D01*
X128743182Y-98259182D01*
X128918445Y-98115347D01*
X129118398Y-98008471D01*
X129118400Y-98008470D01*
X129335365Y-97942654D01*
X129391729Y-97937103D01*
X129504455Y-97926000D01*
X129617545Y-97926000D01*
X129730271Y-97937103D01*
X129730271Y-97937103D01*
G37*
G36*
X91730271Y-97937103D02*
G01*
X91786635Y-97942654D01*
X92003600Y-98008470D01*
X92003602Y-98008471D01*
X92203555Y-98115347D01*
X92378818Y-98259182D01*
X92522653Y-98434445D01*
X92609179Y-98596326D01*
X92629530Y-98634400D01*
X92695346Y-98851365D01*
X92717569Y-99077000D01*
X92695346Y-99302635D01*
X92640402Y-99483761D01*
X92629529Y-99519602D01*
X92522653Y-99719555D01*
X92378818Y-99894818D01*
X92203555Y-100038653D01*
X92003602Y-100145529D01*
X92003600Y-100145530D01*
X91786635Y-100211346D01*
X91730271Y-100216897D01*
X91617545Y-100228000D01*
X91504455Y-100228000D01*
X91391729Y-100216897D01*
X91335365Y-100211346D01*
X91118400Y-100145530D01*
X91118398Y-100145529D01*
X90918445Y-100038653D01*
X90743182Y-99894818D01*
X90599347Y-99719555D01*
X90492471Y-99519602D01*
X90481599Y-99483761D01*
X90426654Y-99302635D01*
X90404431Y-99077000D01*
X90426654Y-98851365D01*
X90492470Y-98634400D01*
X90512821Y-98596326D01*
X90599347Y-98434445D01*
X90743182Y-98259182D01*
X90918445Y-98115347D01*
X91118398Y-98008471D01*
X91118400Y-98008470D01*
X91335365Y-97942654D01*
X91391729Y-97937103D01*
X91504455Y-97926000D01*
X91617545Y-97926000D01*
X91730271Y-97937103D01*
X91730271Y-97937103D01*
G37*
G36*
X117662823Y-98238313D02*
G01*
X117823242Y-98286976D01*
X117890361Y-98322852D01*
X117971078Y-98365996D01*
X118100659Y-98472341D01*
X118207004Y-98601922D01*
X118207005Y-98601924D01*
X118286024Y-98749758D01*
X118334687Y-98910177D01*
X118351117Y-99077000D01*
X118334687Y-99243823D01*
X118286024Y-99404242D01*
X118243520Y-99483761D01*
X118207004Y-99552078D01*
X118100659Y-99681659D01*
X117971078Y-99788004D01*
X117971076Y-99788005D01*
X117823242Y-99867024D01*
X117662823Y-99915687D01*
X117537804Y-99928000D01*
X117454196Y-99928000D01*
X117329177Y-99915687D01*
X117168758Y-99867024D01*
X117020924Y-99788005D01*
X117020922Y-99788004D01*
X116891341Y-99681659D01*
X116784996Y-99552078D01*
X116748480Y-99483761D01*
X116705976Y-99404242D01*
X116657313Y-99243823D01*
X116640883Y-99077000D01*
X116657313Y-98910177D01*
X116705976Y-98749758D01*
X116784995Y-98601924D01*
X116784996Y-98601922D01*
X116891341Y-98472341D01*
X117020922Y-98365996D01*
X117101639Y-98322852D01*
X117168758Y-98286976D01*
X117329177Y-98238313D01*
X117454196Y-98226000D01*
X117537804Y-98226000D01*
X117662823Y-98238313D01*
X117662823Y-98238313D01*
G37*
G36*
X79662823Y-98238313D02*
G01*
X79823242Y-98286976D01*
X79890361Y-98322852D01*
X79971078Y-98365996D01*
X80100659Y-98472341D01*
X80207004Y-98601922D01*
X80207005Y-98601924D01*
X80286024Y-98749758D01*
X80334687Y-98910177D01*
X80351117Y-99077000D01*
X80334687Y-99243823D01*
X80286024Y-99404242D01*
X80243520Y-99483761D01*
X80207004Y-99552078D01*
X80100659Y-99681659D01*
X79971078Y-99788004D01*
X79971076Y-99788005D01*
X79823242Y-99867024D01*
X79662823Y-99915687D01*
X79537804Y-99928000D01*
X79454196Y-99928000D01*
X79329177Y-99915687D01*
X79168758Y-99867024D01*
X79020924Y-99788005D01*
X79020922Y-99788004D01*
X78891341Y-99681659D01*
X78784996Y-99552078D01*
X78748480Y-99483761D01*
X78705976Y-99404242D01*
X78657313Y-99243823D01*
X78640883Y-99077000D01*
X78657313Y-98910177D01*
X78705976Y-98749758D01*
X78784995Y-98601924D01*
X78784996Y-98601922D01*
X78891341Y-98472341D01*
X79020922Y-98365996D01*
X79101639Y-98322852D01*
X79168758Y-98286976D01*
X79329177Y-98238313D01*
X79454196Y-98226000D01*
X79537804Y-98226000D01*
X79662823Y-98238313D01*
X79662823Y-98238313D01*
G37*
G36*
X96172823Y-98238313D02*
G01*
X96333242Y-98286976D01*
X96400361Y-98322852D01*
X96481078Y-98365996D01*
X96610659Y-98472341D01*
X96717004Y-98601922D01*
X96717005Y-98601924D01*
X96796024Y-98749758D01*
X96844687Y-98910177D01*
X96861117Y-99077000D01*
X96844687Y-99243823D01*
X96796024Y-99404242D01*
X96753520Y-99483761D01*
X96717004Y-99552078D01*
X96610659Y-99681659D01*
X96481078Y-99788004D01*
X96481076Y-99788005D01*
X96333242Y-99867024D01*
X96172823Y-99915687D01*
X96047804Y-99928000D01*
X95964196Y-99928000D01*
X95839177Y-99915687D01*
X95678758Y-99867024D01*
X95530924Y-99788005D01*
X95530922Y-99788004D01*
X95401341Y-99681659D01*
X95294996Y-99552078D01*
X95258480Y-99483761D01*
X95215976Y-99404242D01*
X95167313Y-99243823D01*
X95150883Y-99077000D01*
X95167313Y-98910177D01*
X95215976Y-98749758D01*
X95294995Y-98601924D01*
X95294996Y-98601922D01*
X95401341Y-98472341D01*
X95530922Y-98365996D01*
X95611639Y-98322852D01*
X95678758Y-98286976D01*
X95839177Y-98238313D01*
X95964196Y-98226000D01*
X96047804Y-98226000D01*
X96172823Y-98238313D01*
X96172823Y-98238313D01*
G37*
G36*
X134172823Y-98238313D02*
G01*
X134333242Y-98286976D01*
X134400361Y-98322852D01*
X134481078Y-98365996D01*
X134610659Y-98472341D01*
X134717004Y-98601922D01*
X134717005Y-98601924D01*
X134796024Y-98749758D01*
X134844687Y-98910177D01*
X134861117Y-99077000D01*
X134844687Y-99243823D01*
X134796024Y-99404242D01*
X134753520Y-99483761D01*
X134717004Y-99552078D01*
X134610659Y-99681659D01*
X134481078Y-99788004D01*
X134481076Y-99788005D01*
X134333242Y-99867024D01*
X134172823Y-99915687D01*
X134047804Y-99928000D01*
X133964196Y-99928000D01*
X133839177Y-99915687D01*
X133678758Y-99867024D01*
X133530924Y-99788005D01*
X133530922Y-99788004D01*
X133401341Y-99681659D01*
X133294996Y-99552078D01*
X133258480Y-99483761D01*
X133215976Y-99404242D01*
X133167313Y-99243823D01*
X133150883Y-99077000D01*
X133167313Y-98910177D01*
X133215976Y-98749758D01*
X133294995Y-98601924D01*
X133294996Y-98601922D01*
X133401341Y-98472341D01*
X133530922Y-98365996D01*
X133611639Y-98322852D01*
X133678758Y-98286976D01*
X133839177Y-98238313D01*
X133964196Y-98226000D01*
X134047804Y-98226000D01*
X134172823Y-98238313D01*
X134172823Y-98238313D01*
G37*
G36*
X83554228Y-98258703D02*
G01*
X83709100Y-98322853D01*
X83848481Y-98415985D01*
X83967015Y-98534519D01*
X84060147Y-98673900D01*
X84124297Y-98828772D01*
X84157000Y-98993184D01*
X84157000Y-99160816D01*
X84124297Y-99325228D01*
X84060147Y-99480100D01*
X83967015Y-99619481D01*
X83848481Y-99738015D01*
X83709100Y-99831147D01*
X83554228Y-99895297D01*
X83389816Y-99928000D01*
X83222184Y-99928000D01*
X83057772Y-99895297D01*
X82902900Y-99831147D01*
X82763519Y-99738015D01*
X82644985Y-99619481D01*
X82551853Y-99480100D01*
X82487703Y-99325228D01*
X82455000Y-99160816D01*
X82455000Y-98993184D01*
X82487703Y-98828772D01*
X82551853Y-98673900D01*
X82644985Y-98534519D01*
X82763519Y-98415985D01*
X82902900Y-98322853D01*
X83057772Y-98258703D01*
X83222184Y-98226000D01*
X83389816Y-98226000D01*
X83554228Y-98258703D01*
X83554228Y-98258703D01*
G37*
G36*
X121554228Y-98258703D02*
G01*
X121709100Y-98322853D01*
X121848481Y-98415985D01*
X121967015Y-98534519D01*
X122060147Y-98673900D01*
X122124297Y-98828772D01*
X122157000Y-98993184D01*
X122157000Y-99160816D01*
X122124297Y-99325228D01*
X122060147Y-99480100D01*
X121967015Y-99619481D01*
X121848481Y-99738015D01*
X121709100Y-99831147D01*
X121554228Y-99895297D01*
X121389816Y-99928000D01*
X121222184Y-99928000D01*
X121057772Y-99895297D01*
X120902900Y-99831147D01*
X120763519Y-99738015D01*
X120644985Y-99619481D01*
X120551853Y-99480100D01*
X120487703Y-99325228D01*
X120455000Y-99160816D01*
X120455000Y-98993184D01*
X120487703Y-98828772D01*
X120551853Y-98673900D01*
X120644985Y-98534519D01*
X120763519Y-98415985D01*
X120902900Y-98322853D01*
X121057772Y-98258703D01*
X121222184Y-98226000D01*
X121389816Y-98226000D01*
X121554228Y-98258703D01*
X121554228Y-98258703D01*
G37*
G36*
X125282823Y-98238313D02*
G01*
X125443242Y-98286976D01*
X125510361Y-98322852D01*
X125591078Y-98365996D01*
X125720659Y-98472341D01*
X125827004Y-98601922D01*
X125827005Y-98601924D01*
X125906024Y-98749758D01*
X125954687Y-98910177D01*
X125971117Y-99077000D01*
X125954687Y-99243823D01*
X125906024Y-99404242D01*
X125863520Y-99483761D01*
X125827004Y-99552078D01*
X125720659Y-99681659D01*
X125591078Y-99788004D01*
X125591076Y-99788005D01*
X125443242Y-99867024D01*
X125282823Y-99915687D01*
X125157804Y-99928000D01*
X125074196Y-99928000D01*
X124949177Y-99915687D01*
X124788758Y-99867024D01*
X124640924Y-99788005D01*
X124640922Y-99788004D01*
X124511341Y-99681659D01*
X124404996Y-99552078D01*
X124368480Y-99483761D01*
X124325976Y-99404242D01*
X124277313Y-99243823D01*
X124260883Y-99077000D01*
X124277313Y-98910177D01*
X124325976Y-98749758D01*
X124404995Y-98601924D01*
X124404996Y-98601922D01*
X124511341Y-98472341D01*
X124640922Y-98365996D01*
X124721639Y-98322852D01*
X124788758Y-98286976D01*
X124949177Y-98238313D01*
X125074196Y-98226000D01*
X125157804Y-98226000D01*
X125282823Y-98238313D01*
X125282823Y-98238313D01*
G37*
G36*
X87282823Y-98238313D02*
G01*
X87443242Y-98286976D01*
X87510361Y-98322852D01*
X87591078Y-98365996D01*
X87720659Y-98472341D01*
X87827004Y-98601922D01*
X87827005Y-98601924D01*
X87906024Y-98749758D01*
X87954687Y-98910177D01*
X87971117Y-99077000D01*
X87954687Y-99243823D01*
X87906024Y-99404242D01*
X87863520Y-99483761D01*
X87827004Y-99552078D01*
X87720659Y-99681659D01*
X87591078Y-99788004D01*
X87591076Y-99788005D01*
X87443242Y-99867024D01*
X87282823Y-99915687D01*
X87157804Y-99928000D01*
X87074196Y-99928000D01*
X86949177Y-99915687D01*
X86788758Y-99867024D01*
X86640924Y-99788005D01*
X86640922Y-99788004D01*
X86511341Y-99681659D01*
X86404996Y-99552078D01*
X86368480Y-99483761D01*
X86325976Y-99404242D01*
X86277313Y-99243823D01*
X86260883Y-99077000D01*
X86277313Y-98910177D01*
X86325976Y-98749758D01*
X86404995Y-98601924D01*
X86404996Y-98601922D01*
X86511341Y-98472341D01*
X86640922Y-98365996D01*
X86721639Y-98322852D01*
X86788758Y-98286976D01*
X86949177Y-98238313D01*
X87074196Y-98226000D01*
X87157804Y-98226000D01*
X87282823Y-98238313D01*
X87282823Y-98238313D01*
G37*
G36*
X79744228Y-95003703D02*
G01*
X79899100Y-95067853D01*
X80038481Y-95160985D01*
X80157015Y-95279519D01*
X80250147Y-95418900D01*
X80314297Y-95573772D01*
X80347000Y-95738184D01*
X80347000Y-95905816D01*
X80314297Y-96070228D01*
X80250147Y-96225100D01*
X80157015Y-96364481D01*
X80038481Y-96483015D01*
X79899100Y-96576147D01*
X79744228Y-96640297D01*
X79579816Y-96673000D01*
X79412184Y-96673000D01*
X79247772Y-96640297D01*
X79092900Y-96576147D01*
X78953519Y-96483015D01*
X78834985Y-96364481D01*
X78741853Y-96225100D01*
X78677703Y-96070228D01*
X78645000Y-95905816D01*
X78645000Y-95738184D01*
X78677703Y-95573772D01*
X78741853Y-95418900D01*
X78834985Y-95279519D01*
X78953519Y-95160985D01*
X79092900Y-95067853D01*
X79247772Y-95003703D01*
X79412184Y-94971000D01*
X79579816Y-94971000D01*
X79744228Y-95003703D01*
X79744228Y-95003703D01*
G37*
G36*
X117744228Y-95003703D02*
G01*
X117899100Y-95067853D01*
X118038481Y-95160985D01*
X118157015Y-95279519D01*
X118250147Y-95418900D01*
X118314297Y-95573772D01*
X118347000Y-95738184D01*
X118347000Y-95905816D01*
X118314297Y-96070228D01*
X118250147Y-96225100D01*
X118157015Y-96364481D01*
X118038481Y-96483015D01*
X117899100Y-96576147D01*
X117744228Y-96640297D01*
X117579816Y-96673000D01*
X117412184Y-96673000D01*
X117247772Y-96640297D01*
X117092900Y-96576147D01*
X116953519Y-96483015D01*
X116834985Y-96364481D01*
X116741853Y-96225100D01*
X116677703Y-96070228D01*
X116645000Y-95905816D01*
X116645000Y-95738184D01*
X116677703Y-95573772D01*
X116741853Y-95418900D01*
X116834985Y-95279519D01*
X116953519Y-95160985D01*
X117092900Y-95067853D01*
X117247772Y-95003703D01*
X117412184Y-94971000D01*
X117579816Y-94971000D01*
X117744228Y-95003703D01*
X117744228Y-95003703D01*
G37*
G36*
X139969228Y-92543703D02*
G01*
X140124100Y-92607853D01*
X140263481Y-92700985D01*
X140382015Y-92819519D01*
X140475147Y-92958900D01*
X140539297Y-93113772D01*
X140572000Y-93278184D01*
X140572000Y-93445816D01*
X140539297Y-93610228D01*
X140475147Y-93765100D01*
X140382015Y-93904481D01*
X140263481Y-94023015D01*
X140124100Y-94116147D01*
X139969228Y-94180297D01*
X139804816Y-94213000D01*
X139637184Y-94213000D01*
X139472772Y-94180297D01*
X139317900Y-94116147D01*
X139178519Y-94023015D01*
X139059985Y-93904481D01*
X138966853Y-93765100D01*
X138902703Y-93610228D01*
X138870000Y-93445816D01*
X138870000Y-93278184D01*
X138902703Y-93113772D01*
X138966853Y-92958900D01*
X139059985Y-92819519D01*
X139178519Y-92700985D01*
X139317900Y-92607853D01*
X139472772Y-92543703D01*
X139637184Y-92511000D01*
X139804816Y-92511000D01*
X139969228Y-92543703D01*
X139969228Y-92543703D01*
G37*
G36*
X150047823Y-92523313D02*
G01*
X150208242Y-92571976D01*
X150275361Y-92607852D01*
X150356078Y-92650996D01*
X150485659Y-92757341D01*
X150592004Y-92886922D01*
X150592005Y-92886924D01*
X150671024Y-93034758D01*
X150719687Y-93195177D01*
X150736117Y-93362000D01*
X150719687Y-93528823D01*
X150671024Y-93689242D01*
X150630477Y-93765100D01*
X150592004Y-93837078D01*
X150485659Y-93966659D01*
X150356078Y-94073004D01*
X150356076Y-94073005D01*
X150208242Y-94152024D01*
X150047823Y-94200687D01*
X149922804Y-94213000D01*
X149839196Y-94213000D01*
X149714177Y-94200687D01*
X149553758Y-94152024D01*
X149405924Y-94073005D01*
X149405922Y-94073004D01*
X149276341Y-93966659D01*
X149169996Y-93837078D01*
X149131523Y-93765100D01*
X149090976Y-93689242D01*
X149042313Y-93528823D01*
X149025883Y-93362000D01*
X149042313Y-93195177D01*
X149090976Y-93034758D01*
X149169995Y-92886924D01*
X149169996Y-92886922D01*
X149276341Y-92757341D01*
X149405922Y-92650996D01*
X149486639Y-92607852D01*
X149553758Y-92571976D01*
X149714177Y-92523313D01*
X149839196Y-92511000D01*
X149922804Y-92511000D01*
X150047823Y-92523313D01*
X150047823Y-92523313D01*
G37*
G36*
X101969228Y-92543703D02*
G01*
X102124100Y-92607853D01*
X102263481Y-92700985D01*
X102382015Y-92819519D01*
X102475147Y-92958900D01*
X102539297Y-93113772D01*
X102572000Y-93278184D01*
X102572000Y-93445816D01*
X102539297Y-93610228D01*
X102475147Y-93765100D01*
X102382015Y-93904481D01*
X102263481Y-94023015D01*
X102124100Y-94116147D01*
X101969228Y-94180297D01*
X101804816Y-94213000D01*
X101637184Y-94213000D01*
X101472772Y-94180297D01*
X101317900Y-94116147D01*
X101178519Y-94023015D01*
X101059985Y-93904481D01*
X100966853Y-93765100D01*
X100902703Y-93610228D01*
X100870000Y-93445816D01*
X100870000Y-93278184D01*
X100902703Y-93113772D01*
X100966853Y-92958900D01*
X101059985Y-92819519D01*
X101178519Y-92700985D01*
X101317900Y-92607853D01*
X101472772Y-92543703D01*
X101637184Y-92511000D01*
X101804816Y-92511000D01*
X101969228Y-92543703D01*
X101969228Y-92543703D01*
G37*
G36*
X112047823Y-92523313D02*
G01*
X112208242Y-92571976D01*
X112275361Y-92607852D01*
X112356078Y-92650996D01*
X112485659Y-92757341D01*
X112592004Y-92886922D01*
X112592005Y-92886924D01*
X112671024Y-93034758D01*
X112719687Y-93195177D01*
X112736117Y-93362000D01*
X112719687Y-93528823D01*
X112671024Y-93689242D01*
X112630477Y-93765100D01*
X112592004Y-93837078D01*
X112485659Y-93966659D01*
X112356078Y-94073004D01*
X112356076Y-94073005D01*
X112208242Y-94152024D01*
X112047823Y-94200687D01*
X111922804Y-94213000D01*
X111839196Y-94213000D01*
X111714177Y-94200687D01*
X111553758Y-94152024D01*
X111405924Y-94073005D01*
X111405922Y-94073004D01*
X111276341Y-93966659D01*
X111169996Y-93837078D01*
X111131523Y-93765100D01*
X111090976Y-93689242D01*
X111042313Y-93528823D01*
X111025883Y-93362000D01*
X111042313Y-93195177D01*
X111090976Y-93034758D01*
X111169995Y-92886924D01*
X111169996Y-92886922D01*
X111276341Y-92757341D01*
X111405922Y-92650996D01*
X111486639Y-92607852D01*
X111553758Y-92571976D01*
X111714177Y-92523313D01*
X111839196Y-92511000D01*
X111922804Y-92511000D01*
X112047823Y-92523313D01*
X112047823Y-92523313D01*
G37*
G36*
X117744228Y-90003703D02*
G01*
X117899100Y-90067853D01*
X118038481Y-90160985D01*
X118157015Y-90279519D01*
X118250147Y-90418900D01*
X118314297Y-90573772D01*
X118347000Y-90738184D01*
X118347000Y-90905816D01*
X118314297Y-91070228D01*
X118250147Y-91225100D01*
X118157015Y-91364481D01*
X118038481Y-91483015D01*
X117899100Y-91576147D01*
X117744228Y-91640297D01*
X117579816Y-91673000D01*
X117412184Y-91673000D01*
X117247772Y-91640297D01*
X117092900Y-91576147D01*
X116953519Y-91483015D01*
X116834985Y-91364481D01*
X116741853Y-91225100D01*
X116677703Y-91070228D01*
X116645000Y-90905816D01*
X116645000Y-90738184D01*
X116677703Y-90573772D01*
X116741853Y-90418900D01*
X116834985Y-90279519D01*
X116953519Y-90160985D01*
X117092900Y-90067853D01*
X117247772Y-90003703D01*
X117412184Y-89971000D01*
X117579816Y-89971000D01*
X117744228Y-90003703D01*
X117744228Y-90003703D01*
G37*
G36*
X79744228Y-90003703D02*
G01*
X79899100Y-90067853D01*
X80038481Y-90160985D01*
X80157015Y-90279519D01*
X80250147Y-90418900D01*
X80314297Y-90573772D01*
X80347000Y-90738184D01*
X80347000Y-90905816D01*
X80314297Y-91070228D01*
X80250147Y-91225100D01*
X80157015Y-91364481D01*
X80038481Y-91483015D01*
X79899100Y-91576147D01*
X79744228Y-91640297D01*
X79579816Y-91673000D01*
X79412184Y-91673000D01*
X79247772Y-91640297D01*
X79092900Y-91576147D01*
X78953519Y-91483015D01*
X78834985Y-91364481D01*
X78741853Y-91225100D01*
X78677703Y-91070228D01*
X78645000Y-90905816D01*
X78645000Y-90738184D01*
X78677703Y-90573772D01*
X78741853Y-90418900D01*
X78834985Y-90279519D01*
X78953519Y-90160985D01*
X79092900Y-90067853D01*
X79247772Y-90003703D01*
X79412184Y-89971000D01*
X79579816Y-89971000D01*
X79744228Y-90003703D01*
X79744228Y-90003703D01*
G37*
G36*
X107049228Y-88733703D02*
G01*
X107204100Y-88797853D01*
X107343481Y-88890985D01*
X107462015Y-89009519D01*
X107555147Y-89148900D01*
X107619297Y-89303772D01*
X107652000Y-89468184D01*
X107652000Y-89635816D01*
X107619297Y-89800228D01*
X107555147Y-89955100D01*
X107462015Y-90094481D01*
X107343481Y-90213015D01*
X107204100Y-90306147D01*
X107049228Y-90370297D01*
X106884816Y-90403000D01*
X106717184Y-90403000D01*
X106552772Y-90370297D01*
X106397900Y-90306147D01*
X106258519Y-90213015D01*
X106139985Y-90094481D01*
X106046853Y-89955100D01*
X105982703Y-89800228D01*
X105950000Y-89635816D01*
X105950000Y-89468184D01*
X105982703Y-89303772D01*
X106046853Y-89148900D01*
X106139985Y-89009519D01*
X106258519Y-88890985D01*
X106397900Y-88797853D01*
X106552772Y-88733703D01*
X106717184Y-88701000D01*
X106884816Y-88701000D01*
X107049228Y-88733703D01*
X107049228Y-88733703D01*
G37*
G36*
X112049228Y-88733703D02*
G01*
X112204100Y-88797853D01*
X112343481Y-88890985D01*
X112462015Y-89009519D01*
X112555147Y-89148900D01*
X112619297Y-89303772D01*
X112652000Y-89468184D01*
X112652000Y-89635816D01*
X112619297Y-89800228D01*
X112555147Y-89955100D01*
X112462015Y-90094481D01*
X112343481Y-90213015D01*
X112204100Y-90306147D01*
X112049228Y-90370297D01*
X111884816Y-90403000D01*
X111717184Y-90403000D01*
X111552772Y-90370297D01*
X111397900Y-90306147D01*
X111258519Y-90213015D01*
X111139985Y-90094481D01*
X111046853Y-89955100D01*
X110982703Y-89800228D01*
X110950000Y-89635816D01*
X110950000Y-89468184D01*
X110982703Y-89303772D01*
X111046853Y-89148900D01*
X111139985Y-89009519D01*
X111258519Y-88890985D01*
X111397900Y-88797853D01*
X111552772Y-88733703D01*
X111717184Y-88701000D01*
X111884816Y-88701000D01*
X112049228Y-88733703D01*
X112049228Y-88733703D01*
G37*
G36*
X145049228Y-88733703D02*
G01*
X145204100Y-88797853D01*
X145343481Y-88890985D01*
X145462015Y-89009519D01*
X145555147Y-89148900D01*
X145619297Y-89303772D01*
X145652000Y-89468184D01*
X145652000Y-89635816D01*
X145619297Y-89800228D01*
X145555147Y-89955100D01*
X145462015Y-90094481D01*
X145343481Y-90213015D01*
X145204100Y-90306147D01*
X145049228Y-90370297D01*
X144884816Y-90403000D01*
X144717184Y-90403000D01*
X144552772Y-90370297D01*
X144397900Y-90306147D01*
X144258519Y-90213015D01*
X144139985Y-90094481D01*
X144046853Y-89955100D01*
X143982703Y-89800228D01*
X143950000Y-89635816D01*
X143950000Y-89468184D01*
X143982703Y-89303772D01*
X144046853Y-89148900D01*
X144139985Y-89009519D01*
X144258519Y-88890985D01*
X144397900Y-88797853D01*
X144552772Y-88733703D01*
X144717184Y-88701000D01*
X144884816Y-88701000D01*
X145049228Y-88733703D01*
X145049228Y-88733703D01*
G37*
G36*
X150049228Y-88733703D02*
G01*
X150204100Y-88797853D01*
X150343481Y-88890985D01*
X150462015Y-89009519D01*
X150555147Y-89148900D01*
X150619297Y-89303772D01*
X150652000Y-89468184D01*
X150652000Y-89635816D01*
X150619297Y-89800228D01*
X150555147Y-89955100D01*
X150462015Y-90094481D01*
X150343481Y-90213015D01*
X150204100Y-90306147D01*
X150049228Y-90370297D01*
X149884816Y-90403000D01*
X149717184Y-90403000D01*
X149552772Y-90370297D01*
X149397900Y-90306147D01*
X149258519Y-90213015D01*
X149139985Y-90094481D01*
X149046853Y-89955100D01*
X148982703Y-89800228D01*
X148950000Y-89635816D01*
X148950000Y-89468184D01*
X148982703Y-89303772D01*
X149046853Y-89148900D01*
X149139985Y-89009519D01*
X149258519Y-88890985D01*
X149397900Y-88797853D01*
X149552772Y-88733703D01*
X149717184Y-88701000D01*
X149884816Y-88701000D01*
X150049228Y-88733703D01*
X150049228Y-88733703D01*
G37*
G36*
X121989585Y-82696802D02*
G01*
X122139410Y-82726604D01*
X122421674Y-82843521D01*
X122675705Y-83013259D01*
X122891741Y-83229295D01*
X123061479Y-83483326D01*
X123178396Y-83765590D01*
X123238000Y-84065240D01*
X123238000Y-84370760D01*
X123178396Y-84670410D01*
X123061479Y-84952674D01*
X122891741Y-85206705D01*
X122675705Y-85422741D01*
X122421674Y-85592479D01*
X122139410Y-85709396D01*
X121989585Y-85739198D01*
X121839761Y-85769000D01*
X121534239Y-85769000D01*
X121384415Y-85739198D01*
X121234590Y-85709396D01*
X120952326Y-85592479D01*
X120698295Y-85422741D01*
X120482259Y-85206705D01*
X120312521Y-84952674D01*
X120195604Y-84670410D01*
X120136000Y-84370760D01*
X120136000Y-84065240D01*
X120195604Y-83765590D01*
X120312521Y-83483326D01*
X120482259Y-83229295D01*
X120698295Y-83013259D01*
X120952326Y-82843521D01*
X121234590Y-82726604D01*
X121384415Y-82696802D01*
X121534239Y-82667000D01*
X121839761Y-82667000D01*
X121989585Y-82696802D01*
X121989585Y-82696802D01*
G37*
G36*
X126434585Y-82696802D02*
G01*
X126584410Y-82726604D01*
X126866674Y-82843521D01*
X127120705Y-83013259D01*
X127336741Y-83229295D01*
X127506479Y-83483326D01*
X127623396Y-83765590D01*
X127683000Y-84065240D01*
X127683000Y-84370760D01*
X127623396Y-84670410D01*
X127506479Y-84952674D01*
X127336741Y-85206705D01*
X127120705Y-85422741D01*
X126866674Y-85592479D01*
X126584410Y-85709396D01*
X126434585Y-85739198D01*
X126284761Y-85769000D01*
X125979239Y-85769000D01*
X125829415Y-85739198D01*
X125679590Y-85709396D01*
X125397326Y-85592479D01*
X125143295Y-85422741D01*
X124927259Y-85206705D01*
X124757521Y-84952674D01*
X124640604Y-84670410D01*
X124581000Y-84370760D01*
X124581000Y-84065240D01*
X124640604Y-83765590D01*
X124757521Y-83483326D01*
X124927259Y-83229295D01*
X125143295Y-83013259D01*
X125397326Y-82843521D01*
X125679590Y-82726604D01*
X125829415Y-82696802D01*
X125979239Y-82667000D01*
X126284761Y-82667000D01*
X126434585Y-82696802D01*
X126434585Y-82696802D01*
G37*
G36*
X83989585Y-82696802D02*
G01*
X84139410Y-82726604D01*
X84421674Y-82843521D01*
X84675705Y-83013259D01*
X84891741Y-83229295D01*
X85061479Y-83483326D01*
X85178396Y-83765590D01*
X85238000Y-84065240D01*
X85238000Y-84370760D01*
X85178396Y-84670410D01*
X85061479Y-84952674D01*
X84891741Y-85206705D01*
X84675705Y-85422741D01*
X84421674Y-85592479D01*
X84139410Y-85709396D01*
X83989585Y-85739198D01*
X83839761Y-85769000D01*
X83534239Y-85769000D01*
X83384415Y-85739198D01*
X83234590Y-85709396D01*
X82952326Y-85592479D01*
X82698295Y-85422741D01*
X82482259Y-85206705D01*
X82312521Y-84952674D01*
X82195604Y-84670410D01*
X82136000Y-84370760D01*
X82136000Y-84065240D01*
X82195604Y-83765590D01*
X82312521Y-83483326D01*
X82482259Y-83229295D01*
X82698295Y-83013259D01*
X82952326Y-82843521D01*
X83234590Y-82726604D01*
X83384415Y-82696802D01*
X83534239Y-82667000D01*
X83839761Y-82667000D01*
X83989585Y-82696802D01*
X83989585Y-82696802D01*
G37*
G36*
X135959585Y-82696802D02*
G01*
X136109410Y-82726604D01*
X136391674Y-82843521D01*
X136645705Y-83013259D01*
X136861741Y-83229295D01*
X137031479Y-83483326D01*
X137148396Y-83765590D01*
X137208000Y-84065240D01*
X137208000Y-84370760D01*
X137148396Y-84670410D01*
X137031479Y-84952674D01*
X136861741Y-85206705D01*
X136645705Y-85422741D01*
X136391674Y-85592479D01*
X136109410Y-85709396D01*
X135959585Y-85739198D01*
X135809761Y-85769000D01*
X135504239Y-85769000D01*
X135354415Y-85739198D01*
X135204590Y-85709396D01*
X134922326Y-85592479D01*
X134668295Y-85422741D01*
X134452259Y-85206705D01*
X134282521Y-84952674D01*
X134165604Y-84670410D01*
X134106000Y-84370760D01*
X134106000Y-84065240D01*
X134165604Y-83765590D01*
X134282521Y-83483326D01*
X134452259Y-83229295D01*
X134668295Y-83013259D01*
X134922326Y-82843521D01*
X135204590Y-82726604D01*
X135354415Y-82696802D01*
X135504239Y-82667000D01*
X135809761Y-82667000D01*
X135959585Y-82696802D01*
X135959585Y-82696802D01*
G37*
G36*
X97959585Y-82696802D02*
G01*
X98109410Y-82726604D01*
X98391674Y-82843521D01*
X98645705Y-83013259D01*
X98861741Y-83229295D01*
X99031479Y-83483326D01*
X99148396Y-83765590D01*
X99208000Y-84065240D01*
X99208000Y-84370760D01*
X99148396Y-84670410D01*
X99031479Y-84952674D01*
X98861741Y-85206705D01*
X98645705Y-85422741D01*
X98391674Y-85592479D01*
X98109410Y-85709396D01*
X97959585Y-85739198D01*
X97809761Y-85769000D01*
X97504239Y-85769000D01*
X97354415Y-85739198D01*
X97204590Y-85709396D01*
X96922326Y-85592479D01*
X96668295Y-85422741D01*
X96452259Y-85206705D01*
X96282521Y-84952674D01*
X96165604Y-84670410D01*
X96106000Y-84370760D01*
X96106000Y-84065240D01*
X96165604Y-83765590D01*
X96282521Y-83483326D01*
X96452259Y-83229295D01*
X96668295Y-83013259D01*
X96922326Y-82843521D01*
X97204590Y-82726604D01*
X97354415Y-82696802D01*
X97504239Y-82667000D01*
X97809761Y-82667000D01*
X97959585Y-82696802D01*
X97959585Y-82696802D01*
G37*
G36*
X93514585Y-82696802D02*
G01*
X93664410Y-82726604D01*
X93946674Y-82843521D01*
X94200705Y-83013259D01*
X94416741Y-83229295D01*
X94586479Y-83483326D01*
X94703396Y-83765590D01*
X94763000Y-84065240D01*
X94763000Y-84370760D01*
X94703396Y-84670410D01*
X94586479Y-84952674D01*
X94416741Y-85206705D01*
X94200705Y-85422741D01*
X93946674Y-85592479D01*
X93664410Y-85709396D01*
X93514585Y-85739198D01*
X93364761Y-85769000D01*
X93059239Y-85769000D01*
X92909415Y-85739198D01*
X92759590Y-85709396D01*
X92477326Y-85592479D01*
X92223295Y-85422741D01*
X92007259Y-85206705D01*
X91837521Y-84952674D01*
X91720604Y-84670410D01*
X91661000Y-84370760D01*
X91661000Y-84065240D01*
X91720604Y-83765590D01*
X91837521Y-83483326D01*
X92007259Y-83229295D01*
X92223295Y-83013259D01*
X92477326Y-82843521D01*
X92759590Y-82726604D01*
X92909415Y-82696802D01*
X93059239Y-82667000D01*
X93364761Y-82667000D01*
X93514585Y-82696802D01*
X93514585Y-82696802D01*
G37*
G36*
X117544585Y-82696802D02*
G01*
X117694410Y-82726604D01*
X117976674Y-82843521D01*
X118230705Y-83013259D01*
X118446741Y-83229295D01*
X118616479Y-83483326D01*
X118733396Y-83765590D01*
X118793000Y-84065240D01*
X118793000Y-84370760D01*
X118733396Y-84670410D01*
X118616479Y-84952674D01*
X118446741Y-85206705D01*
X118230705Y-85422741D01*
X117976674Y-85592479D01*
X117694410Y-85709396D01*
X117544585Y-85739198D01*
X117394761Y-85769000D01*
X117089239Y-85769000D01*
X116939415Y-85739198D01*
X116789590Y-85709396D01*
X116507326Y-85592479D01*
X116253295Y-85422741D01*
X116037259Y-85206705D01*
X115867521Y-84952674D01*
X115750604Y-84670410D01*
X115691000Y-84370760D01*
X115691000Y-84065240D01*
X115750604Y-83765590D01*
X115867521Y-83483326D01*
X116037259Y-83229295D01*
X116253295Y-83013259D01*
X116507326Y-82843521D01*
X116789590Y-82726604D01*
X116939415Y-82696802D01*
X117089239Y-82667000D01*
X117394761Y-82667000D01*
X117544585Y-82696802D01*
X117544585Y-82696802D01*
G37*
G36*
X103039585Y-82696802D02*
G01*
X103189410Y-82726604D01*
X103471674Y-82843521D01*
X103725705Y-83013259D01*
X103941741Y-83229295D01*
X104111479Y-83483326D01*
X104228396Y-83765590D01*
X104288000Y-84065240D01*
X104288000Y-84370760D01*
X104228396Y-84670410D01*
X104111479Y-84952674D01*
X103941741Y-85206705D01*
X103725705Y-85422741D01*
X103471674Y-85592479D01*
X103189410Y-85709396D01*
X103039585Y-85739198D01*
X102889761Y-85769000D01*
X102584239Y-85769000D01*
X102434415Y-85739198D01*
X102284590Y-85709396D01*
X102002326Y-85592479D01*
X101748295Y-85422741D01*
X101532259Y-85206705D01*
X101362521Y-84952674D01*
X101245604Y-84670410D01*
X101186000Y-84370760D01*
X101186000Y-84065240D01*
X101245604Y-83765590D01*
X101362521Y-83483326D01*
X101532259Y-83229295D01*
X101748295Y-83013259D01*
X102002326Y-82843521D01*
X102284590Y-82726604D01*
X102434415Y-82696802D01*
X102584239Y-82667000D01*
X102889761Y-82667000D01*
X103039585Y-82696802D01*
X103039585Y-82696802D01*
G37*
G36*
X141039585Y-82696802D02*
G01*
X141189410Y-82726604D01*
X141471674Y-82843521D01*
X141725705Y-83013259D01*
X141941741Y-83229295D01*
X142111479Y-83483326D01*
X142228396Y-83765590D01*
X142288000Y-84065240D01*
X142288000Y-84370760D01*
X142228396Y-84670410D01*
X142111479Y-84952674D01*
X141941741Y-85206705D01*
X141725705Y-85422741D01*
X141471674Y-85592479D01*
X141189410Y-85709396D01*
X141039585Y-85739198D01*
X140889761Y-85769000D01*
X140584239Y-85769000D01*
X140434415Y-85739198D01*
X140284590Y-85709396D01*
X140002326Y-85592479D01*
X139748295Y-85422741D01*
X139532259Y-85206705D01*
X139362521Y-84952674D01*
X139245604Y-84670410D01*
X139186000Y-84370760D01*
X139186000Y-84065240D01*
X139245604Y-83765590D01*
X139362521Y-83483326D01*
X139532259Y-83229295D01*
X139748295Y-83013259D01*
X140002326Y-82843521D01*
X140284590Y-82726604D01*
X140434415Y-82696802D01*
X140584239Y-82667000D01*
X140889761Y-82667000D01*
X141039585Y-82696802D01*
X141039585Y-82696802D01*
G37*
G36*
X145484585Y-82696802D02*
G01*
X145634410Y-82726604D01*
X145916674Y-82843521D01*
X146170705Y-83013259D01*
X146386741Y-83229295D01*
X146556479Y-83483326D01*
X146673396Y-83765590D01*
X146733000Y-84065240D01*
X146733000Y-84370760D01*
X146673396Y-84670410D01*
X146556479Y-84952674D01*
X146386741Y-85206705D01*
X146170705Y-85422741D01*
X145916674Y-85592479D01*
X145634410Y-85709396D01*
X145484585Y-85739198D01*
X145334761Y-85769000D01*
X145029239Y-85769000D01*
X144879415Y-85739198D01*
X144729590Y-85709396D01*
X144447326Y-85592479D01*
X144193295Y-85422741D01*
X143977259Y-85206705D01*
X143807521Y-84952674D01*
X143690604Y-84670410D01*
X143631000Y-84370760D01*
X143631000Y-84065240D01*
X143690604Y-83765590D01*
X143807521Y-83483326D01*
X143977259Y-83229295D01*
X144193295Y-83013259D01*
X144447326Y-82843521D01*
X144729590Y-82726604D01*
X144879415Y-82696802D01*
X145029239Y-82667000D01*
X145334761Y-82667000D01*
X145484585Y-82696802D01*
X145484585Y-82696802D01*
G37*
G36*
X79544585Y-82696802D02*
G01*
X79694410Y-82726604D01*
X79976674Y-82843521D01*
X80230705Y-83013259D01*
X80446741Y-83229295D01*
X80616479Y-83483326D01*
X80733396Y-83765590D01*
X80793000Y-84065240D01*
X80793000Y-84370760D01*
X80733396Y-84670410D01*
X80616479Y-84952674D01*
X80446741Y-85206705D01*
X80230705Y-85422741D01*
X79976674Y-85592479D01*
X79694410Y-85709396D01*
X79544585Y-85739198D01*
X79394761Y-85769000D01*
X79089239Y-85769000D01*
X78939415Y-85739198D01*
X78789590Y-85709396D01*
X78507326Y-85592479D01*
X78253295Y-85422741D01*
X78037259Y-85206705D01*
X77867521Y-84952674D01*
X77750604Y-84670410D01*
X77691000Y-84370760D01*
X77691000Y-84065240D01*
X77750604Y-83765590D01*
X77867521Y-83483326D01*
X78037259Y-83229295D01*
X78253295Y-83013259D01*
X78507326Y-82843521D01*
X78789590Y-82726604D01*
X78939415Y-82696802D01*
X79089239Y-82667000D01*
X79394761Y-82667000D01*
X79544585Y-82696802D01*
X79544585Y-82696802D01*
G37*
G36*
X88434585Y-82696802D02*
G01*
X88584410Y-82726604D01*
X88866674Y-82843521D01*
X89120705Y-83013259D01*
X89336741Y-83229295D01*
X89506479Y-83483326D01*
X89623396Y-83765590D01*
X89683000Y-84065240D01*
X89683000Y-84370760D01*
X89623396Y-84670410D01*
X89506479Y-84952674D01*
X89336741Y-85206705D01*
X89120705Y-85422741D01*
X88866674Y-85592479D01*
X88584410Y-85709396D01*
X88434585Y-85739198D01*
X88284761Y-85769000D01*
X87979239Y-85769000D01*
X87829415Y-85739198D01*
X87679590Y-85709396D01*
X87397326Y-85592479D01*
X87143295Y-85422741D01*
X86927259Y-85206705D01*
X86757521Y-84952674D01*
X86640604Y-84670410D01*
X86581000Y-84370760D01*
X86581000Y-84065240D01*
X86640604Y-83765590D01*
X86757521Y-83483326D01*
X86927259Y-83229295D01*
X87143295Y-83013259D01*
X87397326Y-82843521D01*
X87679590Y-82726604D01*
X87829415Y-82696802D01*
X87979239Y-82667000D01*
X88284761Y-82667000D01*
X88434585Y-82696802D01*
X88434585Y-82696802D01*
G37*
G36*
X149929585Y-82696802D02*
G01*
X150079410Y-82726604D01*
X150361674Y-82843521D01*
X150615705Y-83013259D01*
X150831741Y-83229295D01*
X151001479Y-83483326D01*
X151118396Y-83765590D01*
X151178000Y-84065240D01*
X151178000Y-84370760D01*
X151118396Y-84670410D01*
X151001479Y-84952674D01*
X150831741Y-85206705D01*
X150615705Y-85422741D01*
X150361674Y-85592479D01*
X150079410Y-85709396D01*
X149929585Y-85739198D01*
X149779761Y-85769000D01*
X149474239Y-85769000D01*
X149324415Y-85739198D01*
X149174590Y-85709396D01*
X148892326Y-85592479D01*
X148638295Y-85422741D01*
X148422259Y-85206705D01*
X148252521Y-84952674D01*
X148135604Y-84670410D01*
X148076000Y-84370760D01*
X148076000Y-84065240D01*
X148135604Y-83765590D01*
X148252521Y-83483326D01*
X148422259Y-83229295D01*
X148638295Y-83013259D01*
X148892326Y-82843521D01*
X149174590Y-82726604D01*
X149324415Y-82696802D01*
X149474239Y-82667000D01*
X149779761Y-82667000D01*
X149929585Y-82696802D01*
X149929585Y-82696802D01*
G37*
G36*
X131514585Y-82696802D02*
G01*
X131664410Y-82726604D01*
X131946674Y-82843521D01*
X132200705Y-83013259D01*
X132416741Y-83229295D01*
X132586479Y-83483326D01*
X132703396Y-83765590D01*
X132763000Y-84065240D01*
X132763000Y-84370760D01*
X132703396Y-84670410D01*
X132586479Y-84952674D01*
X132416741Y-85206705D01*
X132200705Y-85422741D01*
X131946674Y-85592479D01*
X131664410Y-85709396D01*
X131514585Y-85739198D01*
X131364761Y-85769000D01*
X131059239Y-85769000D01*
X130909415Y-85739198D01*
X130759590Y-85709396D01*
X130477326Y-85592479D01*
X130223295Y-85422741D01*
X130007259Y-85206705D01*
X129837521Y-84952674D01*
X129720604Y-84670410D01*
X129661000Y-84370760D01*
X129661000Y-84065240D01*
X129720604Y-83765590D01*
X129837521Y-83483326D01*
X130007259Y-83229295D01*
X130223295Y-83013259D01*
X130477326Y-82843521D01*
X130759590Y-82726604D01*
X130909415Y-82696802D01*
X131059239Y-82667000D01*
X131364761Y-82667000D01*
X131514585Y-82696802D01*
X131514585Y-82696802D01*
G37*
G36*
X111929585Y-82696802D02*
G01*
X112079410Y-82726604D01*
X112361674Y-82843521D01*
X112615705Y-83013259D01*
X112831741Y-83229295D01*
X113001479Y-83483326D01*
X113118396Y-83765590D01*
X113178000Y-84065240D01*
X113178000Y-84370760D01*
X113118396Y-84670410D01*
X113001479Y-84952674D01*
X112831741Y-85206705D01*
X112615705Y-85422741D01*
X112361674Y-85592479D01*
X112079410Y-85709396D01*
X111929585Y-85739198D01*
X111779761Y-85769000D01*
X111474239Y-85769000D01*
X111324415Y-85739198D01*
X111174590Y-85709396D01*
X110892326Y-85592479D01*
X110638295Y-85422741D01*
X110422259Y-85206705D01*
X110252521Y-84952674D01*
X110135604Y-84670410D01*
X110076000Y-84370760D01*
X110076000Y-84065240D01*
X110135604Y-83765590D01*
X110252521Y-83483326D01*
X110422259Y-83229295D01*
X110638295Y-83013259D01*
X110892326Y-82843521D01*
X111174590Y-82726604D01*
X111324415Y-82696802D01*
X111474239Y-82667000D01*
X111779761Y-82667000D01*
X111929585Y-82696802D01*
X111929585Y-82696802D01*
G37*
G36*
X107484585Y-82696802D02*
G01*
X107634410Y-82726604D01*
X107916674Y-82843521D01*
X108170705Y-83013259D01*
X108386741Y-83229295D01*
X108556479Y-83483326D01*
X108673396Y-83765590D01*
X108733000Y-84065240D01*
X108733000Y-84370760D01*
X108673396Y-84670410D01*
X108556479Y-84952674D01*
X108386741Y-85206705D01*
X108170705Y-85422741D01*
X107916674Y-85592479D01*
X107634410Y-85709396D01*
X107484585Y-85739198D01*
X107334761Y-85769000D01*
X107029239Y-85769000D01*
X106879415Y-85739198D01*
X106729590Y-85709396D01*
X106447326Y-85592479D01*
X106193295Y-85422741D01*
X105977259Y-85206705D01*
X105807521Y-84952674D01*
X105690604Y-84670410D01*
X105631000Y-84370760D01*
X105631000Y-84065240D01*
X105690604Y-83765590D01*
X105807521Y-83483326D01*
X105977259Y-83229295D01*
X106193295Y-83013259D01*
X106447326Y-82843521D01*
X106729590Y-82726604D01*
X106879415Y-82696802D01*
X107029239Y-82667000D01*
X107334761Y-82667000D01*
X107484585Y-82696802D01*
X107484585Y-82696802D01*
G37*
G36*
X81576585Y-75176802D02*
G01*
X81726410Y-75206604D01*
X82008674Y-75323521D01*
X82262705Y-75493259D01*
X82478741Y-75709295D01*
X82648479Y-75963326D01*
X82765396Y-76245590D01*
X82825000Y-76545240D01*
X82825000Y-76850760D01*
X82765396Y-77150410D01*
X82648479Y-77432674D01*
X82478741Y-77686705D01*
X82262705Y-77902741D01*
X82008674Y-78072479D01*
X81726410Y-78189396D01*
X81576585Y-78219198D01*
X81426761Y-78249000D01*
X81121239Y-78249000D01*
X80971415Y-78219198D01*
X80821590Y-78189396D01*
X80539326Y-78072479D01*
X80285295Y-77902741D01*
X80069259Y-77686705D01*
X79899521Y-77432674D01*
X79782604Y-77150410D01*
X79723000Y-76850760D01*
X79723000Y-76545240D01*
X79782604Y-76245590D01*
X79899521Y-75963326D01*
X80069259Y-75709295D01*
X80285295Y-75493259D01*
X80539326Y-75323521D01*
X80821590Y-75206604D01*
X80971415Y-75176802D01*
X81121239Y-75147000D01*
X81426761Y-75147000D01*
X81576585Y-75176802D01*
X81576585Y-75176802D01*
G37*
G36*
X87291585Y-75176802D02*
G01*
X87441410Y-75206604D01*
X87723674Y-75323521D01*
X87977705Y-75493259D01*
X88193741Y-75709295D01*
X88363479Y-75963326D01*
X88480396Y-76245590D01*
X88540000Y-76545240D01*
X88540000Y-76850760D01*
X88480396Y-77150410D01*
X88363479Y-77432674D01*
X88193741Y-77686705D01*
X87977705Y-77902741D01*
X87723674Y-78072479D01*
X87441410Y-78189396D01*
X87291585Y-78219198D01*
X87141761Y-78249000D01*
X86836239Y-78249000D01*
X86686415Y-78219198D01*
X86536590Y-78189396D01*
X86254326Y-78072479D01*
X86000295Y-77902741D01*
X85784259Y-77686705D01*
X85614521Y-77432674D01*
X85497604Y-77150410D01*
X85438000Y-76850760D01*
X85438000Y-76545240D01*
X85497604Y-76245590D01*
X85614521Y-75963326D01*
X85784259Y-75709295D01*
X86000295Y-75493259D01*
X86254326Y-75323521D01*
X86536590Y-75206604D01*
X86686415Y-75176802D01*
X86836239Y-75147000D01*
X87141761Y-75147000D01*
X87291585Y-75176802D01*
X87291585Y-75176802D01*
G37*
G36*
X119576585Y-75176802D02*
G01*
X119726410Y-75206604D01*
X120008674Y-75323521D01*
X120262705Y-75493259D01*
X120478741Y-75709295D01*
X120648479Y-75963326D01*
X120765396Y-76245590D01*
X120825000Y-76545240D01*
X120825000Y-76850760D01*
X120765396Y-77150410D01*
X120648479Y-77432674D01*
X120478741Y-77686705D01*
X120262705Y-77902741D01*
X120008674Y-78072479D01*
X119726410Y-78189396D01*
X119576585Y-78219198D01*
X119426761Y-78249000D01*
X119121239Y-78249000D01*
X118971415Y-78219198D01*
X118821590Y-78189396D01*
X118539326Y-78072479D01*
X118285295Y-77902741D01*
X118069259Y-77686705D01*
X117899521Y-77432674D01*
X117782604Y-77150410D01*
X117723000Y-76850760D01*
X117723000Y-76545240D01*
X117782604Y-76245590D01*
X117899521Y-75963326D01*
X118069259Y-75709295D01*
X118285295Y-75493259D01*
X118539326Y-75323521D01*
X118821590Y-75206604D01*
X118971415Y-75176802D01*
X119121239Y-75147000D01*
X119426761Y-75147000D01*
X119576585Y-75176802D01*
X119576585Y-75176802D01*
G37*
G36*
X125291585Y-75176802D02*
G01*
X125441410Y-75206604D01*
X125723674Y-75323521D01*
X125977705Y-75493259D01*
X126193741Y-75709295D01*
X126363479Y-75963326D01*
X126480396Y-76245590D01*
X126540000Y-76545240D01*
X126540000Y-76850760D01*
X126480396Y-77150410D01*
X126363479Y-77432674D01*
X126193741Y-77686705D01*
X125977705Y-77902741D01*
X125723674Y-78072479D01*
X125441410Y-78189396D01*
X125291585Y-78219198D01*
X125141761Y-78249000D01*
X124836239Y-78249000D01*
X124686415Y-78219198D01*
X124536590Y-78189396D01*
X124254326Y-78072479D01*
X124000295Y-77902741D01*
X123784259Y-77686705D01*
X123614521Y-77432674D01*
X123497604Y-77150410D01*
X123438000Y-76850760D01*
X123438000Y-76545240D01*
X123497604Y-76245590D01*
X123614521Y-75963326D01*
X123784259Y-75709295D01*
X124000295Y-75493259D01*
X124254326Y-75323521D01*
X124536590Y-75206604D01*
X124686415Y-75176802D01*
X124836239Y-75147000D01*
X125141761Y-75147000D01*
X125291585Y-75176802D01*
X125291585Y-75176802D01*
G37*
G36*
X130738228Y-75879703D02*
G01*
X130893100Y-75943853D01*
X131032481Y-76036985D01*
X131151015Y-76155519D01*
X131244147Y-76294900D01*
X131308297Y-76449772D01*
X131341000Y-76614184D01*
X131341000Y-76781816D01*
X131308297Y-76946228D01*
X131244147Y-77101100D01*
X131151015Y-77240481D01*
X131032481Y-77359015D01*
X130893100Y-77452147D01*
X130738228Y-77516297D01*
X130573816Y-77549000D01*
X130406184Y-77549000D01*
X130241772Y-77516297D01*
X130086900Y-77452147D01*
X129947519Y-77359015D01*
X129828985Y-77240481D01*
X129735853Y-77101100D01*
X129671703Y-76946228D01*
X129639000Y-76781816D01*
X129639000Y-76614184D01*
X129671703Y-76449772D01*
X129735853Y-76294900D01*
X129828985Y-76155519D01*
X129947519Y-76036985D01*
X130086900Y-75943853D01*
X130241772Y-75879703D01*
X130406184Y-75847000D01*
X130573816Y-75847000D01*
X130738228Y-75879703D01*
X130738228Y-75879703D01*
G37*
G36*
X95238228Y-75879703D02*
G01*
X95393100Y-75943853D01*
X95532481Y-76036985D01*
X95651015Y-76155519D01*
X95744147Y-76294900D01*
X95808297Y-76449772D01*
X95841000Y-76614184D01*
X95841000Y-76781816D01*
X95808297Y-76946228D01*
X95744147Y-77101100D01*
X95651015Y-77240481D01*
X95532481Y-77359015D01*
X95393100Y-77452147D01*
X95238228Y-77516297D01*
X95073816Y-77549000D01*
X94906184Y-77549000D01*
X94741772Y-77516297D01*
X94586900Y-77452147D01*
X94447519Y-77359015D01*
X94328985Y-77240481D01*
X94235853Y-77101100D01*
X94171703Y-76946228D01*
X94139000Y-76781816D01*
X94139000Y-76614184D01*
X94171703Y-76449772D01*
X94235853Y-76294900D01*
X94328985Y-76155519D01*
X94447519Y-76036985D01*
X94586900Y-75943853D01*
X94741772Y-75879703D01*
X94906184Y-75847000D01*
X95073816Y-75847000D01*
X95238228Y-75879703D01*
X95238228Y-75879703D01*
G37*
G36*
X92738228Y-75879703D02*
G01*
X92893100Y-75943853D01*
X93032481Y-76036985D01*
X93151015Y-76155519D01*
X93244147Y-76294900D01*
X93308297Y-76449772D01*
X93341000Y-76614184D01*
X93341000Y-76781816D01*
X93308297Y-76946228D01*
X93244147Y-77101100D01*
X93151015Y-77240481D01*
X93032481Y-77359015D01*
X92893100Y-77452147D01*
X92738228Y-77516297D01*
X92573816Y-77549000D01*
X92406184Y-77549000D01*
X92241772Y-77516297D01*
X92086900Y-77452147D01*
X91947519Y-77359015D01*
X91828985Y-77240481D01*
X91735853Y-77101100D01*
X91671703Y-76946228D01*
X91639000Y-76781816D01*
X91639000Y-76614184D01*
X91671703Y-76449772D01*
X91735853Y-76294900D01*
X91828985Y-76155519D01*
X91947519Y-76036985D01*
X92086900Y-75943853D01*
X92241772Y-75879703D01*
X92406184Y-75847000D01*
X92573816Y-75847000D01*
X92738228Y-75879703D01*
X92738228Y-75879703D01*
G37*
G36*
X133238228Y-75879703D02*
G01*
X133393100Y-75943853D01*
X133532481Y-76036985D01*
X133651015Y-76155519D01*
X133744147Y-76294900D01*
X133808297Y-76449772D01*
X133841000Y-76614184D01*
X133841000Y-76781816D01*
X133808297Y-76946228D01*
X133744147Y-77101100D01*
X133651015Y-77240481D01*
X133532481Y-77359015D01*
X133393100Y-77452147D01*
X133238228Y-77516297D01*
X133073816Y-77549000D01*
X132906184Y-77549000D01*
X132741772Y-77516297D01*
X132586900Y-77452147D01*
X132447519Y-77359015D01*
X132328985Y-77240481D01*
X132235853Y-77101100D01*
X132171703Y-76946228D01*
X132139000Y-76781816D01*
X132139000Y-76614184D01*
X132171703Y-76449772D01*
X132235853Y-76294900D01*
X132328985Y-76155519D01*
X132447519Y-76036985D01*
X132586900Y-75943853D01*
X132741772Y-75879703D01*
X132906184Y-75847000D01*
X133073816Y-75847000D01*
X133238228Y-75879703D01*
X133238228Y-75879703D01*
G37*
G36*
X139331239Y-73179101D02*
G01*
X139567053Y-73250634D01*
X139784381Y-73366799D01*
X139974871Y-73523129D01*
X140131201Y-73713619D01*
X140247366Y-73930947D01*
X140318899Y-74166761D01*
X140343053Y-74412000D01*
X140318899Y-74657239D01*
X140247366Y-74893053D01*
X140131201Y-75110381D01*
X139974871Y-75300871D01*
X139784381Y-75457201D01*
X139567053Y-75573366D01*
X139331239Y-75644899D01*
X139147457Y-75663000D01*
X139024543Y-75663000D01*
X138840761Y-75644899D01*
X138604947Y-75573366D01*
X138387619Y-75457201D01*
X138197129Y-75300871D01*
X138040799Y-75110381D01*
X137924634Y-74893053D01*
X137853101Y-74657239D01*
X137828947Y-74412000D01*
X137853101Y-74166761D01*
X137924634Y-73930947D01*
X138040799Y-73713619D01*
X138197129Y-73523129D01*
X138387619Y-73366799D01*
X138604947Y-73250634D01*
X138840761Y-73179101D01*
X139024543Y-73161000D01*
X139147457Y-73161000D01*
X139331239Y-73179101D01*
X139331239Y-73179101D01*
G37*
G36*
X101331239Y-73179101D02*
G01*
X101567053Y-73250634D01*
X101784381Y-73366799D01*
X101974871Y-73523129D01*
X102131201Y-73713619D01*
X102247366Y-73930947D01*
X102318899Y-74166761D01*
X102343053Y-74412000D01*
X102318899Y-74657239D01*
X102247366Y-74893053D01*
X102131201Y-75110381D01*
X101974871Y-75300871D01*
X101784381Y-75457201D01*
X101567053Y-75573366D01*
X101331239Y-75644899D01*
X101147457Y-75663000D01*
X101024543Y-75663000D01*
X100840761Y-75644899D01*
X100604947Y-75573366D01*
X100387619Y-75457201D01*
X100197129Y-75300871D01*
X100040799Y-75110381D01*
X99924634Y-74893053D01*
X99853101Y-74657239D01*
X99828947Y-74412000D01*
X99853101Y-74166761D01*
X99924634Y-73930947D01*
X100040799Y-73713619D01*
X100197129Y-73523129D01*
X100387619Y-73366799D01*
X100604947Y-73250634D01*
X100840761Y-73179101D01*
X101024543Y-73161000D01*
X101147457Y-73161000D01*
X101331239Y-73179101D01*
X101331239Y-73179101D01*
G37*
G36*
X112497000Y-75663000D02*
G01*
X109995000Y-75663000D01*
X109995000Y-73161000D01*
X112497000Y-73161000D01*
X112497000Y-75663000D01*
X112497000Y-75663000D01*
G37*
G36*
X150497000Y-75663000D02*
G01*
X147995000Y-75663000D01*
X147995000Y-73161000D01*
X150497000Y-73161000D01*
X150497000Y-75663000D01*
X150497000Y-75663000D01*
G37*
G36*
X92712000Y-72388000D02*
G01*
X90410000Y-72388000D01*
X90410000Y-70086000D01*
X92712000Y-70086000D01*
X92712000Y-72388000D01*
X92712000Y-72388000D01*
G37*
G36*
X130712000Y-72388000D02*
G01*
X128410000Y-72388000D01*
X128410000Y-70086000D01*
X130712000Y-70086000D01*
X130712000Y-72388000D01*
X130712000Y-72388000D01*
G37*
G36*
X125364228Y-70418703D02*
G01*
X125519100Y-70482853D01*
X125658481Y-70575985D01*
X125777015Y-70694519D01*
X125870147Y-70833900D01*
X125934297Y-70988772D01*
X125967000Y-71153184D01*
X125967000Y-71320816D01*
X125934297Y-71485228D01*
X125870147Y-71640100D01*
X125777015Y-71779481D01*
X125658481Y-71898015D01*
X125519100Y-71991147D01*
X125364228Y-72055297D01*
X125199816Y-72088000D01*
X125032184Y-72088000D01*
X124867772Y-72055297D01*
X124712900Y-71991147D01*
X124573519Y-71898015D01*
X124454985Y-71779481D01*
X124361853Y-71640100D01*
X124297703Y-71485228D01*
X124265000Y-71320816D01*
X124265000Y-71153184D01*
X124297703Y-70988772D01*
X124361853Y-70833900D01*
X124454985Y-70694519D01*
X124573519Y-70575985D01*
X124712900Y-70482853D01*
X124867772Y-70418703D01*
X125032184Y-70386000D01*
X125199816Y-70386000D01*
X125364228Y-70418703D01*
X125364228Y-70418703D01*
G37*
G36*
X121472823Y-70398313D02*
G01*
X121633242Y-70446976D01*
X121720031Y-70493366D01*
X121781078Y-70525996D01*
X121910659Y-70632341D01*
X122017004Y-70761922D01*
X122017005Y-70761924D01*
X122096024Y-70909758D01*
X122144687Y-71070177D01*
X122161117Y-71237000D01*
X122144687Y-71403823D01*
X122096024Y-71564242D01*
X122055477Y-71640100D01*
X122017004Y-71712078D01*
X121910659Y-71841659D01*
X121781078Y-71948004D01*
X121781076Y-71948005D01*
X121633242Y-72027024D01*
X121472823Y-72075687D01*
X121347804Y-72088000D01*
X121264196Y-72088000D01*
X121139177Y-72075687D01*
X120978758Y-72027024D01*
X120830924Y-71948005D01*
X120830922Y-71948004D01*
X120701341Y-71841659D01*
X120594996Y-71712078D01*
X120556523Y-71640100D01*
X120515976Y-71564242D01*
X120467313Y-71403823D01*
X120450883Y-71237000D01*
X120467313Y-71070177D01*
X120515976Y-70909758D01*
X120594995Y-70761924D01*
X120594996Y-70761922D01*
X120701341Y-70632341D01*
X120830922Y-70525996D01*
X120891969Y-70493366D01*
X120978758Y-70446976D01*
X121139177Y-70398313D01*
X121264196Y-70386000D01*
X121347804Y-70386000D01*
X121472823Y-70398313D01*
X121472823Y-70398313D01*
G37*
G36*
X117744228Y-70418703D02*
G01*
X117899100Y-70482853D01*
X118038481Y-70575985D01*
X118157015Y-70694519D01*
X118250147Y-70833900D01*
X118314297Y-70988772D01*
X118347000Y-71153184D01*
X118347000Y-71320816D01*
X118314297Y-71485228D01*
X118250147Y-71640100D01*
X118157015Y-71779481D01*
X118038481Y-71898015D01*
X117899100Y-71991147D01*
X117744228Y-72055297D01*
X117579816Y-72088000D01*
X117412184Y-72088000D01*
X117247772Y-72055297D01*
X117092900Y-71991147D01*
X116953519Y-71898015D01*
X116834985Y-71779481D01*
X116741853Y-71640100D01*
X116677703Y-71485228D01*
X116645000Y-71320816D01*
X116645000Y-71153184D01*
X116677703Y-70988772D01*
X116741853Y-70833900D01*
X116834985Y-70694519D01*
X116953519Y-70575985D01*
X117092900Y-70482853D01*
X117247772Y-70418703D01*
X117412184Y-70386000D01*
X117579816Y-70386000D01*
X117744228Y-70418703D01*
X117744228Y-70418703D01*
G37*
G36*
X96254228Y-70418703D02*
G01*
X96409100Y-70482853D01*
X96548481Y-70575985D01*
X96667015Y-70694519D01*
X96760147Y-70833900D01*
X96824297Y-70988772D01*
X96857000Y-71153184D01*
X96857000Y-71320816D01*
X96824297Y-71485228D01*
X96760147Y-71640100D01*
X96667015Y-71779481D01*
X96548481Y-71898015D01*
X96409100Y-71991147D01*
X96254228Y-72055297D01*
X96089816Y-72088000D01*
X95922184Y-72088000D01*
X95757772Y-72055297D01*
X95602900Y-71991147D01*
X95463519Y-71898015D01*
X95344985Y-71779481D01*
X95251853Y-71640100D01*
X95187703Y-71485228D01*
X95155000Y-71320816D01*
X95155000Y-71153184D01*
X95187703Y-70988772D01*
X95251853Y-70833900D01*
X95344985Y-70694519D01*
X95463519Y-70575985D01*
X95602900Y-70482853D01*
X95757772Y-70418703D01*
X95922184Y-70386000D01*
X96089816Y-70386000D01*
X96254228Y-70418703D01*
X96254228Y-70418703D01*
G37*
G36*
X87364228Y-70418703D02*
G01*
X87519100Y-70482853D01*
X87658481Y-70575985D01*
X87777015Y-70694519D01*
X87870147Y-70833900D01*
X87934297Y-70988772D01*
X87967000Y-71153184D01*
X87967000Y-71320816D01*
X87934297Y-71485228D01*
X87870147Y-71640100D01*
X87777015Y-71779481D01*
X87658481Y-71898015D01*
X87519100Y-71991147D01*
X87364228Y-72055297D01*
X87199816Y-72088000D01*
X87032184Y-72088000D01*
X86867772Y-72055297D01*
X86712900Y-71991147D01*
X86573519Y-71898015D01*
X86454985Y-71779481D01*
X86361853Y-71640100D01*
X86297703Y-71485228D01*
X86265000Y-71320816D01*
X86265000Y-71153184D01*
X86297703Y-70988772D01*
X86361853Y-70833900D01*
X86454985Y-70694519D01*
X86573519Y-70575985D01*
X86712900Y-70482853D01*
X86867772Y-70418703D01*
X87032184Y-70386000D01*
X87199816Y-70386000D01*
X87364228Y-70418703D01*
X87364228Y-70418703D01*
G37*
G36*
X83472823Y-70398313D02*
G01*
X83633242Y-70446976D01*
X83720031Y-70493366D01*
X83781078Y-70525996D01*
X83910659Y-70632341D01*
X84017004Y-70761922D01*
X84017005Y-70761924D01*
X84096024Y-70909758D01*
X84144687Y-71070177D01*
X84161117Y-71237000D01*
X84144687Y-71403823D01*
X84096024Y-71564242D01*
X84055477Y-71640100D01*
X84017004Y-71712078D01*
X83910659Y-71841659D01*
X83781078Y-71948004D01*
X83781076Y-71948005D01*
X83633242Y-72027024D01*
X83472823Y-72075687D01*
X83347804Y-72088000D01*
X83264196Y-72088000D01*
X83139177Y-72075687D01*
X82978758Y-72027024D01*
X82830924Y-71948005D01*
X82830922Y-71948004D01*
X82701341Y-71841659D01*
X82594996Y-71712078D01*
X82556523Y-71640100D01*
X82515976Y-71564242D01*
X82467313Y-71403823D01*
X82450883Y-71237000D01*
X82467313Y-71070177D01*
X82515976Y-70909758D01*
X82594995Y-70761924D01*
X82594996Y-70761922D01*
X82701341Y-70632341D01*
X82830922Y-70525996D01*
X82891969Y-70493366D01*
X82978758Y-70446976D01*
X83139177Y-70398313D01*
X83264196Y-70386000D01*
X83347804Y-70386000D01*
X83472823Y-70398313D01*
X83472823Y-70398313D01*
G37*
G36*
X79744228Y-70418703D02*
G01*
X79899100Y-70482853D01*
X80038481Y-70575985D01*
X80157015Y-70694519D01*
X80250147Y-70833900D01*
X80314297Y-70988772D01*
X80347000Y-71153184D01*
X80347000Y-71320816D01*
X80314297Y-71485228D01*
X80250147Y-71640100D01*
X80157015Y-71779481D01*
X80038481Y-71898015D01*
X79899100Y-71991147D01*
X79744228Y-72055297D01*
X79579816Y-72088000D01*
X79412184Y-72088000D01*
X79247772Y-72055297D01*
X79092900Y-71991147D01*
X78953519Y-71898015D01*
X78834985Y-71779481D01*
X78741853Y-71640100D01*
X78677703Y-71485228D01*
X78645000Y-71320816D01*
X78645000Y-71153184D01*
X78677703Y-70988772D01*
X78741853Y-70833900D01*
X78834985Y-70694519D01*
X78953519Y-70575985D01*
X79092900Y-70482853D01*
X79247772Y-70418703D01*
X79412184Y-70386000D01*
X79579816Y-70386000D01*
X79744228Y-70418703D01*
X79744228Y-70418703D01*
G37*
G36*
X134254228Y-70418703D02*
G01*
X134409100Y-70482853D01*
X134548481Y-70575985D01*
X134667015Y-70694519D01*
X134760147Y-70833900D01*
X134824297Y-70988772D01*
X134857000Y-71153184D01*
X134857000Y-71320816D01*
X134824297Y-71485228D01*
X134760147Y-71640100D01*
X134667015Y-71779481D01*
X134548481Y-71898015D01*
X134409100Y-71991147D01*
X134254228Y-72055297D01*
X134089816Y-72088000D01*
X133922184Y-72088000D01*
X133757772Y-72055297D01*
X133602900Y-71991147D01*
X133463519Y-71898015D01*
X133344985Y-71779481D01*
X133251853Y-71640100D01*
X133187703Y-71485228D01*
X133155000Y-71320816D01*
X133155000Y-71153184D01*
X133187703Y-70988772D01*
X133251853Y-70833900D01*
X133344985Y-70694519D01*
X133463519Y-70575985D01*
X133602900Y-70482853D01*
X133757772Y-70418703D01*
X133922184Y-70386000D01*
X134089816Y-70386000D01*
X134254228Y-70418703D01*
X134254228Y-70418703D01*
G37*
G36*
X140337000Y-70583000D02*
G01*
X137835000Y-70583000D01*
X137835000Y-68081000D01*
X140337000Y-68081000D01*
X140337000Y-70583000D01*
X140337000Y-70583000D01*
G37*
G36*
X149491239Y-68099101D02*
G01*
X149727053Y-68170634D01*
X149944381Y-68286799D01*
X150134871Y-68443129D01*
X150291201Y-68633619D01*
X150407366Y-68850947D01*
X150478899Y-69086761D01*
X150503053Y-69332000D01*
X150478899Y-69577239D01*
X150407366Y-69813053D01*
X150291201Y-70030381D01*
X150134871Y-70220871D01*
X149944381Y-70377201D01*
X149727053Y-70493366D01*
X149491239Y-70564899D01*
X149307457Y-70583000D01*
X149184543Y-70583000D01*
X149000761Y-70564899D01*
X148764947Y-70493366D01*
X148547619Y-70377201D01*
X148357129Y-70220871D01*
X148200799Y-70030381D01*
X148084634Y-69813053D01*
X148013101Y-69577239D01*
X147988947Y-69332000D01*
X148013101Y-69086761D01*
X148084634Y-68850947D01*
X148200799Y-68633619D01*
X148357129Y-68443129D01*
X148547619Y-68286799D01*
X148764947Y-68170634D01*
X149000761Y-68099101D01*
X149184543Y-68081000D01*
X149307457Y-68081000D01*
X149491239Y-68099101D01*
X149491239Y-68099101D01*
G37*
G36*
X111491239Y-68099101D02*
G01*
X111727053Y-68170634D01*
X111944381Y-68286799D01*
X112134871Y-68443129D01*
X112291201Y-68633619D01*
X112407366Y-68850947D01*
X112478899Y-69086761D01*
X112503053Y-69332000D01*
X112478899Y-69577239D01*
X112407366Y-69813053D01*
X112291201Y-70030381D01*
X112134871Y-70220871D01*
X111944381Y-70377201D01*
X111727053Y-70493366D01*
X111491239Y-70564899D01*
X111307457Y-70583000D01*
X111184543Y-70583000D01*
X111000761Y-70564899D01*
X110764947Y-70493366D01*
X110547619Y-70377201D01*
X110357129Y-70220871D01*
X110200799Y-70030381D01*
X110084634Y-69813053D01*
X110013101Y-69577239D01*
X109988947Y-69332000D01*
X110013101Y-69086761D01*
X110084634Y-68850947D01*
X110200799Y-68633619D01*
X110357129Y-68443129D01*
X110547619Y-68286799D01*
X110764947Y-68170634D01*
X111000761Y-68099101D01*
X111184543Y-68081000D01*
X111307457Y-68081000D01*
X111491239Y-68099101D01*
X111491239Y-68099101D01*
G37*
G36*
X102337000Y-70583000D02*
G01*
X99835000Y-70583000D01*
X99835000Y-68081000D01*
X102337000Y-68081000D01*
X102337000Y-70583000D01*
X102337000Y-70583000D01*
G37*
G36*
X150183585Y-59809802D02*
G01*
X150333410Y-59839604D01*
X150615674Y-59956521D01*
X150869705Y-60126259D01*
X151085741Y-60342295D01*
X151255479Y-60596326D01*
X151372396Y-60878590D01*
X151432000Y-61178240D01*
X151432000Y-61483760D01*
X151372396Y-61783410D01*
X151255479Y-62065674D01*
X151085741Y-62319705D01*
X150869705Y-62535741D01*
X150615674Y-62705479D01*
X150333410Y-62822396D01*
X150183585Y-62852198D01*
X150033761Y-62882000D01*
X149728239Y-62882000D01*
X149578415Y-62852198D01*
X149428590Y-62822396D01*
X149146326Y-62705479D01*
X148892295Y-62535741D01*
X148676259Y-62319705D01*
X148506521Y-62065674D01*
X148389604Y-61783410D01*
X148330000Y-61483760D01*
X148330000Y-61178240D01*
X148389604Y-60878590D01*
X148506521Y-60596326D01*
X148676259Y-60342295D01*
X148892295Y-60126259D01*
X149146326Y-59956521D01*
X149428590Y-59839604D01*
X149578415Y-59809802D01*
X149728239Y-59780000D01*
X150033761Y-59780000D01*
X150183585Y-59809802D01*
X150183585Y-59809802D01*
G37*
G36*
X112183585Y-59809802D02*
G01*
X112333410Y-59839604D01*
X112615674Y-59956521D01*
X112869705Y-60126259D01*
X113085741Y-60342295D01*
X113255479Y-60596326D01*
X113372396Y-60878590D01*
X113432000Y-61178240D01*
X113432000Y-61483760D01*
X113372396Y-61783410D01*
X113255479Y-62065674D01*
X113085741Y-62319705D01*
X112869705Y-62535741D01*
X112615674Y-62705479D01*
X112333410Y-62822396D01*
X112183585Y-62852198D01*
X112033761Y-62882000D01*
X111728239Y-62882000D01*
X111578415Y-62852198D01*
X111428590Y-62822396D01*
X111146326Y-62705479D01*
X110892295Y-62535741D01*
X110676259Y-62319705D01*
X110506521Y-62065674D01*
X110389604Y-61783410D01*
X110330000Y-61483760D01*
X110330000Y-61178240D01*
X110389604Y-60878590D01*
X110506521Y-60596326D01*
X110676259Y-60342295D01*
X110892295Y-60126259D01*
X111146326Y-59956521D01*
X111428590Y-59839604D01*
X111578415Y-59809802D01*
X111728239Y-59780000D01*
X112033761Y-59780000D01*
X112183585Y-59809802D01*
X112183585Y-59809802D01*
G37*
G36*
X107738585Y-59809802D02*
G01*
X107888410Y-59839604D01*
X108170674Y-59956521D01*
X108424705Y-60126259D01*
X108640741Y-60342295D01*
X108810479Y-60596326D01*
X108927396Y-60878590D01*
X108987000Y-61178240D01*
X108987000Y-61483760D01*
X108927396Y-61783410D01*
X108810479Y-62065674D01*
X108640741Y-62319705D01*
X108424705Y-62535741D01*
X108170674Y-62705479D01*
X107888410Y-62822396D01*
X107738585Y-62852198D01*
X107588761Y-62882000D01*
X107283239Y-62882000D01*
X107133415Y-62852198D01*
X106983590Y-62822396D01*
X106701326Y-62705479D01*
X106447295Y-62535741D01*
X106231259Y-62319705D01*
X106061521Y-62065674D01*
X105944604Y-61783410D01*
X105885000Y-61483760D01*
X105885000Y-61178240D01*
X105944604Y-60878590D01*
X106061521Y-60596326D01*
X106231259Y-60342295D01*
X106447295Y-60126259D01*
X106701326Y-59956521D01*
X106983590Y-59839604D01*
X107133415Y-59809802D01*
X107283239Y-59780000D01*
X107588761Y-59780000D01*
X107738585Y-59809802D01*
X107738585Y-59809802D01*
G37*
G36*
X145738585Y-59809802D02*
G01*
X145888410Y-59839604D01*
X146170674Y-59956521D01*
X146424705Y-60126259D01*
X146640741Y-60342295D01*
X146810479Y-60596326D01*
X146927396Y-60878590D01*
X146987000Y-61178240D01*
X146987000Y-61483760D01*
X146927396Y-61783410D01*
X146810479Y-62065674D01*
X146640741Y-62319705D01*
X146424705Y-62535741D01*
X146170674Y-62705479D01*
X145888410Y-62822396D01*
X145738585Y-62852198D01*
X145588761Y-62882000D01*
X145283239Y-62882000D01*
X145133415Y-62852198D01*
X144983590Y-62822396D01*
X144701326Y-62705479D01*
X144447295Y-62535741D01*
X144231259Y-62319705D01*
X144061521Y-62065674D01*
X143944604Y-61783410D01*
X143885000Y-61483760D01*
X143885000Y-61178240D01*
X143944604Y-60878590D01*
X144061521Y-60596326D01*
X144231259Y-60342295D01*
X144447295Y-60126259D01*
X144701326Y-59956521D01*
X144983590Y-59839604D01*
X145133415Y-59809802D01*
X145283239Y-59780000D01*
X145588761Y-59780000D01*
X145738585Y-59809802D01*
X145738585Y-59809802D01*
G37*
G36*
X103293585Y-59809802D02*
G01*
X103443410Y-59839604D01*
X103725674Y-59956521D01*
X103979705Y-60126259D01*
X104195741Y-60342295D01*
X104365479Y-60596326D01*
X104482396Y-60878590D01*
X104542000Y-61178240D01*
X104542000Y-61483760D01*
X104482396Y-61783410D01*
X104365479Y-62065674D01*
X104195741Y-62319705D01*
X103979705Y-62535741D01*
X103725674Y-62705479D01*
X103443410Y-62822396D01*
X103293585Y-62852198D01*
X103143761Y-62882000D01*
X102838239Y-62882000D01*
X102688415Y-62852198D01*
X102538590Y-62822396D01*
X102256326Y-62705479D01*
X102002295Y-62535741D01*
X101786259Y-62319705D01*
X101616521Y-62065674D01*
X101499604Y-61783410D01*
X101440000Y-61483760D01*
X101440000Y-61178240D01*
X101499604Y-60878590D01*
X101616521Y-60596326D01*
X101786259Y-60342295D01*
X102002295Y-60126259D01*
X102256326Y-59956521D01*
X102538590Y-59839604D01*
X102688415Y-59809802D01*
X102838239Y-59780000D01*
X103143761Y-59780000D01*
X103293585Y-59809802D01*
X103293585Y-59809802D01*
G37*
G36*
X141293585Y-59809802D02*
G01*
X141443410Y-59839604D01*
X141725674Y-59956521D01*
X141979705Y-60126259D01*
X142195741Y-60342295D01*
X142365479Y-60596326D01*
X142482396Y-60878590D01*
X142542000Y-61178240D01*
X142542000Y-61483760D01*
X142482396Y-61783410D01*
X142365479Y-62065674D01*
X142195741Y-62319705D01*
X141979705Y-62535741D01*
X141725674Y-62705479D01*
X141443410Y-62822396D01*
X141293585Y-62852198D01*
X141143761Y-62882000D01*
X140838239Y-62882000D01*
X140688415Y-62852198D01*
X140538590Y-62822396D01*
X140256326Y-62705479D01*
X140002295Y-62535741D01*
X139786259Y-62319705D01*
X139616521Y-62065674D01*
X139499604Y-61783410D01*
X139440000Y-61483760D01*
X139440000Y-61178240D01*
X139499604Y-60878590D01*
X139616521Y-60596326D01*
X139786259Y-60342295D01*
X140002295Y-60126259D01*
X140256326Y-59956521D01*
X140538590Y-59839604D01*
X140688415Y-59809802D01*
X140838239Y-59780000D01*
X141143761Y-59780000D01*
X141293585Y-59809802D01*
X141293585Y-59809802D01*
G37*
G36*
X129730271Y-59937103D02*
G01*
X129786635Y-59942654D01*
X130003600Y-60008470D01*
X130003602Y-60008471D01*
X130203555Y-60115347D01*
X130378818Y-60259182D01*
X130522653Y-60434445D01*
X130609179Y-60596326D01*
X130629530Y-60634400D01*
X130695346Y-60851365D01*
X130717569Y-61077000D01*
X130695346Y-61302635D01*
X130640402Y-61483761D01*
X130629529Y-61519602D01*
X130522653Y-61719555D01*
X130378818Y-61894818D01*
X130203555Y-62038653D01*
X130003602Y-62145529D01*
X130003600Y-62145530D01*
X129786635Y-62211346D01*
X129730271Y-62216897D01*
X129617545Y-62228000D01*
X129504455Y-62228000D01*
X129391729Y-62216897D01*
X129335365Y-62211346D01*
X129118400Y-62145530D01*
X129118398Y-62145529D01*
X128918445Y-62038653D01*
X128743182Y-61894818D01*
X128599347Y-61719555D01*
X128492471Y-61519602D01*
X128481599Y-61483761D01*
X128426654Y-61302635D01*
X128404431Y-61077000D01*
X128426654Y-60851365D01*
X128492470Y-60634400D01*
X128512821Y-60596326D01*
X128599347Y-60434445D01*
X128743182Y-60259182D01*
X128918445Y-60115347D01*
X129118398Y-60008471D01*
X129118400Y-60008470D01*
X129335365Y-59942654D01*
X129391729Y-59937103D01*
X129504455Y-59926000D01*
X129617545Y-59926000D01*
X129730271Y-59937103D01*
X129730271Y-59937103D01*
G37*
G36*
X91730271Y-59937103D02*
G01*
X91786635Y-59942654D01*
X92003600Y-60008470D01*
X92003602Y-60008471D01*
X92203555Y-60115347D01*
X92378818Y-60259182D01*
X92522653Y-60434445D01*
X92609179Y-60596326D01*
X92629530Y-60634400D01*
X92695346Y-60851365D01*
X92717569Y-61077000D01*
X92695346Y-61302635D01*
X92640402Y-61483761D01*
X92629529Y-61519602D01*
X92522653Y-61719555D01*
X92378818Y-61894818D01*
X92203555Y-62038653D01*
X92003602Y-62145529D01*
X92003600Y-62145530D01*
X91786635Y-62211346D01*
X91730271Y-62216897D01*
X91617545Y-62228000D01*
X91504455Y-62228000D01*
X91391729Y-62216897D01*
X91335365Y-62211346D01*
X91118400Y-62145530D01*
X91118398Y-62145529D01*
X90918445Y-62038653D01*
X90743182Y-61894818D01*
X90599347Y-61719555D01*
X90492471Y-61519602D01*
X90481599Y-61483761D01*
X90426654Y-61302635D01*
X90404431Y-61077000D01*
X90426654Y-60851365D01*
X90492470Y-60634400D01*
X90512821Y-60596326D01*
X90599347Y-60434445D01*
X90743182Y-60259182D01*
X90918445Y-60115347D01*
X91118398Y-60008471D01*
X91118400Y-60008470D01*
X91335365Y-59942654D01*
X91391729Y-59937103D01*
X91504455Y-59926000D01*
X91617545Y-59926000D01*
X91730271Y-59937103D01*
X91730271Y-59937103D01*
G37*
G36*
X83554228Y-60258703D02*
G01*
X83709100Y-60322853D01*
X83848481Y-60415985D01*
X83967015Y-60534519D01*
X84060147Y-60673900D01*
X84124297Y-60828772D01*
X84157000Y-60993184D01*
X84157000Y-61160816D01*
X84124297Y-61325228D01*
X84060147Y-61480100D01*
X83967015Y-61619481D01*
X83848481Y-61738015D01*
X83709100Y-61831147D01*
X83554228Y-61895297D01*
X83389816Y-61928000D01*
X83222184Y-61928000D01*
X83057772Y-61895297D01*
X82902900Y-61831147D01*
X82763519Y-61738015D01*
X82644985Y-61619481D01*
X82551853Y-61480100D01*
X82487703Y-61325228D01*
X82455000Y-61160816D01*
X82455000Y-60993184D01*
X82487703Y-60828772D01*
X82551853Y-60673900D01*
X82644985Y-60534519D01*
X82763519Y-60415985D01*
X82902900Y-60322853D01*
X83057772Y-60258703D01*
X83222184Y-60226000D01*
X83389816Y-60226000D01*
X83554228Y-60258703D01*
X83554228Y-60258703D01*
G37*
G36*
X117662823Y-60238313D02*
G01*
X117823242Y-60286976D01*
X117890361Y-60322852D01*
X117971078Y-60365996D01*
X118100659Y-60472341D01*
X118207004Y-60601922D01*
X118207005Y-60601924D01*
X118286024Y-60749758D01*
X118334687Y-60910177D01*
X118351117Y-61077000D01*
X118334687Y-61243823D01*
X118286024Y-61404242D01*
X118243520Y-61483761D01*
X118207004Y-61552078D01*
X118100659Y-61681659D01*
X117971078Y-61788004D01*
X117971076Y-61788005D01*
X117823242Y-61867024D01*
X117662823Y-61915687D01*
X117537804Y-61928000D01*
X117454196Y-61928000D01*
X117329177Y-61915687D01*
X117168758Y-61867024D01*
X117020924Y-61788005D01*
X117020922Y-61788004D01*
X116891341Y-61681659D01*
X116784996Y-61552078D01*
X116748480Y-61483761D01*
X116705976Y-61404242D01*
X116657313Y-61243823D01*
X116640883Y-61077000D01*
X116657313Y-60910177D01*
X116705976Y-60749758D01*
X116784995Y-60601924D01*
X116784996Y-60601922D01*
X116891341Y-60472341D01*
X117020922Y-60365996D01*
X117101639Y-60322852D01*
X117168758Y-60286976D01*
X117329177Y-60238313D01*
X117454196Y-60226000D01*
X117537804Y-60226000D01*
X117662823Y-60238313D01*
X117662823Y-60238313D01*
G37*
G36*
X79662823Y-60238313D02*
G01*
X79823242Y-60286976D01*
X79890361Y-60322852D01*
X79971078Y-60365996D01*
X80100659Y-60472341D01*
X80207004Y-60601922D01*
X80207005Y-60601924D01*
X80286024Y-60749758D01*
X80334687Y-60910177D01*
X80351117Y-61077000D01*
X80334687Y-61243823D01*
X80286024Y-61404242D01*
X80243520Y-61483761D01*
X80207004Y-61552078D01*
X80100659Y-61681659D01*
X79971078Y-61788004D01*
X79971076Y-61788005D01*
X79823242Y-61867024D01*
X79662823Y-61915687D01*
X79537804Y-61928000D01*
X79454196Y-61928000D01*
X79329177Y-61915687D01*
X79168758Y-61867024D01*
X79020924Y-61788005D01*
X79020922Y-61788004D01*
X78891341Y-61681659D01*
X78784996Y-61552078D01*
X78748480Y-61483761D01*
X78705976Y-61404242D01*
X78657313Y-61243823D01*
X78640883Y-61077000D01*
X78657313Y-60910177D01*
X78705976Y-60749758D01*
X78784995Y-60601924D01*
X78784996Y-60601922D01*
X78891341Y-60472341D01*
X79020922Y-60365996D01*
X79101639Y-60322852D01*
X79168758Y-60286976D01*
X79329177Y-60238313D01*
X79454196Y-60226000D01*
X79537804Y-60226000D01*
X79662823Y-60238313D01*
X79662823Y-60238313D01*
G37*
G36*
X125282823Y-60238313D02*
G01*
X125443242Y-60286976D01*
X125510361Y-60322852D01*
X125591078Y-60365996D01*
X125720659Y-60472341D01*
X125827004Y-60601922D01*
X125827005Y-60601924D01*
X125906024Y-60749758D01*
X125954687Y-60910177D01*
X125971117Y-61077000D01*
X125954687Y-61243823D01*
X125906024Y-61404242D01*
X125863520Y-61483761D01*
X125827004Y-61552078D01*
X125720659Y-61681659D01*
X125591078Y-61788004D01*
X125591076Y-61788005D01*
X125443242Y-61867024D01*
X125282823Y-61915687D01*
X125157804Y-61928000D01*
X125074196Y-61928000D01*
X124949177Y-61915687D01*
X124788758Y-61867024D01*
X124640924Y-61788005D01*
X124640922Y-61788004D01*
X124511341Y-61681659D01*
X124404996Y-61552078D01*
X124368480Y-61483761D01*
X124325976Y-61404242D01*
X124277313Y-61243823D01*
X124260883Y-61077000D01*
X124277313Y-60910177D01*
X124325976Y-60749758D01*
X124404995Y-60601924D01*
X124404996Y-60601922D01*
X124511341Y-60472341D01*
X124640922Y-60365996D01*
X124721639Y-60322852D01*
X124788758Y-60286976D01*
X124949177Y-60238313D01*
X125074196Y-60226000D01*
X125157804Y-60226000D01*
X125282823Y-60238313D01*
X125282823Y-60238313D01*
G37*
G36*
X121554228Y-60258703D02*
G01*
X121709100Y-60322853D01*
X121848481Y-60415985D01*
X121967015Y-60534519D01*
X122060147Y-60673900D01*
X122124297Y-60828772D01*
X122157000Y-60993184D01*
X122157000Y-61160816D01*
X122124297Y-61325228D01*
X122060147Y-61480100D01*
X121967015Y-61619481D01*
X121848481Y-61738015D01*
X121709100Y-61831147D01*
X121554228Y-61895297D01*
X121389816Y-61928000D01*
X121222184Y-61928000D01*
X121057772Y-61895297D01*
X120902900Y-61831147D01*
X120763519Y-61738015D01*
X120644985Y-61619481D01*
X120551853Y-61480100D01*
X120487703Y-61325228D01*
X120455000Y-61160816D01*
X120455000Y-60993184D01*
X120487703Y-60828772D01*
X120551853Y-60673900D01*
X120644985Y-60534519D01*
X120763519Y-60415985D01*
X120902900Y-60322853D01*
X121057772Y-60258703D01*
X121222184Y-60226000D01*
X121389816Y-60226000D01*
X121554228Y-60258703D01*
X121554228Y-60258703D01*
G37*
G36*
X87282823Y-60238313D02*
G01*
X87443242Y-60286976D01*
X87510361Y-60322852D01*
X87591078Y-60365996D01*
X87720659Y-60472341D01*
X87827004Y-60601922D01*
X87827005Y-60601924D01*
X87906024Y-60749758D01*
X87954687Y-60910177D01*
X87971117Y-61077000D01*
X87954687Y-61243823D01*
X87906024Y-61404242D01*
X87863520Y-61483761D01*
X87827004Y-61552078D01*
X87720659Y-61681659D01*
X87591078Y-61788004D01*
X87591076Y-61788005D01*
X87443242Y-61867024D01*
X87282823Y-61915687D01*
X87157804Y-61928000D01*
X87074196Y-61928000D01*
X86949177Y-61915687D01*
X86788758Y-61867024D01*
X86640924Y-61788005D01*
X86640922Y-61788004D01*
X86511341Y-61681659D01*
X86404996Y-61552078D01*
X86368480Y-61483761D01*
X86325976Y-61404242D01*
X86277313Y-61243823D01*
X86260883Y-61077000D01*
X86277313Y-60910177D01*
X86325976Y-60749758D01*
X86404995Y-60601924D01*
X86404996Y-60601922D01*
X86511341Y-60472341D01*
X86640922Y-60365996D01*
X86721639Y-60322852D01*
X86788758Y-60286976D01*
X86949177Y-60238313D01*
X87074196Y-60226000D01*
X87157804Y-60226000D01*
X87282823Y-60238313D01*
X87282823Y-60238313D01*
G37*
G36*
X134172823Y-60238313D02*
G01*
X134333242Y-60286976D01*
X134400361Y-60322852D01*
X134481078Y-60365996D01*
X134610659Y-60472341D01*
X134717004Y-60601922D01*
X134717005Y-60601924D01*
X134796024Y-60749758D01*
X134844687Y-60910177D01*
X134861117Y-61077000D01*
X134844687Y-61243823D01*
X134796024Y-61404242D01*
X134753520Y-61483761D01*
X134717004Y-61552078D01*
X134610659Y-61681659D01*
X134481078Y-61788004D01*
X134481076Y-61788005D01*
X134333242Y-61867024D01*
X134172823Y-61915687D01*
X134047804Y-61928000D01*
X133964196Y-61928000D01*
X133839177Y-61915687D01*
X133678758Y-61867024D01*
X133530924Y-61788005D01*
X133530922Y-61788004D01*
X133401341Y-61681659D01*
X133294996Y-61552078D01*
X133258480Y-61483761D01*
X133215976Y-61404242D01*
X133167313Y-61243823D01*
X133150883Y-61077000D01*
X133167313Y-60910177D01*
X133215976Y-60749758D01*
X133294995Y-60601924D01*
X133294996Y-60601922D01*
X133401341Y-60472341D01*
X133530922Y-60365996D01*
X133611639Y-60322852D01*
X133678758Y-60286976D01*
X133839177Y-60238313D01*
X133964196Y-60226000D01*
X134047804Y-60226000D01*
X134172823Y-60238313D01*
X134172823Y-60238313D01*
G37*
G36*
X96172823Y-60238313D02*
G01*
X96333242Y-60286976D01*
X96400361Y-60322852D01*
X96481078Y-60365996D01*
X96610659Y-60472341D01*
X96717004Y-60601922D01*
X96717005Y-60601924D01*
X96796024Y-60749758D01*
X96844687Y-60910177D01*
X96861117Y-61077000D01*
X96844687Y-61243823D01*
X96796024Y-61404242D01*
X96753520Y-61483761D01*
X96717004Y-61552078D01*
X96610659Y-61681659D01*
X96481078Y-61788004D01*
X96481076Y-61788005D01*
X96333242Y-61867024D01*
X96172823Y-61915687D01*
X96047804Y-61928000D01*
X95964196Y-61928000D01*
X95839177Y-61915687D01*
X95678758Y-61867024D01*
X95530924Y-61788005D01*
X95530922Y-61788004D01*
X95401341Y-61681659D01*
X95294996Y-61552078D01*
X95258480Y-61483761D01*
X95215976Y-61404242D01*
X95167313Y-61243823D01*
X95150883Y-61077000D01*
X95167313Y-60910177D01*
X95215976Y-60749758D01*
X95294995Y-60601924D01*
X95294996Y-60601922D01*
X95401341Y-60472341D01*
X95530922Y-60365996D01*
X95611639Y-60322852D01*
X95678758Y-60286976D01*
X95839177Y-60238313D01*
X95964196Y-60226000D01*
X96047804Y-60226000D01*
X96172823Y-60238313D01*
X96172823Y-60238313D01*
G37*
G36*
X117744228Y-57003703D02*
G01*
X117899100Y-57067853D01*
X118038481Y-57160985D01*
X118157015Y-57279519D01*
X118250147Y-57418900D01*
X118314297Y-57573772D01*
X118347000Y-57738184D01*
X118347000Y-57905816D01*
X118314297Y-58070228D01*
X118250147Y-58225100D01*
X118157015Y-58364481D01*
X118038481Y-58483015D01*
X117899100Y-58576147D01*
X117744228Y-58640297D01*
X117579816Y-58673000D01*
X117412184Y-58673000D01*
X117247772Y-58640297D01*
X117092900Y-58576147D01*
X116953519Y-58483015D01*
X116834985Y-58364481D01*
X116741853Y-58225100D01*
X116677703Y-58070228D01*
X116645000Y-57905816D01*
X116645000Y-57738184D01*
X116677703Y-57573772D01*
X116741853Y-57418900D01*
X116834985Y-57279519D01*
X116953519Y-57160985D01*
X117092900Y-57067853D01*
X117247772Y-57003703D01*
X117412184Y-56971000D01*
X117579816Y-56971000D01*
X117744228Y-57003703D01*
X117744228Y-57003703D01*
G37*
G36*
X79744228Y-57003703D02*
G01*
X79899100Y-57067853D01*
X80038481Y-57160985D01*
X80157015Y-57279519D01*
X80250147Y-57418900D01*
X80314297Y-57573772D01*
X80347000Y-57738184D01*
X80347000Y-57905816D01*
X80314297Y-58070228D01*
X80250147Y-58225100D01*
X80157015Y-58364481D01*
X80038481Y-58483015D01*
X79899100Y-58576147D01*
X79744228Y-58640297D01*
X79579816Y-58673000D01*
X79412184Y-58673000D01*
X79247772Y-58640297D01*
X79092900Y-58576147D01*
X78953519Y-58483015D01*
X78834985Y-58364481D01*
X78741853Y-58225100D01*
X78677703Y-58070228D01*
X78645000Y-57905816D01*
X78645000Y-57738184D01*
X78677703Y-57573772D01*
X78741853Y-57418900D01*
X78834985Y-57279519D01*
X78953519Y-57160985D01*
X79092900Y-57067853D01*
X79247772Y-57003703D01*
X79412184Y-56971000D01*
X79579816Y-56971000D01*
X79744228Y-57003703D01*
X79744228Y-57003703D01*
G37*
G36*
X150047823Y-54523313D02*
G01*
X150208242Y-54571976D01*
X150275361Y-54607852D01*
X150356078Y-54650996D01*
X150485659Y-54757341D01*
X150592004Y-54886922D01*
X150592005Y-54886924D01*
X150671024Y-55034758D01*
X150719687Y-55195177D01*
X150736117Y-55362000D01*
X150719687Y-55528823D01*
X150671024Y-55689242D01*
X150630477Y-55765100D01*
X150592004Y-55837078D01*
X150485659Y-55966659D01*
X150356078Y-56073004D01*
X150356076Y-56073005D01*
X150208242Y-56152024D01*
X150047823Y-56200687D01*
X149922804Y-56213000D01*
X149839196Y-56213000D01*
X149714177Y-56200687D01*
X149553758Y-56152024D01*
X149405924Y-56073005D01*
X149405922Y-56073004D01*
X149276341Y-55966659D01*
X149169996Y-55837078D01*
X149131523Y-55765100D01*
X149090976Y-55689242D01*
X149042313Y-55528823D01*
X149025883Y-55362000D01*
X149042313Y-55195177D01*
X149090976Y-55034758D01*
X149169995Y-54886924D01*
X149169996Y-54886922D01*
X149276341Y-54757341D01*
X149405922Y-54650996D01*
X149486639Y-54607852D01*
X149553758Y-54571976D01*
X149714177Y-54523313D01*
X149839196Y-54511000D01*
X149922804Y-54511000D01*
X150047823Y-54523313D01*
X150047823Y-54523313D01*
G37*
G36*
X139969228Y-54543703D02*
G01*
X140124100Y-54607853D01*
X140263481Y-54700985D01*
X140382015Y-54819519D01*
X140475147Y-54958900D01*
X140539297Y-55113772D01*
X140572000Y-55278184D01*
X140572000Y-55445816D01*
X140539297Y-55610228D01*
X140475147Y-55765100D01*
X140382015Y-55904481D01*
X140263481Y-56023015D01*
X140124100Y-56116147D01*
X139969228Y-56180297D01*
X139804816Y-56213000D01*
X139637184Y-56213000D01*
X139472772Y-56180297D01*
X139317900Y-56116147D01*
X139178519Y-56023015D01*
X139059985Y-55904481D01*
X138966853Y-55765100D01*
X138902703Y-55610228D01*
X138870000Y-55445816D01*
X138870000Y-55278184D01*
X138902703Y-55113772D01*
X138966853Y-54958900D01*
X139059985Y-54819519D01*
X139178519Y-54700985D01*
X139317900Y-54607853D01*
X139472772Y-54543703D01*
X139637184Y-54511000D01*
X139804816Y-54511000D01*
X139969228Y-54543703D01*
X139969228Y-54543703D01*
G37*
G36*
X101969228Y-54543703D02*
G01*
X102124100Y-54607853D01*
X102263481Y-54700985D01*
X102382015Y-54819519D01*
X102475147Y-54958900D01*
X102539297Y-55113772D01*
X102572000Y-55278184D01*
X102572000Y-55445816D01*
X102539297Y-55610228D01*
X102475147Y-55765100D01*
X102382015Y-55904481D01*
X102263481Y-56023015D01*
X102124100Y-56116147D01*
X101969228Y-56180297D01*
X101804816Y-56213000D01*
X101637184Y-56213000D01*
X101472772Y-56180297D01*
X101317900Y-56116147D01*
X101178519Y-56023015D01*
X101059985Y-55904481D01*
X100966853Y-55765100D01*
X100902703Y-55610228D01*
X100870000Y-55445816D01*
X100870000Y-55278184D01*
X100902703Y-55113772D01*
X100966853Y-54958900D01*
X101059985Y-54819519D01*
X101178519Y-54700985D01*
X101317900Y-54607853D01*
X101472772Y-54543703D01*
X101637184Y-54511000D01*
X101804816Y-54511000D01*
X101969228Y-54543703D01*
X101969228Y-54543703D01*
G37*
G36*
X112047823Y-54523313D02*
G01*
X112208242Y-54571976D01*
X112275361Y-54607852D01*
X112356078Y-54650996D01*
X112485659Y-54757341D01*
X112592004Y-54886922D01*
X112592005Y-54886924D01*
X112671024Y-55034758D01*
X112719687Y-55195177D01*
X112736117Y-55362000D01*
X112719687Y-55528823D01*
X112671024Y-55689242D01*
X112630477Y-55765100D01*
X112592004Y-55837078D01*
X112485659Y-55966659D01*
X112356078Y-56073004D01*
X112356076Y-56073005D01*
X112208242Y-56152024D01*
X112047823Y-56200687D01*
X111922804Y-56213000D01*
X111839196Y-56213000D01*
X111714177Y-56200687D01*
X111553758Y-56152024D01*
X111405924Y-56073005D01*
X111405922Y-56073004D01*
X111276341Y-55966659D01*
X111169996Y-55837078D01*
X111131523Y-55765100D01*
X111090976Y-55689242D01*
X111042313Y-55528823D01*
X111025883Y-55362000D01*
X111042313Y-55195177D01*
X111090976Y-55034758D01*
X111169995Y-54886924D01*
X111169996Y-54886922D01*
X111276341Y-54757341D01*
X111405922Y-54650996D01*
X111486639Y-54607852D01*
X111553758Y-54571976D01*
X111714177Y-54523313D01*
X111839196Y-54511000D01*
X111922804Y-54511000D01*
X112047823Y-54523313D01*
X112047823Y-54523313D01*
G37*
G36*
X79744228Y-52003703D02*
G01*
X79899100Y-52067853D01*
X80038481Y-52160985D01*
X80157015Y-52279519D01*
X80250147Y-52418900D01*
X80314297Y-52573772D01*
X80347000Y-52738184D01*
X80347000Y-52905816D01*
X80314297Y-53070228D01*
X80250147Y-53225100D01*
X80157015Y-53364481D01*
X80038481Y-53483015D01*
X79899100Y-53576147D01*
X79744228Y-53640297D01*
X79579816Y-53673000D01*
X79412184Y-53673000D01*
X79247772Y-53640297D01*
X79092900Y-53576147D01*
X78953519Y-53483015D01*
X78834985Y-53364481D01*
X78741853Y-53225100D01*
X78677703Y-53070228D01*
X78645000Y-52905816D01*
X78645000Y-52738184D01*
X78677703Y-52573772D01*
X78741853Y-52418900D01*
X78834985Y-52279519D01*
X78953519Y-52160985D01*
X79092900Y-52067853D01*
X79247772Y-52003703D01*
X79412184Y-51971000D01*
X79579816Y-51971000D01*
X79744228Y-52003703D01*
X79744228Y-52003703D01*
G37*
G36*
X117744228Y-52003703D02*
G01*
X117899100Y-52067853D01*
X118038481Y-52160985D01*
X118157015Y-52279519D01*
X118250147Y-52418900D01*
X118314297Y-52573772D01*
X118347000Y-52738184D01*
X118347000Y-52905816D01*
X118314297Y-53070228D01*
X118250147Y-53225100D01*
X118157015Y-53364481D01*
X118038481Y-53483015D01*
X117899100Y-53576147D01*
X117744228Y-53640297D01*
X117579816Y-53673000D01*
X117412184Y-53673000D01*
X117247772Y-53640297D01*
X117092900Y-53576147D01*
X116953519Y-53483015D01*
X116834985Y-53364481D01*
X116741853Y-53225100D01*
X116677703Y-53070228D01*
X116645000Y-52905816D01*
X116645000Y-52738184D01*
X116677703Y-52573772D01*
X116741853Y-52418900D01*
X116834985Y-52279519D01*
X116953519Y-52160985D01*
X117092900Y-52067853D01*
X117247772Y-52003703D01*
X117412184Y-51971000D01*
X117579816Y-51971000D01*
X117744228Y-52003703D01*
X117744228Y-52003703D01*
G37*
G36*
X150049228Y-50733703D02*
G01*
X150204100Y-50797853D01*
X150343481Y-50890985D01*
X150462015Y-51009519D01*
X150555147Y-51148900D01*
X150619297Y-51303772D01*
X150652000Y-51468184D01*
X150652000Y-51635816D01*
X150619297Y-51800228D01*
X150555147Y-51955100D01*
X150462015Y-52094481D01*
X150343481Y-52213015D01*
X150204100Y-52306147D01*
X150049228Y-52370297D01*
X149884816Y-52403000D01*
X149717184Y-52403000D01*
X149552772Y-52370297D01*
X149397900Y-52306147D01*
X149258519Y-52213015D01*
X149139985Y-52094481D01*
X149046853Y-51955100D01*
X148982703Y-51800228D01*
X148950000Y-51635816D01*
X148950000Y-51468184D01*
X148982703Y-51303772D01*
X149046853Y-51148900D01*
X149139985Y-51009519D01*
X149258519Y-50890985D01*
X149397900Y-50797853D01*
X149552772Y-50733703D01*
X149717184Y-50701000D01*
X149884816Y-50701000D01*
X150049228Y-50733703D01*
X150049228Y-50733703D01*
G37*
G36*
X145049228Y-50733703D02*
G01*
X145204100Y-50797853D01*
X145343481Y-50890985D01*
X145462015Y-51009519D01*
X145555147Y-51148900D01*
X145619297Y-51303772D01*
X145652000Y-51468184D01*
X145652000Y-51635816D01*
X145619297Y-51800228D01*
X145555147Y-51955100D01*
X145462015Y-52094481D01*
X145343481Y-52213015D01*
X145204100Y-52306147D01*
X145049228Y-52370297D01*
X144884816Y-52403000D01*
X144717184Y-52403000D01*
X144552772Y-52370297D01*
X144397900Y-52306147D01*
X144258519Y-52213015D01*
X144139985Y-52094481D01*
X144046853Y-51955100D01*
X143982703Y-51800228D01*
X143950000Y-51635816D01*
X143950000Y-51468184D01*
X143982703Y-51303772D01*
X144046853Y-51148900D01*
X144139985Y-51009519D01*
X144258519Y-50890985D01*
X144397900Y-50797853D01*
X144552772Y-50733703D01*
X144717184Y-50701000D01*
X144884816Y-50701000D01*
X145049228Y-50733703D01*
X145049228Y-50733703D01*
G37*
G36*
X112049228Y-50733703D02*
G01*
X112204100Y-50797853D01*
X112343481Y-50890985D01*
X112462015Y-51009519D01*
X112555147Y-51148900D01*
X112619297Y-51303772D01*
X112652000Y-51468184D01*
X112652000Y-51635816D01*
X112619297Y-51800228D01*
X112555147Y-51955100D01*
X112462015Y-52094481D01*
X112343481Y-52213015D01*
X112204100Y-52306147D01*
X112049228Y-52370297D01*
X111884816Y-52403000D01*
X111717184Y-52403000D01*
X111552772Y-52370297D01*
X111397900Y-52306147D01*
X111258519Y-52213015D01*
X111139985Y-52094481D01*
X111046853Y-51955100D01*
X110982703Y-51800228D01*
X110950000Y-51635816D01*
X110950000Y-51468184D01*
X110982703Y-51303772D01*
X111046853Y-51148900D01*
X111139985Y-51009519D01*
X111258519Y-50890985D01*
X111397900Y-50797853D01*
X111552772Y-50733703D01*
X111717184Y-50701000D01*
X111884816Y-50701000D01*
X112049228Y-50733703D01*
X112049228Y-50733703D01*
G37*
G36*
X107049228Y-50733703D02*
G01*
X107204100Y-50797853D01*
X107343481Y-50890985D01*
X107462015Y-51009519D01*
X107555147Y-51148900D01*
X107619297Y-51303772D01*
X107652000Y-51468184D01*
X107652000Y-51635816D01*
X107619297Y-51800228D01*
X107555147Y-51955100D01*
X107462015Y-52094481D01*
X107343481Y-52213015D01*
X107204100Y-52306147D01*
X107049228Y-52370297D01*
X106884816Y-52403000D01*
X106717184Y-52403000D01*
X106552772Y-52370297D01*
X106397900Y-52306147D01*
X106258519Y-52213015D01*
X106139985Y-52094481D01*
X106046853Y-51955100D01*
X105982703Y-51800228D01*
X105950000Y-51635816D01*
X105950000Y-51468184D01*
X105982703Y-51303772D01*
X106046853Y-51148900D01*
X106139985Y-51009519D01*
X106258519Y-50890985D01*
X106397900Y-50797853D01*
X106552772Y-50733703D01*
X106717184Y-50701000D01*
X106884816Y-50701000D01*
X107049228Y-50733703D01*
X107049228Y-50733703D01*
G37*
G36*
X135959585Y-44696802D02*
G01*
X136109410Y-44726604D01*
X136391674Y-44843521D01*
X136645705Y-45013259D01*
X136861741Y-45229295D01*
X137031479Y-45483326D01*
X137148396Y-45765590D01*
X137208000Y-46065240D01*
X137208000Y-46370760D01*
X137148396Y-46670410D01*
X137031479Y-46952674D01*
X136861741Y-47206705D01*
X136645705Y-47422741D01*
X136391674Y-47592479D01*
X136109410Y-47709396D01*
X135959585Y-47739198D01*
X135809761Y-47769000D01*
X135504239Y-47769000D01*
X135354415Y-47739198D01*
X135204590Y-47709396D01*
X134922326Y-47592479D01*
X134668295Y-47422741D01*
X134452259Y-47206705D01*
X134282521Y-46952674D01*
X134165604Y-46670410D01*
X134106000Y-46370760D01*
X134106000Y-46065240D01*
X134165604Y-45765590D01*
X134282521Y-45483326D01*
X134452259Y-45229295D01*
X134668295Y-45013259D01*
X134922326Y-44843521D01*
X135204590Y-44726604D01*
X135354415Y-44696802D01*
X135504239Y-44667000D01*
X135809761Y-44667000D01*
X135959585Y-44696802D01*
X135959585Y-44696802D01*
G37*
G36*
X131514585Y-44696802D02*
G01*
X131664410Y-44726604D01*
X131946674Y-44843521D01*
X132200705Y-45013259D01*
X132416741Y-45229295D01*
X132586479Y-45483326D01*
X132703396Y-45765590D01*
X132763000Y-46065240D01*
X132763000Y-46370760D01*
X132703396Y-46670410D01*
X132586479Y-46952674D01*
X132416741Y-47206705D01*
X132200705Y-47422741D01*
X131946674Y-47592479D01*
X131664410Y-47709396D01*
X131514585Y-47739198D01*
X131364761Y-47769000D01*
X131059239Y-47769000D01*
X130909415Y-47739198D01*
X130759590Y-47709396D01*
X130477326Y-47592479D01*
X130223295Y-47422741D01*
X130007259Y-47206705D01*
X129837521Y-46952674D01*
X129720604Y-46670410D01*
X129661000Y-46370760D01*
X129661000Y-46065240D01*
X129720604Y-45765590D01*
X129837521Y-45483326D01*
X130007259Y-45229295D01*
X130223295Y-45013259D01*
X130477326Y-44843521D01*
X130759590Y-44726604D01*
X130909415Y-44696802D01*
X131059239Y-44667000D01*
X131364761Y-44667000D01*
X131514585Y-44696802D01*
X131514585Y-44696802D01*
G37*
G36*
X126434585Y-44696802D02*
G01*
X126584410Y-44726604D01*
X126866674Y-44843521D01*
X127120705Y-45013259D01*
X127336741Y-45229295D01*
X127506479Y-45483326D01*
X127623396Y-45765590D01*
X127683000Y-46065240D01*
X127683000Y-46370760D01*
X127623396Y-46670410D01*
X127506479Y-46952674D01*
X127336741Y-47206705D01*
X127120705Y-47422741D01*
X126866674Y-47592479D01*
X126584410Y-47709396D01*
X126434585Y-47739198D01*
X126284761Y-47769000D01*
X125979239Y-47769000D01*
X125829415Y-47739198D01*
X125679590Y-47709396D01*
X125397326Y-47592479D01*
X125143295Y-47422741D01*
X124927259Y-47206705D01*
X124757521Y-46952674D01*
X124640604Y-46670410D01*
X124581000Y-46370760D01*
X124581000Y-46065240D01*
X124640604Y-45765590D01*
X124757521Y-45483326D01*
X124927259Y-45229295D01*
X125143295Y-45013259D01*
X125397326Y-44843521D01*
X125679590Y-44726604D01*
X125829415Y-44696802D01*
X125979239Y-44667000D01*
X126284761Y-44667000D01*
X126434585Y-44696802D01*
X126434585Y-44696802D01*
G37*
G36*
X121989585Y-44696802D02*
G01*
X122139410Y-44726604D01*
X122421674Y-44843521D01*
X122675705Y-45013259D01*
X122891741Y-45229295D01*
X123061479Y-45483326D01*
X123178396Y-45765590D01*
X123238000Y-46065240D01*
X123238000Y-46370760D01*
X123178396Y-46670410D01*
X123061479Y-46952674D01*
X122891741Y-47206705D01*
X122675705Y-47422741D01*
X122421674Y-47592479D01*
X122139410Y-47709396D01*
X121989585Y-47739198D01*
X121839761Y-47769000D01*
X121534239Y-47769000D01*
X121384415Y-47739198D01*
X121234590Y-47709396D01*
X120952326Y-47592479D01*
X120698295Y-47422741D01*
X120482259Y-47206705D01*
X120312521Y-46952674D01*
X120195604Y-46670410D01*
X120136000Y-46370760D01*
X120136000Y-46065240D01*
X120195604Y-45765590D01*
X120312521Y-45483326D01*
X120482259Y-45229295D01*
X120698295Y-45013259D01*
X120952326Y-44843521D01*
X121234590Y-44726604D01*
X121384415Y-44696802D01*
X121534239Y-44667000D01*
X121839761Y-44667000D01*
X121989585Y-44696802D01*
X121989585Y-44696802D01*
G37*
G36*
X117544585Y-44696802D02*
G01*
X117694410Y-44726604D01*
X117976674Y-44843521D01*
X118230705Y-45013259D01*
X118446741Y-45229295D01*
X118616479Y-45483326D01*
X118733396Y-45765590D01*
X118793000Y-46065240D01*
X118793000Y-46370760D01*
X118733396Y-46670410D01*
X118616479Y-46952674D01*
X118446741Y-47206705D01*
X118230705Y-47422741D01*
X117976674Y-47592479D01*
X117694410Y-47709396D01*
X117544585Y-47739198D01*
X117394761Y-47769000D01*
X117089239Y-47769000D01*
X116939415Y-47739198D01*
X116789590Y-47709396D01*
X116507326Y-47592479D01*
X116253295Y-47422741D01*
X116037259Y-47206705D01*
X115867521Y-46952674D01*
X115750604Y-46670410D01*
X115691000Y-46370760D01*
X115691000Y-46065240D01*
X115750604Y-45765590D01*
X115867521Y-45483326D01*
X116037259Y-45229295D01*
X116253295Y-45013259D01*
X116507326Y-44843521D01*
X116789590Y-44726604D01*
X116939415Y-44696802D01*
X117089239Y-44667000D01*
X117394761Y-44667000D01*
X117544585Y-44696802D01*
X117544585Y-44696802D01*
G37*
G36*
X111929585Y-44696802D02*
G01*
X112079410Y-44726604D01*
X112361674Y-44843521D01*
X112615705Y-45013259D01*
X112831741Y-45229295D01*
X113001479Y-45483326D01*
X113118396Y-45765590D01*
X113178000Y-46065240D01*
X113178000Y-46370760D01*
X113118396Y-46670410D01*
X113001479Y-46952674D01*
X112831741Y-47206705D01*
X112615705Y-47422741D01*
X112361674Y-47592479D01*
X112079410Y-47709396D01*
X111929585Y-47739198D01*
X111779761Y-47769000D01*
X111474239Y-47769000D01*
X111324415Y-47739198D01*
X111174590Y-47709396D01*
X110892326Y-47592479D01*
X110638295Y-47422741D01*
X110422259Y-47206705D01*
X110252521Y-46952674D01*
X110135604Y-46670410D01*
X110076000Y-46370760D01*
X110076000Y-46065240D01*
X110135604Y-45765590D01*
X110252521Y-45483326D01*
X110422259Y-45229295D01*
X110638295Y-45013259D01*
X110892326Y-44843521D01*
X111174590Y-44726604D01*
X111324415Y-44696802D01*
X111474239Y-44667000D01*
X111779761Y-44667000D01*
X111929585Y-44696802D01*
X111929585Y-44696802D01*
G37*
G36*
X107484585Y-44696802D02*
G01*
X107634410Y-44726604D01*
X107916674Y-44843521D01*
X108170705Y-45013259D01*
X108386741Y-45229295D01*
X108556479Y-45483326D01*
X108673396Y-45765590D01*
X108733000Y-46065240D01*
X108733000Y-46370760D01*
X108673396Y-46670410D01*
X108556479Y-46952674D01*
X108386741Y-47206705D01*
X108170705Y-47422741D01*
X107916674Y-47592479D01*
X107634410Y-47709396D01*
X107484585Y-47739198D01*
X107334761Y-47769000D01*
X107029239Y-47769000D01*
X106879415Y-47739198D01*
X106729590Y-47709396D01*
X106447326Y-47592479D01*
X106193295Y-47422741D01*
X105977259Y-47206705D01*
X105807521Y-46952674D01*
X105690604Y-46670410D01*
X105631000Y-46370760D01*
X105631000Y-46065240D01*
X105690604Y-45765590D01*
X105807521Y-45483326D01*
X105977259Y-45229295D01*
X106193295Y-45013259D01*
X106447326Y-44843521D01*
X106729590Y-44726604D01*
X106879415Y-44696802D01*
X107029239Y-44667000D01*
X107334761Y-44667000D01*
X107484585Y-44696802D01*
X107484585Y-44696802D01*
G37*
G36*
X141039585Y-44696802D02*
G01*
X141189410Y-44726604D01*
X141471674Y-44843521D01*
X141725705Y-45013259D01*
X141941741Y-45229295D01*
X142111479Y-45483326D01*
X142228396Y-45765590D01*
X142288000Y-46065240D01*
X142288000Y-46370760D01*
X142228396Y-46670410D01*
X142111479Y-46952674D01*
X141941741Y-47206705D01*
X141725705Y-47422741D01*
X141471674Y-47592479D01*
X141189410Y-47709396D01*
X141039585Y-47739198D01*
X140889761Y-47769000D01*
X140584239Y-47769000D01*
X140434415Y-47739198D01*
X140284590Y-47709396D01*
X140002326Y-47592479D01*
X139748295Y-47422741D01*
X139532259Y-47206705D01*
X139362521Y-46952674D01*
X139245604Y-46670410D01*
X139186000Y-46370760D01*
X139186000Y-46065240D01*
X139245604Y-45765590D01*
X139362521Y-45483326D01*
X139532259Y-45229295D01*
X139748295Y-45013259D01*
X140002326Y-44843521D01*
X140284590Y-44726604D01*
X140434415Y-44696802D01*
X140584239Y-44667000D01*
X140889761Y-44667000D01*
X141039585Y-44696802D01*
X141039585Y-44696802D01*
G37*
G36*
X145484585Y-44696802D02*
G01*
X145634410Y-44726604D01*
X145916674Y-44843521D01*
X146170705Y-45013259D01*
X146386741Y-45229295D01*
X146556479Y-45483326D01*
X146673396Y-45765590D01*
X146733000Y-46065240D01*
X146733000Y-46370760D01*
X146673396Y-46670410D01*
X146556479Y-46952674D01*
X146386741Y-47206705D01*
X146170705Y-47422741D01*
X145916674Y-47592479D01*
X145634410Y-47709396D01*
X145484585Y-47739198D01*
X145334761Y-47769000D01*
X145029239Y-47769000D01*
X144879415Y-47739198D01*
X144729590Y-47709396D01*
X144447326Y-47592479D01*
X144193295Y-47422741D01*
X143977259Y-47206705D01*
X143807521Y-46952674D01*
X143690604Y-46670410D01*
X143631000Y-46370760D01*
X143631000Y-46065240D01*
X143690604Y-45765590D01*
X143807521Y-45483326D01*
X143977259Y-45229295D01*
X144193295Y-45013259D01*
X144447326Y-44843521D01*
X144729590Y-44726604D01*
X144879415Y-44696802D01*
X145029239Y-44667000D01*
X145334761Y-44667000D01*
X145484585Y-44696802D01*
X145484585Y-44696802D01*
G37*
G36*
X93514585Y-44696802D02*
G01*
X93664410Y-44726604D01*
X93946674Y-44843521D01*
X94200705Y-45013259D01*
X94416741Y-45229295D01*
X94586479Y-45483326D01*
X94703396Y-45765590D01*
X94763000Y-46065240D01*
X94763000Y-46370760D01*
X94703396Y-46670410D01*
X94586479Y-46952674D01*
X94416741Y-47206705D01*
X94200705Y-47422741D01*
X93946674Y-47592479D01*
X93664410Y-47709396D01*
X93514585Y-47739198D01*
X93364761Y-47769000D01*
X93059239Y-47769000D01*
X92909415Y-47739198D01*
X92759590Y-47709396D01*
X92477326Y-47592479D01*
X92223295Y-47422741D01*
X92007259Y-47206705D01*
X91837521Y-46952674D01*
X91720604Y-46670410D01*
X91661000Y-46370760D01*
X91661000Y-46065240D01*
X91720604Y-45765590D01*
X91837521Y-45483326D01*
X92007259Y-45229295D01*
X92223295Y-45013259D01*
X92477326Y-44843521D01*
X92759590Y-44726604D01*
X92909415Y-44696802D01*
X93059239Y-44667000D01*
X93364761Y-44667000D01*
X93514585Y-44696802D01*
X93514585Y-44696802D01*
G37*
G36*
X103039585Y-44696802D02*
G01*
X103189410Y-44726604D01*
X103471674Y-44843521D01*
X103725705Y-45013259D01*
X103941741Y-45229295D01*
X104111479Y-45483326D01*
X104228396Y-45765590D01*
X104288000Y-46065240D01*
X104288000Y-46370760D01*
X104228396Y-46670410D01*
X104111479Y-46952674D01*
X103941741Y-47206705D01*
X103725705Y-47422741D01*
X103471674Y-47592479D01*
X103189410Y-47709396D01*
X103039585Y-47739198D01*
X102889761Y-47769000D01*
X102584239Y-47769000D01*
X102434415Y-47739198D01*
X102284590Y-47709396D01*
X102002326Y-47592479D01*
X101748295Y-47422741D01*
X101532259Y-47206705D01*
X101362521Y-46952674D01*
X101245604Y-46670410D01*
X101186000Y-46370760D01*
X101186000Y-46065240D01*
X101245604Y-45765590D01*
X101362521Y-45483326D01*
X101532259Y-45229295D01*
X101748295Y-45013259D01*
X102002326Y-44843521D01*
X102284590Y-44726604D01*
X102434415Y-44696802D01*
X102584239Y-44667000D01*
X102889761Y-44667000D01*
X103039585Y-44696802D01*
X103039585Y-44696802D01*
G37*
G36*
X79544585Y-44696802D02*
G01*
X79694410Y-44726604D01*
X79976674Y-44843521D01*
X80230705Y-45013259D01*
X80446741Y-45229295D01*
X80616479Y-45483326D01*
X80733396Y-45765590D01*
X80793000Y-46065240D01*
X80793000Y-46370760D01*
X80733396Y-46670410D01*
X80616479Y-46952674D01*
X80446741Y-47206705D01*
X80230705Y-47422741D01*
X79976674Y-47592479D01*
X79694410Y-47709396D01*
X79544585Y-47739198D01*
X79394761Y-47769000D01*
X79089239Y-47769000D01*
X78939415Y-47739198D01*
X78789590Y-47709396D01*
X78507326Y-47592479D01*
X78253295Y-47422741D01*
X78037259Y-47206705D01*
X77867521Y-46952674D01*
X77750604Y-46670410D01*
X77691000Y-46370760D01*
X77691000Y-46065240D01*
X77750604Y-45765590D01*
X77867521Y-45483326D01*
X78037259Y-45229295D01*
X78253295Y-45013259D01*
X78507326Y-44843521D01*
X78789590Y-44726604D01*
X78939415Y-44696802D01*
X79089239Y-44667000D01*
X79394761Y-44667000D01*
X79544585Y-44696802D01*
X79544585Y-44696802D01*
G37*
G36*
X83989585Y-44696802D02*
G01*
X84139410Y-44726604D01*
X84421674Y-44843521D01*
X84675705Y-45013259D01*
X84891741Y-45229295D01*
X85061479Y-45483326D01*
X85178396Y-45765590D01*
X85238000Y-46065240D01*
X85238000Y-46370760D01*
X85178396Y-46670410D01*
X85061479Y-46952674D01*
X84891741Y-47206705D01*
X84675705Y-47422741D01*
X84421674Y-47592479D01*
X84139410Y-47709396D01*
X83989585Y-47739198D01*
X83839761Y-47769000D01*
X83534239Y-47769000D01*
X83384415Y-47739198D01*
X83234590Y-47709396D01*
X82952326Y-47592479D01*
X82698295Y-47422741D01*
X82482259Y-47206705D01*
X82312521Y-46952674D01*
X82195604Y-46670410D01*
X82136000Y-46370760D01*
X82136000Y-46065240D01*
X82195604Y-45765590D01*
X82312521Y-45483326D01*
X82482259Y-45229295D01*
X82698295Y-45013259D01*
X82952326Y-44843521D01*
X83234590Y-44726604D01*
X83384415Y-44696802D01*
X83534239Y-44667000D01*
X83839761Y-44667000D01*
X83989585Y-44696802D01*
X83989585Y-44696802D01*
G37*
G36*
X88434585Y-44696802D02*
G01*
X88584410Y-44726604D01*
X88866674Y-44843521D01*
X89120705Y-45013259D01*
X89336741Y-45229295D01*
X89506479Y-45483326D01*
X89623396Y-45765590D01*
X89683000Y-46065240D01*
X89683000Y-46370760D01*
X89623396Y-46670410D01*
X89506479Y-46952674D01*
X89336741Y-47206705D01*
X89120705Y-47422741D01*
X88866674Y-47592479D01*
X88584410Y-47709396D01*
X88434585Y-47739198D01*
X88284761Y-47769000D01*
X87979239Y-47769000D01*
X87829415Y-47739198D01*
X87679590Y-47709396D01*
X87397326Y-47592479D01*
X87143295Y-47422741D01*
X86927259Y-47206705D01*
X86757521Y-46952674D01*
X86640604Y-46670410D01*
X86581000Y-46370760D01*
X86581000Y-46065240D01*
X86640604Y-45765590D01*
X86757521Y-45483326D01*
X86927259Y-45229295D01*
X87143295Y-45013259D01*
X87397326Y-44843521D01*
X87679590Y-44726604D01*
X87829415Y-44696802D01*
X87979239Y-44667000D01*
X88284761Y-44667000D01*
X88434585Y-44696802D01*
X88434585Y-44696802D01*
G37*
G36*
X97959585Y-44696802D02*
G01*
X98109410Y-44726604D01*
X98391674Y-44843521D01*
X98645705Y-45013259D01*
X98861741Y-45229295D01*
X99031479Y-45483326D01*
X99148396Y-45765590D01*
X99208000Y-46065240D01*
X99208000Y-46370760D01*
X99148396Y-46670410D01*
X99031479Y-46952674D01*
X98861741Y-47206705D01*
X98645705Y-47422741D01*
X98391674Y-47592479D01*
X98109410Y-47709396D01*
X97959585Y-47739198D01*
X97809761Y-47769000D01*
X97504239Y-47769000D01*
X97354415Y-47739198D01*
X97204590Y-47709396D01*
X96922326Y-47592479D01*
X96668295Y-47422741D01*
X96452259Y-47206705D01*
X96282521Y-46952674D01*
X96165604Y-46670410D01*
X96106000Y-46370760D01*
X96106000Y-46065240D01*
X96165604Y-45765590D01*
X96282521Y-45483326D01*
X96452259Y-45229295D01*
X96668295Y-45013259D01*
X96922326Y-44843521D01*
X97204590Y-44726604D01*
X97354415Y-44696802D01*
X97504239Y-44667000D01*
X97809761Y-44667000D01*
X97959585Y-44696802D01*
X97959585Y-44696802D01*
G37*
G36*
X149929585Y-44696802D02*
G01*
X150079410Y-44726604D01*
X150361674Y-44843521D01*
X150615705Y-45013259D01*
X150831741Y-45229295D01*
X151001479Y-45483326D01*
X151118396Y-45765590D01*
X151178000Y-46065240D01*
X151178000Y-46370760D01*
X151118396Y-46670410D01*
X151001479Y-46952674D01*
X150831741Y-47206705D01*
X150615705Y-47422741D01*
X150361674Y-47592479D01*
X150079410Y-47709396D01*
X149929585Y-47739198D01*
X149779761Y-47769000D01*
X149474239Y-47769000D01*
X149324415Y-47739198D01*
X149174590Y-47709396D01*
X148892326Y-47592479D01*
X148638295Y-47422741D01*
X148422259Y-47206705D01*
X148252521Y-46952674D01*
X148135604Y-46670410D01*
X148076000Y-46370760D01*
X148076000Y-46065240D01*
X148135604Y-45765590D01*
X148252521Y-45483326D01*
X148422259Y-45229295D01*
X148638295Y-45013259D01*
X148892326Y-44843521D01*
X149174590Y-44726604D01*
X149324415Y-44696802D01*
X149474239Y-44667000D01*
X149779761Y-44667000D01*
X149929585Y-44696802D01*
X149929585Y-44696802D01*
G37*
M02*
