M48
; DRILL file {KiCad (5.1.2-1)-1} date 2019年11月28日 木曜日 17:53:59
; FORMAT={-:-/ absolute / inch / decimal}
; #@! TF.CreationDate,2019-11-28T17:53:59+09:00
; #@! TF.GenerationSoftware,Kicad,Pcbnew,(5.1.2-1)-1
; #@! TF.FileFunction,Plated,1,2,PTH
FMAT,2
INCH
T1C0.0157
T2C0.0276
T3C0.0315
T4C0.0433
T5C0.0472
T6C0.0591
%
G90
G05
T1
X3.0472Y-2.5551
X3.0472Y-4.0512
X3.0598Y-1.9496
X3.0598Y-2.1796
X3.0598Y-3.4457
X3.0598Y-3.6757
X3.0669Y-3.1161
X3.0669Y-4.6122
X3.1555Y-2.5059
X3.1555Y-4.002
X3.1949Y-2.7028
X3.1949Y-4.1988
X3.1998Y-1.9546
X3.1998Y-2.1596
X3.1998Y-3.1596
X3.1998Y-3.4507
X3.1998Y-3.6557
X3.1998Y-4.6557
X3.2648Y-2.5646
X3.2648Y-4.0607
X3.3098Y-2.9246
X3.3098Y-4.4207
X3.3298Y-2.2696
X3.3298Y-3.7657
X3.4213Y-2.5256
X3.4213Y-4.0217
X3.4248Y-1.9846
X3.4248Y-3.1596
X3.4248Y-3.4807
X3.4248Y-4.6557
X3.5197Y-2.7028
X3.5197Y-4.1988
X3.5398Y-2.9246
X3.5398Y-4.4207
X3.5498Y-2.3046
X3.5498Y-3.8007
X3.5689Y-1.9154
X3.5689Y-3.4114
X3.5886Y-2.0925
X3.5886Y-3.5886
X3.6398Y-3.1596
X3.6398Y-4.6557
X3.6648Y-2.6096
X3.6648Y-4.1057
X3.7067Y-2.4862
X3.7067Y-3.9823
X3.7657Y-2.063
X3.7657Y-3.5591
X3.7675Y-1.7469
X3.7675Y-3.243
X3.8051Y-2.6929
X3.8051Y-4.189
X3.8248Y-3.1457
X3.8248Y-4.6417
X3.8348Y-1.9846
X3.8348Y-3.4807
X3.8839Y-2.8504
X3.8839Y-4.3465
X3.8937Y-2.0925
X3.8937Y-3.5886
X3.8948Y-2.5696
X3.8948Y-4.0657
X3.9035Y-3.0472
X3.9035Y-4.5433
X3.9248Y-2.3046
X3.9248Y-3.8007
X3.9798Y-3.1596
X3.9798Y-4.6557
X4.0448Y-2.0046
X4.0448Y-3.5007
X4.0709Y-2.2795
X4.0709Y-3.7756
X4.0807Y-3.0669
X4.0807Y-4.563
X4.1004Y-2.7913
X4.1004Y-4.2874
X4.1201Y-2.5256
X4.1201Y-4.0217
X4.1299Y-1.7579
X4.1299Y-3.2539
X4.1693Y-1.935
X4.1693Y-3.4311
X4.1698Y-2.1796
X4.1698Y-3.6757
X4.1748Y-2.6596
X4.1748Y-2.9246
X4.1748Y-4.1557
X4.1748Y-4.4207
X4.1898Y-3.1496
X4.1898Y-4.6457
X4.248Y-2.8012
X4.248Y-4.2972
X4.2677Y-3.0472
X4.2677Y-4.5433
X4.3048Y-2.0896
X4.3048Y-3.5857
X4.3098Y-1.9346
X4.3098Y-3.4307
X4.3848Y-3.1546
X4.3848Y-4.6507
X4.4055Y-2.2894
X4.4055Y-3.7854
X4.4148Y-2.5646
X4.4148Y-4.0607
X4.4449Y-3.0768
X4.4449Y-4.5728
X4.5433Y-2.5551
X4.5433Y-4.0512
X4.5558Y-1.9496
X4.5558Y-2.1796
X4.5558Y-3.4457
X4.5558Y-3.6757
X4.563Y-3.1161
X4.563Y-4.6122
X4.6516Y-2.5059
X4.6516Y-4.002
X4.6909Y-2.7028
X4.6909Y-4.1988
X4.6958Y-1.9546
X4.6958Y-2.1596
X4.6958Y-3.1596
X4.6958Y-3.4507
X4.6958Y-3.6557
X4.6958Y-4.6557
X4.7608Y-2.5646
X4.7608Y-4.0607
X4.8058Y-2.9246
X4.8058Y-4.4207
X4.8258Y-2.2696
X4.8258Y-3.7657
X4.9173Y-2.5256
X4.9173Y-4.0217
X4.9208Y-1.9846
X4.9208Y-3.1596
X4.9208Y-3.4807
X4.9208Y-4.6557
X5.0157Y-2.7028
X5.0157Y-4.1988
X5.0358Y-2.9246
X5.0358Y-4.4207
X5.0458Y-2.3046
X5.0458Y-3.8007
X5.065Y-1.9154
X5.065Y-3.4114
X5.0846Y-2.0925
X5.0846Y-3.5886
X5.1358Y-3.1596
X5.1358Y-4.6557
X5.1608Y-2.6096
X5.1608Y-4.1057
X5.2028Y-2.4862
X5.2028Y-3.9823
X5.2618Y-2.063
X5.2618Y-3.5591
X5.2635Y-1.7469
X5.2635Y-3.243
X5.3012Y-2.6929
X5.3012Y-4.189
X5.3209Y-3.1457
X5.3209Y-4.6417
X5.3308Y-1.9846
X5.3308Y-3.4807
X5.3799Y-2.8504
X5.3799Y-4.3465
X5.3898Y-2.0925
X5.3898Y-3.5886
X5.3908Y-2.5696
X5.3908Y-4.0657
X5.3996Y-3.0472
X5.3996Y-4.5433
X5.4208Y-2.3046
X5.4208Y-3.8007
X5.4758Y-3.1596
X5.4758Y-4.6557
X5.5408Y-2.0046
X5.5408Y-3.5007
X5.5669Y-2.2795
X5.5669Y-3.7756
X5.5768Y-3.0669
X5.5768Y-4.563
X5.5965Y-2.7913
X5.5965Y-4.2874
X5.6161Y-2.5256
X5.6161Y-4.0217
X5.626Y-1.7579
X5.626Y-3.2539
X5.6654Y-1.935
X5.6654Y-3.4311
X5.6658Y-2.1796
X5.6658Y-3.6757
X5.6708Y-2.6596
X5.6708Y-2.9246
X5.6708Y-4.1557
X5.6708Y-4.4207
X5.6858Y-3.1496
X5.6858Y-4.6457
X5.7441Y-2.8012
X5.7441Y-4.2972
X5.7638Y-3.0472
X5.7638Y-4.5433
X5.8008Y-2.0896
X5.8008Y-3.5857
X5.8058Y-1.9346
X5.8058Y-3.4307
X5.8808Y-3.1546
X5.8808Y-4.6507
X5.9016Y-2.2894
X5.9016Y-3.7854
X5.9108Y-2.5646
X5.9108Y-4.0607
X5.9409Y-3.0768
X5.9409Y-4.5728
T2
X4.8958Y-3.6757
X4.9458Y-3.7257
X4.9958Y-3.6757
X3.3998Y-3.6757
X3.4498Y-3.7257
X3.4998Y-3.6757
X4.8958Y-2.1796
X4.9458Y-2.2296
X4.9958Y-2.1796
X5.1758Y-3.6757
X5.2258Y-3.7257
X5.2758Y-3.6757
X3.6798Y-3.6757
X3.7298Y-3.7257
X3.7798Y-3.6757
X5.1758Y-2.1796
X5.2258Y-2.2296
X5.2758Y-2.1796
X3.3998Y-2.1796
X3.4498Y-2.2296
X3.4998Y-2.1796
X3.6798Y-2.1796
X3.7298Y-2.2296
X3.7798Y-2.1796
T3
X3.2798Y-3.9007
X3.2798Y-4.3007
X4.2048Y-3.5257
X4.4016Y-3.5257
X5.1374Y-4.5157
X5.2358Y-4.5157
X4.2048Y-2.0296
X4.4016Y-2.0296
X5.1374Y-3.0196
X5.2358Y-3.0196
X3.7798Y-2.4046
X3.7798Y-2.8046
X3.1298Y-3.5757
X3.1298Y-3.7725
X3.1298Y-2.4046
X3.1298Y-2.8046
X5.7008Y-2.0296
X5.8977Y-2.0296
X4.9258Y-3.9007
X4.9258Y-4.3007
X5.5008Y-2.1796
X5.9008Y-2.1796
X3.1298Y-2.0796
X3.1298Y-2.2765
X4.6258Y-3.5757
X4.6258Y-3.7725
X4.6258Y-2.0796
X4.6258Y-2.2765
X4.6258Y-3.9007
X4.6258Y-4.3007
X5.2758Y-3.9007
X5.2758Y-4.3007
X3.6413Y-3.0196
X3.7398Y-3.0196
X4.7758Y-2.4046
X4.7758Y-2.8046
X4.7758Y-3.9007
X4.7758Y-4.3007
X4.9258Y-2.4046
X4.9258Y-2.8046
X4.0048Y-2.1796
X4.4048Y-2.1796
X4.0048Y-3.6757
X4.4048Y-3.6757
X3.6413Y-4.5157
X3.7398Y-4.5157
X3.4298Y-2.4046
X3.4298Y-2.8046
X4.6258Y-2.4046
X4.6258Y-2.8046
X5.2758Y-2.4046
X5.2758Y-2.8046
X5.7008Y-3.5257
X5.8977Y-3.5257
X5.5008Y-3.6757
X5.9008Y-3.6757
X3.4298Y-3.9007
X3.4298Y-4.3007
X3.1298Y-3.9007
X3.1298Y-4.3007
X3.7798Y-3.9007
X3.7798Y-4.3007
X3.2798Y-2.4046
X3.2798Y-2.8046
T4
X5.1008Y-2.4046
X5.1008Y-2.8046
X3.6048Y-2.4046
X3.6048Y-2.8046
X5.1008Y-3.9007
X5.1008Y-4.3007
X3.6048Y-3.9007
X3.6048Y-4.3007
T5
X5.4758Y-2.7296
X5.8758Y-2.7296
X5.4758Y-4.4257
X5.8758Y-4.4257
X3.9798Y-4.2257
X4.3798Y-4.2257
X5.4758Y-4.2257
X5.8758Y-4.2257
X5.4758Y-2.9296
X5.8758Y-2.9296
X3.9798Y-2.7296
X4.3798Y-2.7296
X3.9798Y-2.9296
X4.3798Y-2.9296
X3.9798Y-4.4257
X4.3798Y-4.4257
T6
X3.8448Y-3.3157
X5.3408Y-3.3157
X4.2298Y-3.9107
X5.7158Y-1.8196
X4.2198Y-3.3157
X5.7158Y-3.3157
X5.5408Y-3.3157
X5.8908Y-1.8196
X5.7258Y-2.4146
X4.3948Y-3.3157
X5.8908Y-3.3157
X5.3408Y-1.8196
X4.9658Y-1.8196
X3.4698Y-3.3157
X5.1658Y-3.3157
X5.5408Y-1.8196
X4.0448Y-3.3157
X5.7258Y-3.9107
X5.9008Y-2.4146
X4.4048Y-2.4146
X4.4048Y-3.9107
X4.2298Y-2.4146
X5.9008Y-3.9107
X4.0548Y-2.4146
X3.8448Y-1.8196
X4.7908Y-3.3157
X3.6698Y-3.3157
X3.6698Y-1.8196
X3.1998Y-3.0196
X4.7908Y-1.8196
X3.4248Y-3.0196
X3.2948Y-3.3157
X4.6158Y-1.8196
X3.1198Y-3.3157
X5.1658Y-1.8196
X4.6158Y-3.3157
X4.2198Y-1.8196
X3.4698Y-1.8196
X4.0448Y-1.8196
X3.2948Y-1.8196
X3.1198Y-1.8196
X4.9208Y-3.0196
X4.3948Y-1.8196
X3.4248Y-4.5157
X4.9658Y-3.3157
X4.9208Y-4.5157
X5.5508Y-2.4146
X4.6958Y-4.5157
X4.0548Y-3.9107
X5.5508Y-3.9107
X4.6958Y-3.0196
X3.1998Y-4.5157
T0
M30
